G75*
G70*
%OFA0B0*%
%FSLAX24Y24*%
%IPPOS*%
%LPD*%
%AMOC8*
5,1,8,0,0,1.08239X$1,22.5*
%
%ADD10C,0.0000*%
%ADD11C,0.0060*%
%ADD12C,0.0040*%
%ADD13C,0.0098*%
%ADD14C,0.0030*%
%ADD15C,0.0020*%
%ADD16C,0.0050*%
%ADD17C,0.0080*%
%ADD18C,0.0160*%
%ADD19C,0.0039*%
%ADD20C,0.0025*%
%ADD21C,0.0098*%
%ADD22C,0.0100*%
%ADD23C,0.0176*%
%ADD24C,0.0250*%
%ADD25C,0.0010*%
D10*
X000950Y000139D02*
X000950Y039509D01*
X040320Y039509D01*
X040320Y000139D01*
X000950Y000139D01*
X001894Y001714D02*
X001896Y001764D01*
X001902Y001814D01*
X001912Y001863D01*
X001926Y001911D01*
X001943Y001958D01*
X001964Y002003D01*
X001989Y002047D01*
X002017Y002088D01*
X002049Y002127D01*
X002083Y002164D01*
X002120Y002198D01*
X002160Y002228D01*
X002202Y002255D01*
X002246Y002279D01*
X002292Y002300D01*
X002339Y002316D01*
X002387Y002329D01*
X002437Y002338D01*
X002486Y002343D01*
X002537Y002344D01*
X002587Y002341D01*
X002636Y002334D01*
X002685Y002323D01*
X002733Y002308D01*
X002779Y002290D01*
X002824Y002268D01*
X002867Y002242D01*
X002908Y002213D01*
X002947Y002181D01*
X002983Y002146D01*
X003015Y002108D01*
X003045Y002068D01*
X003072Y002025D01*
X003095Y001981D01*
X003114Y001935D01*
X003130Y001887D01*
X003142Y001838D01*
X003150Y001789D01*
X003154Y001739D01*
X003154Y001689D01*
X003150Y001639D01*
X003142Y001590D01*
X003130Y001541D01*
X003114Y001493D01*
X003095Y001447D01*
X003072Y001403D01*
X003045Y001360D01*
X003015Y001320D01*
X002983Y001282D01*
X002947Y001247D01*
X002908Y001215D01*
X002867Y001186D01*
X002824Y001160D01*
X002779Y001138D01*
X002733Y001120D01*
X002685Y001105D01*
X002636Y001094D01*
X002587Y001087D01*
X002537Y001084D01*
X002486Y001085D01*
X002437Y001090D01*
X002387Y001099D01*
X002339Y001112D01*
X002292Y001128D01*
X002246Y001149D01*
X002202Y001173D01*
X002160Y001200D01*
X002120Y001230D01*
X002083Y001264D01*
X002049Y001301D01*
X002017Y001340D01*
X001989Y001381D01*
X001964Y001425D01*
X001943Y001470D01*
X001926Y001517D01*
X001912Y001565D01*
X001902Y001614D01*
X001896Y001664D01*
X001894Y001714D01*
X011629Y007456D02*
X011629Y008322D01*
X012771Y008322D01*
X012771Y007456D01*
X011629Y007456D01*
X014089Y007437D02*
X014089Y008342D01*
X015310Y008342D01*
X015310Y007437D01*
X014089Y007437D01*
X017366Y008707D02*
X017366Y005321D01*
X018783Y005321D01*
X018783Y008707D01*
X017366Y008707D01*
X029770Y015814D02*
X029770Y019214D01*
X031630Y019214D01*
X031630Y015814D01*
X029770Y015814D01*
X038115Y001714D02*
X038117Y001764D01*
X038123Y001814D01*
X038133Y001863D01*
X038147Y001911D01*
X038164Y001958D01*
X038185Y002003D01*
X038210Y002047D01*
X038238Y002088D01*
X038270Y002127D01*
X038304Y002164D01*
X038341Y002198D01*
X038381Y002228D01*
X038423Y002255D01*
X038467Y002279D01*
X038513Y002300D01*
X038560Y002316D01*
X038608Y002329D01*
X038658Y002338D01*
X038707Y002343D01*
X038758Y002344D01*
X038808Y002341D01*
X038857Y002334D01*
X038906Y002323D01*
X038954Y002308D01*
X039000Y002290D01*
X039045Y002268D01*
X039088Y002242D01*
X039129Y002213D01*
X039168Y002181D01*
X039204Y002146D01*
X039236Y002108D01*
X039266Y002068D01*
X039293Y002025D01*
X039316Y001981D01*
X039335Y001935D01*
X039351Y001887D01*
X039363Y001838D01*
X039371Y001789D01*
X039375Y001739D01*
X039375Y001689D01*
X039371Y001639D01*
X039363Y001590D01*
X039351Y001541D01*
X039335Y001493D01*
X039316Y001447D01*
X039293Y001403D01*
X039266Y001360D01*
X039236Y001320D01*
X039204Y001282D01*
X039168Y001247D01*
X039129Y001215D01*
X039088Y001186D01*
X039045Y001160D01*
X039000Y001138D01*
X038954Y001120D01*
X038906Y001105D01*
X038857Y001094D01*
X038808Y001087D01*
X038758Y001084D01*
X038707Y001085D01*
X038658Y001090D01*
X038608Y001099D01*
X038560Y001112D01*
X038513Y001128D01*
X038467Y001149D01*
X038423Y001173D01*
X038381Y001200D01*
X038341Y001230D01*
X038304Y001264D01*
X038270Y001301D01*
X038238Y001340D01*
X038210Y001381D01*
X038185Y001425D01*
X038164Y001470D01*
X038147Y001517D01*
X038133Y001565D01*
X038123Y001614D01*
X038117Y001664D01*
X038115Y001714D01*
X029994Y030009D02*
X028655Y030009D01*
X028655Y031781D01*
X029994Y031781D01*
X029994Y030009D01*
X029804Y035813D02*
X029806Y035839D01*
X029812Y035865D01*
X029822Y035890D01*
X029835Y035913D01*
X029851Y035933D01*
X029871Y035951D01*
X029893Y035966D01*
X029916Y035978D01*
X029942Y035986D01*
X029968Y035990D01*
X029994Y035990D01*
X030020Y035986D01*
X030046Y035978D01*
X030070Y035966D01*
X030091Y035951D01*
X030111Y035933D01*
X030127Y035913D01*
X030140Y035890D01*
X030150Y035865D01*
X030156Y035839D01*
X030158Y035813D01*
X030156Y035787D01*
X030150Y035761D01*
X030140Y035736D01*
X030127Y035713D01*
X030111Y035693D01*
X030091Y035675D01*
X030069Y035660D01*
X030046Y035648D01*
X030020Y035640D01*
X029994Y035636D01*
X029968Y035636D01*
X029942Y035640D01*
X029916Y035648D01*
X029892Y035660D01*
X029871Y035675D01*
X029851Y035693D01*
X029835Y035713D01*
X029822Y035736D01*
X029812Y035761D01*
X029806Y035787D01*
X029804Y035813D01*
X028741Y035813D02*
X028743Y035839D01*
X028749Y035865D01*
X028759Y035890D01*
X028772Y035913D01*
X028788Y035933D01*
X028808Y035951D01*
X028830Y035966D01*
X028853Y035978D01*
X028879Y035986D01*
X028905Y035990D01*
X028931Y035990D01*
X028957Y035986D01*
X028983Y035978D01*
X029007Y035966D01*
X029028Y035951D01*
X029048Y035933D01*
X029064Y035913D01*
X029077Y035890D01*
X029087Y035865D01*
X029093Y035839D01*
X029095Y035813D01*
X029093Y035787D01*
X029087Y035761D01*
X029077Y035736D01*
X029064Y035713D01*
X029048Y035693D01*
X029028Y035675D01*
X029006Y035660D01*
X028983Y035648D01*
X028957Y035640D01*
X028931Y035636D01*
X028905Y035636D01*
X028879Y035640D01*
X028853Y035648D01*
X028829Y035660D01*
X028808Y035675D01*
X028788Y035693D01*
X028772Y035713D01*
X028759Y035736D01*
X028749Y035761D01*
X028743Y035787D01*
X028741Y035813D01*
X028131Y037718D02*
X028133Y037761D01*
X028139Y037803D01*
X028149Y037845D01*
X028162Y037886D01*
X028179Y037926D01*
X028200Y037963D01*
X028224Y037999D01*
X028251Y038032D01*
X028281Y038063D01*
X028314Y038091D01*
X028349Y038116D01*
X028386Y038137D01*
X028425Y038155D01*
X028465Y038169D01*
X028507Y038180D01*
X028549Y038187D01*
X028592Y038190D01*
X028635Y038189D01*
X028678Y038184D01*
X028720Y038175D01*
X028761Y038163D01*
X028801Y038147D01*
X028839Y038127D01*
X028875Y038104D01*
X028909Y038077D01*
X028941Y038048D01*
X028969Y038016D01*
X028995Y037981D01*
X029017Y037945D01*
X029036Y037906D01*
X029051Y037866D01*
X029063Y037825D01*
X029071Y037782D01*
X029075Y037739D01*
X029075Y037697D01*
X029071Y037654D01*
X029063Y037611D01*
X029051Y037570D01*
X029036Y037530D01*
X029017Y037491D01*
X028995Y037455D01*
X028969Y037420D01*
X028941Y037388D01*
X028909Y037359D01*
X028875Y037332D01*
X028839Y037309D01*
X028801Y037289D01*
X028761Y037273D01*
X028720Y037261D01*
X028678Y037252D01*
X028635Y037247D01*
X028592Y037246D01*
X028549Y037249D01*
X028507Y037256D01*
X028465Y037267D01*
X028425Y037281D01*
X028386Y037299D01*
X028349Y037320D01*
X028314Y037345D01*
X028281Y037373D01*
X028251Y037404D01*
X028224Y037437D01*
X028200Y037473D01*
X028179Y037510D01*
X028162Y037550D01*
X028149Y037591D01*
X028139Y037633D01*
X028133Y037675D01*
X028131Y037718D01*
X029824Y037718D02*
X029826Y037761D01*
X029832Y037803D01*
X029842Y037845D01*
X029855Y037886D01*
X029872Y037926D01*
X029893Y037963D01*
X029917Y037999D01*
X029944Y038032D01*
X029974Y038063D01*
X030007Y038091D01*
X030042Y038116D01*
X030079Y038137D01*
X030118Y038155D01*
X030158Y038169D01*
X030200Y038180D01*
X030242Y038187D01*
X030285Y038190D01*
X030328Y038189D01*
X030371Y038184D01*
X030413Y038175D01*
X030454Y038163D01*
X030494Y038147D01*
X030532Y038127D01*
X030568Y038104D01*
X030602Y038077D01*
X030634Y038048D01*
X030662Y038016D01*
X030688Y037981D01*
X030710Y037945D01*
X030729Y037906D01*
X030744Y037866D01*
X030756Y037825D01*
X030764Y037782D01*
X030768Y037739D01*
X030768Y037697D01*
X030764Y037654D01*
X030756Y037611D01*
X030744Y037570D01*
X030729Y037530D01*
X030710Y037491D01*
X030688Y037455D01*
X030662Y037420D01*
X030634Y037388D01*
X030602Y037359D01*
X030568Y037332D01*
X030532Y037309D01*
X030494Y037289D01*
X030454Y037273D01*
X030413Y037261D01*
X030371Y037252D01*
X030328Y037247D01*
X030285Y037246D01*
X030242Y037249D01*
X030200Y037256D01*
X030158Y037267D01*
X030118Y037281D01*
X030079Y037299D01*
X030042Y037320D01*
X030007Y037345D01*
X029974Y037373D01*
X029944Y037404D01*
X029917Y037437D01*
X029893Y037473D01*
X029872Y037510D01*
X029855Y037550D01*
X029842Y037591D01*
X029832Y037633D01*
X029826Y037675D01*
X029824Y037718D01*
X035631Y037718D02*
X035633Y037761D01*
X035639Y037803D01*
X035649Y037845D01*
X035662Y037886D01*
X035679Y037926D01*
X035700Y037963D01*
X035724Y037999D01*
X035751Y038032D01*
X035781Y038063D01*
X035814Y038091D01*
X035849Y038116D01*
X035886Y038137D01*
X035925Y038155D01*
X035965Y038169D01*
X036007Y038180D01*
X036049Y038187D01*
X036092Y038190D01*
X036135Y038189D01*
X036178Y038184D01*
X036220Y038175D01*
X036261Y038163D01*
X036301Y038147D01*
X036339Y038127D01*
X036375Y038104D01*
X036409Y038077D01*
X036441Y038048D01*
X036469Y038016D01*
X036495Y037981D01*
X036517Y037945D01*
X036536Y037906D01*
X036551Y037866D01*
X036563Y037825D01*
X036571Y037782D01*
X036575Y037739D01*
X036575Y037697D01*
X036571Y037654D01*
X036563Y037611D01*
X036551Y037570D01*
X036536Y037530D01*
X036517Y037491D01*
X036495Y037455D01*
X036469Y037420D01*
X036441Y037388D01*
X036409Y037359D01*
X036375Y037332D01*
X036339Y037309D01*
X036301Y037289D01*
X036261Y037273D01*
X036220Y037261D01*
X036178Y037252D01*
X036135Y037247D01*
X036092Y037246D01*
X036049Y037249D01*
X036007Y037256D01*
X035965Y037267D01*
X035925Y037281D01*
X035886Y037299D01*
X035849Y037320D01*
X035814Y037345D01*
X035781Y037373D01*
X035751Y037404D01*
X035724Y037437D01*
X035700Y037473D01*
X035679Y037510D01*
X035662Y037550D01*
X035649Y037591D01*
X035639Y037633D01*
X035633Y037675D01*
X035631Y037718D01*
X036241Y035813D02*
X036243Y035839D01*
X036249Y035865D01*
X036259Y035890D01*
X036272Y035913D01*
X036288Y035933D01*
X036308Y035951D01*
X036330Y035966D01*
X036353Y035978D01*
X036379Y035986D01*
X036405Y035990D01*
X036431Y035990D01*
X036457Y035986D01*
X036483Y035978D01*
X036507Y035966D01*
X036528Y035951D01*
X036548Y035933D01*
X036564Y035913D01*
X036577Y035890D01*
X036587Y035865D01*
X036593Y035839D01*
X036595Y035813D01*
X036593Y035787D01*
X036587Y035761D01*
X036577Y035736D01*
X036564Y035713D01*
X036548Y035693D01*
X036528Y035675D01*
X036506Y035660D01*
X036483Y035648D01*
X036457Y035640D01*
X036431Y035636D01*
X036405Y035636D01*
X036379Y035640D01*
X036353Y035648D01*
X036329Y035660D01*
X036308Y035675D01*
X036288Y035693D01*
X036272Y035713D01*
X036259Y035736D01*
X036249Y035761D01*
X036243Y035787D01*
X036241Y035813D01*
X038115Y037935D02*
X038117Y037985D01*
X038123Y038035D01*
X038133Y038084D01*
X038147Y038132D01*
X038164Y038179D01*
X038185Y038224D01*
X038210Y038268D01*
X038238Y038309D01*
X038270Y038348D01*
X038304Y038385D01*
X038341Y038419D01*
X038381Y038449D01*
X038423Y038476D01*
X038467Y038500D01*
X038513Y038521D01*
X038560Y038537D01*
X038608Y038550D01*
X038658Y038559D01*
X038707Y038564D01*
X038758Y038565D01*
X038808Y038562D01*
X038857Y038555D01*
X038906Y038544D01*
X038954Y038529D01*
X039000Y038511D01*
X039045Y038489D01*
X039088Y038463D01*
X039129Y038434D01*
X039168Y038402D01*
X039204Y038367D01*
X039236Y038329D01*
X039266Y038289D01*
X039293Y038246D01*
X039316Y038202D01*
X039335Y038156D01*
X039351Y038108D01*
X039363Y038059D01*
X039371Y038010D01*
X039375Y037960D01*
X039375Y037910D01*
X039371Y037860D01*
X039363Y037811D01*
X039351Y037762D01*
X039335Y037714D01*
X039316Y037668D01*
X039293Y037624D01*
X039266Y037581D01*
X039236Y037541D01*
X039204Y037503D01*
X039168Y037468D01*
X039129Y037436D01*
X039088Y037407D01*
X039045Y037381D01*
X039000Y037359D01*
X038954Y037341D01*
X038906Y037326D01*
X038857Y037315D01*
X038808Y037308D01*
X038758Y037305D01*
X038707Y037306D01*
X038658Y037311D01*
X038608Y037320D01*
X038560Y037333D01*
X038513Y037349D01*
X038467Y037370D01*
X038423Y037394D01*
X038381Y037421D01*
X038341Y037451D01*
X038304Y037485D01*
X038270Y037522D01*
X038238Y037561D01*
X038210Y037602D01*
X038185Y037646D01*
X038164Y037691D01*
X038147Y037738D01*
X038133Y037786D01*
X038123Y037835D01*
X038117Y037885D01*
X038115Y037935D01*
X023994Y031781D02*
X023994Y030009D01*
X022655Y030009D01*
X022655Y031781D01*
X023994Y031781D01*
X022304Y035813D02*
X022306Y035839D01*
X022312Y035865D01*
X022322Y035890D01*
X022335Y035913D01*
X022351Y035933D01*
X022371Y035951D01*
X022393Y035966D01*
X022416Y035978D01*
X022442Y035986D01*
X022468Y035990D01*
X022494Y035990D01*
X022520Y035986D01*
X022546Y035978D01*
X022570Y035966D01*
X022591Y035951D01*
X022611Y035933D01*
X022627Y035913D01*
X022640Y035890D01*
X022650Y035865D01*
X022656Y035839D01*
X022658Y035813D01*
X022656Y035787D01*
X022650Y035761D01*
X022640Y035736D01*
X022627Y035713D01*
X022611Y035693D01*
X022591Y035675D01*
X022569Y035660D01*
X022546Y035648D01*
X022520Y035640D01*
X022494Y035636D01*
X022468Y035636D01*
X022442Y035640D01*
X022416Y035648D01*
X022392Y035660D01*
X022371Y035675D01*
X022351Y035693D01*
X022335Y035713D01*
X022322Y035736D01*
X022312Y035761D01*
X022306Y035787D01*
X022304Y035813D01*
X020991Y035813D02*
X020993Y035839D01*
X020999Y035865D01*
X021009Y035890D01*
X021022Y035913D01*
X021038Y035933D01*
X021058Y035951D01*
X021080Y035966D01*
X021103Y035978D01*
X021129Y035986D01*
X021155Y035990D01*
X021181Y035990D01*
X021207Y035986D01*
X021233Y035978D01*
X021257Y035966D01*
X021278Y035951D01*
X021298Y035933D01*
X021314Y035913D01*
X021327Y035890D01*
X021337Y035865D01*
X021343Y035839D01*
X021345Y035813D01*
X021343Y035787D01*
X021337Y035761D01*
X021327Y035736D01*
X021314Y035713D01*
X021298Y035693D01*
X021278Y035675D01*
X021256Y035660D01*
X021233Y035648D01*
X021207Y035640D01*
X021181Y035636D01*
X021155Y035636D01*
X021129Y035640D01*
X021103Y035648D01*
X021079Y035660D01*
X021058Y035675D01*
X021038Y035693D01*
X021022Y035713D01*
X021009Y035736D01*
X020999Y035761D01*
X020993Y035787D01*
X020991Y035813D01*
X020381Y037718D02*
X020383Y037761D01*
X020389Y037803D01*
X020399Y037845D01*
X020412Y037886D01*
X020429Y037926D01*
X020450Y037963D01*
X020474Y037999D01*
X020501Y038032D01*
X020531Y038063D01*
X020564Y038091D01*
X020599Y038116D01*
X020636Y038137D01*
X020675Y038155D01*
X020715Y038169D01*
X020757Y038180D01*
X020799Y038187D01*
X020842Y038190D01*
X020885Y038189D01*
X020928Y038184D01*
X020970Y038175D01*
X021011Y038163D01*
X021051Y038147D01*
X021089Y038127D01*
X021125Y038104D01*
X021159Y038077D01*
X021191Y038048D01*
X021219Y038016D01*
X021245Y037981D01*
X021267Y037945D01*
X021286Y037906D01*
X021301Y037866D01*
X021313Y037825D01*
X021321Y037782D01*
X021325Y037739D01*
X021325Y037697D01*
X021321Y037654D01*
X021313Y037611D01*
X021301Y037570D01*
X021286Y037530D01*
X021267Y037491D01*
X021245Y037455D01*
X021219Y037420D01*
X021191Y037388D01*
X021159Y037359D01*
X021125Y037332D01*
X021089Y037309D01*
X021051Y037289D01*
X021011Y037273D01*
X020970Y037261D01*
X020928Y037252D01*
X020885Y037247D01*
X020842Y037246D01*
X020799Y037249D01*
X020757Y037256D01*
X020715Y037267D01*
X020675Y037281D01*
X020636Y037299D01*
X020599Y037320D01*
X020564Y037345D01*
X020531Y037373D01*
X020501Y037404D01*
X020474Y037437D01*
X020450Y037473D01*
X020429Y037510D01*
X020412Y037550D01*
X020399Y037591D01*
X020389Y037633D01*
X020383Y037675D01*
X020381Y037718D01*
X022324Y037718D02*
X022326Y037761D01*
X022332Y037803D01*
X022342Y037845D01*
X022355Y037886D01*
X022372Y037926D01*
X022393Y037963D01*
X022417Y037999D01*
X022444Y038032D01*
X022474Y038063D01*
X022507Y038091D01*
X022542Y038116D01*
X022579Y038137D01*
X022618Y038155D01*
X022658Y038169D01*
X022700Y038180D01*
X022742Y038187D01*
X022785Y038190D01*
X022828Y038189D01*
X022871Y038184D01*
X022913Y038175D01*
X022954Y038163D01*
X022994Y038147D01*
X023032Y038127D01*
X023068Y038104D01*
X023102Y038077D01*
X023134Y038048D01*
X023162Y038016D01*
X023188Y037981D01*
X023210Y037945D01*
X023229Y037906D01*
X023244Y037866D01*
X023256Y037825D01*
X023264Y037782D01*
X023268Y037739D01*
X023268Y037697D01*
X023264Y037654D01*
X023256Y037611D01*
X023244Y037570D01*
X023229Y037530D01*
X023210Y037491D01*
X023188Y037455D01*
X023162Y037420D01*
X023134Y037388D01*
X023102Y037359D01*
X023068Y037332D01*
X023032Y037309D01*
X022994Y037289D01*
X022954Y037273D01*
X022913Y037261D01*
X022871Y037252D01*
X022828Y037247D01*
X022785Y037246D01*
X022742Y037249D01*
X022700Y037256D01*
X022658Y037267D01*
X022618Y037281D01*
X022579Y037299D01*
X022542Y037320D01*
X022507Y037345D01*
X022474Y037373D01*
X022444Y037404D01*
X022417Y037437D01*
X022393Y037473D01*
X022372Y037510D01*
X022355Y037550D01*
X022342Y037591D01*
X022332Y037633D01*
X022326Y037675D01*
X022324Y037718D01*
X014574Y037718D02*
X014576Y037761D01*
X014582Y037803D01*
X014592Y037845D01*
X014605Y037886D01*
X014622Y037926D01*
X014643Y037963D01*
X014667Y037999D01*
X014694Y038032D01*
X014724Y038063D01*
X014757Y038091D01*
X014792Y038116D01*
X014829Y038137D01*
X014868Y038155D01*
X014908Y038169D01*
X014950Y038180D01*
X014992Y038187D01*
X015035Y038190D01*
X015078Y038189D01*
X015121Y038184D01*
X015163Y038175D01*
X015204Y038163D01*
X015244Y038147D01*
X015282Y038127D01*
X015318Y038104D01*
X015352Y038077D01*
X015384Y038048D01*
X015412Y038016D01*
X015438Y037981D01*
X015460Y037945D01*
X015479Y037906D01*
X015494Y037866D01*
X015506Y037825D01*
X015514Y037782D01*
X015518Y037739D01*
X015518Y037697D01*
X015514Y037654D01*
X015506Y037611D01*
X015494Y037570D01*
X015479Y037530D01*
X015460Y037491D01*
X015438Y037455D01*
X015412Y037420D01*
X015384Y037388D01*
X015352Y037359D01*
X015318Y037332D01*
X015282Y037309D01*
X015244Y037289D01*
X015204Y037273D01*
X015163Y037261D01*
X015121Y037252D01*
X015078Y037247D01*
X015035Y037246D01*
X014992Y037249D01*
X014950Y037256D01*
X014908Y037267D01*
X014868Y037281D01*
X014829Y037299D01*
X014792Y037320D01*
X014757Y037345D01*
X014724Y037373D01*
X014694Y037404D01*
X014667Y037437D01*
X014643Y037473D01*
X014622Y037510D01*
X014605Y037550D01*
X014592Y037591D01*
X014582Y037633D01*
X014576Y037675D01*
X014574Y037718D01*
X012881Y037718D02*
X012883Y037761D01*
X012889Y037803D01*
X012899Y037845D01*
X012912Y037886D01*
X012929Y037926D01*
X012950Y037963D01*
X012974Y037999D01*
X013001Y038032D01*
X013031Y038063D01*
X013064Y038091D01*
X013099Y038116D01*
X013136Y038137D01*
X013175Y038155D01*
X013215Y038169D01*
X013257Y038180D01*
X013299Y038187D01*
X013342Y038190D01*
X013385Y038189D01*
X013428Y038184D01*
X013470Y038175D01*
X013511Y038163D01*
X013551Y038147D01*
X013589Y038127D01*
X013625Y038104D01*
X013659Y038077D01*
X013691Y038048D01*
X013719Y038016D01*
X013745Y037981D01*
X013767Y037945D01*
X013786Y037906D01*
X013801Y037866D01*
X013813Y037825D01*
X013821Y037782D01*
X013825Y037739D01*
X013825Y037697D01*
X013821Y037654D01*
X013813Y037611D01*
X013801Y037570D01*
X013786Y037530D01*
X013767Y037491D01*
X013745Y037455D01*
X013719Y037420D01*
X013691Y037388D01*
X013659Y037359D01*
X013625Y037332D01*
X013589Y037309D01*
X013551Y037289D01*
X013511Y037273D01*
X013470Y037261D01*
X013428Y037252D01*
X013385Y037247D01*
X013342Y037246D01*
X013299Y037249D01*
X013257Y037256D01*
X013215Y037267D01*
X013175Y037281D01*
X013136Y037299D01*
X013099Y037320D01*
X013064Y037345D01*
X013031Y037373D01*
X013001Y037404D01*
X012974Y037437D01*
X012950Y037473D01*
X012929Y037510D01*
X012912Y037550D01*
X012899Y037591D01*
X012889Y037633D01*
X012883Y037675D01*
X012881Y037718D01*
X013491Y035813D02*
X013493Y035839D01*
X013499Y035865D01*
X013509Y035890D01*
X013522Y035913D01*
X013538Y035933D01*
X013558Y035951D01*
X013580Y035966D01*
X013603Y035978D01*
X013629Y035986D01*
X013655Y035990D01*
X013681Y035990D01*
X013707Y035986D01*
X013733Y035978D01*
X013757Y035966D01*
X013778Y035951D01*
X013798Y035933D01*
X013814Y035913D01*
X013827Y035890D01*
X013837Y035865D01*
X013843Y035839D01*
X013845Y035813D01*
X013843Y035787D01*
X013837Y035761D01*
X013827Y035736D01*
X013814Y035713D01*
X013798Y035693D01*
X013778Y035675D01*
X013756Y035660D01*
X013733Y035648D01*
X013707Y035640D01*
X013681Y035636D01*
X013655Y035636D01*
X013629Y035640D01*
X013603Y035648D01*
X013579Y035660D01*
X013558Y035675D01*
X013538Y035693D01*
X013522Y035713D01*
X013509Y035736D01*
X013499Y035761D01*
X013493Y035787D01*
X013491Y035813D01*
X014554Y035813D02*
X014556Y035839D01*
X014562Y035865D01*
X014572Y035890D01*
X014585Y035913D01*
X014601Y035933D01*
X014621Y035951D01*
X014643Y035966D01*
X014666Y035978D01*
X014692Y035986D01*
X014718Y035990D01*
X014744Y035990D01*
X014770Y035986D01*
X014796Y035978D01*
X014820Y035966D01*
X014841Y035951D01*
X014861Y035933D01*
X014877Y035913D01*
X014890Y035890D01*
X014900Y035865D01*
X014906Y035839D01*
X014908Y035813D01*
X014906Y035787D01*
X014900Y035761D01*
X014890Y035736D01*
X014877Y035713D01*
X014861Y035693D01*
X014841Y035675D01*
X014819Y035660D01*
X014796Y035648D01*
X014770Y035640D01*
X014744Y035636D01*
X014718Y035636D01*
X014692Y035640D01*
X014666Y035648D01*
X014642Y035660D01*
X014621Y035675D01*
X014601Y035693D01*
X014585Y035713D01*
X014572Y035736D01*
X014562Y035761D01*
X014556Y035787D01*
X014554Y035813D01*
X007074Y037718D02*
X007076Y037761D01*
X007082Y037803D01*
X007092Y037845D01*
X007105Y037886D01*
X007122Y037926D01*
X007143Y037963D01*
X007167Y037999D01*
X007194Y038032D01*
X007224Y038063D01*
X007257Y038091D01*
X007292Y038116D01*
X007329Y038137D01*
X007368Y038155D01*
X007408Y038169D01*
X007450Y038180D01*
X007492Y038187D01*
X007535Y038190D01*
X007578Y038189D01*
X007621Y038184D01*
X007663Y038175D01*
X007704Y038163D01*
X007744Y038147D01*
X007782Y038127D01*
X007818Y038104D01*
X007852Y038077D01*
X007884Y038048D01*
X007912Y038016D01*
X007938Y037981D01*
X007960Y037945D01*
X007979Y037906D01*
X007994Y037866D01*
X008006Y037825D01*
X008014Y037782D01*
X008018Y037739D01*
X008018Y037697D01*
X008014Y037654D01*
X008006Y037611D01*
X007994Y037570D01*
X007979Y037530D01*
X007960Y037491D01*
X007938Y037455D01*
X007912Y037420D01*
X007884Y037388D01*
X007852Y037359D01*
X007818Y037332D01*
X007782Y037309D01*
X007744Y037289D01*
X007704Y037273D01*
X007663Y037261D01*
X007621Y037252D01*
X007578Y037247D01*
X007535Y037246D01*
X007492Y037249D01*
X007450Y037256D01*
X007408Y037267D01*
X007368Y037281D01*
X007329Y037299D01*
X007292Y037320D01*
X007257Y037345D01*
X007224Y037373D01*
X007194Y037404D01*
X007167Y037437D01*
X007143Y037473D01*
X007122Y037510D01*
X007105Y037550D01*
X007092Y037591D01*
X007082Y037633D01*
X007076Y037675D01*
X007074Y037718D01*
X007054Y035813D02*
X007056Y035839D01*
X007062Y035865D01*
X007072Y035890D01*
X007085Y035913D01*
X007101Y035933D01*
X007121Y035951D01*
X007143Y035966D01*
X007166Y035978D01*
X007192Y035986D01*
X007218Y035990D01*
X007244Y035990D01*
X007270Y035986D01*
X007296Y035978D01*
X007320Y035966D01*
X007341Y035951D01*
X007361Y035933D01*
X007377Y035913D01*
X007390Y035890D01*
X007400Y035865D01*
X007406Y035839D01*
X007408Y035813D01*
X007406Y035787D01*
X007400Y035761D01*
X007390Y035736D01*
X007377Y035713D01*
X007361Y035693D01*
X007341Y035675D01*
X007319Y035660D01*
X007296Y035648D01*
X007270Y035640D01*
X007244Y035636D01*
X007218Y035636D01*
X007192Y035640D01*
X007166Y035648D01*
X007142Y035660D01*
X007121Y035675D01*
X007101Y035693D01*
X007085Y035713D01*
X007072Y035736D01*
X007062Y035761D01*
X007056Y035787D01*
X007054Y035813D01*
X001894Y037935D02*
X001896Y037985D01*
X001902Y038035D01*
X001912Y038084D01*
X001926Y038132D01*
X001943Y038179D01*
X001964Y038224D01*
X001989Y038268D01*
X002017Y038309D01*
X002049Y038348D01*
X002083Y038385D01*
X002120Y038419D01*
X002160Y038449D01*
X002202Y038476D01*
X002246Y038500D01*
X002292Y038521D01*
X002339Y038537D01*
X002387Y038550D01*
X002437Y038559D01*
X002486Y038564D01*
X002537Y038565D01*
X002587Y038562D01*
X002636Y038555D01*
X002685Y038544D01*
X002733Y038529D01*
X002779Y038511D01*
X002824Y038489D01*
X002867Y038463D01*
X002908Y038434D01*
X002947Y038402D01*
X002983Y038367D01*
X003015Y038329D01*
X003045Y038289D01*
X003072Y038246D01*
X003095Y038202D01*
X003114Y038156D01*
X003130Y038108D01*
X003142Y038059D01*
X003150Y038010D01*
X003154Y037960D01*
X003154Y037910D01*
X003150Y037860D01*
X003142Y037811D01*
X003130Y037762D01*
X003114Y037714D01*
X003095Y037668D01*
X003072Y037624D01*
X003045Y037581D01*
X003015Y037541D01*
X002983Y037503D01*
X002947Y037468D01*
X002908Y037436D01*
X002867Y037407D01*
X002824Y037381D01*
X002779Y037359D01*
X002733Y037341D01*
X002685Y037326D01*
X002636Y037315D01*
X002587Y037308D01*
X002537Y037305D01*
X002486Y037306D01*
X002437Y037311D01*
X002387Y037320D01*
X002339Y037333D01*
X002292Y037349D01*
X002246Y037370D01*
X002202Y037394D01*
X002160Y037421D01*
X002120Y037451D01*
X002083Y037485D01*
X002049Y037522D01*
X002017Y037561D01*
X001989Y037602D01*
X001964Y037646D01*
X001943Y037691D01*
X001926Y037738D01*
X001912Y037786D01*
X001902Y037835D01*
X001896Y037885D01*
X001894Y037935D01*
D11*
X004700Y037764D02*
X004700Y037264D01*
X004950Y037014D01*
X005450Y037014D01*
X005700Y037264D01*
X005700Y037764D01*
X005450Y038014D01*
X005700Y038264D01*
X005700Y038764D01*
X005450Y039014D01*
X004950Y039014D01*
X004700Y038764D01*
X004700Y038264D01*
X004950Y038014D01*
X005450Y038014D01*
X004950Y038014D02*
X004700Y037764D01*
X007200Y032889D02*
X006950Y032639D01*
X006950Y032139D01*
X007200Y031889D01*
X006950Y031639D01*
X006950Y031139D01*
X007200Y030889D01*
X007700Y030889D01*
X007950Y031139D01*
X007950Y031639D01*
X007700Y031889D01*
X007200Y031889D01*
X007700Y031889D02*
X007950Y032139D01*
X007950Y032639D01*
X007700Y032889D01*
X007200Y032889D01*
X014400Y025939D02*
X014400Y025839D01*
X014400Y025939D02*
X014500Y025939D01*
X014900Y025939D02*
X015000Y025939D01*
X015000Y025839D01*
X015000Y025439D02*
X015000Y025339D01*
X014900Y025339D01*
X014500Y025339D02*
X014400Y025339D01*
X014400Y025439D01*
X018275Y025439D02*
X018275Y025339D01*
X018375Y025339D01*
X018775Y025339D02*
X018875Y025339D01*
X018875Y025439D01*
X018875Y025839D02*
X018875Y025939D01*
X018775Y025939D01*
X018375Y025939D02*
X018275Y025939D01*
X018275Y025839D01*
X013309Y020994D02*
X013309Y020888D01*
X013202Y020781D01*
X013309Y020674D01*
X013309Y020567D01*
X013202Y020461D01*
X012989Y020461D01*
X012882Y020567D01*
X012665Y020461D02*
X012238Y021101D01*
X012665Y021101D02*
X012238Y020461D01*
X012882Y020994D02*
X012989Y021101D01*
X013202Y021101D01*
X013309Y020994D01*
X013202Y020781D02*
X013096Y020781D01*
X011000Y012814D02*
X011000Y012714D01*
X011000Y012814D02*
X010900Y012814D01*
X010500Y012814D02*
X010400Y012814D01*
X010400Y012714D01*
X010400Y012314D02*
X010400Y012214D01*
X010500Y012214D01*
X010900Y012214D02*
X011000Y012214D01*
X011000Y012314D01*
X009875Y008189D02*
X009275Y008189D01*
X009275Y008089D01*
X009175Y008089D01*
X009875Y008089D02*
X009975Y008089D01*
X009875Y008089D02*
X009875Y008189D01*
X010775Y007739D02*
X010775Y007389D01*
X010775Y006389D01*
X010775Y006039D01*
X009975Y005689D02*
X009875Y005689D01*
X009875Y005589D01*
X009275Y005589D01*
X009275Y005689D01*
X009175Y005689D01*
X008375Y006039D02*
X008375Y006439D01*
X008375Y007389D01*
X008375Y007739D01*
X009475Y006889D02*
X009477Y006909D01*
X009483Y006927D01*
X009492Y006945D01*
X009504Y006960D01*
X009519Y006972D01*
X009537Y006981D01*
X009555Y006987D01*
X009575Y006989D01*
X009595Y006987D01*
X009613Y006981D01*
X009631Y006972D01*
X009646Y006960D01*
X009658Y006945D01*
X009667Y006927D01*
X009673Y006909D01*
X009675Y006889D01*
X009673Y006869D01*
X009667Y006851D01*
X009658Y006833D01*
X009646Y006818D01*
X009631Y006806D01*
X009613Y006797D01*
X009595Y006791D01*
X009575Y006789D01*
X009555Y006791D01*
X009537Y006797D01*
X009519Y006806D01*
X009504Y006818D01*
X009492Y006833D01*
X009483Y006851D01*
X009477Y006869D01*
X009475Y006889D01*
X008875Y006889D02*
X008877Y006941D01*
X008883Y006993D01*
X008893Y007045D01*
X008906Y007095D01*
X008923Y007145D01*
X008944Y007193D01*
X008969Y007239D01*
X008997Y007283D01*
X009028Y007325D01*
X009062Y007365D01*
X009099Y007402D01*
X009139Y007436D01*
X009181Y007467D01*
X009225Y007495D01*
X009271Y007520D01*
X009319Y007541D01*
X009369Y007558D01*
X009419Y007571D01*
X009471Y007581D01*
X009523Y007587D01*
X009575Y007589D01*
X009627Y007587D01*
X009679Y007581D01*
X009731Y007571D01*
X009781Y007558D01*
X009831Y007541D01*
X009879Y007520D01*
X009925Y007495D01*
X009969Y007467D01*
X010011Y007436D01*
X010051Y007402D01*
X010088Y007365D01*
X010122Y007325D01*
X010153Y007283D01*
X010181Y007239D01*
X010206Y007193D01*
X010227Y007145D01*
X010244Y007095D01*
X010257Y007045D01*
X010267Y006993D01*
X010273Y006941D01*
X010275Y006889D01*
X010273Y006837D01*
X010267Y006785D01*
X010257Y006733D01*
X010244Y006683D01*
X010227Y006633D01*
X010206Y006585D01*
X010181Y006539D01*
X010153Y006495D01*
X010122Y006453D01*
X010088Y006413D01*
X010051Y006376D01*
X010011Y006342D01*
X009969Y006311D01*
X009925Y006283D01*
X009879Y006258D01*
X009831Y006237D01*
X009781Y006220D01*
X009731Y006207D01*
X009679Y006197D01*
X009627Y006191D01*
X009575Y006189D01*
X009523Y006191D01*
X009471Y006197D01*
X009419Y006207D01*
X009369Y006220D01*
X009319Y006237D01*
X009271Y006258D01*
X009225Y006283D01*
X009181Y006311D01*
X009139Y006342D01*
X009099Y006376D01*
X009062Y006413D01*
X009028Y006453D01*
X008997Y006495D01*
X008969Y006539D01*
X008944Y006585D01*
X008923Y006633D01*
X008906Y006683D01*
X008893Y006733D01*
X008883Y006785D01*
X008877Y006837D01*
X008875Y006889D01*
X005503Y007552D02*
X004863Y007979D01*
X004970Y008197D02*
X004863Y008304D01*
X004863Y008517D01*
X004970Y008624D01*
X005076Y008624D01*
X005503Y008197D01*
X005503Y008624D01*
X005503Y007979D02*
X004863Y007552D01*
X002625Y004064D02*
X002525Y004064D01*
X002625Y004064D02*
X002625Y003964D01*
X002625Y003564D02*
X002625Y003464D01*
X002525Y003464D01*
X002125Y003464D02*
X002025Y003464D01*
X002025Y003564D01*
X002025Y003964D02*
X002025Y004064D01*
X002125Y004064D01*
X005375Y003489D02*
X005375Y003139D01*
X005375Y002189D01*
X005375Y001789D01*
X006175Y001439D02*
X006275Y001439D01*
X006275Y001339D01*
X006875Y001339D01*
X006875Y001439D01*
X006975Y001439D01*
X007775Y001789D02*
X007775Y002139D01*
X007775Y003139D01*
X007775Y003489D01*
X006975Y003839D02*
X006875Y003839D01*
X006875Y003939D01*
X006275Y003939D01*
X006275Y003839D01*
X006175Y003839D01*
X006475Y002639D02*
X006477Y002659D01*
X006483Y002677D01*
X006492Y002695D01*
X006504Y002710D01*
X006519Y002722D01*
X006537Y002731D01*
X006555Y002737D01*
X006575Y002739D01*
X006595Y002737D01*
X006613Y002731D01*
X006631Y002722D01*
X006646Y002710D01*
X006658Y002695D01*
X006667Y002677D01*
X006673Y002659D01*
X006675Y002639D01*
X006673Y002619D01*
X006667Y002601D01*
X006658Y002583D01*
X006646Y002568D01*
X006631Y002556D01*
X006613Y002547D01*
X006595Y002541D01*
X006575Y002539D01*
X006555Y002541D01*
X006537Y002547D01*
X006519Y002556D01*
X006504Y002568D01*
X006492Y002583D01*
X006483Y002601D01*
X006477Y002619D01*
X006475Y002639D01*
X005875Y002639D02*
X005877Y002691D01*
X005883Y002743D01*
X005893Y002795D01*
X005906Y002845D01*
X005923Y002895D01*
X005944Y002943D01*
X005969Y002989D01*
X005997Y003033D01*
X006028Y003075D01*
X006062Y003115D01*
X006099Y003152D01*
X006139Y003186D01*
X006181Y003217D01*
X006225Y003245D01*
X006271Y003270D01*
X006319Y003291D01*
X006369Y003308D01*
X006419Y003321D01*
X006471Y003331D01*
X006523Y003337D01*
X006575Y003339D01*
X006627Y003337D01*
X006679Y003331D01*
X006731Y003321D01*
X006781Y003308D01*
X006831Y003291D01*
X006879Y003270D01*
X006925Y003245D01*
X006969Y003217D01*
X007011Y003186D01*
X007051Y003152D01*
X007088Y003115D01*
X007122Y003075D01*
X007153Y003033D01*
X007181Y002989D01*
X007206Y002943D01*
X007227Y002895D01*
X007244Y002845D01*
X007257Y002795D01*
X007267Y002743D01*
X007273Y002691D01*
X007275Y002639D01*
X007273Y002587D01*
X007267Y002535D01*
X007257Y002483D01*
X007244Y002433D01*
X007227Y002383D01*
X007206Y002335D01*
X007181Y002289D01*
X007153Y002245D01*
X007122Y002203D01*
X007088Y002163D01*
X007051Y002126D01*
X007011Y002092D01*
X006969Y002061D01*
X006925Y002033D01*
X006879Y002008D01*
X006831Y001987D01*
X006781Y001970D01*
X006731Y001957D01*
X006679Y001947D01*
X006627Y001941D01*
X006575Y001939D01*
X006523Y001941D01*
X006471Y001947D01*
X006419Y001957D01*
X006369Y001970D01*
X006319Y001987D01*
X006271Y002008D01*
X006225Y002033D01*
X006181Y002061D01*
X006139Y002092D01*
X006099Y002126D01*
X006062Y002163D01*
X006028Y002203D01*
X005997Y002245D01*
X005969Y002289D01*
X005944Y002335D01*
X005923Y002383D01*
X005906Y002433D01*
X005893Y002483D01*
X005883Y002535D01*
X005877Y002587D01*
X005875Y002639D01*
X011125Y002189D02*
X011125Y001789D01*
X011125Y002189D02*
X011125Y003139D01*
X011125Y003489D01*
X011925Y003839D02*
X012025Y003839D01*
X012025Y003939D01*
X012625Y003939D01*
X012625Y003839D01*
X012725Y003839D01*
X013525Y003489D02*
X013525Y003139D01*
X013525Y002139D01*
X013525Y001789D01*
X012725Y001439D02*
X012625Y001439D01*
X012625Y001339D01*
X012025Y001339D01*
X012025Y001439D01*
X011925Y001439D01*
X012225Y002639D02*
X012227Y002659D01*
X012233Y002677D01*
X012242Y002695D01*
X012254Y002710D01*
X012269Y002722D01*
X012287Y002731D01*
X012305Y002737D01*
X012325Y002739D01*
X012345Y002737D01*
X012363Y002731D01*
X012381Y002722D01*
X012396Y002710D01*
X012408Y002695D01*
X012417Y002677D01*
X012423Y002659D01*
X012425Y002639D01*
X012423Y002619D01*
X012417Y002601D01*
X012408Y002583D01*
X012396Y002568D01*
X012381Y002556D01*
X012363Y002547D01*
X012345Y002541D01*
X012325Y002539D01*
X012305Y002541D01*
X012287Y002547D01*
X012269Y002556D01*
X012254Y002568D01*
X012242Y002583D01*
X012233Y002601D01*
X012227Y002619D01*
X012225Y002639D01*
X011625Y002639D02*
X011627Y002691D01*
X011633Y002743D01*
X011643Y002795D01*
X011656Y002845D01*
X011673Y002895D01*
X011694Y002943D01*
X011719Y002989D01*
X011747Y003033D01*
X011778Y003075D01*
X011812Y003115D01*
X011849Y003152D01*
X011889Y003186D01*
X011931Y003217D01*
X011975Y003245D01*
X012021Y003270D01*
X012069Y003291D01*
X012119Y003308D01*
X012169Y003321D01*
X012221Y003331D01*
X012273Y003337D01*
X012325Y003339D01*
X012377Y003337D01*
X012429Y003331D01*
X012481Y003321D01*
X012531Y003308D01*
X012581Y003291D01*
X012629Y003270D01*
X012675Y003245D01*
X012719Y003217D01*
X012761Y003186D01*
X012801Y003152D01*
X012838Y003115D01*
X012872Y003075D01*
X012903Y003033D01*
X012931Y002989D01*
X012956Y002943D01*
X012977Y002895D01*
X012994Y002845D01*
X013007Y002795D01*
X013017Y002743D01*
X013023Y002691D01*
X013025Y002639D01*
X013023Y002587D01*
X013017Y002535D01*
X013007Y002483D01*
X012994Y002433D01*
X012977Y002383D01*
X012956Y002335D01*
X012931Y002289D01*
X012903Y002245D01*
X012872Y002203D01*
X012838Y002163D01*
X012801Y002126D01*
X012761Y002092D01*
X012719Y002061D01*
X012675Y002033D01*
X012629Y002008D01*
X012581Y001987D01*
X012531Y001970D01*
X012481Y001957D01*
X012429Y001947D01*
X012377Y001941D01*
X012325Y001939D01*
X012273Y001941D01*
X012221Y001947D01*
X012169Y001957D01*
X012119Y001970D01*
X012069Y001987D01*
X012021Y002008D01*
X011975Y002033D01*
X011931Y002061D01*
X011889Y002092D01*
X011849Y002126D01*
X011812Y002163D01*
X011778Y002203D01*
X011747Y002245D01*
X011719Y002289D01*
X011694Y002335D01*
X011673Y002383D01*
X011656Y002433D01*
X011643Y002483D01*
X011633Y002535D01*
X011627Y002587D01*
X011625Y002639D01*
X016875Y002189D02*
X016875Y001789D01*
X016875Y002189D02*
X016875Y003139D01*
X016875Y003489D01*
X017675Y003839D02*
X017775Y003839D01*
X017775Y003939D01*
X018375Y003939D01*
X018375Y003839D01*
X018475Y003839D01*
X019275Y003489D02*
X019275Y003139D01*
X019275Y002139D01*
X019275Y001789D01*
X018475Y001439D02*
X018375Y001439D01*
X018375Y001339D01*
X017775Y001339D01*
X017775Y001439D01*
X017675Y001439D01*
X017975Y002639D02*
X017977Y002659D01*
X017983Y002677D01*
X017992Y002695D01*
X018004Y002710D01*
X018019Y002722D01*
X018037Y002731D01*
X018055Y002737D01*
X018075Y002739D01*
X018095Y002737D01*
X018113Y002731D01*
X018131Y002722D01*
X018146Y002710D01*
X018158Y002695D01*
X018167Y002677D01*
X018173Y002659D01*
X018175Y002639D01*
X018173Y002619D01*
X018167Y002601D01*
X018158Y002583D01*
X018146Y002568D01*
X018131Y002556D01*
X018113Y002547D01*
X018095Y002541D01*
X018075Y002539D01*
X018055Y002541D01*
X018037Y002547D01*
X018019Y002556D01*
X018004Y002568D01*
X017992Y002583D01*
X017983Y002601D01*
X017977Y002619D01*
X017975Y002639D01*
X017375Y002639D02*
X017377Y002691D01*
X017383Y002743D01*
X017393Y002795D01*
X017406Y002845D01*
X017423Y002895D01*
X017444Y002943D01*
X017469Y002989D01*
X017497Y003033D01*
X017528Y003075D01*
X017562Y003115D01*
X017599Y003152D01*
X017639Y003186D01*
X017681Y003217D01*
X017725Y003245D01*
X017771Y003270D01*
X017819Y003291D01*
X017869Y003308D01*
X017919Y003321D01*
X017971Y003331D01*
X018023Y003337D01*
X018075Y003339D01*
X018127Y003337D01*
X018179Y003331D01*
X018231Y003321D01*
X018281Y003308D01*
X018331Y003291D01*
X018379Y003270D01*
X018425Y003245D01*
X018469Y003217D01*
X018511Y003186D01*
X018551Y003152D01*
X018588Y003115D01*
X018622Y003075D01*
X018653Y003033D01*
X018681Y002989D01*
X018706Y002943D01*
X018727Y002895D01*
X018744Y002845D01*
X018757Y002795D01*
X018767Y002743D01*
X018773Y002691D01*
X018775Y002639D01*
X018773Y002587D01*
X018767Y002535D01*
X018757Y002483D01*
X018744Y002433D01*
X018727Y002383D01*
X018706Y002335D01*
X018681Y002289D01*
X018653Y002245D01*
X018622Y002203D01*
X018588Y002163D01*
X018551Y002126D01*
X018511Y002092D01*
X018469Y002061D01*
X018425Y002033D01*
X018379Y002008D01*
X018331Y001987D01*
X018281Y001970D01*
X018231Y001957D01*
X018179Y001947D01*
X018127Y001941D01*
X018075Y001939D01*
X018023Y001941D01*
X017971Y001947D01*
X017919Y001957D01*
X017869Y001970D01*
X017819Y001987D01*
X017771Y002008D01*
X017725Y002033D01*
X017681Y002061D01*
X017639Y002092D01*
X017599Y002126D01*
X017562Y002163D01*
X017528Y002203D01*
X017497Y002245D01*
X017469Y002289D01*
X017444Y002335D01*
X017423Y002383D01*
X017406Y002433D01*
X017393Y002483D01*
X017383Y002535D01*
X017377Y002587D01*
X017375Y002639D01*
X022625Y002189D02*
X022625Y001789D01*
X022625Y002189D02*
X022625Y003139D01*
X022625Y003489D01*
X023425Y003839D02*
X023525Y003839D01*
X023525Y003939D01*
X024125Y003939D01*
X024125Y003839D01*
X024225Y003839D01*
X025025Y003489D02*
X025025Y003139D01*
X025025Y002139D01*
X025025Y001789D01*
X024225Y001439D02*
X024125Y001439D01*
X024125Y001339D01*
X023525Y001339D01*
X023525Y001439D01*
X023425Y001439D01*
X023725Y002639D02*
X023727Y002659D01*
X023733Y002677D01*
X023742Y002695D01*
X023754Y002710D01*
X023769Y002722D01*
X023787Y002731D01*
X023805Y002737D01*
X023825Y002739D01*
X023845Y002737D01*
X023863Y002731D01*
X023881Y002722D01*
X023896Y002710D01*
X023908Y002695D01*
X023917Y002677D01*
X023923Y002659D01*
X023925Y002639D01*
X023923Y002619D01*
X023917Y002601D01*
X023908Y002583D01*
X023896Y002568D01*
X023881Y002556D01*
X023863Y002547D01*
X023845Y002541D01*
X023825Y002539D01*
X023805Y002541D01*
X023787Y002547D01*
X023769Y002556D01*
X023754Y002568D01*
X023742Y002583D01*
X023733Y002601D01*
X023727Y002619D01*
X023725Y002639D01*
X023125Y002639D02*
X023127Y002691D01*
X023133Y002743D01*
X023143Y002795D01*
X023156Y002845D01*
X023173Y002895D01*
X023194Y002943D01*
X023219Y002989D01*
X023247Y003033D01*
X023278Y003075D01*
X023312Y003115D01*
X023349Y003152D01*
X023389Y003186D01*
X023431Y003217D01*
X023475Y003245D01*
X023521Y003270D01*
X023569Y003291D01*
X023619Y003308D01*
X023669Y003321D01*
X023721Y003331D01*
X023773Y003337D01*
X023825Y003339D01*
X023877Y003337D01*
X023929Y003331D01*
X023981Y003321D01*
X024031Y003308D01*
X024081Y003291D01*
X024129Y003270D01*
X024175Y003245D01*
X024219Y003217D01*
X024261Y003186D01*
X024301Y003152D01*
X024338Y003115D01*
X024372Y003075D01*
X024403Y003033D01*
X024431Y002989D01*
X024456Y002943D01*
X024477Y002895D01*
X024494Y002845D01*
X024507Y002795D01*
X024517Y002743D01*
X024523Y002691D01*
X024525Y002639D01*
X024523Y002587D01*
X024517Y002535D01*
X024507Y002483D01*
X024494Y002433D01*
X024477Y002383D01*
X024456Y002335D01*
X024431Y002289D01*
X024403Y002245D01*
X024372Y002203D01*
X024338Y002163D01*
X024301Y002126D01*
X024261Y002092D01*
X024219Y002061D01*
X024175Y002033D01*
X024129Y002008D01*
X024081Y001987D01*
X024031Y001970D01*
X023981Y001957D01*
X023929Y001947D01*
X023877Y001941D01*
X023825Y001939D01*
X023773Y001941D01*
X023721Y001947D01*
X023669Y001957D01*
X023619Y001970D01*
X023569Y001987D01*
X023521Y002008D01*
X023475Y002033D01*
X023431Y002061D01*
X023389Y002092D01*
X023349Y002126D01*
X023312Y002163D01*
X023278Y002203D01*
X023247Y002245D01*
X023219Y002289D01*
X023194Y002335D01*
X023173Y002383D01*
X023156Y002433D01*
X023143Y002483D01*
X023133Y002535D01*
X023127Y002587D01*
X023125Y002639D01*
X023075Y005514D02*
X022825Y005764D01*
X022825Y006264D01*
X023075Y006514D01*
X024575Y006514D01*
X024825Y006764D01*
X024825Y007264D01*
X024575Y007514D01*
X024825Y007764D01*
X024825Y008264D01*
X024575Y008514D01*
X023075Y008514D01*
X022825Y008264D01*
X022825Y007764D01*
X023075Y007514D01*
X024575Y007514D01*
X024575Y006514D02*
X024825Y006264D01*
X024825Y005764D01*
X024575Y005514D01*
X023075Y005514D01*
X023075Y006514D02*
X022825Y006764D01*
X022825Y007264D01*
X023075Y007514D01*
X028825Y011614D02*
X028825Y013914D01*
X033825Y013914D01*
X033825Y013164D01*
X033786Y013162D01*
X033747Y013156D01*
X033709Y013147D01*
X033672Y013134D01*
X033636Y013117D01*
X033603Y013097D01*
X033571Y013073D01*
X033542Y013047D01*
X033516Y013018D01*
X033492Y012986D01*
X033472Y012953D01*
X033455Y012917D01*
X033442Y012880D01*
X033433Y012842D01*
X033427Y012803D01*
X033425Y012764D01*
X033427Y012725D01*
X033433Y012686D01*
X033442Y012648D01*
X033455Y012611D01*
X033472Y012575D01*
X033492Y012542D01*
X033516Y012510D01*
X033542Y012481D01*
X033571Y012455D01*
X033603Y012431D01*
X033636Y012411D01*
X033672Y012394D01*
X033709Y012381D01*
X033747Y012372D01*
X033786Y012366D01*
X033825Y012364D01*
X033825Y011614D01*
X028825Y011614D01*
X034950Y006639D02*
X034950Y006139D01*
X035200Y005889D01*
X035700Y005889D01*
X035950Y006139D01*
X035950Y006639D01*
X035700Y006889D01*
X035200Y006889D01*
X034950Y006639D01*
X035200Y005889D02*
X034950Y005639D01*
X034950Y005139D01*
X035200Y004889D01*
X035700Y004889D01*
X035950Y005139D01*
X035950Y005639D01*
X035700Y005889D01*
X035700Y004889D02*
X035950Y004639D01*
X035950Y004139D01*
X035700Y003889D01*
X035950Y003639D01*
X035950Y003139D01*
X035700Y002889D01*
X035950Y002639D01*
X035950Y002139D01*
X035700Y001889D01*
X035950Y001639D01*
X035950Y001139D01*
X035700Y000889D01*
X035200Y000889D01*
X034950Y001139D01*
X034950Y001639D01*
X035200Y001889D01*
X034950Y002139D01*
X034950Y002639D01*
X035200Y002889D01*
X035700Y002889D01*
X035200Y002889D02*
X034950Y003139D01*
X034950Y003639D01*
X035200Y003889D01*
X034950Y004139D01*
X034950Y004639D01*
X035200Y004889D01*
X035200Y003889D02*
X035700Y003889D01*
X035700Y001889D02*
X035200Y001889D01*
X035895Y010997D02*
X036536Y011424D01*
X036536Y011642D02*
X036536Y012069D01*
X036575Y011889D02*
X036325Y011639D01*
X035825Y011639D01*
X035575Y011889D01*
X035575Y012389D01*
X035825Y012639D01*
X035575Y012889D01*
X035575Y013389D01*
X035825Y013639D01*
X036325Y013639D01*
X036575Y013389D01*
X036575Y012889D01*
X036325Y012639D01*
X036575Y012389D01*
X036575Y011889D01*
X036536Y011855D02*
X035895Y011855D01*
X036109Y011642D01*
X035895Y011424D02*
X036536Y010997D01*
X036325Y012639D02*
X035825Y012639D01*
X031505Y020019D02*
X031292Y020019D01*
X031185Y020126D01*
X031185Y020340D01*
X031505Y020340D01*
X031612Y020233D01*
X031612Y020126D01*
X031505Y020019D01*
X031185Y020340D02*
X031399Y020553D01*
X031612Y020660D01*
X030968Y020553D02*
X030861Y020660D01*
X030647Y020660D01*
X030541Y020553D01*
X030541Y020126D01*
X030647Y020019D01*
X030861Y020019D01*
X030968Y020126D01*
X030324Y020019D02*
X030111Y020019D01*
X030218Y020019D02*
X030218Y020660D01*
X030324Y020660D02*
X030111Y020660D01*
X025250Y027214D02*
X025150Y027214D01*
X025250Y027214D02*
X025250Y027314D01*
X025250Y027714D02*
X025250Y027814D01*
X025150Y027814D01*
X024750Y027814D02*
X024650Y027814D01*
X024650Y027714D01*
X024650Y027314D02*
X024650Y027214D01*
X024750Y027214D01*
X027450Y028264D02*
X027700Y028014D01*
X028200Y028014D01*
X028450Y028264D01*
X028700Y028014D01*
X029200Y028014D01*
X029450Y028264D01*
X029450Y028764D01*
X029200Y029014D01*
X028700Y029014D01*
X028450Y028764D01*
X028450Y028264D01*
X028450Y028764D02*
X028200Y029014D01*
X027700Y029014D01*
X027450Y028764D01*
X027450Y028264D01*
X029450Y028264D02*
X029700Y028014D01*
X030200Y028014D01*
X030450Y028264D01*
X030700Y028014D01*
X031200Y028014D01*
X031450Y028264D01*
X031700Y028014D01*
X032200Y028014D01*
X032450Y028264D01*
X032450Y028764D01*
X032200Y029014D01*
X031700Y029014D01*
X031450Y028764D01*
X031450Y028264D01*
X031450Y028764D02*
X031200Y029014D01*
X030700Y029014D01*
X030450Y028764D01*
X030450Y028264D01*
X030450Y028764D02*
X030200Y029014D01*
X029700Y029014D01*
X029450Y028764D01*
X028090Y032794D02*
X027663Y032794D01*
X027877Y032794D02*
X027877Y033435D01*
X027663Y033221D01*
X027446Y033435D02*
X027446Y032794D01*
X027019Y033435D01*
X027019Y032794D01*
X026801Y032794D02*
X026801Y033221D01*
X026588Y033435D01*
X026374Y033221D01*
X026374Y032794D01*
X026157Y032901D02*
X026050Y032794D01*
X025836Y032794D01*
X025730Y032901D01*
X025730Y033328D01*
X025836Y033435D01*
X026050Y033435D01*
X026157Y033328D01*
X026374Y033115D02*
X026801Y033115D01*
X020340Y033328D02*
X020340Y032901D01*
X020234Y032794D01*
X020020Y032794D01*
X019913Y032901D01*
X020340Y033328D01*
X020234Y033435D01*
X020020Y033435D01*
X019913Y033328D01*
X019913Y032901D01*
X019696Y032794D02*
X019696Y033435D01*
X019269Y033435D02*
X019696Y032794D01*
X019269Y032794D02*
X019269Y033435D01*
X019051Y033221D02*
X019051Y032794D01*
X019051Y033115D02*
X018624Y033115D01*
X018624Y033221D02*
X018838Y033435D01*
X019051Y033221D01*
X018624Y033221D02*
X018624Y032794D01*
X018407Y032901D02*
X018300Y032794D01*
X018086Y032794D01*
X017980Y032901D01*
X017980Y033328D01*
X018086Y033435D01*
X018300Y033435D01*
X018407Y033328D01*
X002950Y019264D02*
X002952Y019308D01*
X002958Y019352D01*
X002968Y019395D01*
X002981Y019437D01*
X002998Y019478D01*
X003019Y019517D01*
X003043Y019554D01*
X003070Y019589D01*
X003100Y019621D01*
X003133Y019651D01*
X003169Y019677D01*
X003206Y019701D01*
X003246Y019720D01*
X003287Y019737D01*
X003330Y019749D01*
X003373Y019758D01*
X003417Y019763D01*
X003461Y019764D01*
X003505Y019761D01*
X003549Y019754D01*
X003592Y019743D01*
X003634Y019729D01*
X003674Y019711D01*
X003713Y019689D01*
X003749Y019665D01*
X003783Y019637D01*
X003815Y019606D01*
X003844Y019572D01*
X003870Y019536D01*
X003892Y019498D01*
X003911Y019458D01*
X003926Y019416D01*
X003938Y019374D01*
X003946Y019330D01*
X003950Y019286D01*
X003950Y019242D01*
X003946Y019198D01*
X003938Y019154D01*
X003926Y019112D01*
X003911Y019070D01*
X003892Y019030D01*
X003870Y018992D01*
X003844Y018956D01*
X003815Y018922D01*
X003783Y018891D01*
X003749Y018863D01*
X003713Y018839D01*
X003674Y018817D01*
X003634Y018799D01*
X003592Y018785D01*
X003549Y018774D01*
X003505Y018767D01*
X003461Y018764D01*
X003417Y018765D01*
X003373Y018770D01*
X003330Y018779D01*
X003287Y018791D01*
X003246Y018808D01*
X003206Y018827D01*
X003169Y018851D01*
X003133Y018877D01*
X003100Y018907D01*
X003070Y018939D01*
X003043Y018974D01*
X003019Y019011D01*
X002998Y019050D01*
X002981Y019091D01*
X002968Y019133D01*
X002958Y019176D01*
X002952Y019220D01*
X002950Y019264D01*
X001050Y019264D02*
X001053Y019382D01*
X001062Y019499D01*
X001076Y019616D01*
X001096Y019732D01*
X001122Y019847D01*
X001153Y019961D01*
X001190Y020073D01*
X001233Y020182D01*
X001280Y020290D01*
X001333Y020395D01*
X001391Y020498D01*
X001454Y020597D01*
X001522Y020694D01*
X001595Y020787D01*
X001672Y020876D01*
X001753Y020961D01*
X001838Y021042D01*
X001927Y021119D01*
X002020Y021192D01*
X002117Y021260D01*
X002216Y021323D01*
X002319Y021381D01*
X002424Y021434D01*
X002532Y021481D01*
X002641Y021524D01*
X002753Y021561D01*
X002867Y021592D01*
X002982Y021618D01*
X003098Y021638D01*
X003215Y021652D01*
X003332Y021661D01*
X003450Y021664D01*
X003568Y021661D01*
X003685Y021652D01*
X003802Y021638D01*
X003918Y021618D01*
X004033Y021592D01*
X004147Y021561D01*
X004259Y021524D01*
X004368Y021481D01*
X004476Y021434D01*
X004581Y021381D01*
X004684Y021323D01*
X004783Y021260D01*
X004880Y021192D01*
X004973Y021119D01*
X005062Y021042D01*
X005147Y020961D01*
X005228Y020876D01*
X005305Y020787D01*
X005378Y020694D01*
X005446Y020597D01*
X005509Y020498D01*
X005567Y020395D01*
X005620Y020290D01*
X005667Y020182D01*
X005710Y020073D01*
X005747Y019961D01*
X005778Y019847D01*
X005804Y019732D01*
X005824Y019616D01*
X005838Y019499D01*
X005847Y019382D01*
X005850Y019264D01*
X005847Y019146D01*
X005838Y019029D01*
X005824Y018912D01*
X005804Y018796D01*
X005778Y018681D01*
X005747Y018567D01*
X005710Y018455D01*
X005667Y018346D01*
X005620Y018238D01*
X005567Y018133D01*
X005509Y018030D01*
X005446Y017931D01*
X005378Y017834D01*
X005305Y017741D01*
X005228Y017652D01*
X005147Y017567D01*
X005062Y017486D01*
X004973Y017409D01*
X004880Y017336D01*
X004783Y017268D01*
X004684Y017205D01*
X004581Y017147D01*
X004476Y017094D01*
X004368Y017047D01*
X004259Y017004D01*
X004147Y016967D01*
X004033Y016936D01*
X003918Y016910D01*
X003802Y016890D01*
X003685Y016876D01*
X003568Y016867D01*
X003450Y016864D01*
X003332Y016867D01*
X003215Y016876D01*
X003098Y016890D01*
X002982Y016910D01*
X002867Y016936D01*
X002753Y016967D01*
X002641Y017004D01*
X002532Y017047D01*
X002424Y017094D01*
X002319Y017147D01*
X002216Y017205D01*
X002117Y017268D01*
X002020Y017336D01*
X001927Y017409D01*
X001838Y017486D01*
X001753Y017567D01*
X001672Y017652D01*
X001595Y017741D01*
X001522Y017834D01*
X001454Y017931D01*
X001391Y018030D01*
X001333Y018133D01*
X001280Y018238D01*
X001233Y018346D01*
X001190Y018455D01*
X001153Y018567D01*
X001122Y018681D01*
X001096Y018796D01*
X001076Y018912D01*
X001062Y019029D01*
X001053Y019146D01*
X001050Y019264D01*
X001711Y024544D02*
X001605Y024651D01*
X001711Y024544D02*
X001925Y024544D01*
X002032Y024651D01*
X002032Y024758D01*
X001925Y024865D01*
X001711Y024865D01*
X001605Y024971D01*
X001605Y025078D01*
X001711Y025185D01*
X001925Y025185D01*
X002032Y025078D01*
X002249Y024865D02*
X002569Y024865D01*
X002676Y024758D01*
X002676Y024651D01*
X002569Y024544D01*
X002356Y024544D01*
X002249Y024651D01*
X002249Y024865D01*
X002463Y025078D01*
X002676Y025185D01*
X037330Y025389D02*
X039633Y024889D01*
X039633Y024389D01*
X037330Y023889D01*
X037330Y022889D02*
X039633Y022389D01*
X039633Y021889D01*
X037330Y021389D01*
X037330Y028139D02*
X039633Y028639D01*
X039633Y029139D01*
X037330Y029639D01*
X037330Y030639D02*
X039633Y031139D01*
X039633Y031639D01*
X037330Y032139D01*
X037950Y035264D02*
X037700Y035514D01*
X037700Y036014D01*
X037950Y036264D01*
X038450Y036264D01*
X038700Y036014D01*
X038950Y036264D01*
X039450Y036264D01*
X039700Y036014D01*
X039700Y035514D01*
X039450Y035264D01*
X038950Y035264D01*
X038700Y035514D01*
X038450Y035264D01*
X037950Y035264D01*
X038700Y035514D02*
X038700Y036014D01*
D12*
X038575Y035120D02*
X038345Y035120D01*
X038345Y034659D01*
X038345Y034813D02*
X038575Y034813D01*
X038652Y034890D01*
X038652Y035043D01*
X038575Y035120D01*
X038498Y034813D02*
X038652Y034659D01*
X038805Y034890D02*
X039112Y034890D01*
X039035Y035120D02*
X039035Y034659D01*
X038805Y034890D02*
X039035Y035120D01*
X034066Y038736D02*
X033989Y038659D01*
X033836Y038659D01*
X033759Y038736D01*
X033759Y038890D02*
X033913Y038966D01*
X033989Y038966D01*
X034066Y038890D01*
X034066Y038736D01*
X033759Y038890D02*
X033759Y039120D01*
X034066Y039120D01*
X033606Y038890D02*
X033299Y038890D01*
X033529Y039120D01*
X033529Y038659D01*
X033069Y038736D02*
X033069Y039120D01*
X033145Y039120D02*
X032992Y039120D01*
X032685Y039043D02*
X032685Y038890D01*
X032608Y038813D01*
X032378Y038813D01*
X032532Y038813D02*
X032685Y038659D01*
X032838Y038736D02*
X032915Y038659D01*
X032992Y038659D01*
X033069Y038736D01*
X032685Y039043D02*
X032608Y039120D01*
X032378Y039120D01*
X032378Y038659D01*
X026566Y038736D02*
X026489Y038659D01*
X026336Y038659D01*
X026259Y038736D01*
X026259Y038890D02*
X026413Y038966D01*
X026489Y038966D01*
X026566Y038890D01*
X026566Y038736D01*
X026259Y038890D02*
X026259Y039120D01*
X026566Y039120D01*
X026106Y038890D02*
X025799Y038890D01*
X026029Y039120D01*
X026029Y038659D01*
X025569Y038736D02*
X025569Y039120D01*
X025645Y039120D02*
X025492Y039120D01*
X025185Y039043D02*
X025185Y038890D01*
X025108Y038813D01*
X024878Y038813D01*
X025032Y038813D02*
X025185Y038659D01*
X025338Y038736D02*
X025415Y038659D01*
X025492Y038659D01*
X025569Y038736D01*
X025185Y039043D02*
X025108Y039120D01*
X024878Y039120D01*
X024878Y038659D01*
X018816Y038736D02*
X018739Y038659D01*
X018586Y038659D01*
X018509Y038736D01*
X018509Y038890D02*
X018663Y038966D01*
X018739Y038966D01*
X018816Y038890D01*
X018816Y038736D01*
X018509Y038890D02*
X018509Y039120D01*
X018816Y039120D01*
X018356Y038890D02*
X018049Y038890D01*
X018279Y039120D01*
X018279Y038659D01*
X017819Y038736D02*
X017819Y039120D01*
X017895Y039120D02*
X017742Y039120D01*
X017435Y039043D02*
X017435Y038890D01*
X017358Y038813D01*
X017128Y038813D01*
X017282Y038813D02*
X017435Y038659D01*
X017588Y038736D02*
X017665Y038659D01*
X017742Y038659D01*
X017819Y038736D01*
X017435Y039043D02*
X017358Y039120D01*
X017128Y039120D01*
X017128Y038659D01*
X011316Y038736D02*
X011239Y038659D01*
X011086Y038659D01*
X011009Y038736D01*
X011009Y038890D02*
X011163Y038966D01*
X011239Y038966D01*
X011316Y038890D01*
X011316Y038736D01*
X011009Y038890D02*
X011009Y039120D01*
X011316Y039120D01*
X010856Y038890D02*
X010549Y038890D01*
X010779Y039120D01*
X010779Y038659D01*
X010395Y039120D02*
X010242Y039120D01*
X010319Y039120D02*
X010319Y038736D01*
X010242Y038659D01*
X010165Y038659D01*
X010088Y038736D01*
X009935Y038659D02*
X009782Y038813D01*
X009858Y038813D02*
X009628Y038813D01*
X009628Y038659D02*
X009628Y039120D01*
X009858Y039120D01*
X009935Y039043D01*
X009935Y038890D01*
X009858Y038813D01*
X006691Y037043D02*
X006691Y036966D01*
X006614Y036890D01*
X006691Y036813D01*
X006691Y036736D01*
X006614Y036659D01*
X006461Y036659D01*
X006384Y036736D01*
X006231Y036659D02*
X006077Y036813D01*
X006154Y036813D02*
X005924Y036813D01*
X005924Y036659D02*
X005924Y037120D01*
X006154Y037120D01*
X006231Y037043D01*
X006231Y036890D01*
X006154Y036813D01*
X006384Y037043D02*
X006461Y037120D01*
X006614Y037120D01*
X006691Y037043D01*
X006614Y036890D02*
X006538Y036890D01*
X006152Y034640D02*
X005845Y034640D01*
X006123Y031793D02*
X006123Y031486D01*
X005970Y031640D02*
X006277Y031640D01*
X006344Y031308D02*
X006651Y031308D01*
X006805Y031154D01*
X006651Y031001D01*
X006344Y031001D01*
X006421Y030847D02*
X006344Y030771D01*
X006344Y030617D01*
X006421Y030541D01*
X006421Y030847D02*
X006498Y030847D01*
X006805Y030541D01*
X006805Y030847D01*
X006805Y030387D02*
X006805Y030080D01*
X006805Y030234D02*
X006344Y030234D01*
X006498Y030080D01*
X006421Y029927D02*
X006344Y029850D01*
X006344Y029696D01*
X006421Y029620D01*
X006728Y029620D01*
X006805Y029696D01*
X006805Y029850D01*
X006728Y029927D01*
X006728Y029466D02*
X006421Y029466D01*
X006344Y029390D01*
X006344Y029159D01*
X006805Y029159D01*
X006805Y029390D01*
X006728Y029466D01*
X007344Y029532D02*
X007344Y029685D01*
X007421Y029762D01*
X007728Y029455D01*
X007805Y029532D01*
X007805Y029685D01*
X007728Y029762D01*
X007421Y029762D01*
X007344Y029532D02*
X007421Y029455D01*
X007728Y029455D01*
X007574Y029302D02*
X007574Y028995D01*
X007344Y029225D01*
X007805Y029225D01*
X007805Y028841D02*
X007651Y028688D01*
X007651Y028765D02*
X007651Y028534D01*
X007805Y028534D02*
X007344Y028534D01*
X007344Y028765D01*
X007421Y028841D01*
X007574Y028841D01*
X007651Y028765D01*
X010594Y029693D02*
X010978Y029693D01*
X011055Y029770D01*
X011055Y029923D01*
X010978Y030000D01*
X010594Y030000D01*
X010671Y030153D02*
X010594Y030230D01*
X010594Y030383D01*
X010671Y030460D01*
X010824Y030383D02*
X010824Y030230D01*
X010748Y030153D01*
X010671Y030153D01*
X010518Y030307D02*
X011131Y030307D01*
X011055Y030383D02*
X010978Y030460D01*
X010901Y030460D01*
X010824Y030383D01*
X011055Y030383D02*
X011055Y030230D01*
X010978Y030153D01*
X011055Y030614D02*
X011055Y030921D01*
X011055Y031074D02*
X011055Y031381D01*
X011055Y031227D02*
X010594Y031227D01*
X010748Y031074D01*
X010594Y030767D02*
X011055Y030767D01*
X010748Y030614D02*
X010594Y030767D01*
X011470Y026495D02*
X011700Y026495D01*
X011777Y026418D01*
X011777Y026265D01*
X011700Y026188D01*
X011470Y026188D01*
X011623Y026188D02*
X011777Y026034D01*
X011930Y026265D02*
X012237Y026265D01*
X012390Y026341D02*
X012544Y026495D01*
X012544Y026034D01*
X012697Y026034D02*
X012390Y026034D01*
X012160Y026034D02*
X012160Y026495D01*
X011930Y026265D01*
X011470Y026034D02*
X011470Y026495D01*
X012094Y025226D02*
X012094Y024766D01*
X012401Y024766D01*
X012554Y024766D02*
X012554Y025226D01*
X012861Y025226D01*
X013014Y025226D02*
X013245Y025226D01*
X013321Y025149D01*
X013321Y024842D01*
X013245Y024766D01*
X013014Y024766D01*
X013014Y025226D01*
X012708Y024996D02*
X012554Y024996D01*
X012554Y024766D02*
X012861Y024766D01*
X013475Y024842D02*
X013475Y024996D01*
X013705Y024996D01*
X013782Y024919D01*
X013782Y024842D01*
X013705Y024766D01*
X013552Y024766D01*
X013475Y024842D01*
X013475Y024996D02*
X013628Y025149D01*
X013782Y025226D01*
X016414Y027105D02*
X016414Y027489D01*
X016720Y027489D02*
X016720Y027105D01*
X016644Y027028D01*
X016490Y027028D01*
X016414Y027105D01*
X016874Y027105D02*
X016951Y027028D01*
X017104Y027028D01*
X017181Y027105D01*
X017181Y027182D01*
X017104Y027259D01*
X016951Y027259D01*
X016874Y027335D01*
X016874Y027412D01*
X016951Y027489D01*
X017104Y027489D01*
X017181Y027412D01*
X017334Y027412D02*
X017411Y027489D01*
X017565Y027489D01*
X017641Y027412D01*
X017641Y027335D01*
X017334Y027028D01*
X017641Y027028D01*
X017795Y027105D02*
X017871Y027028D01*
X018025Y027028D01*
X018102Y027105D01*
X018102Y027182D01*
X018025Y027259D01*
X017795Y027259D01*
X017795Y027105D01*
X017795Y027259D02*
X017948Y027412D01*
X018102Y027489D01*
X018719Y027986D02*
X018796Y027909D01*
X019103Y027909D01*
X019180Y027986D01*
X019180Y028140D01*
X019103Y028216D01*
X019180Y028370D02*
X018873Y028677D01*
X018796Y028677D01*
X018719Y028600D01*
X018719Y028446D01*
X018796Y028370D01*
X018796Y028216D02*
X018719Y028140D01*
X018719Y027986D01*
X019180Y028370D02*
X019180Y028677D01*
X019103Y028830D02*
X019180Y028907D01*
X019180Y029060D01*
X019103Y029137D01*
X018949Y029137D01*
X018873Y029060D01*
X018873Y028984D01*
X018949Y028830D01*
X018719Y028830D01*
X018719Y029137D01*
X017027Y027566D02*
X017027Y026952D01*
X016353Y028489D02*
X016046Y028489D01*
X015969Y028565D01*
X015969Y028719D01*
X016046Y028796D01*
X016199Y028949D02*
X016046Y029102D01*
X015969Y029256D01*
X016199Y029179D02*
X016199Y028949D01*
X016353Y028949D01*
X016430Y029026D01*
X016430Y029179D01*
X016353Y029256D01*
X016276Y029256D01*
X016199Y029179D01*
X016353Y028796D02*
X016430Y028719D01*
X016430Y028565D01*
X016353Y028489D01*
X021594Y030315D02*
X021671Y030239D01*
X021978Y030239D01*
X022055Y030315D01*
X022055Y030469D01*
X021978Y030546D01*
X021978Y030699D02*
X022055Y030699D01*
X021978Y030699D02*
X021671Y031006D01*
X021594Y031006D01*
X021594Y030699D01*
X021671Y030546D02*
X021594Y030469D01*
X021594Y030315D01*
X025594Y030355D02*
X025671Y030278D01*
X025978Y030278D01*
X026055Y030355D01*
X026055Y030508D01*
X025978Y030585D01*
X026055Y030739D02*
X026055Y031046D01*
X026055Y030892D02*
X025594Y030892D01*
X025748Y030739D01*
X025671Y030585D02*
X025594Y030508D01*
X025594Y030355D01*
X025594Y031199D02*
X025824Y031199D01*
X025748Y031352D01*
X025748Y031429D01*
X025824Y031506D01*
X025978Y031506D01*
X026055Y031429D01*
X026055Y031276D01*
X025978Y031199D01*
X025594Y031199D02*
X025594Y031506D01*
X027594Y030929D02*
X027824Y030699D01*
X027824Y031006D01*
X027594Y030929D02*
X028055Y030929D01*
X027978Y030546D02*
X028055Y030469D01*
X028055Y030315D01*
X027978Y030239D01*
X027978Y030085D02*
X028055Y030008D01*
X028055Y029855D01*
X027978Y029778D01*
X027671Y029778D01*
X027594Y029855D01*
X027594Y030008D01*
X027671Y030085D01*
X027671Y030239D02*
X027594Y030315D01*
X027594Y030469D01*
X027671Y030546D01*
X027748Y030546D01*
X027824Y030469D01*
X027901Y030546D01*
X027978Y030546D01*
X027824Y030469D02*
X027824Y030392D01*
X030588Y029120D02*
X030588Y028659D01*
X030588Y028813D02*
X030819Y028813D01*
X030895Y028890D01*
X030895Y029043D01*
X030819Y029120D01*
X030588Y029120D01*
X030742Y028813D02*
X030895Y028659D01*
X031049Y028736D02*
X031126Y028659D01*
X031279Y028659D01*
X031356Y028736D01*
X031356Y028890D01*
X031279Y028966D01*
X031202Y028966D01*
X031049Y028890D01*
X031049Y029120D01*
X031356Y029120D01*
X031509Y029043D02*
X031509Y028966D01*
X031586Y028890D01*
X031816Y028890D01*
X031816Y029043D02*
X031816Y028736D01*
X031739Y028659D01*
X031586Y028659D01*
X031509Y028736D01*
X031509Y029043D02*
X031586Y029120D01*
X031739Y029120D01*
X031816Y029043D01*
X031671Y030278D02*
X031978Y030278D01*
X032055Y030355D01*
X032055Y030508D01*
X031978Y030585D01*
X031978Y030739D02*
X032055Y030815D01*
X032055Y030969D01*
X031978Y031046D01*
X031901Y031046D01*
X031824Y030969D01*
X031824Y030892D01*
X031824Y030969D02*
X031748Y031046D01*
X031671Y031046D01*
X031594Y030969D01*
X031594Y030815D01*
X031671Y030739D01*
X031671Y030585D02*
X031594Y030508D01*
X031594Y030355D01*
X031671Y030278D01*
X031594Y031199D02*
X031824Y031199D01*
X031748Y031352D01*
X031748Y031429D01*
X031824Y031506D01*
X031978Y031506D01*
X032055Y031429D01*
X032055Y031276D01*
X031978Y031199D01*
X031594Y031199D02*
X031594Y031506D01*
X033719Y028387D02*
X033719Y028080D01*
X033949Y028080D01*
X033873Y028234D01*
X033873Y028310D01*
X033949Y028387D01*
X034103Y028387D01*
X034180Y028310D01*
X034180Y028157D01*
X034103Y028080D01*
X034072Y027995D02*
X034072Y027918D01*
X033765Y027611D01*
X033765Y027534D01*
X033719Y027466D02*
X034180Y027159D01*
X034072Y027216D02*
X033996Y027140D01*
X033842Y027140D01*
X033765Y027216D01*
X033765Y027293D01*
X033842Y027370D01*
X033996Y027370D01*
X034072Y027293D01*
X034072Y027216D01*
X033996Y027140D02*
X034072Y027063D01*
X034072Y026986D01*
X033996Y026909D01*
X033842Y026909D01*
X033765Y026986D01*
X033765Y027063D01*
X033842Y027140D01*
X033719Y027159D02*
X034180Y027466D01*
X034180Y027620D02*
X033873Y027927D01*
X033796Y027927D01*
X033719Y027850D01*
X033719Y027696D01*
X033796Y027620D01*
X033612Y027611D02*
X033535Y027534D01*
X033382Y027534D01*
X033305Y027611D01*
X033305Y027765D02*
X033459Y027841D01*
X033535Y027841D01*
X033612Y027765D01*
X033612Y027611D01*
X033612Y027370D02*
X033305Y027370D01*
X033305Y027140D01*
X033459Y027216D01*
X033535Y027216D01*
X033612Y027140D01*
X033612Y026986D01*
X033535Y026909D01*
X033382Y026909D01*
X033305Y026986D01*
X033152Y026909D02*
X032998Y027063D01*
X033075Y027063D02*
X032845Y027063D01*
X032845Y026909D02*
X032845Y027370D01*
X033075Y027370D01*
X033152Y027293D01*
X033152Y027140D01*
X033075Y027063D01*
X033152Y027534D02*
X032998Y027688D01*
X033075Y027688D02*
X032845Y027688D01*
X032845Y027534D02*
X032845Y027995D01*
X033075Y027995D01*
X033152Y027918D01*
X033152Y027765D01*
X033075Y027688D01*
X033305Y027765D02*
X033305Y027995D01*
X033612Y027995D01*
X033765Y027995D02*
X034072Y027995D01*
X034180Y027927D02*
X034180Y027620D01*
X032532Y026649D02*
X032532Y026573D01*
X032455Y026496D01*
X032302Y026496D01*
X032225Y026573D01*
X032225Y026649D01*
X032302Y026726D01*
X032455Y026726D01*
X032532Y026649D01*
X032455Y026496D02*
X032532Y026419D01*
X032532Y026342D01*
X032455Y026266D01*
X032302Y026266D01*
X032225Y026342D01*
X032225Y026419D01*
X032302Y026496D01*
X032071Y026649D02*
X031995Y026726D01*
X031764Y026726D01*
X031764Y026266D01*
X031995Y026266D01*
X032071Y026342D01*
X032071Y026649D01*
X031611Y026726D02*
X031304Y026726D01*
X031304Y026266D01*
X031611Y026266D01*
X031611Y026101D02*
X031304Y026101D01*
X031304Y025641D01*
X031611Y025641D01*
X031764Y025641D02*
X031995Y025641D01*
X032071Y025717D01*
X032071Y026024D01*
X031995Y026101D01*
X031764Y026101D01*
X031764Y025641D01*
X031458Y025871D02*
X031304Y025871D01*
X031151Y025641D02*
X030844Y025641D01*
X030844Y026101D01*
X030844Y026266D02*
X031151Y026266D01*
X031304Y026496D02*
X031458Y026496D01*
X030844Y026726D02*
X030844Y026266D01*
X032225Y026024D02*
X032225Y025948D01*
X032302Y025871D01*
X032532Y025871D01*
X032532Y026024D02*
X032455Y026101D01*
X032302Y026101D01*
X032225Y026024D01*
X032225Y025717D02*
X032302Y025641D01*
X032455Y025641D01*
X032532Y025717D01*
X032532Y026024D01*
X033796Y021637D02*
X034103Y021330D01*
X034180Y021407D01*
X034180Y021560D01*
X034103Y021637D01*
X033796Y021637D01*
X033719Y021560D01*
X033719Y021407D01*
X033796Y021330D01*
X034103Y021330D01*
X034180Y021177D02*
X034180Y020870D01*
X034180Y021023D02*
X033719Y021023D01*
X033873Y020870D01*
X033719Y020716D02*
X034180Y020409D01*
X034180Y020716D02*
X033719Y020409D01*
X032930Y020185D02*
X032853Y020262D01*
X032546Y020262D01*
X032469Y020185D01*
X032469Y020032D01*
X032546Y019955D01*
X032623Y019955D01*
X032699Y020032D01*
X032699Y020262D01*
X032930Y020185D02*
X032930Y020032D01*
X032853Y019955D01*
X032930Y019802D02*
X032930Y019495D01*
X032930Y019648D02*
X032469Y019648D01*
X032623Y019495D01*
X032546Y019341D02*
X032469Y019265D01*
X032469Y019111D01*
X032546Y019034D01*
X032853Y019034D01*
X032930Y019111D01*
X032930Y019265D01*
X032853Y019341D01*
X032430Y019265D02*
X032353Y019341D01*
X032430Y019265D02*
X032430Y019111D01*
X032353Y019034D01*
X032046Y019034D01*
X031969Y019111D01*
X031969Y019265D01*
X032046Y019341D01*
X032123Y019495D02*
X031969Y019648D01*
X032430Y019648D01*
X032430Y019495D02*
X032430Y019802D01*
X032353Y019955D02*
X032276Y019955D01*
X032199Y020032D01*
X032199Y020185D01*
X032276Y020262D01*
X032353Y020262D01*
X032430Y020185D01*
X032430Y020032D01*
X032353Y019955D01*
X032199Y020032D02*
X032123Y019955D01*
X032046Y019955D01*
X031969Y020032D01*
X031969Y020185D01*
X032046Y020262D01*
X032123Y020262D01*
X032199Y020185D01*
X033898Y019237D02*
X035626Y019237D01*
X037048Y019237D02*
X040350Y019237D01*
X040350Y014542D01*
X037048Y014542D01*
X037963Y014370D02*
X037963Y013986D01*
X038040Y013909D01*
X038194Y013909D01*
X038270Y013986D01*
X038270Y014370D01*
X038424Y014293D02*
X038424Y014216D01*
X038501Y014140D01*
X038654Y014140D01*
X038731Y014063D01*
X038731Y013986D01*
X038654Y013909D01*
X038501Y013909D01*
X038424Y013986D01*
X038424Y014293D02*
X038501Y014370D01*
X038654Y014370D01*
X038731Y014293D01*
X038884Y014370D02*
X039114Y014370D01*
X039191Y014293D01*
X039191Y014216D01*
X039114Y014140D01*
X038884Y014140D01*
X038884Y014370D02*
X038884Y013909D01*
X039114Y013909D01*
X039191Y013986D01*
X039191Y014063D01*
X039114Y014140D01*
X035626Y014542D02*
X033898Y014542D01*
X033898Y019237D01*
X033084Y017495D02*
X033084Y017034D01*
X033237Y017034D02*
X032930Y017034D01*
X032777Y017034D02*
X032623Y017188D01*
X032700Y017188D02*
X032470Y017188D01*
X032470Y017034D02*
X032470Y017495D01*
X032700Y017495D01*
X032777Y017418D01*
X032777Y017265D01*
X032700Y017188D01*
X032930Y017341D02*
X033084Y017495D01*
X033160Y016620D02*
X033007Y016620D01*
X032930Y016543D01*
X032777Y016543D02*
X032777Y016390D01*
X032700Y016313D01*
X032470Y016313D01*
X032623Y016313D02*
X032777Y016159D01*
X032930Y016159D02*
X033237Y016466D01*
X033237Y016543D01*
X033160Y016620D01*
X032777Y016543D02*
X032700Y016620D01*
X032470Y016620D01*
X032470Y016159D01*
X032930Y016159D02*
X033237Y016159D01*
X029862Y016736D02*
X029862Y016813D01*
X029785Y016890D01*
X029555Y016890D01*
X029555Y016736D01*
X029632Y016659D01*
X029785Y016659D01*
X029862Y016736D01*
X029709Y017043D02*
X029555Y016890D01*
X029709Y017043D02*
X029862Y017120D01*
X029402Y017120D02*
X029095Y016659D01*
X029402Y016659D02*
X029095Y017120D01*
X028305Y018409D02*
X027844Y018409D01*
X027844Y018640D01*
X027921Y018716D01*
X028074Y018716D01*
X028151Y018640D01*
X028151Y018409D01*
X028151Y018563D02*
X028305Y018716D01*
X028305Y018870D02*
X028305Y019177D01*
X028305Y019023D02*
X027844Y019023D01*
X027998Y018870D01*
X028074Y019330D02*
X028074Y019560D01*
X028151Y019637D01*
X028228Y019637D01*
X028305Y019560D01*
X028305Y019407D01*
X028228Y019330D01*
X028074Y019330D01*
X027921Y019484D01*
X027844Y019637D01*
X026862Y020486D02*
X026862Y020640D01*
X026785Y020716D01*
X026709Y020716D01*
X026555Y020640D01*
X026555Y020870D01*
X026862Y020870D01*
X026862Y020486D02*
X026785Y020409D01*
X026632Y020409D01*
X026555Y020486D01*
X026402Y020409D02*
X026095Y020870D01*
X026402Y020870D02*
X026095Y020409D01*
X026095Y023659D02*
X026402Y024120D01*
X026555Y024120D02*
X026862Y024120D01*
X026862Y024043D01*
X026555Y023736D01*
X026555Y023659D01*
X026402Y023659D02*
X026095Y024120D01*
X020157Y021149D02*
X020157Y020842D01*
X020080Y020766D01*
X019927Y020766D01*
X019850Y020842D01*
X020157Y021149D01*
X020080Y021226D01*
X019927Y021226D01*
X019850Y021149D01*
X019850Y020842D01*
X019696Y020766D02*
X019389Y020766D01*
X019543Y020766D02*
X019543Y021226D01*
X019389Y021073D01*
X019236Y021149D02*
X019159Y021226D01*
X018929Y021226D01*
X018929Y020766D01*
X019159Y020766D01*
X019236Y020842D01*
X019236Y021149D01*
X018776Y021226D02*
X018469Y021226D01*
X018469Y020766D01*
X018776Y020766D01*
X018779Y020495D02*
X018626Y020495D01*
X018549Y020418D01*
X018395Y020418D02*
X018395Y020265D01*
X018319Y020188D01*
X018088Y020188D01*
X018088Y020034D02*
X018088Y020495D01*
X018319Y020495D01*
X018395Y020418D01*
X018242Y020188D02*
X018395Y020034D01*
X018549Y020111D02*
X018626Y020034D01*
X018779Y020034D01*
X018856Y020111D01*
X018856Y020188D01*
X018779Y020265D01*
X018702Y020265D01*
X018779Y020265D02*
X018856Y020341D01*
X018856Y020418D01*
X018779Y020495D01*
X019009Y020418D02*
X019086Y020495D01*
X019239Y020495D01*
X019316Y020418D01*
X019316Y020341D01*
X019239Y020265D01*
X019316Y020188D01*
X019316Y020111D01*
X019239Y020034D01*
X019086Y020034D01*
X019009Y020111D01*
X019163Y020265D02*
X019239Y020265D01*
X018622Y020996D02*
X018469Y020996D01*
X018315Y020766D02*
X018008Y020766D01*
X018008Y021226D01*
X018014Y019656D02*
X017707Y019656D01*
X017707Y019426D01*
X017860Y019503D01*
X017937Y019503D01*
X018014Y019426D01*
X018014Y019273D01*
X017937Y019196D01*
X017784Y019196D01*
X017707Y019273D01*
X018167Y019196D02*
X018474Y019196D01*
X018321Y019196D02*
X018321Y019656D01*
X018167Y019503D01*
X018663Y018941D02*
X018740Y019018D01*
X019047Y018711D01*
X019124Y018788D01*
X019124Y018941D01*
X019047Y019018D01*
X018740Y019018D01*
X018663Y018941D02*
X018663Y018788D01*
X018740Y018711D01*
X019047Y018711D01*
X019047Y018558D02*
X018893Y018558D01*
X018817Y018481D01*
X018817Y018404D01*
X018893Y018251D01*
X018663Y018251D01*
X018663Y018558D01*
X019047Y018558D02*
X019124Y018481D01*
X019124Y018328D01*
X019047Y018251D01*
X019049Y013270D02*
X018972Y013193D01*
X018972Y012963D01*
X019126Y012963D01*
X019202Y013040D01*
X019202Y013193D01*
X019126Y013270D01*
X019049Y013270D01*
X018819Y013117D02*
X018972Y012963D01*
X018895Y012810D02*
X018819Y012810D01*
X018742Y012733D01*
X018742Y012580D01*
X018819Y012503D01*
X018895Y012810D02*
X019202Y012503D01*
X019202Y012810D01*
X018819Y013117D02*
X018742Y013270D01*
X018435Y012255D02*
X018128Y012255D01*
X018128Y012024D01*
X018281Y012101D01*
X018358Y012101D01*
X018435Y012024D01*
X018435Y011871D01*
X018358Y011794D01*
X018205Y011794D01*
X018128Y011871D01*
X017974Y011794D02*
X017668Y011794D01*
X017974Y012101D01*
X017974Y012178D01*
X017898Y012255D01*
X017744Y012255D01*
X017668Y012178D01*
X017559Y011735D02*
X017789Y011735D01*
X017866Y011658D01*
X017866Y011505D01*
X017789Y011428D01*
X017559Y011428D01*
X017559Y011275D02*
X017559Y011735D01*
X017405Y011735D02*
X017098Y011735D01*
X017098Y011275D01*
X016945Y011351D02*
X016945Y011658D01*
X016868Y011735D01*
X016638Y011735D01*
X016638Y011275D01*
X016868Y011275D01*
X016945Y011351D01*
X017098Y011505D02*
X017252Y011505D01*
X016484Y011351D02*
X016484Y011658D01*
X016408Y011735D01*
X016177Y011735D01*
X016177Y011275D01*
X016408Y011275D01*
X016484Y011351D01*
X016024Y011735D02*
X015717Y011735D01*
X015717Y011275D01*
X015564Y011275D02*
X015257Y011275D01*
X015410Y011275D02*
X015410Y011735D01*
X015257Y011581D01*
X015103Y011581D02*
X015026Y011505D01*
X015103Y011428D01*
X015103Y011351D01*
X015026Y011275D01*
X014873Y011275D01*
X014796Y011351D01*
X014643Y011351D02*
X014643Y011428D01*
X014566Y011505D01*
X014336Y011505D01*
X014336Y011351D01*
X014413Y011275D01*
X014566Y011275D01*
X014643Y011351D01*
X014950Y011505D02*
X015026Y011505D01*
X015103Y011581D02*
X015103Y011658D01*
X015026Y011735D01*
X014873Y011735D01*
X014796Y011658D01*
X014643Y011735D02*
X014489Y011658D01*
X014336Y011505D01*
X014182Y011505D02*
X014182Y011351D01*
X014106Y011275D01*
X013952Y011275D01*
X013875Y011351D01*
X013875Y011505D02*
X014029Y011581D01*
X014106Y011581D01*
X014182Y011505D01*
X014182Y011735D02*
X013875Y011735D01*
X013875Y011505D01*
X013722Y011735D02*
X013415Y011735D01*
X013415Y011275D01*
X013262Y011351D02*
X013185Y011275D01*
X013031Y011275D01*
X012955Y011351D01*
X012955Y011505D02*
X013108Y011581D01*
X013185Y011581D01*
X013262Y011505D01*
X013262Y011351D01*
X013415Y011505D02*
X013569Y011505D01*
X013262Y011735D02*
X012955Y011735D01*
X012955Y011505D01*
X012801Y011505D02*
X012724Y011428D01*
X012494Y011428D01*
X012494Y011275D02*
X012494Y011735D01*
X012724Y011735D01*
X012801Y011658D01*
X012801Y011505D01*
X012648Y011428D02*
X012801Y011275D01*
X012581Y011834D02*
X012274Y011834D01*
X012427Y011834D02*
X012427Y012294D01*
X012274Y012141D01*
X011565Y012149D02*
X011565Y012455D01*
X011565Y012302D02*
X011104Y012302D01*
X011258Y012149D01*
X011181Y012609D02*
X011104Y012686D01*
X011104Y012839D01*
X011181Y012916D01*
X011488Y012609D01*
X011565Y012686D01*
X011565Y012839D01*
X011488Y012916D01*
X011181Y012916D01*
X011181Y013069D02*
X011104Y013146D01*
X011104Y013300D01*
X011181Y013376D01*
X011488Y013069D01*
X011565Y013146D01*
X011565Y013300D01*
X011488Y013376D01*
X011181Y013376D01*
X011181Y013069D02*
X011488Y013069D01*
X011488Y012609D02*
X011181Y012609D01*
X011140Y011620D02*
X011140Y011159D01*
X010987Y011159D02*
X011294Y011159D01*
X010987Y011466D02*
X011140Y011620D01*
X010834Y011543D02*
X010757Y011620D01*
X010603Y011620D01*
X010527Y011543D01*
X010527Y011236D01*
X010603Y011159D01*
X010757Y011159D01*
X010834Y011236D01*
X010373Y011159D02*
X010220Y011159D01*
X010296Y011159D02*
X010296Y011620D01*
X010220Y011620D02*
X010373Y011620D01*
X008930Y011512D02*
X008469Y011512D01*
X008469Y011742D01*
X008546Y011819D01*
X008699Y011819D01*
X008776Y011742D01*
X008776Y011512D01*
X008776Y011666D02*
X008930Y011819D01*
X008853Y011972D02*
X008546Y011972D01*
X008469Y012049D01*
X008469Y012203D01*
X008546Y012279D01*
X008853Y012279D01*
X008930Y012203D01*
X008930Y012049D01*
X008853Y011972D01*
X008930Y012433D02*
X008469Y012433D01*
X008469Y012663D01*
X008546Y012740D01*
X008623Y012740D01*
X008699Y012663D01*
X008699Y012433D01*
X008699Y012663D02*
X008776Y012740D01*
X008853Y012740D01*
X008930Y012663D01*
X008930Y012433D01*
X008853Y012893D02*
X008546Y012893D01*
X008469Y012970D01*
X008469Y013123D01*
X008546Y013200D01*
X008853Y013200D01*
X008930Y013123D01*
X008930Y012970D01*
X008853Y012893D01*
X008853Y013354D02*
X008546Y013354D01*
X008469Y013430D01*
X008469Y013584D01*
X008546Y013661D01*
X008546Y013814D02*
X008853Y013814D01*
X008930Y013891D01*
X008930Y014044D01*
X008853Y014121D01*
X008546Y014121D01*
X008469Y014044D01*
X008469Y013891D01*
X008546Y013814D01*
X008853Y013661D02*
X008930Y013584D01*
X008930Y013430D01*
X008853Y013354D01*
X008930Y014274D02*
X008469Y014274D01*
X008930Y014581D01*
X008469Y014581D01*
X008546Y014735D02*
X008623Y014735D01*
X008699Y014812D01*
X008699Y014965D01*
X008776Y015042D01*
X008853Y015042D01*
X008930Y014965D01*
X008930Y014812D01*
X008853Y014735D01*
X008546Y014735D02*
X008469Y014812D01*
X008469Y014965D01*
X008546Y015042D01*
X008469Y015195D02*
X008469Y015502D01*
X008469Y015349D02*
X008930Y015349D01*
X008853Y015656D02*
X008469Y015656D01*
X008469Y015963D02*
X008853Y015963D01*
X008930Y015886D01*
X008930Y015732D01*
X008853Y015656D01*
X008930Y016116D02*
X008469Y016116D01*
X008469Y016346D01*
X008546Y016423D01*
X008853Y016423D01*
X008930Y016346D01*
X008930Y016116D01*
X008930Y016576D02*
X008930Y016730D01*
X008930Y016653D02*
X008469Y016653D01*
X008469Y016576D02*
X008469Y016730D01*
X008546Y016883D02*
X008853Y016883D01*
X008930Y016960D01*
X008930Y017114D01*
X008853Y017190D01*
X008546Y017190D01*
X008469Y017114D01*
X008469Y016960D01*
X008546Y016883D01*
X008180Y018284D02*
X008180Y018361D01*
X008487Y018668D01*
X008487Y018745D01*
X008180Y018745D01*
X008067Y018687D02*
X008067Y018610D01*
X007990Y018533D01*
X008067Y018457D01*
X008067Y018380D01*
X007990Y018303D01*
X007837Y018303D01*
X007760Y018380D01*
X007720Y018438D02*
X007950Y018438D01*
X008027Y018515D01*
X008027Y018668D01*
X007950Y018745D01*
X007720Y018745D01*
X007720Y018284D01*
X007607Y018380D02*
X007607Y018687D01*
X007530Y018763D01*
X007300Y018763D01*
X007300Y018303D01*
X007530Y018303D01*
X007607Y018380D01*
X007873Y018438D02*
X008027Y018284D01*
X007990Y018533D02*
X007914Y018533D01*
X008067Y018687D02*
X007990Y018763D01*
X007837Y018763D01*
X007760Y018687D01*
X007720Y018909D02*
X007720Y019370D01*
X007950Y019370D01*
X008027Y019293D01*
X008027Y019140D01*
X007950Y019063D01*
X007720Y019063D01*
X007760Y019158D02*
X008067Y019158D01*
X008180Y019216D02*
X008334Y019370D01*
X008334Y018909D01*
X008487Y018909D02*
X008180Y018909D01*
X008027Y018909D02*
X007873Y019063D01*
X007760Y019158D02*
X007990Y019388D01*
X007990Y018928D01*
X007607Y019005D02*
X007607Y019312D01*
X007530Y019388D01*
X007300Y019388D01*
X007300Y018928D01*
X007530Y018928D01*
X007607Y019005D01*
X007146Y018928D02*
X006840Y018928D01*
X006840Y019388D01*
X007146Y019388D01*
X007146Y019553D02*
X006840Y019553D01*
X006840Y020013D01*
X007146Y020013D01*
X007300Y020013D02*
X007530Y020013D01*
X007607Y019937D01*
X007607Y019630D01*
X007530Y019553D01*
X007300Y019553D01*
X007300Y020013D01*
X007300Y020178D02*
X007530Y020178D01*
X007607Y020255D01*
X007607Y020562D01*
X007530Y020638D01*
X007300Y020638D01*
X007300Y020178D01*
X007146Y020178D02*
X006840Y020178D01*
X006840Y020638D01*
X007146Y020638D01*
X006993Y020408D02*
X006840Y020408D01*
X006686Y020178D02*
X006379Y020178D01*
X006379Y020638D01*
X006379Y020013D02*
X006379Y019553D01*
X006686Y019553D01*
X006840Y019783D02*
X006993Y019783D01*
X006993Y019158D02*
X006840Y019158D01*
X006686Y018928D02*
X006379Y018928D01*
X006379Y019388D01*
X006379Y018763D02*
X006379Y018303D01*
X006686Y018303D01*
X006840Y018303D02*
X007146Y018303D01*
X006993Y018533D02*
X006840Y018533D01*
X006840Y018763D02*
X006840Y018303D01*
X006840Y018763D02*
X007146Y018763D01*
X007720Y019534D02*
X007720Y019995D01*
X007950Y019995D01*
X008027Y019918D01*
X008027Y019765D01*
X007950Y019688D01*
X007720Y019688D01*
X007760Y019553D02*
X008067Y019860D01*
X008067Y019937D01*
X007990Y020013D01*
X007837Y020013D01*
X007760Y019937D01*
X007844Y019864D02*
X008305Y020171D01*
X008257Y020159D02*
X008410Y020159D01*
X008487Y020236D01*
X008487Y020390D01*
X008410Y020466D01*
X008334Y020466D01*
X008180Y020390D01*
X008180Y020620D01*
X008487Y020620D01*
X008305Y020554D02*
X008305Y020401D01*
X008228Y020324D01*
X008151Y020324D01*
X008074Y020401D01*
X008074Y020554D01*
X008151Y020631D01*
X008228Y020631D01*
X008305Y020554D01*
X008074Y020554D02*
X007998Y020631D01*
X007921Y020631D01*
X007844Y020554D01*
X007844Y020401D01*
X007921Y020324D01*
X007998Y020324D01*
X008074Y020401D01*
X008027Y020390D02*
X007950Y020313D01*
X007720Y020313D01*
X007760Y020178D02*
X008067Y020178D01*
X008027Y020159D02*
X007873Y020313D01*
X007914Y020178D02*
X007914Y020638D01*
X007760Y020485D01*
X007720Y020620D02*
X007720Y020159D01*
X007844Y020171D02*
X008305Y019864D01*
X008334Y019918D02*
X008180Y019765D01*
X008410Y019765D01*
X008487Y019688D01*
X008487Y019611D01*
X008410Y019534D01*
X008257Y019534D01*
X008180Y019611D01*
X008180Y019765D01*
X008334Y019918D02*
X008487Y019995D01*
X008257Y020159D02*
X008180Y020236D01*
X008027Y020390D02*
X008027Y020543D01*
X007950Y020620D01*
X007720Y020620D01*
X007873Y019688D02*
X008027Y019534D01*
X008067Y019553D02*
X007760Y019553D01*
X008640Y019293D02*
X008717Y019370D01*
X008871Y019370D01*
X008947Y019293D01*
X008947Y019216D01*
X008640Y018909D01*
X008947Y018909D01*
X010254Y019928D02*
X010561Y019928D01*
X010715Y019928D02*
X011021Y019928D01*
X011175Y019928D02*
X011405Y019928D01*
X011482Y020005D01*
X011482Y020312D01*
X011405Y020388D01*
X011175Y020388D01*
X011175Y019928D01*
X010868Y020158D02*
X010715Y020158D01*
X010715Y020388D02*
X010715Y019928D01*
X010715Y020388D02*
X011021Y020388D01*
X011595Y020370D02*
X011595Y019909D01*
X011635Y019928D02*
X011635Y020005D01*
X011942Y020312D01*
X011942Y020388D01*
X011635Y020388D01*
X011595Y020370D02*
X011825Y020370D01*
X011902Y020293D01*
X011902Y020140D01*
X011825Y020063D01*
X011595Y020063D01*
X011748Y020063D02*
X011902Y019909D01*
X012055Y019909D02*
X012362Y020216D01*
X012362Y020293D01*
X012285Y020370D01*
X012132Y020370D01*
X012055Y020293D01*
X012055Y019909D02*
X012362Y019909D01*
X012504Y019977D02*
X012658Y019977D01*
X012734Y020054D01*
X012734Y020438D01*
X012746Y020370D02*
X012822Y020293D01*
X012822Y020216D01*
X012746Y020140D01*
X012592Y020140D01*
X012515Y020216D01*
X012515Y020293D01*
X012592Y020370D01*
X012746Y020370D01*
X012888Y020361D02*
X012964Y020438D01*
X013118Y020438D01*
X013195Y020361D01*
X013348Y020284D02*
X013502Y020438D01*
X013502Y019977D01*
X013655Y019977D02*
X013348Y019977D01*
X013195Y020054D02*
X013195Y020131D01*
X013118Y020207D01*
X012964Y020207D01*
X012888Y020284D01*
X012888Y020361D01*
X013041Y020514D02*
X013041Y019901D01*
X012964Y019977D02*
X013118Y019977D01*
X013195Y020054D01*
X012964Y019977D02*
X012888Y020054D01*
X012822Y020063D02*
X012822Y019986D01*
X012746Y019909D01*
X012592Y019909D01*
X012515Y019986D01*
X012515Y020063D01*
X012592Y020140D01*
X012746Y020140D02*
X012822Y020063D01*
X012504Y019977D02*
X012427Y020054D01*
X012427Y020438D01*
X012340Y019656D02*
X012340Y019426D01*
X012494Y019503D01*
X012571Y019503D01*
X012647Y019426D01*
X012647Y019273D01*
X012571Y019196D01*
X012417Y019196D01*
X012340Y019273D01*
X012187Y019579D02*
X011880Y019273D01*
X011880Y019196D01*
X011880Y019656D02*
X012187Y019656D01*
X012187Y019579D01*
X012340Y019656D02*
X012647Y019656D01*
X011565Y018823D02*
X011488Y018900D01*
X011411Y018900D01*
X011334Y018823D01*
X011334Y018593D01*
X011488Y018593D01*
X011565Y018670D01*
X011565Y018823D01*
X011334Y018593D02*
X011181Y018747D01*
X011104Y018900D01*
X011104Y018440D02*
X011181Y018440D01*
X011488Y018133D01*
X011565Y018133D01*
X011104Y018133D02*
X011104Y018440D01*
X010254Y019928D02*
X010254Y020388D01*
X015717Y011505D02*
X015870Y011505D01*
X015969Y009756D02*
X015969Y009602D01*
X015969Y009679D02*
X016430Y009679D01*
X016430Y009602D02*
X016430Y009756D01*
X016430Y009449D02*
X015969Y009449D01*
X016123Y009296D01*
X015969Y009142D01*
X016430Y009142D01*
X016430Y008989D02*
X015969Y008989D01*
X015969Y008682D02*
X016430Y008989D01*
X016430Y008682D02*
X015969Y008682D01*
X016506Y008528D02*
X016506Y008221D01*
X016430Y008068D02*
X016276Y007914D01*
X016276Y007991D02*
X016276Y007761D01*
X016430Y007761D02*
X015969Y007761D01*
X015969Y007991D01*
X016046Y008068D01*
X016199Y008068D01*
X016276Y007991D01*
X017668Y008063D02*
X017898Y008063D01*
X017975Y008140D01*
X017975Y008293D01*
X017898Y008370D01*
X017668Y008370D01*
X017668Y007909D01*
X017821Y008063D02*
X017975Y007909D01*
X018128Y007833D02*
X018435Y007833D01*
X018588Y007909D02*
X018588Y008370D01*
X018742Y008216D01*
X018895Y008370D01*
X018895Y007909D01*
X018793Y007909D02*
X018793Y008370D01*
X019023Y008370D01*
X019100Y008293D01*
X019100Y008140D01*
X019023Y008063D01*
X018793Y008063D01*
X018946Y008063D02*
X019100Y007909D01*
X019049Y007909D02*
X019279Y007909D01*
X019356Y007986D01*
X019356Y008293D01*
X019279Y008370D01*
X019049Y008370D01*
X019049Y007909D01*
X019253Y007833D02*
X019560Y007833D01*
X019713Y007909D02*
X019713Y008370D01*
X019867Y008216D01*
X020020Y008370D01*
X020020Y007909D01*
X020174Y007909D02*
X020404Y007909D01*
X020481Y007986D01*
X020481Y008293D01*
X020404Y008370D01*
X020174Y008370D01*
X020174Y007909D01*
X019816Y008140D02*
X019509Y008140D01*
X019739Y008370D01*
X019739Y007909D01*
X020634Y007986D02*
X020711Y007909D01*
X020864Y007909D01*
X020941Y007986D01*
X020941Y008063D01*
X020864Y008140D01*
X020788Y008140D01*
X020864Y008140D02*
X020941Y008216D01*
X020941Y008293D01*
X020864Y008370D01*
X020711Y008370D01*
X020634Y008293D01*
X020701Y008154D02*
X020701Y008461D01*
X020701Y008615D02*
X020701Y008845D01*
X020777Y008922D01*
X021084Y008922D01*
X021161Y008845D01*
X021161Y008615D01*
X020701Y008615D01*
X020931Y008308D02*
X020931Y008154D01*
X020701Y008154D02*
X021161Y008154D01*
X021161Y008461D01*
X021161Y008001D02*
X021161Y007694D01*
X020701Y007694D01*
X020701Y009075D02*
X020931Y009075D01*
X020854Y009228D01*
X020854Y009305D01*
X020931Y009382D01*
X021084Y009382D01*
X021161Y009305D01*
X021161Y009152D01*
X021084Y009075D01*
X020701Y009075D02*
X020701Y009382D01*
X020737Y009784D02*
X020737Y010245D01*
X020890Y010245D02*
X020890Y009784D01*
X020890Y009938D02*
X021197Y010245D01*
X021351Y010168D02*
X021428Y010245D01*
X021581Y010245D01*
X021658Y010168D01*
X021658Y010091D01*
X021351Y009784D01*
X021658Y009784D01*
X021811Y009861D02*
X022118Y010168D01*
X022118Y009861D01*
X022041Y009784D01*
X021888Y009784D01*
X021811Y009861D01*
X021811Y010168D01*
X021888Y010245D01*
X022041Y010245D01*
X022118Y010168D01*
X022272Y010091D02*
X022425Y010245D01*
X022425Y009784D01*
X022272Y009784D02*
X022579Y009784D01*
X022732Y009861D02*
X022809Y009784D01*
X022962Y009784D01*
X023039Y009861D01*
X023039Y009938D01*
X022962Y010015D01*
X022732Y010015D01*
X022732Y009861D01*
X022732Y010015D02*
X022885Y010168D01*
X023039Y010245D01*
X023192Y010245D02*
X023192Y009784D01*
X023499Y009784D02*
X023499Y010245D01*
X023346Y010091D01*
X023192Y010245D01*
X023653Y010015D02*
X023653Y009861D01*
X023730Y009784D01*
X023883Y009784D01*
X023960Y009861D01*
X023960Y010015D01*
X023883Y010091D01*
X023730Y010091D01*
X023653Y010015D01*
X024113Y010091D02*
X024267Y010091D01*
X024190Y010168D02*
X024190Y009861D01*
X024267Y009784D01*
X024420Y009784D02*
X024420Y010245D01*
X024497Y010091D02*
X024420Y010015D01*
X024497Y010091D02*
X024650Y010091D01*
X024727Y010015D01*
X024727Y009784D01*
X024881Y009861D02*
X024881Y010015D01*
X024957Y010091D01*
X025111Y010091D01*
X025187Y010015D01*
X025187Y009938D01*
X024881Y009938D01*
X024881Y009861D02*
X024957Y009784D01*
X025111Y009784D01*
X025341Y009784D02*
X025341Y010091D01*
X025341Y009938D02*
X025494Y010091D01*
X025571Y010091D01*
X025725Y009708D02*
X026032Y009708D01*
X026185Y009784D02*
X026185Y010091D01*
X026185Y009938D02*
X026338Y010091D01*
X026415Y010091D01*
X026569Y010015D02*
X026569Y009861D01*
X026645Y009784D01*
X026799Y009784D01*
X026876Y009938D02*
X026569Y009938D01*
X026569Y010015D02*
X026645Y010091D01*
X026799Y010091D01*
X026876Y010015D01*
X026876Y009938D01*
X027029Y010091D02*
X027182Y009784D01*
X027336Y010091D01*
X027489Y010168D02*
X027566Y010245D01*
X027720Y010245D01*
X027796Y010168D01*
X027796Y010091D01*
X027720Y010015D01*
X027796Y009938D01*
X027796Y009861D01*
X027720Y009784D01*
X027566Y009784D01*
X027489Y009861D01*
X027643Y010015D02*
X027720Y010015D01*
X025987Y008245D02*
X025680Y008245D01*
X025834Y008245D02*
X025834Y007784D01*
X025527Y007861D02*
X025527Y007938D01*
X025450Y008015D01*
X025220Y008015D01*
X025220Y008245D02*
X025450Y008245D01*
X025527Y008168D01*
X025527Y008091D01*
X025450Y008015D01*
X025527Y007861D02*
X025450Y007784D01*
X025220Y007784D01*
X025220Y008245D01*
X025220Y006245D02*
X025220Y005861D01*
X025296Y005784D01*
X025450Y005784D01*
X025527Y005861D01*
X025527Y006245D01*
X025680Y006168D02*
X025680Y006091D01*
X025757Y006015D01*
X025910Y006015D01*
X025987Y005938D01*
X025987Y005861D01*
X025910Y005784D01*
X025757Y005784D01*
X025680Y005861D01*
X025680Y006168D02*
X025757Y006245D01*
X025910Y006245D01*
X025987Y006168D01*
X026140Y006245D02*
X026140Y005784D01*
X026371Y005784D01*
X026447Y005861D01*
X026447Y005938D01*
X026371Y006015D01*
X026140Y006015D01*
X026140Y006245D02*
X026371Y006245D01*
X026447Y006168D01*
X026447Y006091D01*
X026371Y006015D01*
X022180Y003060D02*
X022180Y002907D01*
X022103Y002830D01*
X022180Y002677D02*
X021719Y002677D01*
X021796Y002830D02*
X021719Y002907D01*
X021719Y003060D01*
X021796Y003137D01*
X021873Y003137D01*
X021949Y003060D01*
X022026Y003137D01*
X022103Y003137D01*
X022180Y003060D01*
X021949Y003060D02*
X021949Y002984D01*
X022180Y002677D02*
X022026Y002523D01*
X022180Y002370D01*
X021719Y002370D01*
X021796Y002216D02*
X021719Y002140D01*
X021719Y001986D01*
X021796Y001909D01*
X021873Y001909D01*
X021949Y001986D01*
X021949Y002140D01*
X022026Y002216D01*
X022103Y002216D01*
X022180Y002140D01*
X022180Y001986D01*
X022103Y001909D01*
X020941Y005534D02*
X020634Y005534D01*
X020941Y005841D01*
X020941Y005918D01*
X020864Y005995D01*
X020711Y005995D01*
X020634Y005918D01*
X020481Y005918D02*
X020404Y005995D01*
X020174Y005995D01*
X020174Y005534D01*
X020404Y005534D01*
X020481Y005611D01*
X020481Y005918D01*
X020020Y005995D02*
X020020Y005534D01*
X019713Y005534D02*
X019713Y005995D01*
X019867Y005841D01*
X020020Y005995D01*
X019560Y005458D02*
X019253Y005458D01*
X019100Y005534D02*
X018946Y005688D01*
X019023Y005688D02*
X018793Y005688D01*
X018793Y005534D02*
X018793Y005995D01*
X019023Y005995D01*
X019100Y005918D01*
X019100Y005765D01*
X019023Y005688D01*
X016430Y003137D02*
X016430Y002830D01*
X016123Y003137D01*
X016046Y003137D01*
X015969Y003060D01*
X015969Y002907D01*
X016046Y002830D01*
X015969Y002677D02*
X016430Y002677D01*
X016276Y002523D01*
X016430Y002370D01*
X015969Y002370D01*
X016046Y002216D02*
X015969Y002140D01*
X015969Y001986D01*
X016046Y001909D01*
X016123Y001909D01*
X016199Y001986D01*
X016199Y002140D01*
X016276Y002216D01*
X016353Y002216D01*
X016430Y002140D01*
X016430Y001986D01*
X016353Y001909D01*
X010680Y001986D02*
X010603Y001909D01*
X010680Y001986D02*
X010680Y002140D01*
X010603Y002216D01*
X010526Y002216D01*
X010449Y002140D01*
X010449Y001986D01*
X010373Y001909D01*
X010296Y001909D01*
X010219Y001986D01*
X010219Y002140D01*
X010296Y002216D01*
X010219Y002370D02*
X010680Y002370D01*
X010526Y002523D01*
X010680Y002677D01*
X010219Y002677D01*
X010373Y002830D02*
X010219Y002984D01*
X010680Y002984D01*
X010680Y003137D02*
X010680Y002830D01*
X007555Y005659D02*
X007094Y005659D01*
X007094Y005890D01*
X007171Y005966D01*
X007324Y005966D01*
X007401Y005890D01*
X007401Y005659D01*
X007401Y005813D02*
X007555Y005966D01*
X007555Y006120D02*
X007555Y006427D01*
X007478Y006580D02*
X007555Y006657D01*
X007555Y006810D01*
X007478Y006887D01*
X007401Y006887D01*
X007324Y006810D01*
X007324Y006657D01*
X007248Y006580D01*
X007171Y006580D01*
X007094Y006657D01*
X007094Y006810D01*
X007171Y006887D01*
X007094Y007041D02*
X007555Y007041D01*
X007555Y007347D01*
X007324Y007194D02*
X007324Y007041D01*
X007094Y007041D02*
X007094Y007347D01*
X007094Y007501D02*
X007094Y007808D01*
X007094Y007654D02*
X007555Y007654D01*
X007094Y006427D02*
X007094Y006120D01*
X007555Y006120D01*
X007324Y006120D02*
X007324Y006273D01*
X004853Y003137D02*
X004546Y003137D01*
X004853Y002830D01*
X004930Y002907D01*
X004930Y003060D01*
X004853Y003137D01*
X004853Y002830D02*
X004546Y002830D01*
X004469Y002907D01*
X004469Y003060D01*
X004546Y003137D01*
X004469Y002677D02*
X004930Y002677D01*
X004776Y002523D01*
X004930Y002370D01*
X004469Y002370D01*
X004546Y002216D02*
X004469Y002140D01*
X004469Y001986D01*
X004546Y001909D01*
X004623Y001909D01*
X004699Y001986D01*
X004699Y002140D01*
X004776Y002216D01*
X004853Y002216D01*
X004930Y002140D01*
X004930Y001986D01*
X004853Y001909D01*
X010470Y009659D02*
X010470Y010120D01*
X010700Y010120D01*
X010777Y010043D01*
X010777Y009890D01*
X010700Y009813D01*
X010470Y009813D01*
X010623Y009813D02*
X010777Y009659D01*
X010930Y009659D02*
X011237Y009659D01*
X011084Y009659D02*
X011084Y010120D01*
X010930Y009966D01*
X011390Y009890D02*
X011544Y009966D01*
X011621Y009966D01*
X011697Y009890D01*
X011697Y009736D01*
X011621Y009659D01*
X011467Y009659D01*
X011390Y009736D01*
X011390Y009890D02*
X011390Y010120D01*
X011697Y010120D01*
X008930Y010284D02*
X008469Y010284D01*
X008930Y010591D01*
X008469Y010591D01*
X008469Y010745D02*
X008469Y010898D01*
X008469Y010821D02*
X008930Y010821D01*
X008930Y010745D02*
X008930Y010898D01*
X008930Y011205D02*
X008469Y011205D01*
X008469Y011052D02*
X008469Y011359D01*
X017345Y009745D02*
X017345Y009284D01*
X017575Y009284D01*
X017652Y009361D01*
X017652Y009438D01*
X017575Y009515D01*
X017345Y009515D01*
X017345Y009745D02*
X017575Y009745D01*
X017652Y009668D01*
X017652Y009591D01*
X017575Y009515D01*
X017805Y009668D02*
X017805Y009361D01*
X017882Y009284D01*
X018035Y009284D01*
X018112Y009361D01*
X018112Y009668D01*
X018035Y009745D01*
X017882Y009745D01*
X017805Y009668D01*
X018265Y009668D02*
X018265Y009361D01*
X018342Y009284D01*
X018496Y009284D01*
X018572Y009361D01*
X018572Y009668D01*
X018496Y009745D01*
X018342Y009745D01*
X018265Y009668D01*
X018726Y009745D02*
X019033Y009745D01*
X018879Y009745D02*
X018879Y009284D01*
X019970Y009784D02*
X019970Y010245D01*
X020277Y009784D01*
X020277Y010245D01*
X020430Y010245D02*
X020430Y009784D01*
X020430Y010015D02*
X020737Y010015D01*
X020967Y010015D02*
X021197Y009784D01*
X021151Y011016D02*
X020844Y011016D01*
X020844Y011476D01*
X021151Y011476D01*
X021304Y011476D02*
X021534Y011476D01*
X021611Y011399D01*
X021611Y011092D01*
X021534Y011016D01*
X021304Y011016D01*
X021304Y011476D01*
X020997Y011246D02*
X020844Y011246D01*
X020941Y011265D02*
X020634Y011265D01*
X020864Y011495D01*
X020864Y011034D01*
X020690Y011016D02*
X020383Y011016D01*
X020383Y011476D01*
X020404Y011495D02*
X020481Y011418D01*
X020481Y011341D01*
X020404Y011265D01*
X020481Y011188D01*
X020481Y011111D01*
X020404Y011034D01*
X020251Y011034D01*
X020174Y011111D01*
X020020Y011034D02*
X019867Y011188D01*
X019944Y011188D02*
X019713Y011188D01*
X019713Y011034D02*
X019713Y011495D01*
X019944Y011495D01*
X020020Y011418D01*
X020020Y011265D01*
X019944Y011188D01*
X020174Y011418D02*
X020251Y011495D01*
X020404Y011495D01*
X020404Y011265D02*
X020327Y011265D01*
X021764Y011323D02*
X021918Y011476D01*
X021918Y011016D01*
X022071Y011016D02*
X021764Y011016D01*
X022225Y011016D02*
X022532Y011016D01*
X022378Y011016D02*
X022378Y011476D01*
X022225Y011323D01*
X029095Y013409D02*
X029402Y013870D01*
X029555Y013640D02*
X029862Y013640D01*
X029785Y013870D02*
X029785Y013409D01*
X029555Y013640D02*
X029785Y013870D01*
X029402Y013409D02*
X029095Y013870D01*
X001987Y029284D02*
X001680Y029284D01*
X001834Y029284D02*
X001834Y029745D01*
X001680Y029591D01*
X001527Y029745D02*
X001373Y029745D01*
X001450Y029745D02*
X001450Y029361D01*
X001373Y029284D01*
X001296Y029284D01*
X001220Y029361D01*
D13*
X012608Y018231D02*
X012608Y013349D01*
X012766Y013192D01*
X017648Y013192D01*
X017648Y018231D01*
X012608Y018231D01*
X012878Y013585D02*
X012880Y013607D01*
X012885Y013627D01*
X012895Y013647D01*
X012907Y013665D01*
X012922Y013680D01*
X012940Y013692D01*
X012960Y013702D01*
X012980Y013707D01*
X013002Y013709D01*
X013024Y013707D01*
X013044Y013702D01*
X013064Y013692D01*
X013082Y013680D01*
X013097Y013665D01*
X013109Y013647D01*
X013119Y013627D01*
X013124Y013607D01*
X013126Y013585D01*
X013124Y013563D01*
X013119Y013543D01*
X013109Y013523D01*
X013097Y013505D01*
X013082Y013490D01*
X013064Y013478D01*
X013044Y013468D01*
X013024Y013463D01*
X013002Y013461D01*
X012980Y013463D01*
X012960Y013468D01*
X012940Y013478D01*
X012922Y013490D01*
X012907Y013505D01*
X012895Y013523D01*
X012885Y013543D01*
X012880Y013563D01*
X012878Y013585D01*
D14*
X013054Y011080D02*
X013054Y010833D01*
X013054Y010956D02*
X012683Y010956D01*
X012807Y010833D01*
X012745Y010711D02*
X012683Y010650D01*
X012683Y010526D01*
X012745Y010464D01*
X012992Y010464D01*
X013054Y010526D01*
X013054Y010650D01*
X012992Y010711D01*
X011828Y007656D02*
X011705Y007656D01*
X011643Y007594D01*
X011643Y007532D01*
X011705Y007470D01*
X011890Y007470D01*
X011890Y007347D02*
X011890Y007594D01*
X011828Y007656D01*
X011522Y007594D02*
X011460Y007656D01*
X011336Y007656D01*
X011275Y007594D01*
X011275Y007347D01*
X011336Y007285D01*
X011460Y007285D01*
X011522Y007347D01*
X011643Y007347D02*
X011705Y007285D01*
X011828Y007285D01*
X011890Y007347D01*
X012111Y006744D02*
X012050Y006682D01*
X012050Y006435D01*
X012111Y006373D01*
X012235Y006373D01*
X012297Y006435D01*
X012418Y006373D02*
X012665Y006373D01*
X012541Y006373D02*
X012541Y006744D01*
X012418Y006620D01*
X012297Y006682D02*
X012235Y006744D01*
X012111Y006744D01*
X012786Y006682D02*
X012848Y006744D01*
X012971Y006744D01*
X013033Y006682D01*
X012786Y006435D01*
X012848Y006373D01*
X012971Y006373D01*
X013033Y006435D01*
X013033Y006682D01*
X012786Y006682D02*
X012786Y006435D01*
X014543Y006557D02*
X014543Y006310D01*
X014605Y006248D01*
X014728Y006248D01*
X014790Y006310D01*
X014911Y006310D02*
X014973Y006248D01*
X015096Y006248D01*
X015158Y006310D01*
X015158Y006434D01*
X015096Y006495D01*
X015035Y006495D01*
X014911Y006434D01*
X014911Y006619D01*
X015158Y006619D01*
X014790Y006557D02*
X014728Y006619D01*
X014605Y006619D01*
X014543Y006557D01*
X016095Y007294D02*
X016157Y007233D01*
X016404Y007233D01*
X016466Y007294D01*
X016466Y007418D01*
X016404Y007480D01*
X016404Y007601D02*
X016342Y007601D01*
X016280Y007663D01*
X016280Y007786D01*
X016342Y007848D01*
X016404Y007848D01*
X016466Y007786D01*
X016466Y007663D01*
X016404Y007601D01*
X016280Y007663D02*
X016219Y007601D01*
X016157Y007601D01*
X016095Y007663D01*
X016095Y007786D01*
X016157Y007848D01*
X016219Y007848D01*
X016280Y007786D01*
X016157Y007480D02*
X016095Y007418D01*
X016095Y007294D01*
X020488Y012867D02*
X020609Y012867D01*
X020670Y012928D01*
X020670Y013231D01*
X020790Y013170D02*
X020850Y013231D01*
X020972Y013231D01*
X021032Y013170D01*
X021152Y013110D02*
X021273Y013231D01*
X021273Y012867D01*
X021152Y012867D02*
X021395Y012867D01*
X021515Y013049D02*
X021757Y013049D01*
X021697Y012867D02*
X021697Y013231D01*
X021515Y013049D01*
X021032Y012988D02*
X020972Y013049D01*
X020850Y013049D01*
X020790Y013110D01*
X020790Y013170D01*
X020911Y013292D02*
X020911Y012806D01*
X020972Y012867D02*
X021032Y012928D01*
X021032Y012988D01*
X020972Y012867D02*
X020850Y012867D01*
X020790Y012928D01*
X020488Y012867D02*
X020427Y012928D01*
X020427Y013231D01*
X020850Y013617D02*
X020972Y013617D01*
X021032Y013678D01*
X021032Y013981D01*
X021152Y013920D02*
X021152Y013860D01*
X021213Y013799D01*
X021334Y013799D01*
X021395Y013738D01*
X021395Y013678D01*
X021334Y013617D01*
X021213Y013617D01*
X021152Y013678D01*
X021273Y013556D02*
X021273Y014042D01*
X021213Y013981D02*
X021334Y013981D01*
X021395Y013920D01*
X021515Y013799D02*
X021697Y013799D01*
X021757Y013738D01*
X021757Y013678D01*
X021697Y013617D01*
X021575Y013617D01*
X021515Y013678D01*
X021515Y013799D01*
X021636Y013920D01*
X021757Y013981D01*
X021213Y013981D02*
X021152Y013920D01*
X020790Y013981D02*
X020790Y013678D01*
X020850Y013617D01*
X021273Y016306D02*
X021273Y016792D01*
X021213Y016731D02*
X021334Y016731D01*
X021395Y016670D01*
X021515Y016670D02*
X021515Y016610D01*
X021575Y016549D01*
X021697Y016549D01*
X021757Y016488D01*
X021757Y016428D01*
X021697Y016367D01*
X021575Y016367D01*
X021515Y016428D01*
X021515Y016488D01*
X021575Y016549D01*
X021697Y016549D02*
X021757Y016610D01*
X021757Y016670D01*
X021697Y016731D01*
X021575Y016731D01*
X021515Y016670D01*
X021334Y016549D02*
X021213Y016549D01*
X021152Y016610D01*
X021152Y016670D01*
X021213Y016731D01*
X021032Y016731D02*
X021032Y016428D01*
X020972Y016367D01*
X020850Y016367D01*
X020790Y016428D01*
X020790Y016731D01*
X020850Y017117D02*
X020972Y017117D01*
X021032Y017178D01*
X021032Y017481D01*
X021152Y017420D02*
X021213Y017481D01*
X021334Y017481D01*
X021395Y017420D01*
X021515Y017481D02*
X021757Y017481D01*
X021757Y017420D01*
X021515Y017178D01*
X021515Y017117D01*
X021395Y017178D02*
X021395Y017238D01*
X021334Y017299D01*
X021213Y017299D01*
X021152Y017360D01*
X021152Y017420D01*
X021273Y017542D02*
X021273Y017056D01*
X021213Y017117D02*
X021334Y017117D01*
X021395Y017178D01*
X021213Y017117D02*
X021152Y017178D01*
X020850Y017117D02*
X020790Y017178D01*
X020790Y017481D01*
X021334Y016549D02*
X021395Y016488D01*
X021395Y016428D01*
X021334Y016367D01*
X021213Y016367D01*
X021152Y016428D01*
X018346Y026373D02*
X018346Y026744D01*
X018161Y026559D01*
X018408Y026559D01*
X018040Y026620D02*
X018040Y026682D01*
X017978Y026744D01*
X017855Y026744D01*
X017793Y026682D01*
X017672Y026682D02*
X017610Y026744D01*
X017486Y026744D01*
X017425Y026682D01*
X017425Y026435D01*
X017486Y026373D01*
X017610Y026373D01*
X017672Y026435D01*
X017793Y026373D02*
X018040Y026620D01*
X018040Y026373D02*
X017793Y026373D01*
X017203Y027285D02*
X017080Y027285D01*
X017018Y027347D01*
X016897Y027347D02*
X016835Y027285D01*
X016711Y027285D01*
X016650Y027347D01*
X016650Y027594D01*
X016711Y027656D01*
X016835Y027656D01*
X016897Y027594D01*
X017018Y027594D02*
X017080Y027656D01*
X017203Y027656D01*
X017265Y027594D01*
X017265Y027532D01*
X017203Y027470D01*
X017265Y027409D01*
X017265Y027347D01*
X017203Y027285D01*
X017203Y027470D02*
X017141Y027470D01*
X006257Y015787D02*
X006136Y015726D01*
X006015Y015605D01*
X006197Y015605D01*
X006257Y015544D01*
X006257Y015484D01*
X006197Y015423D01*
X006075Y015423D01*
X006015Y015484D01*
X006015Y015605D01*
X005895Y015605D02*
X005652Y015605D01*
X005834Y015787D01*
X005834Y015423D01*
X005532Y015484D02*
X005532Y015544D01*
X005472Y015605D01*
X005350Y015605D01*
X005290Y015666D01*
X005290Y015726D01*
X005350Y015787D01*
X005472Y015787D01*
X005532Y015726D01*
X005411Y015848D02*
X005411Y015362D01*
X005350Y015423D02*
X005472Y015423D01*
X005532Y015484D01*
X005350Y015423D02*
X005290Y015484D01*
X005170Y015484D02*
X005170Y015787D01*
X004927Y015787D02*
X004927Y015484D01*
X004988Y015423D01*
X005109Y015423D01*
X005170Y015484D01*
X005411Y014848D02*
X005411Y014362D01*
X005350Y014423D02*
X005472Y014423D01*
X005532Y014484D01*
X005532Y014544D01*
X005472Y014605D01*
X005350Y014605D01*
X005290Y014666D01*
X005290Y014726D01*
X005350Y014787D01*
X005472Y014787D01*
X005532Y014726D01*
X005652Y014605D02*
X005895Y014605D01*
X006015Y014605D02*
X006257Y014605D01*
X006197Y014423D02*
X006197Y014787D01*
X006015Y014605D01*
X005834Y014423D02*
X005834Y014787D01*
X005652Y014605D01*
X005350Y014423D02*
X005290Y014484D01*
X005170Y014484D02*
X005170Y014787D01*
X004927Y014787D02*
X004927Y014484D01*
X004988Y014423D01*
X005109Y014423D01*
X005170Y014484D01*
X005411Y013848D02*
X005411Y013362D01*
X005350Y013423D02*
X005472Y013423D01*
X005532Y013484D01*
X005532Y013544D01*
X005472Y013605D01*
X005350Y013605D01*
X005290Y013666D01*
X005290Y013726D01*
X005350Y013787D01*
X005472Y013787D01*
X005532Y013726D01*
X005652Y013605D02*
X005895Y013605D01*
X006015Y013726D02*
X006075Y013787D01*
X006197Y013787D01*
X006257Y013726D01*
X006257Y013666D01*
X006015Y013423D01*
X006257Y013423D01*
X006177Y013287D02*
X006177Y012984D01*
X006238Y012923D01*
X006359Y012923D01*
X006420Y012984D01*
X006420Y013287D01*
X006540Y013226D02*
X006600Y013287D01*
X006722Y013287D01*
X006782Y013226D01*
X006722Y013105D02*
X006600Y013105D01*
X006540Y013166D01*
X006540Y013226D01*
X006661Y013348D02*
X006661Y012862D01*
X006600Y012923D02*
X006722Y012923D01*
X006782Y012984D01*
X006782Y013044D01*
X006722Y013105D01*
X006902Y013105D02*
X007145Y013105D01*
X007265Y013166D02*
X007386Y013287D01*
X007386Y012923D01*
X007265Y012923D02*
X007507Y012923D01*
X007084Y012923D02*
X007084Y013287D01*
X006902Y013105D01*
X006600Y012923D02*
X006540Y012984D01*
X006257Y012726D02*
X006015Y012484D01*
X006075Y012423D01*
X006197Y012423D01*
X006257Y012484D01*
X006257Y012726D01*
X006197Y012787D01*
X006075Y012787D01*
X006015Y012726D01*
X006015Y012484D01*
X005895Y012605D02*
X005652Y012605D01*
X005834Y012787D01*
X005834Y012423D01*
X005532Y012484D02*
X005532Y012544D01*
X005472Y012605D01*
X005350Y012605D01*
X005290Y012666D01*
X005290Y012726D01*
X005350Y012787D01*
X005472Y012787D01*
X005532Y012726D01*
X005411Y012848D02*
X005411Y012362D01*
X005350Y012423D02*
X005472Y012423D01*
X005532Y012484D01*
X005350Y012423D02*
X005290Y012484D01*
X005170Y012484D02*
X005170Y012787D01*
X004927Y012787D02*
X004927Y012484D01*
X004988Y012423D01*
X005109Y012423D01*
X005170Y012484D01*
X005411Y011848D02*
X005411Y011362D01*
X005350Y011423D02*
X005472Y011423D01*
X005532Y011484D01*
X005532Y011544D01*
X005472Y011605D01*
X005350Y011605D01*
X005290Y011666D01*
X005290Y011726D01*
X005350Y011787D01*
X005472Y011787D01*
X005532Y011726D01*
X005652Y011726D02*
X005713Y011787D01*
X005834Y011787D01*
X005895Y011726D01*
X005895Y011666D01*
X005834Y011605D01*
X005895Y011544D01*
X005895Y011484D01*
X005834Y011423D01*
X005713Y011423D01*
X005652Y011484D01*
X005774Y011605D02*
X005834Y011605D01*
X006015Y011544D02*
X006075Y011605D01*
X006197Y011605D01*
X006257Y011544D01*
X006257Y011484D01*
X006197Y011423D01*
X006075Y011423D01*
X006015Y011484D01*
X006015Y011544D01*
X006075Y011605D02*
X006015Y011666D01*
X006015Y011726D01*
X006075Y011787D01*
X006197Y011787D01*
X006257Y011726D01*
X006257Y011666D01*
X006197Y011605D01*
X006177Y011287D02*
X006177Y010984D01*
X006238Y010923D01*
X006359Y010923D01*
X006420Y010984D01*
X006420Y011287D01*
X006540Y011226D02*
X006600Y011287D01*
X006722Y011287D01*
X006782Y011226D01*
X006902Y011226D02*
X006963Y011287D01*
X007084Y011287D01*
X007145Y011226D01*
X007145Y011166D01*
X007084Y011105D01*
X007145Y011044D01*
X007145Y010984D01*
X007084Y010923D01*
X006963Y010923D01*
X006902Y010984D01*
X006782Y010984D02*
X006782Y011044D01*
X006722Y011105D01*
X006600Y011105D01*
X006540Y011166D01*
X006540Y011226D01*
X006661Y011348D02*
X006661Y010862D01*
X006600Y010923D02*
X006722Y010923D01*
X006782Y010984D01*
X006600Y010923D02*
X006540Y010984D01*
X006257Y010787D02*
X006136Y010726D01*
X006015Y010605D01*
X006197Y010605D01*
X006257Y010544D01*
X006257Y010484D01*
X006197Y010423D01*
X006075Y010423D01*
X006015Y010484D01*
X006015Y010605D01*
X005895Y010544D02*
X005895Y010484D01*
X005834Y010423D01*
X005713Y010423D01*
X005652Y010484D01*
X005532Y010484D02*
X005532Y010544D01*
X005472Y010605D01*
X005350Y010605D01*
X005290Y010666D01*
X005290Y010726D01*
X005350Y010787D01*
X005472Y010787D01*
X005532Y010726D01*
X005652Y010726D02*
X005713Y010787D01*
X005834Y010787D01*
X005895Y010726D01*
X005895Y010666D01*
X005834Y010605D01*
X005895Y010544D01*
X005834Y010605D02*
X005774Y010605D01*
X005532Y010484D02*
X005472Y010423D01*
X005350Y010423D01*
X005290Y010484D01*
X005170Y010484D02*
X005170Y010787D01*
X004927Y010787D02*
X004927Y010484D01*
X004988Y010423D01*
X005109Y010423D01*
X005170Y010484D01*
X005411Y010362D02*
X005411Y010848D01*
X005350Y011423D02*
X005290Y011484D01*
X005170Y011484D02*
X005170Y011787D01*
X004927Y011787D02*
X004927Y011484D01*
X004988Y011423D01*
X005109Y011423D01*
X005170Y011484D01*
X006177Y011984D02*
X006238Y011923D01*
X006359Y011923D01*
X006420Y011984D01*
X006420Y012287D01*
X006540Y012226D02*
X006600Y012287D01*
X006722Y012287D01*
X006782Y012226D01*
X006902Y012226D02*
X006963Y012287D01*
X007084Y012287D01*
X007145Y012226D01*
X007145Y012166D01*
X007084Y012105D01*
X007145Y012044D01*
X007145Y011984D01*
X007084Y011923D01*
X006963Y011923D01*
X006902Y011984D01*
X006782Y011984D02*
X006782Y012044D01*
X006722Y012105D01*
X006600Y012105D01*
X006540Y012166D01*
X006540Y012226D01*
X006661Y012348D02*
X006661Y011862D01*
X006600Y011923D02*
X006722Y011923D01*
X006782Y011984D01*
X006600Y011923D02*
X006540Y011984D01*
X006177Y011984D02*
X006177Y012287D01*
X007024Y012105D02*
X007084Y012105D01*
X007265Y012166D02*
X007325Y012105D01*
X007507Y012105D01*
X007507Y011984D02*
X007507Y012226D01*
X007447Y012287D01*
X007325Y012287D01*
X007265Y012226D01*
X007265Y012166D01*
X007265Y011984D02*
X007325Y011923D01*
X007447Y011923D01*
X007507Y011984D01*
X007507Y011287D02*
X007265Y011287D01*
X007507Y011287D02*
X007507Y011226D01*
X007265Y010984D01*
X007265Y010923D01*
X007084Y011105D02*
X007024Y011105D01*
X006661Y010348D02*
X006661Y009862D01*
X006600Y009923D02*
X006722Y009923D01*
X006782Y009984D01*
X006782Y010044D01*
X006722Y010105D01*
X006600Y010105D01*
X006540Y010166D01*
X006540Y010226D01*
X006600Y010287D01*
X006722Y010287D01*
X006782Y010226D01*
X006902Y010226D02*
X006963Y010287D01*
X007084Y010287D01*
X007145Y010226D01*
X007145Y010166D01*
X007084Y010105D01*
X007145Y010044D01*
X007145Y009984D01*
X007084Y009923D01*
X006963Y009923D01*
X006902Y009984D01*
X007024Y010105D02*
X007084Y010105D01*
X007265Y010105D02*
X007386Y010166D01*
X007447Y010166D01*
X007507Y010105D01*
X007507Y009984D01*
X007447Y009923D01*
X007325Y009923D01*
X007265Y009984D01*
X007265Y010105D02*
X007265Y010287D01*
X007507Y010287D01*
X007447Y009287D02*
X007507Y009226D01*
X007507Y009166D01*
X007447Y009105D01*
X007507Y009044D01*
X007507Y008984D01*
X007447Y008923D01*
X007325Y008923D01*
X007265Y008984D01*
X007145Y008984D02*
X007084Y008923D01*
X006963Y008923D01*
X006902Y008984D01*
X006782Y008984D02*
X006782Y009044D01*
X006722Y009105D01*
X006600Y009105D01*
X006540Y009166D01*
X006540Y009226D01*
X006600Y009287D01*
X006722Y009287D01*
X006782Y009226D01*
X006902Y009226D02*
X006963Y009287D01*
X007084Y009287D01*
X007145Y009226D01*
X007145Y009166D01*
X007084Y009105D01*
X007145Y009044D01*
X007145Y008984D01*
X007084Y009105D02*
X007024Y009105D01*
X007265Y009226D02*
X007325Y009287D01*
X007447Y009287D01*
X007447Y009105D02*
X007386Y009105D01*
X006782Y008984D02*
X006722Y008923D01*
X006600Y008923D01*
X006540Y008984D01*
X006420Y008984D02*
X006420Y009287D01*
X006177Y009287D02*
X006177Y008984D01*
X006238Y008923D01*
X006359Y008923D01*
X006420Y008984D01*
X006661Y008862D02*
X006661Y009348D01*
X006257Y009605D02*
X006015Y009605D01*
X006197Y009787D01*
X006197Y009423D01*
X005895Y009484D02*
X005834Y009423D01*
X005713Y009423D01*
X005652Y009484D01*
X005532Y009484D02*
X005532Y009544D01*
X005472Y009605D01*
X005350Y009605D01*
X005290Y009666D01*
X005290Y009726D01*
X005350Y009787D01*
X005472Y009787D01*
X005532Y009726D01*
X005652Y009726D02*
X005713Y009787D01*
X005834Y009787D01*
X005895Y009726D01*
X005895Y009666D01*
X005834Y009605D01*
X005895Y009544D01*
X005895Y009484D01*
X005834Y009605D02*
X005774Y009605D01*
X005532Y009484D02*
X005472Y009423D01*
X005350Y009423D01*
X005290Y009484D01*
X005170Y009484D02*
X005170Y009787D01*
X004927Y009787D02*
X004927Y009484D01*
X004988Y009423D01*
X005109Y009423D01*
X005170Y009484D01*
X005411Y009362D02*
X005411Y009848D01*
X006177Y009984D02*
X006238Y009923D01*
X006359Y009923D01*
X006420Y009984D01*
X006420Y010287D01*
X006177Y010287D02*
X006177Y009984D01*
X006540Y009984D02*
X006600Y009923D01*
X005834Y013423D02*
X005834Y013787D01*
X005652Y013605D01*
X005350Y013423D02*
X005290Y013484D01*
X005170Y013484D02*
X005170Y013787D01*
X004927Y013787D02*
X004927Y013484D01*
X004988Y013423D01*
X005109Y013423D01*
X005170Y013484D01*
X006177Y013984D02*
X006177Y014287D01*
X006420Y014287D02*
X006420Y013984D01*
X006359Y013923D01*
X006238Y013923D01*
X006177Y013984D01*
X006540Y013984D02*
X006600Y013923D01*
X006722Y013923D01*
X006782Y013984D01*
X006782Y014044D01*
X006722Y014105D01*
X006600Y014105D01*
X006540Y014166D01*
X006540Y014226D01*
X006600Y014287D01*
X006722Y014287D01*
X006782Y014226D01*
X006902Y014105D02*
X007145Y014105D01*
X007265Y013984D02*
X007325Y013923D01*
X007447Y013923D01*
X007507Y013984D01*
X007507Y014044D01*
X007447Y014105D01*
X007386Y014105D01*
X007447Y014105D02*
X007507Y014166D01*
X007507Y014226D01*
X007447Y014287D01*
X007325Y014287D01*
X007265Y014226D01*
X007084Y014287D02*
X007084Y013923D01*
X006902Y014105D02*
X007084Y014287D01*
X006661Y014348D02*
X006661Y013862D01*
X006661Y014862D02*
X006661Y015348D01*
X006600Y015287D02*
X006722Y015287D01*
X006782Y015226D01*
X006722Y015105D02*
X006600Y015105D01*
X006540Y015166D01*
X006540Y015226D01*
X006600Y015287D01*
X006420Y015287D02*
X006420Y014984D01*
X006359Y014923D01*
X006238Y014923D01*
X006177Y014984D01*
X006177Y015287D01*
X006540Y014984D02*
X006600Y014923D01*
X006722Y014923D01*
X006782Y014984D01*
X006782Y015044D01*
X006722Y015105D01*
X006902Y015105D02*
X007145Y015105D01*
X007265Y015105D02*
X007386Y015166D01*
X007447Y015166D01*
X007507Y015105D01*
X007507Y014984D01*
X007447Y014923D01*
X007325Y014923D01*
X007265Y014984D01*
X007265Y015105D02*
X007265Y015287D01*
X007507Y015287D01*
X007084Y015287D02*
X007084Y014923D01*
X006902Y015105D02*
X007084Y015287D01*
X033297Y017601D02*
X033783Y017601D01*
X033722Y017661D02*
X033661Y017722D01*
X033601Y017722D01*
X033540Y017661D01*
X033540Y017540D01*
X033479Y017479D01*
X033419Y017479D01*
X033358Y017540D01*
X033358Y017661D01*
X033419Y017722D01*
X033479Y017842D02*
X033358Y017963D01*
X033722Y017963D01*
X033722Y017842D02*
X033722Y018084D01*
X033661Y018204D02*
X033722Y018265D01*
X033722Y018386D01*
X033661Y018447D01*
X033601Y018447D01*
X033540Y018386D01*
X033540Y018326D01*
X033540Y018386D02*
X033479Y018447D01*
X033419Y018447D01*
X033358Y018386D01*
X033358Y018265D01*
X033419Y018204D01*
X033722Y017661D02*
X033722Y017540D01*
X033661Y017479D01*
X033661Y017359D02*
X033358Y017359D01*
X033358Y017117D02*
X033661Y017117D01*
X033722Y017177D01*
X033722Y017299D01*
X033661Y017359D01*
D15*
X035845Y021880D02*
X035845Y022126D01*
X035845Y022421D01*
X036042Y022421D02*
X035845Y022126D01*
X036239Y022126D01*
X036436Y022421D01*
X036633Y022421D02*
X036631Y022448D01*
X036626Y022474D01*
X036617Y022499D01*
X036604Y022523D01*
X036589Y022545D01*
X036570Y022565D01*
X036550Y022582D01*
X036527Y022596D01*
X036502Y022607D01*
X036476Y022614D01*
X036449Y022618D01*
X036423Y022618D01*
X036396Y022614D01*
X036370Y022607D01*
X036345Y022596D01*
X036322Y022582D01*
X036302Y022565D01*
X036283Y022545D01*
X036268Y022523D01*
X036255Y022499D01*
X036246Y022474D01*
X036241Y022448D01*
X036239Y022421D01*
X036237Y022448D01*
X036232Y022474D01*
X036223Y022499D01*
X036210Y022523D01*
X036195Y022545D01*
X036176Y022565D01*
X036156Y022582D01*
X036133Y022596D01*
X036108Y022607D01*
X036082Y022614D01*
X036055Y022618D01*
X036029Y022618D01*
X036002Y022614D01*
X035976Y022607D01*
X035951Y022596D01*
X035928Y022582D01*
X035908Y022565D01*
X035889Y022545D01*
X035874Y022523D01*
X035861Y022499D01*
X035852Y022474D01*
X035847Y022448D01*
X035845Y022421D01*
X036042Y022421D02*
X036239Y022126D01*
X036633Y022126D01*
X036633Y022421D01*
X036436Y022421D02*
X036633Y022126D01*
X036633Y021880D01*
X035845Y021880D01*
X035845Y022716D02*
X035845Y023405D01*
X036042Y023405D01*
X036042Y022962D01*
X036141Y022962D01*
X036141Y023405D01*
X036337Y023405D01*
X036337Y022962D01*
X036436Y022962D01*
X036436Y023405D01*
X036633Y023405D01*
X036633Y022716D01*
X035845Y022716D01*
X035845Y023504D02*
X035845Y024045D01*
X035847Y024075D01*
X035852Y024104D01*
X035861Y024132D01*
X035873Y024159D01*
X035889Y024185D01*
X035907Y024208D01*
X035928Y024229D01*
X035951Y024247D01*
X035977Y024263D01*
X036004Y024275D01*
X036032Y024284D01*
X036061Y024289D01*
X036091Y024291D01*
X036121Y024289D01*
X036150Y024284D01*
X036178Y024275D01*
X036205Y024263D01*
X036231Y024247D01*
X036254Y024229D01*
X036275Y024208D01*
X036293Y024185D01*
X036309Y024159D01*
X036321Y024132D01*
X036330Y024104D01*
X036335Y024075D01*
X036337Y024045D01*
X036633Y024242D01*
X036633Y023946D01*
X036337Y023750D01*
X036633Y023750D01*
X036633Y023504D01*
X035845Y023504D01*
X036042Y023750D02*
X036042Y023897D01*
X036044Y023912D01*
X036048Y023927D01*
X036056Y023940D01*
X036066Y023952D01*
X036079Y023961D01*
X036093Y023967D01*
X036108Y023971D01*
X036124Y023971D01*
X036139Y023967D01*
X036153Y023961D01*
X036166Y023952D01*
X036176Y023940D01*
X036184Y023927D01*
X036188Y023912D01*
X036190Y023897D01*
X036190Y023750D01*
X036042Y023750D01*
X035845Y024734D02*
X035847Y024695D01*
X035853Y024657D01*
X035862Y024620D01*
X035875Y024583D01*
X035892Y024548D01*
X035911Y024515D01*
X035934Y024484D01*
X035960Y024455D01*
X035989Y024429D01*
X036020Y024406D01*
X036053Y024387D01*
X036088Y024370D01*
X036125Y024357D01*
X036162Y024348D01*
X036200Y024342D01*
X036239Y024340D01*
X036278Y024342D01*
X036316Y024348D01*
X036353Y024357D01*
X036390Y024370D01*
X036425Y024387D01*
X036458Y024406D01*
X036489Y024429D01*
X036518Y024455D01*
X036544Y024484D01*
X036567Y024515D01*
X036586Y024548D01*
X036603Y024583D01*
X036616Y024620D01*
X036625Y024657D01*
X036631Y024695D01*
X036633Y024734D01*
X036436Y024832D02*
X036239Y024832D01*
X036042Y024832D02*
X036044Y024805D01*
X036049Y024779D01*
X036058Y024754D01*
X036071Y024730D01*
X036086Y024708D01*
X036105Y024688D01*
X036125Y024671D01*
X036148Y024657D01*
X036173Y024646D01*
X036199Y024639D01*
X036226Y024635D01*
X036252Y024635D01*
X036279Y024639D01*
X036305Y024646D01*
X036330Y024657D01*
X036353Y024671D01*
X036373Y024688D01*
X036392Y024708D01*
X036407Y024730D01*
X036420Y024754D01*
X036429Y024779D01*
X036434Y024805D01*
X036436Y024832D01*
X036239Y024832D02*
X036239Y025029D01*
X036584Y025029D01*
X036042Y025029D02*
X036037Y024980D01*
X036035Y024931D01*
X036037Y024882D01*
X036042Y024833D01*
X036042Y025027D02*
X035867Y025027D01*
X036584Y025029D02*
X036601Y024972D01*
X036615Y024913D01*
X036625Y024854D01*
X036631Y024794D01*
X036633Y024734D01*
X035846Y024734D02*
X035845Y024809D01*
X035849Y024884D01*
X035856Y024959D01*
X035867Y025033D01*
X035845Y028630D02*
X035845Y028876D01*
X035845Y029171D01*
X036042Y029171D02*
X035845Y028876D01*
X036239Y028876D01*
X036436Y029171D01*
X036633Y029171D02*
X036631Y029198D01*
X036626Y029224D01*
X036617Y029249D01*
X036604Y029273D01*
X036589Y029295D01*
X036570Y029315D01*
X036550Y029332D01*
X036527Y029346D01*
X036502Y029357D01*
X036476Y029364D01*
X036449Y029368D01*
X036423Y029368D01*
X036396Y029364D01*
X036370Y029357D01*
X036345Y029346D01*
X036322Y029332D01*
X036302Y029315D01*
X036283Y029295D01*
X036268Y029273D01*
X036255Y029249D01*
X036246Y029224D01*
X036241Y029198D01*
X036239Y029171D01*
X036237Y029198D01*
X036232Y029224D01*
X036223Y029249D01*
X036210Y029273D01*
X036195Y029295D01*
X036176Y029315D01*
X036156Y029332D01*
X036133Y029346D01*
X036108Y029357D01*
X036082Y029364D01*
X036055Y029368D01*
X036029Y029368D01*
X036002Y029364D01*
X035976Y029357D01*
X035951Y029346D01*
X035928Y029332D01*
X035908Y029315D01*
X035889Y029295D01*
X035874Y029273D01*
X035861Y029249D01*
X035852Y029224D01*
X035847Y029198D01*
X035845Y029171D01*
X036042Y029171D02*
X036239Y028876D01*
X036633Y028876D01*
X036633Y029171D01*
X036436Y029171D02*
X036633Y028876D01*
X036633Y028630D01*
X035845Y028630D01*
X035845Y029466D02*
X035845Y030155D01*
X036042Y030155D01*
X036042Y029712D01*
X036141Y029712D01*
X036141Y030155D01*
X036337Y030155D01*
X036337Y029712D01*
X036436Y029712D01*
X036436Y030155D01*
X036633Y030155D01*
X036633Y029466D01*
X035845Y029466D01*
X035845Y030254D02*
X035845Y030795D01*
X035847Y030825D01*
X035852Y030854D01*
X035861Y030882D01*
X035873Y030909D01*
X035889Y030935D01*
X035907Y030958D01*
X035928Y030979D01*
X035951Y030997D01*
X035977Y031013D01*
X036004Y031025D01*
X036032Y031034D01*
X036061Y031039D01*
X036091Y031041D01*
X036121Y031039D01*
X036150Y031034D01*
X036178Y031025D01*
X036205Y031013D01*
X036231Y030997D01*
X036254Y030979D01*
X036275Y030958D01*
X036293Y030935D01*
X036309Y030909D01*
X036321Y030882D01*
X036330Y030854D01*
X036335Y030825D01*
X036337Y030795D01*
X036633Y030992D01*
X036633Y030696D01*
X036337Y030500D01*
X036633Y030500D01*
X036633Y030254D01*
X035845Y030254D01*
X036042Y030500D02*
X036042Y030647D01*
X036044Y030662D01*
X036048Y030677D01*
X036056Y030690D01*
X036066Y030702D01*
X036079Y030711D01*
X036093Y030717D01*
X036108Y030721D01*
X036124Y030721D01*
X036139Y030717D01*
X036153Y030711D01*
X036166Y030702D01*
X036176Y030690D01*
X036184Y030677D01*
X036188Y030662D01*
X036190Y030647D01*
X036190Y030500D01*
X036042Y030500D01*
X035845Y031484D02*
X035847Y031445D01*
X035853Y031407D01*
X035862Y031370D01*
X035875Y031333D01*
X035892Y031298D01*
X035911Y031265D01*
X035934Y031234D01*
X035960Y031205D01*
X035989Y031179D01*
X036020Y031156D01*
X036053Y031137D01*
X036088Y031120D01*
X036125Y031107D01*
X036162Y031098D01*
X036200Y031092D01*
X036239Y031090D01*
X036278Y031092D01*
X036316Y031098D01*
X036353Y031107D01*
X036390Y031120D01*
X036425Y031137D01*
X036458Y031156D01*
X036489Y031179D01*
X036518Y031205D01*
X036544Y031234D01*
X036567Y031265D01*
X036586Y031298D01*
X036603Y031333D01*
X036616Y031370D01*
X036625Y031407D01*
X036631Y031445D01*
X036633Y031484D01*
X036436Y031582D02*
X036239Y031582D01*
X036042Y031582D02*
X036044Y031555D01*
X036049Y031529D01*
X036058Y031504D01*
X036071Y031480D01*
X036086Y031458D01*
X036105Y031438D01*
X036125Y031421D01*
X036148Y031407D01*
X036173Y031396D01*
X036199Y031389D01*
X036226Y031385D01*
X036252Y031385D01*
X036279Y031389D01*
X036305Y031396D01*
X036330Y031407D01*
X036353Y031421D01*
X036373Y031438D01*
X036392Y031458D01*
X036407Y031480D01*
X036420Y031504D01*
X036429Y031529D01*
X036434Y031555D01*
X036436Y031582D01*
X036239Y031582D02*
X036239Y031779D01*
X036584Y031779D01*
X036042Y031779D02*
X036037Y031730D01*
X036035Y031681D01*
X036037Y031632D01*
X036042Y031583D01*
X036042Y031777D02*
X035867Y031777D01*
X036584Y031779D02*
X036601Y031722D01*
X036615Y031663D01*
X036625Y031604D01*
X036631Y031544D01*
X036633Y031484D01*
X035846Y031484D02*
X035845Y031559D01*
X035849Y031634D01*
X035856Y031709D01*
X035867Y031783D01*
X010775Y007389D02*
X010675Y007389D01*
X010675Y006389D01*
X010775Y006389D01*
X008475Y006439D02*
X008375Y006439D01*
X008475Y006439D02*
X008475Y007389D01*
X008375Y007389D01*
X007775Y003139D02*
X007675Y003139D01*
X007675Y002139D01*
X007775Y002139D01*
X005475Y002189D02*
X005375Y002189D01*
X005475Y002189D02*
X005475Y003139D01*
X005375Y003139D01*
X011125Y003139D02*
X011225Y003139D01*
X011225Y002189D01*
X011125Y002189D01*
X013425Y002139D02*
X013525Y002139D01*
X013425Y002139D02*
X013425Y003139D01*
X013525Y003139D01*
X016875Y003139D02*
X016975Y003139D01*
X016975Y002189D01*
X016875Y002189D01*
X019175Y002139D02*
X019275Y002139D01*
X019175Y002139D02*
X019175Y003139D01*
X019275Y003139D01*
X022625Y003139D02*
X022725Y003139D01*
X022725Y002189D01*
X022625Y002189D01*
X024925Y002139D02*
X025025Y002139D01*
X024925Y002139D02*
X024925Y003139D01*
X025025Y003139D01*
D16*
X025299Y003169D02*
X025374Y003244D01*
X025299Y003169D02*
X025299Y003019D01*
X025374Y002944D01*
X025449Y002944D01*
X025524Y003019D01*
X025524Y003169D01*
X025600Y003244D01*
X025675Y003244D01*
X025750Y003169D01*
X025750Y003019D01*
X025675Y002944D01*
X025675Y003404D02*
X025750Y003479D01*
X025750Y003629D01*
X025675Y003704D01*
X025524Y003704D01*
X025449Y003629D01*
X025449Y003554D01*
X025524Y003404D01*
X025299Y003404D01*
X025299Y003704D01*
X027759Y002164D02*
X027759Y006365D01*
X027761Y006408D01*
X027767Y006451D01*
X027776Y006494D01*
X027789Y006535D01*
X027806Y006575D01*
X027826Y006614D01*
X027849Y006651D01*
X027876Y006685D01*
X027905Y006717D01*
X027937Y006746D01*
X027971Y006773D01*
X028008Y006796D01*
X028047Y006816D01*
X028087Y006833D01*
X028128Y006846D01*
X028171Y006855D01*
X028214Y006861D01*
X028257Y006863D01*
X032143Y006863D01*
X032186Y006861D01*
X032229Y006855D01*
X032272Y006846D01*
X032313Y006833D01*
X032353Y006816D01*
X032392Y006796D01*
X032429Y006773D01*
X032463Y006746D01*
X032495Y006717D01*
X032524Y006685D01*
X032551Y006651D01*
X032574Y006614D01*
X032594Y006575D01*
X032611Y006535D01*
X032624Y006494D01*
X032633Y006451D01*
X032639Y006408D01*
X032641Y006365D01*
X032641Y002164D01*
X032639Y002121D01*
X032633Y002078D01*
X032624Y002035D01*
X032611Y001994D01*
X032594Y001954D01*
X032574Y001915D01*
X032551Y001878D01*
X032524Y001844D01*
X032495Y001812D01*
X032463Y001783D01*
X032429Y001756D01*
X032392Y001733D01*
X032353Y001713D01*
X032313Y001696D01*
X032272Y001683D01*
X032229Y001674D01*
X032186Y001668D01*
X032143Y001666D01*
X028257Y001666D01*
X028214Y001668D01*
X028171Y001674D01*
X028128Y001683D01*
X028087Y001696D01*
X028047Y001713D01*
X028008Y001733D01*
X027971Y001756D01*
X027937Y001783D01*
X027905Y001812D01*
X027876Y001844D01*
X027849Y001878D01*
X027826Y001915D01*
X027806Y001954D01*
X027789Y001994D01*
X027776Y002035D01*
X027767Y002078D01*
X027761Y002121D01*
X027759Y002164D01*
X027050Y004264D02*
X027054Y004419D01*
X027065Y004573D01*
X027084Y004726D01*
X027111Y004879D01*
X027144Y005029D01*
X027186Y005178D01*
X027234Y005325D01*
X027290Y005469D01*
X027352Y005611D01*
X027422Y005749D01*
X027498Y005883D01*
X027581Y006014D01*
X027670Y006140D01*
X027765Y006262D01*
X027866Y006379D01*
X027973Y006491D01*
X028085Y006598D01*
X028202Y006699D01*
X028324Y006794D01*
X028450Y006883D01*
X028581Y006966D01*
X028715Y007042D01*
X028853Y007112D01*
X028995Y007174D01*
X029139Y007230D01*
X029286Y007278D01*
X029435Y007320D01*
X029585Y007353D01*
X029738Y007380D01*
X029891Y007399D01*
X030045Y007410D01*
X030200Y007414D01*
X030355Y007410D01*
X030509Y007399D01*
X030662Y007380D01*
X030815Y007353D01*
X030965Y007320D01*
X031114Y007278D01*
X031261Y007230D01*
X031405Y007174D01*
X031547Y007112D01*
X031685Y007042D01*
X031819Y006966D01*
X031950Y006883D01*
X032076Y006794D01*
X032198Y006699D01*
X032315Y006598D01*
X032427Y006491D01*
X032534Y006379D01*
X032635Y006262D01*
X032730Y006140D01*
X032819Y006014D01*
X032902Y005883D01*
X032978Y005749D01*
X033048Y005611D01*
X033110Y005469D01*
X033166Y005325D01*
X033214Y005178D01*
X033256Y005029D01*
X033289Y004879D01*
X033316Y004726D01*
X033335Y004573D01*
X033346Y004419D01*
X033350Y004264D01*
X033346Y004109D01*
X033335Y003955D01*
X033316Y003802D01*
X033289Y003649D01*
X033256Y003499D01*
X033214Y003350D01*
X033166Y003203D01*
X033110Y003059D01*
X033048Y002917D01*
X032978Y002779D01*
X032902Y002645D01*
X032819Y002514D01*
X032730Y002388D01*
X032635Y002266D01*
X032534Y002149D01*
X032427Y002037D01*
X032315Y001930D01*
X032198Y001829D01*
X032076Y001734D01*
X031950Y001645D01*
X031819Y001562D01*
X031685Y001486D01*
X031547Y001416D01*
X031405Y001354D01*
X031261Y001298D01*
X031114Y001250D01*
X030965Y001208D01*
X030815Y001175D01*
X030662Y001148D01*
X030509Y001129D01*
X030355Y001118D01*
X030200Y001114D01*
X030045Y001118D01*
X029891Y001129D01*
X029738Y001148D01*
X029585Y001175D01*
X029435Y001208D01*
X029286Y001250D01*
X029139Y001298D01*
X028995Y001354D01*
X028853Y001416D01*
X028715Y001486D01*
X028581Y001562D01*
X028450Y001645D01*
X028324Y001734D01*
X028202Y001829D01*
X028085Y001930D01*
X027973Y002037D01*
X027866Y002149D01*
X027765Y002266D01*
X027670Y002388D01*
X027581Y002514D01*
X027498Y002645D01*
X027422Y002779D01*
X027352Y002917D01*
X027290Y003059D01*
X027234Y003203D01*
X027186Y003350D01*
X027144Y003499D01*
X027111Y003649D01*
X027084Y003802D01*
X027065Y003955D01*
X027054Y004109D01*
X027050Y004264D01*
X029019Y004264D02*
X029021Y004333D01*
X029027Y004401D01*
X029037Y004469D01*
X029051Y004536D01*
X029069Y004603D01*
X029090Y004668D01*
X029116Y004732D01*
X029145Y004794D01*
X029177Y004854D01*
X029213Y004913D01*
X029253Y004969D01*
X029295Y005023D01*
X029341Y005074D01*
X029390Y005123D01*
X029441Y005169D01*
X029495Y005211D01*
X029551Y005251D01*
X029609Y005287D01*
X029670Y005319D01*
X029732Y005348D01*
X029796Y005374D01*
X029861Y005395D01*
X029928Y005413D01*
X029995Y005427D01*
X030063Y005437D01*
X030131Y005443D01*
X030200Y005445D01*
X030269Y005443D01*
X030337Y005437D01*
X030405Y005427D01*
X030472Y005413D01*
X030539Y005395D01*
X030604Y005374D01*
X030668Y005348D01*
X030730Y005319D01*
X030790Y005287D01*
X030849Y005251D01*
X030905Y005211D01*
X030959Y005169D01*
X031010Y005123D01*
X031059Y005074D01*
X031105Y005023D01*
X031147Y004969D01*
X031187Y004913D01*
X031223Y004854D01*
X031255Y004794D01*
X031284Y004732D01*
X031310Y004668D01*
X031331Y004603D01*
X031349Y004536D01*
X031363Y004469D01*
X031373Y004401D01*
X031379Y004333D01*
X031381Y004264D01*
X031379Y004195D01*
X031373Y004127D01*
X031363Y004059D01*
X031349Y003992D01*
X031331Y003925D01*
X031310Y003860D01*
X031284Y003796D01*
X031255Y003734D01*
X031223Y003673D01*
X031187Y003615D01*
X031147Y003559D01*
X031105Y003505D01*
X031059Y003454D01*
X031010Y003405D01*
X030959Y003359D01*
X030905Y003317D01*
X030849Y003277D01*
X030791Y003241D01*
X030730Y003209D01*
X030668Y003180D01*
X030604Y003154D01*
X030539Y003133D01*
X030472Y003115D01*
X030405Y003101D01*
X030337Y003091D01*
X030269Y003085D01*
X030200Y003083D01*
X030131Y003085D01*
X030063Y003091D01*
X029995Y003101D01*
X029928Y003115D01*
X029861Y003133D01*
X029796Y003154D01*
X029732Y003180D01*
X029670Y003209D01*
X029609Y003241D01*
X029551Y003277D01*
X029495Y003317D01*
X029441Y003359D01*
X029390Y003405D01*
X029341Y003454D01*
X029295Y003505D01*
X029253Y003559D01*
X029213Y003615D01*
X029177Y003673D01*
X029145Y003734D01*
X029116Y003796D01*
X029090Y003860D01*
X029069Y003925D01*
X029051Y003992D01*
X029037Y004059D01*
X029027Y004127D01*
X029021Y004195D01*
X029019Y004264D01*
X028428Y004264D02*
X028430Y004351D01*
X028437Y004438D01*
X028447Y004524D01*
X028462Y004610D01*
X028481Y004695D01*
X028504Y004778D01*
X028532Y004861D01*
X028563Y004942D01*
X028598Y005022D01*
X028637Y005099D01*
X028680Y005175D01*
X028727Y005248D01*
X028777Y005320D01*
X028830Y005388D01*
X028887Y005454D01*
X028947Y005517D01*
X029010Y005577D01*
X029076Y005634D01*
X029144Y005687D01*
X029216Y005737D01*
X029289Y005784D01*
X029365Y005827D01*
X029442Y005866D01*
X029522Y005901D01*
X029603Y005932D01*
X029686Y005960D01*
X029769Y005983D01*
X029854Y006002D01*
X029940Y006017D01*
X030026Y006027D01*
X030113Y006034D01*
X030200Y006036D01*
X030287Y006034D01*
X030374Y006027D01*
X030460Y006017D01*
X030546Y006002D01*
X030631Y005983D01*
X030714Y005960D01*
X030797Y005932D01*
X030878Y005901D01*
X030958Y005866D01*
X031035Y005827D01*
X031111Y005784D01*
X031184Y005737D01*
X031256Y005687D01*
X031324Y005634D01*
X031390Y005577D01*
X031453Y005517D01*
X031513Y005454D01*
X031570Y005388D01*
X031623Y005320D01*
X031673Y005248D01*
X031720Y005175D01*
X031763Y005099D01*
X031802Y005022D01*
X031837Y004942D01*
X031868Y004861D01*
X031896Y004778D01*
X031919Y004695D01*
X031938Y004610D01*
X031953Y004524D01*
X031963Y004438D01*
X031970Y004351D01*
X031972Y004264D01*
X031970Y004177D01*
X031963Y004090D01*
X031953Y004004D01*
X031938Y003918D01*
X031919Y003833D01*
X031896Y003750D01*
X031868Y003667D01*
X031837Y003586D01*
X031802Y003506D01*
X031763Y003429D01*
X031720Y003353D01*
X031673Y003280D01*
X031623Y003208D01*
X031570Y003140D01*
X031513Y003074D01*
X031453Y003011D01*
X031390Y002951D01*
X031324Y002894D01*
X031256Y002841D01*
X031184Y002791D01*
X031111Y002744D01*
X031035Y002701D01*
X030958Y002662D01*
X030878Y002627D01*
X030797Y002596D01*
X030714Y002568D01*
X030631Y002545D01*
X030546Y002526D01*
X030460Y002511D01*
X030374Y002501D01*
X030287Y002494D01*
X030200Y002492D01*
X030113Y002494D01*
X030026Y002501D01*
X029940Y002511D01*
X029854Y002526D01*
X029769Y002545D01*
X029686Y002568D01*
X029603Y002596D01*
X029522Y002627D01*
X029442Y002662D01*
X029365Y002701D01*
X029289Y002744D01*
X029216Y002791D01*
X029144Y002841D01*
X029076Y002894D01*
X029010Y002951D01*
X028947Y003011D01*
X028887Y003074D01*
X028830Y003140D01*
X028777Y003208D01*
X028727Y003280D01*
X028680Y003353D01*
X028637Y003429D01*
X028598Y003506D01*
X028563Y003586D01*
X028532Y003667D01*
X028504Y003750D01*
X028481Y003833D01*
X028462Y003918D01*
X028447Y004004D01*
X028437Y004090D01*
X028430Y004177D01*
X028428Y004264D01*
X022550Y005614D02*
X022475Y005539D01*
X022550Y005614D02*
X022550Y005689D01*
X022475Y005765D01*
X022099Y005765D01*
X022099Y005840D02*
X022099Y005689D01*
X022099Y006000D02*
X022099Y006225D01*
X022174Y006300D01*
X022324Y006300D01*
X022400Y006225D01*
X022400Y006000D01*
X022550Y006000D02*
X022099Y006000D01*
X022099Y006460D02*
X022099Y006760D01*
X022174Y006760D01*
X022475Y006460D01*
X022550Y006460D01*
X021146Y007074D02*
X021146Y007704D01*
X020004Y007704D01*
X020004Y007389D01*
X020004Y007390D02*
X019980Y007401D01*
X019955Y007409D01*
X019929Y007413D01*
X019903Y007414D01*
X019877Y007410D01*
X019852Y007403D01*
X019828Y007393D01*
X019805Y007379D01*
X019785Y007362D01*
X019768Y007342D01*
X019754Y007320D01*
X019743Y007296D01*
X019735Y007271D01*
X019731Y007245D01*
X019731Y007219D01*
X019735Y007193D01*
X019743Y007168D01*
X019754Y007144D01*
X019768Y007122D01*
X019785Y007102D01*
X019805Y007085D01*
X019828Y007071D01*
X019852Y007061D01*
X019877Y007054D01*
X019903Y007050D01*
X019929Y007051D01*
X019955Y007055D01*
X019980Y007063D01*
X020004Y007074D01*
X021146Y007074D01*
X020000Y003629D02*
X019549Y003629D01*
X019774Y003404D01*
X019774Y003704D01*
X019850Y003244D02*
X019925Y003244D01*
X020000Y003169D01*
X020000Y003019D01*
X019925Y002944D01*
X019774Y003019D02*
X019774Y003169D01*
X019850Y003244D01*
X019624Y003244D02*
X019549Y003169D01*
X019549Y003019D01*
X019624Y002944D01*
X019699Y002944D01*
X019774Y003019D01*
X014250Y003019D02*
X014175Y002944D01*
X014250Y003019D02*
X014250Y003169D01*
X014175Y003244D01*
X014100Y003244D01*
X014024Y003169D01*
X014024Y003019D01*
X013949Y002944D01*
X013874Y002944D01*
X013799Y003019D01*
X013799Y003169D01*
X013874Y003244D01*
X013874Y003404D02*
X013799Y003479D01*
X013799Y003629D01*
X013874Y003704D01*
X013949Y003704D01*
X014024Y003629D01*
X014100Y003704D01*
X014175Y003704D01*
X014250Y003629D01*
X014250Y003479D01*
X014175Y003404D01*
X014024Y003554D02*
X014024Y003629D01*
X011425Y007194D02*
X011500Y007269D01*
X011500Y007419D01*
X011425Y007494D01*
X011350Y007494D01*
X011274Y007419D01*
X011274Y007269D01*
X011199Y007194D01*
X011124Y007194D01*
X011049Y007269D01*
X011049Y007419D01*
X011124Y007494D01*
X011199Y007654D02*
X011049Y007804D01*
X011500Y007804D01*
X011500Y007654D02*
X011500Y007954D01*
X010275Y012239D02*
X009824Y012239D01*
X009824Y012465D01*
X009899Y012540D01*
X010200Y012540D01*
X010275Y012465D01*
X010275Y012239D01*
X010275Y012700D02*
X009974Y012700D01*
X009824Y012850D01*
X009974Y013000D01*
X010275Y013000D01*
X010200Y013160D02*
X009899Y013160D01*
X009824Y013235D01*
X009824Y013385D01*
X009899Y013460D01*
X010200Y013460D02*
X010275Y013385D01*
X010275Y013235D01*
X010200Y013160D01*
X010049Y013000D02*
X010049Y012700D01*
X009585Y020319D02*
X007065Y020319D01*
X007065Y027209D01*
X007537Y027209D01*
X007537Y027012D01*
X007931Y027012D01*
X007931Y027209D01*
X007537Y027209D01*
X007931Y027209D02*
X009585Y027209D01*
X009585Y025044D01*
X009191Y025044D01*
X009191Y023961D01*
X009585Y023961D01*
X009585Y023568D01*
X009191Y023568D01*
X009191Y022485D01*
X009585Y022485D01*
X009585Y020319D01*
X009191Y023568D02*
X009191Y023961D01*
X009173Y027863D02*
X009173Y032666D01*
X013976Y032666D01*
X013976Y027863D01*
X009173Y027863D01*
X005950Y029389D02*
X000950Y029389D01*
X000950Y029889D01*
X001450Y029889D01*
X005450Y029889D01*
X005450Y032639D01*
X001450Y032639D01*
X000950Y032639D01*
X000950Y033139D01*
X001450Y033139D01*
X005450Y033139D01*
X005450Y035889D01*
X001450Y035889D01*
X000950Y035889D01*
X000950Y036389D01*
X005950Y036389D01*
X005950Y035889D01*
X005450Y035889D01*
X004380Y037009D02*
X004455Y037084D01*
X004455Y037159D01*
X004380Y037235D01*
X004004Y037235D01*
X004004Y037310D02*
X004004Y037159D01*
X004004Y037470D02*
X004004Y037695D01*
X004079Y037770D01*
X004229Y037770D01*
X004305Y037695D01*
X004305Y037470D01*
X004455Y037470D02*
X004004Y037470D01*
X004079Y037930D02*
X004004Y038005D01*
X004004Y038155D01*
X004079Y038230D01*
X004154Y038230D01*
X004455Y037930D01*
X004455Y038230D01*
X007182Y039435D02*
X007182Y033844D01*
X013717Y033844D01*
X013717Y039435D01*
X007182Y039435D01*
X001450Y035889D02*
X001450Y033139D01*
X001450Y032639D02*
X001450Y029889D01*
X005450Y029889D02*
X005950Y029889D01*
X005950Y029389D01*
X008194Y031713D02*
X008194Y031863D01*
X008194Y031788D02*
X008570Y031788D01*
X008645Y031713D01*
X008645Y031638D01*
X008570Y031563D01*
X008645Y032024D02*
X008194Y032024D01*
X008194Y032249D01*
X008269Y032324D01*
X008419Y032324D01*
X008495Y032249D01*
X008495Y032024D01*
X008419Y032484D02*
X008419Y032784D01*
X008194Y032709D02*
X008645Y032709D01*
X008419Y032484D02*
X008194Y032709D01*
X005950Y032639D02*
X005450Y032639D01*
X005950Y032639D02*
X005950Y033139D01*
X005450Y033139D01*
X013824Y026125D02*
X014125Y026125D01*
X014275Y025975D01*
X014125Y025825D01*
X013824Y025825D01*
X013824Y025665D02*
X013824Y025364D01*
X014049Y025364D01*
X013974Y025514D01*
X013974Y025590D01*
X014049Y025665D01*
X014200Y025665D01*
X014275Y025590D01*
X014275Y025439D01*
X014200Y025364D01*
X017181Y027796D02*
X017968Y027796D01*
X017575Y027599D01*
X017575Y027993D02*
X017968Y027796D01*
X018862Y028772D02*
X018862Y031150D01*
X016287Y031150D01*
X016287Y028772D01*
X018862Y028772D01*
X018075Y026585D02*
X018150Y026510D01*
X018150Y026360D01*
X018075Y026285D01*
X018000Y026125D02*
X017699Y026125D01*
X017774Y026285D02*
X017699Y026360D01*
X017699Y026510D01*
X017774Y026585D01*
X017849Y026585D01*
X017924Y026510D01*
X018000Y026585D01*
X018075Y026585D01*
X017924Y026510D02*
X017924Y026435D01*
X018000Y026125D02*
X018150Y025975D01*
X018000Y025825D01*
X017699Y025825D01*
X017774Y025665D02*
X017849Y025665D01*
X017924Y025590D01*
X018000Y025665D01*
X018075Y025665D01*
X018150Y025590D01*
X018150Y025439D01*
X018075Y025364D01*
X017924Y025514D02*
X017924Y025590D01*
X017774Y025665D02*
X017699Y025590D01*
X017699Y025439D01*
X017774Y025364D01*
X020614Y025399D02*
X020614Y023746D01*
X020811Y023746D01*
X020811Y023352D01*
X020614Y023352D01*
X020614Y022880D01*
X025535Y022880D01*
X025535Y025399D01*
X024354Y025399D01*
X024354Y025006D01*
X023272Y025006D01*
X023272Y025399D01*
X022878Y025399D01*
X022878Y025006D01*
X023272Y025006D01*
X022878Y025006D02*
X021795Y025006D01*
X021795Y025399D01*
X020614Y025399D01*
X020614Y023746D02*
X020614Y023352D01*
X020614Y022149D02*
X020614Y020496D01*
X020811Y020496D01*
X020811Y020102D01*
X020614Y020102D01*
X020614Y019630D01*
X025535Y019630D01*
X025535Y022149D01*
X024354Y022149D01*
X024354Y021756D01*
X023272Y021756D01*
X023272Y022149D01*
X022878Y022149D01*
X022878Y021756D01*
X023272Y021756D01*
X022878Y021756D02*
X021795Y021756D01*
X021795Y022149D01*
X020614Y022149D01*
X020614Y020496D02*
X020614Y020102D01*
X022109Y018185D02*
X023290Y018185D01*
X023290Y017594D01*
X022109Y017594D01*
X022109Y018185D01*
X022625Y018064D02*
X022625Y017714D01*
X022775Y017889D01*
X022625Y018064D01*
X022775Y018064D02*
X022775Y017714D01*
X022775Y017314D02*
X022775Y016964D01*
X022625Y016964D02*
X022625Y017314D01*
X022775Y017139D01*
X022625Y016964D01*
X022109Y016844D02*
X022109Y017435D01*
X023290Y017435D01*
X023290Y016844D01*
X022109Y016844D01*
X023614Y016746D02*
X023614Y018399D01*
X024795Y018399D01*
X024795Y018006D01*
X025878Y018006D01*
X025878Y018399D01*
X026272Y018399D01*
X026272Y018006D01*
X027354Y018006D01*
X027354Y018399D01*
X028535Y018399D01*
X028535Y015880D01*
X023614Y015880D01*
X023614Y016352D01*
X023811Y016352D01*
X023811Y016746D01*
X023614Y016746D01*
X023614Y016352D01*
X023614Y015149D02*
X023614Y013496D01*
X023811Y013496D01*
X023811Y013102D01*
X023614Y013102D01*
X023614Y012630D01*
X028535Y012630D01*
X028535Y015149D01*
X027354Y015149D01*
X027354Y014756D01*
X026272Y014756D01*
X026272Y015149D01*
X025878Y015149D01*
X025878Y014756D01*
X026272Y014756D01*
X025878Y014756D02*
X024795Y014756D01*
X024795Y015149D01*
X023614Y015149D01*
X023290Y014685D02*
X022109Y014685D01*
X022109Y014094D01*
X023290Y014094D01*
X023290Y014685D01*
X022775Y014564D02*
X022775Y014214D01*
X022625Y014214D02*
X022625Y014564D01*
X022775Y014389D01*
X022625Y014214D01*
X022625Y013814D02*
X022775Y013639D01*
X022625Y013464D01*
X022625Y013814D01*
X022775Y013814D02*
X022775Y013464D01*
X023290Y013344D02*
X022109Y013344D01*
X022109Y013935D01*
X023290Y013935D01*
X023290Y013344D01*
X023614Y013496D02*
X023614Y013102D01*
X025878Y018006D02*
X026272Y018006D01*
X033874Y012708D02*
X034475Y012708D01*
X034400Y012633D02*
X034400Y012783D01*
X034325Y012858D01*
X034250Y012858D01*
X034174Y012783D01*
X034174Y012633D01*
X034099Y012558D01*
X034024Y012558D01*
X033949Y012633D01*
X033949Y012783D01*
X034024Y012858D01*
X034024Y013019D02*
X033949Y013094D01*
X033949Y013244D01*
X034024Y013319D01*
X034099Y013319D01*
X034174Y013244D01*
X034250Y013319D01*
X034325Y013319D01*
X034400Y013244D01*
X034400Y013094D01*
X034325Y013019D01*
X034174Y013169D02*
X034174Y013244D01*
X034024Y013479D02*
X033949Y013554D01*
X033949Y013704D01*
X034024Y013779D01*
X034099Y013779D01*
X034400Y013479D01*
X034400Y013779D01*
X034879Y012855D02*
X034954Y012705D01*
X035104Y012555D01*
X035104Y012780D01*
X035180Y012855D01*
X035255Y012855D01*
X035330Y012780D01*
X035330Y012630D01*
X035255Y012555D01*
X035104Y012555D01*
X035104Y012395D02*
X035180Y012320D01*
X035180Y012095D01*
X035330Y012095D02*
X034879Y012095D01*
X034879Y012320D01*
X034954Y012395D01*
X035104Y012395D01*
X034879Y011935D02*
X034879Y011784D01*
X034879Y011860D02*
X035255Y011860D01*
X035330Y011784D01*
X035330Y011709D01*
X035255Y011634D01*
X034400Y012173D02*
X034400Y012323D01*
X034325Y012398D01*
X033949Y012398D01*
X033949Y012098D02*
X034325Y012098D01*
X034400Y012173D01*
X034325Y012558D02*
X034400Y012633D01*
X034329Y002105D02*
X034404Y002105D01*
X034479Y002030D01*
X034555Y002105D01*
X034630Y002105D01*
X034705Y002030D01*
X034705Y001880D01*
X034630Y001805D01*
X034479Y001955D02*
X034479Y002030D01*
X034329Y002105D02*
X034254Y002030D01*
X034254Y001880D01*
X034329Y001805D01*
X034329Y001645D02*
X034479Y001645D01*
X034555Y001570D01*
X034555Y001345D01*
X034705Y001345D02*
X034254Y001345D01*
X034254Y001570D01*
X034329Y001645D01*
X034254Y001185D02*
X034254Y001034D01*
X034254Y001110D02*
X034630Y001110D01*
X034705Y001034D01*
X034705Y000959D01*
X034630Y000884D01*
X008500Y003019D02*
X008425Y002944D01*
X008500Y003019D02*
X008500Y003169D01*
X008425Y003244D01*
X008350Y003244D01*
X008274Y003169D01*
X008274Y003019D01*
X008199Y002944D01*
X008124Y002944D01*
X008049Y003019D01*
X008049Y003169D01*
X008124Y003244D01*
X008124Y003404D02*
X008049Y003479D01*
X008049Y003629D01*
X008124Y003704D01*
X008199Y003704D01*
X008500Y003404D01*
X008500Y003704D01*
X003731Y004264D02*
X003656Y004189D01*
X003506Y004189D01*
X003431Y004264D01*
X003731Y004565D01*
X003731Y004264D01*
X003431Y004264D02*
X003431Y004565D01*
X003506Y004640D01*
X003656Y004640D01*
X003731Y004565D01*
X003271Y004565D02*
X003271Y004264D01*
X003196Y004189D01*
X002970Y004189D01*
X002970Y004640D01*
X003196Y004640D01*
X003271Y004565D01*
X002810Y004640D02*
X002810Y004189D01*
X002510Y004640D01*
X002510Y004189D01*
X002350Y004264D02*
X002350Y004415D01*
X002200Y004415D01*
X002350Y004565D02*
X002275Y004640D01*
X002125Y004640D01*
X002050Y004565D01*
X002050Y004264D01*
X002125Y004189D01*
X002275Y004189D01*
X002350Y004264D01*
X002550Y021789D02*
X002475Y021864D01*
X002550Y021789D02*
X002700Y021789D01*
X002775Y021864D01*
X002775Y021939D01*
X002700Y022015D01*
X002550Y022015D01*
X002475Y022090D01*
X002475Y022165D01*
X002550Y022240D01*
X002700Y022240D01*
X002775Y022165D01*
X002935Y022165D02*
X003010Y022240D01*
X003160Y022240D01*
X003235Y022165D01*
X003235Y022015D02*
X003085Y022015D01*
X003235Y022015D02*
X003235Y021864D01*
X003160Y021789D01*
X003010Y021789D01*
X002935Y021864D01*
X002935Y022165D01*
X003395Y022165D02*
X003471Y022240D01*
X003621Y022240D01*
X003696Y022165D01*
X003696Y022090D01*
X003395Y021789D01*
X003696Y021789D01*
X014682Y033844D02*
X014682Y039435D01*
X021217Y039435D01*
X021217Y033844D01*
X014682Y033844D01*
X022432Y033844D02*
X022432Y039435D01*
X028967Y039435D01*
X028967Y033844D01*
X022432Y033844D01*
X027595Y029710D02*
X027745Y029710D01*
X027670Y029710D02*
X027670Y029334D01*
X027595Y029259D01*
X027520Y029259D01*
X027445Y029334D01*
X027905Y029259D02*
X027905Y029710D01*
X028130Y029710D01*
X028205Y029635D01*
X028205Y029485D01*
X028130Y029409D01*
X027905Y029409D01*
X028365Y029334D02*
X028441Y029259D01*
X028591Y029259D01*
X028666Y029334D01*
X028666Y029485D01*
X028591Y029560D01*
X028516Y029560D01*
X028365Y029485D01*
X028365Y029710D01*
X028666Y029710D01*
X024525Y028385D02*
X024450Y028460D01*
X024149Y028460D01*
X024074Y028385D01*
X024074Y028160D01*
X024525Y028160D01*
X024525Y028385D01*
X024525Y028000D02*
X024074Y028000D01*
X024074Y027700D02*
X024525Y028000D01*
X024525Y027700D02*
X024074Y027700D01*
X024149Y027540D02*
X024074Y027465D01*
X024074Y027314D01*
X024149Y027239D01*
X024450Y027239D01*
X024525Y027314D01*
X024525Y027465D01*
X024450Y027540D01*
X024299Y027540D01*
X024299Y027389D01*
X029932Y033844D02*
X029932Y039435D01*
X036467Y039435D01*
X036467Y033844D01*
X029932Y033844D01*
X038373Y034644D02*
X038449Y034569D01*
X038524Y034569D01*
X038599Y034644D01*
X038599Y035020D01*
X038524Y035020D02*
X038674Y035020D01*
X038834Y035020D02*
X039059Y035020D01*
X039134Y034945D01*
X039134Y034795D01*
X039059Y034719D01*
X038834Y034719D01*
X038834Y034569D02*
X038834Y035020D01*
X039294Y034870D02*
X039444Y035020D01*
X039444Y034569D01*
X039294Y034569D02*
X039595Y034569D01*
D17*
X031932Y025279D02*
X032089Y025122D01*
X032089Y021657D01*
X031932Y021500D01*
X028467Y021500D01*
X028310Y021657D01*
X028310Y025122D01*
X028467Y025279D01*
X031932Y025279D01*
X036960Y013284D02*
X037275Y012969D01*
X037275Y009012D01*
X037268Y009012D02*
X036988Y009012D01*
X036988Y007516D02*
X037268Y007516D01*
X037275Y007516D02*
X037275Y003560D01*
X036960Y003245D01*
X040189Y003245D01*
X039874Y003560D01*
X037275Y003560D01*
X036960Y003245D02*
X036960Y013284D01*
X040189Y013284D01*
X039874Y012969D01*
X039874Y003560D01*
X040189Y003245D02*
X040189Y013284D01*
X039874Y012969D02*
X037275Y012969D01*
X018719Y021525D02*
X018404Y021840D01*
X015448Y021840D01*
X015448Y021832D02*
X015448Y021553D01*
X013952Y021553D02*
X013952Y021832D01*
X013952Y021840D02*
X010995Y021840D01*
X010680Y021525D01*
X018719Y021525D01*
X018719Y024754D01*
X018404Y024439D01*
X018404Y021840D01*
X018404Y024439D02*
X010995Y024439D01*
X010680Y024754D01*
X018719Y024754D01*
X010995Y024439D02*
X010995Y021840D01*
X010680Y021525D02*
X010680Y024754D01*
X005575Y024264D02*
X005575Y023764D01*
X005575Y024264D02*
X001575Y024264D01*
X001575Y023764D01*
X001575Y022764D02*
X001575Y022264D01*
X005575Y022264D01*
X005575Y022764D01*
X004439Y016534D02*
X001210Y016534D01*
X001525Y016219D01*
X004124Y016219D01*
X004439Y016534D01*
X004439Y005495D01*
X004124Y005810D01*
X004124Y010266D01*
X004132Y010266D02*
X004411Y010266D01*
X004411Y011762D02*
X004132Y011762D01*
X004124Y011762D02*
X004124Y016219D01*
X001525Y016219D02*
X001525Y005810D01*
X001210Y005495D01*
X001210Y016534D01*
X001525Y005810D02*
X004124Y005810D01*
X004439Y005495D02*
X001210Y005495D01*
D18*
X003600Y006562D02*
X003600Y007113D01*
X004022Y006837D01*
X003600Y006562D01*
X012023Y021943D02*
X012298Y022364D01*
X011747Y022364D01*
X012023Y021943D01*
X037378Y011942D02*
X037799Y011666D01*
X037799Y012217D01*
X037378Y011942D01*
D19*
X033225Y017371D02*
X033225Y018158D01*
X033241Y018188D01*
X033253Y018220D01*
X033262Y018253D01*
X033267Y018287D01*
X033268Y018321D01*
X033266Y018355D01*
X033260Y018389D01*
X033250Y018422D01*
X033237Y018453D01*
X033221Y018483D01*
X033202Y018511D01*
X033179Y018537D01*
X033154Y018561D01*
X033127Y018581D01*
X033098Y018599D01*
X033067Y018613D01*
X033034Y018624D01*
X033001Y018631D01*
X032967Y018635D01*
X032933Y018635D01*
X032899Y018631D01*
X032866Y018624D01*
X032833Y018613D01*
X032802Y018599D01*
X032773Y018581D01*
X032746Y018561D01*
X032721Y018537D01*
X032698Y018511D01*
X032679Y018483D01*
X032663Y018453D01*
X032650Y018422D01*
X032640Y018389D01*
X032634Y018355D01*
X032632Y018321D01*
X032633Y018287D01*
X032638Y018253D01*
X032647Y018220D01*
X032659Y018188D01*
X032675Y018158D01*
X032674Y018158D02*
X032674Y017371D01*
X021468Y017414D02*
X021499Y017430D01*
X021532Y017443D01*
X021566Y017451D01*
X021601Y017456D01*
X021636Y017457D01*
X021671Y017454D01*
X021705Y017447D01*
X021739Y017437D01*
X021771Y017423D01*
X021801Y017405D01*
X021829Y017384D01*
X021855Y017361D01*
X021878Y017334D01*
X021898Y017306D01*
X021915Y017275D01*
X021928Y017242D01*
X021937Y017209D01*
X021943Y017174D01*
X021945Y017139D01*
X021943Y017104D01*
X021937Y017069D01*
X021928Y017036D01*
X021915Y017003D01*
X021898Y016972D01*
X021878Y016944D01*
X021855Y016917D01*
X021829Y016894D01*
X021801Y016873D01*
X021771Y016855D01*
X021739Y016841D01*
X021705Y016831D01*
X021671Y016824D01*
X021636Y016821D01*
X021601Y016822D01*
X021566Y016827D01*
X021532Y016835D01*
X021499Y016848D01*
X021468Y016864D01*
X020681Y016864D01*
X020681Y017415D02*
X021468Y017415D01*
X021468Y017614D02*
X020681Y017614D01*
X020681Y018165D02*
X021468Y018165D01*
X021468Y018164D02*
X021499Y018180D01*
X021532Y018193D01*
X021566Y018201D01*
X021601Y018206D01*
X021636Y018207D01*
X021671Y018204D01*
X021705Y018197D01*
X021739Y018187D01*
X021771Y018173D01*
X021801Y018155D01*
X021829Y018134D01*
X021855Y018111D01*
X021878Y018084D01*
X021898Y018056D01*
X021915Y018025D01*
X021928Y017992D01*
X021937Y017959D01*
X021943Y017924D01*
X021945Y017889D01*
X021943Y017854D01*
X021937Y017819D01*
X021928Y017786D01*
X021915Y017753D01*
X021898Y017722D01*
X021878Y017694D01*
X021855Y017667D01*
X021829Y017644D01*
X021801Y017623D01*
X021771Y017605D01*
X021739Y017591D01*
X021705Y017581D01*
X021671Y017574D01*
X021636Y017571D01*
X021601Y017572D01*
X021566Y017577D01*
X021532Y017585D01*
X021499Y017598D01*
X021468Y017614D01*
X021468Y014665D02*
X020681Y014665D01*
X020681Y014114D02*
X021468Y014114D01*
X021468Y013915D02*
X020681Y013915D01*
X020681Y013364D02*
X021468Y013364D01*
X021499Y013348D01*
X021532Y013335D01*
X021566Y013327D01*
X021601Y013322D01*
X021636Y013321D01*
X021671Y013324D01*
X021705Y013331D01*
X021739Y013341D01*
X021771Y013355D01*
X021801Y013373D01*
X021829Y013394D01*
X021855Y013417D01*
X021878Y013444D01*
X021898Y013472D01*
X021915Y013503D01*
X021928Y013536D01*
X021937Y013569D01*
X021943Y013604D01*
X021945Y013639D01*
X021943Y013674D01*
X021937Y013709D01*
X021928Y013742D01*
X021915Y013775D01*
X021898Y013806D01*
X021878Y013834D01*
X021855Y013861D01*
X021829Y013884D01*
X021801Y013905D01*
X021771Y013923D01*
X021739Y013937D01*
X021705Y013947D01*
X021671Y013954D01*
X021636Y013957D01*
X021601Y013956D01*
X021566Y013951D01*
X021532Y013943D01*
X021499Y013930D01*
X021468Y013914D01*
X021468Y014114D02*
X021499Y014098D01*
X021532Y014085D01*
X021566Y014077D01*
X021601Y014072D01*
X021636Y014071D01*
X021671Y014074D01*
X021705Y014081D01*
X021739Y014091D01*
X021771Y014105D01*
X021801Y014123D01*
X021829Y014144D01*
X021855Y014167D01*
X021878Y014194D01*
X021898Y014222D01*
X021915Y014253D01*
X021928Y014286D01*
X021937Y014319D01*
X021943Y014354D01*
X021945Y014389D01*
X021943Y014424D01*
X021937Y014459D01*
X021928Y014492D01*
X021915Y014525D01*
X021898Y014556D01*
X021878Y014584D01*
X021855Y014611D01*
X021829Y014634D01*
X021801Y014655D01*
X021771Y014673D01*
X021739Y014687D01*
X021705Y014697D01*
X021671Y014704D01*
X021636Y014707D01*
X021601Y014706D01*
X021566Y014701D01*
X021532Y014693D01*
X021499Y014680D01*
X021468Y014664D01*
X007343Y014790D02*
X006556Y014790D01*
X006556Y014789D02*
X006525Y014805D01*
X006492Y014818D01*
X006458Y014826D01*
X006423Y014831D01*
X006388Y014832D01*
X006353Y014829D01*
X006319Y014822D01*
X006285Y014812D01*
X006253Y014798D01*
X006223Y014780D01*
X006195Y014759D01*
X006169Y014736D01*
X006146Y014709D01*
X006126Y014681D01*
X006109Y014650D01*
X006096Y014617D01*
X006087Y014584D01*
X006081Y014549D01*
X006079Y014514D01*
X006081Y014479D01*
X006087Y014444D01*
X006096Y014411D01*
X006109Y014378D01*
X006126Y014347D01*
X006146Y014319D01*
X006169Y014292D01*
X006195Y014269D01*
X006223Y014248D01*
X006253Y014230D01*
X006285Y014216D01*
X006319Y014206D01*
X006353Y014199D01*
X006388Y014196D01*
X006423Y014197D01*
X006458Y014202D01*
X006492Y014210D01*
X006525Y014223D01*
X006556Y014239D01*
X007343Y014239D01*
X007343Y013790D02*
X006556Y013790D01*
X006556Y013789D02*
X006525Y013805D01*
X006492Y013818D01*
X006458Y013826D01*
X006423Y013831D01*
X006388Y013832D01*
X006353Y013829D01*
X006319Y013822D01*
X006285Y013812D01*
X006253Y013798D01*
X006223Y013780D01*
X006195Y013759D01*
X006169Y013736D01*
X006146Y013709D01*
X006126Y013681D01*
X006109Y013650D01*
X006096Y013617D01*
X006087Y013584D01*
X006081Y013549D01*
X006079Y013514D01*
X006081Y013479D01*
X006087Y013444D01*
X006096Y013411D01*
X006109Y013378D01*
X006126Y013347D01*
X006146Y013319D01*
X006169Y013292D01*
X006195Y013269D01*
X006223Y013248D01*
X006253Y013230D01*
X006285Y013216D01*
X006319Y013206D01*
X006353Y013199D01*
X006388Y013196D01*
X006423Y013197D01*
X006458Y013202D01*
X006492Y013210D01*
X006525Y013223D01*
X006556Y013239D01*
X007343Y013239D01*
X007343Y012790D02*
X006556Y012790D01*
X006556Y012789D02*
X006525Y012805D01*
X006492Y012818D01*
X006458Y012826D01*
X006423Y012831D01*
X006388Y012832D01*
X006353Y012829D01*
X006319Y012822D01*
X006285Y012812D01*
X006253Y012798D01*
X006223Y012780D01*
X006195Y012759D01*
X006169Y012736D01*
X006146Y012709D01*
X006126Y012681D01*
X006109Y012650D01*
X006096Y012617D01*
X006087Y012584D01*
X006081Y012549D01*
X006079Y012514D01*
X006081Y012479D01*
X006087Y012444D01*
X006096Y012411D01*
X006109Y012378D01*
X006126Y012347D01*
X006146Y012319D01*
X006169Y012292D01*
X006195Y012269D01*
X006223Y012248D01*
X006253Y012230D01*
X006285Y012216D01*
X006319Y012206D01*
X006353Y012199D01*
X006388Y012196D01*
X006423Y012197D01*
X006458Y012202D01*
X006492Y012210D01*
X006525Y012223D01*
X006556Y012239D01*
X007343Y012239D01*
X007343Y011790D02*
X006556Y011790D01*
X006556Y011789D02*
X006525Y011805D01*
X006492Y011818D01*
X006458Y011826D01*
X006423Y011831D01*
X006388Y011832D01*
X006353Y011829D01*
X006319Y011822D01*
X006285Y011812D01*
X006253Y011798D01*
X006223Y011780D01*
X006195Y011759D01*
X006169Y011736D01*
X006146Y011709D01*
X006126Y011681D01*
X006109Y011650D01*
X006096Y011617D01*
X006087Y011584D01*
X006081Y011549D01*
X006079Y011514D01*
X006081Y011479D01*
X006087Y011444D01*
X006096Y011411D01*
X006109Y011378D01*
X006126Y011347D01*
X006146Y011319D01*
X006169Y011292D01*
X006195Y011269D01*
X006223Y011248D01*
X006253Y011230D01*
X006285Y011216D01*
X006319Y011206D01*
X006353Y011199D01*
X006388Y011196D01*
X006423Y011197D01*
X006458Y011202D01*
X006492Y011210D01*
X006525Y011223D01*
X006556Y011239D01*
X007343Y011239D01*
X007343Y010790D02*
X006556Y010790D01*
X006556Y010789D02*
X006525Y010805D01*
X006492Y010818D01*
X006458Y010826D01*
X006423Y010831D01*
X006388Y010832D01*
X006353Y010829D01*
X006319Y010822D01*
X006285Y010812D01*
X006253Y010798D01*
X006223Y010780D01*
X006195Y010759D01*
X006169Y010736D01*
X006146Y010709D01*
X006126Y010681D01*
X006109Y010650D01*
X006096Y010617D01*
X006087Y010584D01*
X006081Y010549D01*
X006079Y010514D01*
X006081Y010479D01*
X006087Y010444D01*
X006096Y010411D01*
X006109Y010378D01*
X006126Y010347D01*
X006146Y010319D01*
X006169Y010292D01*
X006195Y010269D01*
X006223Y010248D01*
X006253Y010230D01*
X006285Y010216D01*
X006319Y010206D01*
X006353Y010199D01*
X006388Y010196D01*
X006423Y010197D01*
X006458Y010202D01*
X006492Y010210D01*
X006525Y010223D01*
X006556Y010239D01*
X007343Y010239D01*
X007343Y009790D02*
X006556Y009790D01*
X006556Y009789D02*
X006525Y009805D01*
X006492Y009818D01*
X006458Y009826D01*
X006423Y009831D01*
X006388Y009832D01*
X006353Y009829D01*
X006319Y009822D01*
X006285Y009812D01*
X006253Y009798D01*
X006223Y009780D01*
X006195Y009759D01*
X006169Y009736D01*
X006146Y009709D01*
X006126Y009681D01*
X006109Y009650D01*
X006096Y009617D01*
X006087Y009584D01*
X006081Y009549D01*
X006079Y009514D01*
X006081Y009479D01*
X006087Y009444D01*
X006096Y009411D01*
X006109Y009378D01*
X006126Y009347D01*
X006146Y009319D01*
X006169Y009292D01*
X006195Y009269D01*
X006223Y009248D01*
X006253Y009230D01*
X006285Y009216D01*
X006319Y009206D01*
X006353Y009199D01*
X006388Y009196D01*
X006423Y009197D01*
X006458Y009202D01*
X006492Y009210D01*
X006525Y009223D01*
X006556Y009239D01*
X007343Y009239D01*
X007343Y008790D02*
X006556Y008790D01*
X006556Y008789D02*
X006525Y008805D01*
X006492Y008818D01*
X006458Y008826D01*
X006423Y008831D01*
X006388Y008832D01*
X006353Y008829D01*
X006319Y008822D01*
X006285Y008812D01*
X006253Y008798D01*
X006223Y008780D01*
X006195Y008759D01*
X006169Y008736D01*
X006146Y008709D01*
X006126Y008681D01*
X006109Y008650D01*
X006096Y008617D01*
X006087Y008584D01*
X006081Y008549D01*
X006079Y008514D01*
X006081Y008479D01*
X006087Y008444D01*
X006096Y008411D01*
X006109Y008378D01*
X006126Y008347D01*
X006146Y008319D01*
X006169Y008292D01*
X006195Y008269D01*
X006223Y008248D01*
X006253Y008230D01*
X006285Y008216D01*
X006319Y008206D01*
X006353Y008199D01*
X006388Y008196D01*
X006423Y008197D01*
X006458Y008202D01*
X006492Y008210D01*
X006525Y008223D01*
X006556Y008239D01*
X007343Y008239D01*
X006093Y008739D02*
X005306Y008739D01*
X005276Y008723D01*
X005244Y008711D01*
X005211Y008702D01*
X005177Y008697D01*
X005143Y008696D01*
X005109Y008698D01*
X005075Y008704D01*
X005042Y008714D01*
X005011Y008727D01*
X004981Y008743D01*
X004953Y008762D01*
X004927Y008785D01*
X004903Y008810D01*
X004883Y008837D01*
X004865Y008866D01*
X004851Y008897D01*
X004840Y008930D01*
X004833Y008963D01*
X004829Y008997D01*
X004829Y009031D01*
X004833Y009065D01*
X004840Y009098D01*
X004851Y009131D01*
X004865Y009162D01*
X004883Y009191D01*
X004903Y009218D01*
X004927Y009243D01*
X004953Y009266D01*
X004981Y009285D01*
X005011Y009301D01*
X005042Y009314D01*
X005075Y009324D01*
X005109Y009330D01*
X005143Y009332D01*
X005177Y009331D01*
X005211Y009326D01*
X005244Y009317D01*
X005276Y009305D01*
X005306Y009289D01*
X005306Y009290D02*
X006093Y009290D01*
X006093Y009739D02*
X005306Y009739D01*
X005276Y009723D01*
X005244Y009711D01*
X005211Y009702D01*
X005177Y009697D01*
X005143Y009696D01*
X005109Y009698D01*
X005075Y009704D01*
X005042Y009714D01*
X005011Y009727D01*
X004981Y009743D01*
X004953Y009762D01*
X004927Y009785D01*
X004903Y009810D01*
X004883Y009837D01*
X004865Y009866D01*
X004851Y009897D01*
X004840Y009930D01*
X004833Y009963D01*
X004829Y009997D01*
X004829Y010031D01*
X004833Y010065D01*
X004840Y010098D01*
X004851Y010131D01*
X004865Y010162D01*
X004883Y010191D01*
X004903Y010218D01*
X004927Y010243D01*
X004953Y010266D01*
X004981Y010285D01*
X005011Y010301D01*
X005042Y010314D01*
X005075Y010324D01*
X005109Y010330D01*
X005143Y010332D01*
X005177Y010331D01*
X005211Y010326D01*
X005244Y010317D01*
X005276Y010305D01*
X005306Y010289D01*
X005306Y010290D02*
X006093Y010290D01*
X006093Y010739D02*
X005306Y010739D01*
X005276Y010723D01*
X005244Y010711D01*
X005211Y010702D01*
X005177Y010697D01*
X005143Y010696D01*
X005109Y010698D01*
X005075Y010704D01*
X005042Y010714D01*
X005011Y010727D01*
X004981Y010743D01*
X004953Y010762D01*
X004927Y010785D01*
X004903Y010810D01*
X004883Y010837D01*
X004865Y010866D01*
X004851Y010897D01*
X004840Y010930D01*
X004833Y010963D01*
X004829Y010997D01*
X004829Y011031D01*
X004833Y011065D01*
X004840Y011098D01*
X004851Y011131D01*
X004865Y011162D01*
X004883Y011191D01*
X004903Y011218D01*
X004927Y011243D01*
X004953Y011266D01*
X004981Y011285D01*
X005011Y011301D01*
X005042Y011314D01*
X005075Y011324D01*
X005109Y011330D01*
X005143Y011332D01*
X005177Y011331D01*
X005211Y011326D01*
X005244Y011317D01*
X005276Y011305D01*
X005306Y011289D01*
X005306Y011290D02*
X006093Y011290D01*
X006093Y011739D02*
X005306Y011739D01*
X005276Y011723D01*
X005244Y011711D01*
X005211Y011702D01*
X005177Y011697D01*
X005143Y011696D01*
X005109Y011698D01*
X005075Y011704D01*
X005042Y011714D01*
X005011Y011727D01*
X004981Y011743D01*
X004953Y011762D01*
X004927Y011785D01*
X004903Y011810D01*
X004883Y011837D01*
X004865Y011866D01*
X004851Y011897D01*
X004840Y011930D01*
X004833Y011963D01*
X004829Y011997D01*
X004829Y012031D01*
X004833Y012065D01*
X004840Y012098D01*
X004851Y012131D01*
X004865Y012162D01*
X004883Y012191D01*
X004903Y012218D01*
X004927Y012243D01*
X004953Y012266D01*
X004981Y012285D01*
X005011Y012301D01*
X005042Y012314D01*
X005075Y012324D01*
X005109Y012330D01*
X005143Y012332D01*
X005177Y012331D01*
X005211Y012326D01*
X005244Y012317D01*
X005276Y012305D01*
X005306Y012289D01*
X005306Y012290D02*
X006093Y012290D01*
X006093Y012739D02*
X005306Y012739D01*
X005276Y012723D01*
X005244Y012711D01*
X005211Y012702D01*
X005177Y012697D01*
X005143Y012696D01*
X005109Y012698D01*
X005075Y012704D01*
X005042Y012714D01*
X005011Y012727D01*
X004981Y012743D01*
X004953Y012762D01*
X004927Y012785D01*
X004903Y012810D01*
X004883Y012837D01*
X004865Y012866D01*
X004851Y012897D01*
X004840Y012930D01*
X004833Y012963D01*
X004829Y012997D01*
X004829Y013031D01*
X004833Y013065D01*
X004840Y013098D01*
X004851Y013131D01*
X004865Y013162D01*
X004883Y013191D01*
X004903Y013218D01*
X004927Y013243D01*
X004953Y013266D01*
X004981Y013285D01*
X005011Y013301D01*
X005042Y013314D01*
X005075Y013324D01*
X005109Y013330D01*
X005143Y013332D01*
X005177Y013331D01*
X005211Y013326D01*
X005244Y013317D01*
X005276Y013305D01*
X005306Y013289D01*
X005306Y013290D02*
X006093Y013290D01*
X006093Y013739D02*
X005306Y013739D01*
X005276Y013723D01*
X005244Y013711D01*
X005211Y013702D01*
X005177Y013697D01*
X005143Y013696D01*
X005109Y013698D01*
X005075Y013704D01*
X005042Y013714D01*
X005011Y013727D01*
X004981Y013743D01*
X004953Y013762D01*
X004927Y013785D01*
X004903Y013810D01*
X004883Y013837D01*
X004865Y013866D01*
X004851Y013897D01*
X004840Y013930D01*
X004833Y013963D01*
X004829Y013997D01*
X004829Y014031D01*
X004833Y014065D01*
X004840Y014098D01*
X004851Y014131D01*
X004865Y014162D01*
X004883Y014191D01*
X004903Y014218D01*
X004927Y014243D01*
X004953Y014266D01*
X004981Y014285D01*
X005011Y014301D01*
X005042Y014314D01*
X005075Y014324D01*
X005109Y014330D01*
X005143Y014332D01*
X005177Y014331D01*
X005211Y014326D01*
X005244Y014317D01*
X005276Y014305D01*
X005306Y014289D01*
X005306Y014290D02*
X006093Y014290D01*
X006093Y014739D02*
X005306Y014739D01*
X005276Y014723D01*
X005244Y014711D01*
X005211Y014702D01*
X005177Y014697D01*
X005143Y014696D01*
X005109Y014698D01*
X005075Y014704D01*
X005042Y014714D01*
X005011Y014727D01*
X004981Y014743D01*
X004953Y014762D01*
X004927Y014785D01*
X004903Y014810D01*
X004883Y014837D01*
X004865Y014866D01*
X004851Y014897D01*
X004840Y014930D01*
X004833Y014963D01*
X004829Y014997D01*
X004829Y015031D01*
X004833Y015065D01*
X004840Y015098D01*
X004851Y015131D01*
X004865Y015162D01*
X004883Y015191D01*
X004903Y015218D01*
X004927Y015243D01*
X004953Y015266D01*
X004981Y015285D01*
X005011Y015301D01*
X005042Y015314D01*
X005075Y015324D01*
X005109Y015330D01*
X005143Y015332D01*
X005177Y015331D01*
X005211Y015326D01*
X005244Y015317D01*
X005276Y015305D01*
X005306Y015289D01*
X005306Y015290D02*
X006093Y015290D01*
X004192Y025493D02*
X000967Y025493D01*
X000967Y026005D01*
X001361Y026005D01*
X000967Y026005D02*
X000967Y028524D01*
X001361Y028524D01*
X000967Y028524D02*
X000967Y029036D01*
X005692Y029036D01*
X005692Y028839D01*
X005692Y026190D01*
X006282Y026339D02*
X006282Y025690D01*
X006479Y025690D01*
X006479Y026339D01*
X006479Y028190D02*
X006479Y028839D01*
X006282Y028839D01*
X006282Y028190D01*
X006282Y028839D02*
X005692Y028839D01*
X002345Y028839D01*
X002345Y029036D01*
X002345Y028839D02*
X002345Y025493D01*
X002148Y026005D02*
X001755Y026005D01*
X002542Y026005D02*
X002936Y026005D01*
X003330Y026005D02*
X003723Y026005D01*
X004117Y026005D02*
X004511Y026005D01*
X004511Y026772D01*
X004511Y027068D01*
X004511Y027461D02*
X004511Y027756D01*
X004511Y028524D01*
X004117Y028524D01*
X003723Y028524D02*
X003330Y028524D01*
X002936Y028524D02*
X002542Y028524D01*
X002148Y028524D02*
X001755Y028524D01*
X001755Y027756D02*
X001712Y027754D01*
X001670Y027749D01*
X001628Y027739D01*
X001587Y027726D01*
X001547Y027710D01*
X001509Y027690D01*
X001473Y027667D01*
X001439Y027641D01*
X001407Y027612D01*
X001378Y027580D01*
X001352Y027546D01*
X001329Y027510D01*
X001309Y027472D01*
X001293Y027432D01*
X001280Y027391D01*
X001270Y027349D01*
X001265Y027307D01*
X001263Y027264D01*
X001265Y027221D01*
X001270Y027179D01*
X001280Y027137D01*
X001293Y027096D01*
X001309Y027056D01*
X001329Y027018D01*
X001352Y026982D01*
X001378Y026948D01*
X001407Y026916D01*
X001439Y026887D01*
X001473Y026861D01*
X001509Y026838D01*
X001547Y026818D01*
X001587Y026802D01*
X001628Y026789D01*
X001670Y026779D01*
X001712Y026774D01*
X001755Y026772D01*
D20*
X006950Y019823D02*
X007009Y019764D01*
X006940Y019695D01*
X006881Y019755D01*
X006950Y019823D01*
X006950Y019198D02*
X007009Y019139D01*
X006940Y019070D01*
X006881Y019130D01*
X006950Y019198D01*
X006950Y018573D02*
X007009Y018514D01*
X006940Y018445D01*
X006881Y018505D01*
X006950Y018573D01*
X006950Y017948D02*
X007009Y017889D01*
X006940Y017820D01*
X006881Y017880D01*
X006950Y017948D01*
X010756Y019505D02*
X010815Y019445D01*
X010884Y019514D01*
X010825Y019573D01*
X010756Y019505D01*
X013325Y025580D02*
X013266Y025639D01*
X013335Y025708D01*
X013394Y025649D01*
X013325Y025580D01*
X019641Y021639D02*
X019710Y021708D01*
X019769Y021649D01*
X019700Y021580D01*
X019641Y021639D01*
X022085Y011958D02*
X022144Y011899D01*
X022075Y011830D01*
X022016Y011889D01*
X022085Y011958D01*
X021575Y008323D02*
X021516Y008264D01*
X021585Y008195D01*
X021644Y008255D01*
X021575Y008323D01*
X032075Y026455D02*
X032016Y026514D01*
X032085Y026583D01*
X032144Y026524D01*
X032075Y026455D01*
X032075Y027080D02*
X032016Y027139D01*
X032085Y027208D01*
X032144Y027149D01*
X032075Y027080D01*
D21*
X032183Y026982D03*
X032183Y026357D03*
X019808Y021482D03*
X013433Y025482D03*
X010716Y019672D03*
X006841Y019922D03*
X006841Y019297D03*
X006841Y018672D03*
X006841Y018047D03*
X021417Y008156D03*
X022183Y011732D03*
D22*
X031663Y021815D02*
X031665Y021835D01*
X031670Y021855D01*
X031680Y021873D01*
X031692Y021890D01*
X031707Y021904D01*
X031725Y021914D01*
X031744Y021922D01*
X031764Y021926D01*
X031784Y021926D01*
X031804Y021922D01*
X031823Y021914D01*
X031841Y021904D01*
X031856Y021890D01*
X031868Y021873D01*
X031878Y021855D01*
X031883Y021835D01*
X031885Y021815D01*
X031883Y021795D01*
X031878Y021775D01*
X031868Y021757D01*
X031856Y021740D01*
X031841Y021726D01*
X031823Y021716D01*
X031804Y021708D01*
X031784Y021704D01*
X031764Y021704D01*
X031744Y021708D01*
X031725Y021716D01*
X031707Y021726D01*
X031692Y021740D01*
X031680Y021757D01*
X031670Y021775D01*
X031665Y021795D01*
X031663Y021815D01*
X034582Y020476D02*
X040211Y020476D01*
X040211Y026303D01*
X034582Y026303D01*
X034582Y020476D01*
X034582Y027226D02*
X040211Y027226D01*
X040211Y033053D01*
X034582Y033053D01*
X034582Y027226D01*
D23*
X028852Y031584D03*
X022852Y031584D03*
D24*
X030075Y018889D03*
D25*
X023255Y017422D02*
X023230Y017447D01*
X023130Y017447D01*
X023105Y017422D01*
X023105Y017372D01*
X023130Y017347D01*
X023155Y017347D01*
X023180Y017372D01*
X023180Y017447D01*
X023255Y017422D02*
X023255Y017372D01*
X023230Y017347D01*
X023230Y017300D02*
X023130Y017300D01*
X023105Y017275D01*
X023105Y017200D01*
X023255Y017200D01*
X023255Y017275D01*
X023230Y017300D01*
X023230Y016697D02*
X023130Y016697D01*
X023230Y016597D01*
X023255Y016622D01*
X023255Y016672D01*
X023230Y016697D01*
X023230Y016597D02*
X023130Y016597D01*
X023105Y016622D01*
X023105Y016672D01*
X023130Y016697D01*
X023255Y016550D02*
X023255Y016450D01*
X023255Y016500D02*
X023105Y016500D01*
X023155Y016450D01*
X023130Y016402D02*
X023105Y016377D01*
X023105Y016302D01*
X023255Y016302D01*
X023255Y016377D01*
X023230Y016402D01*
X023130Y016402D01*
X023130Y013947D02*
X023105Y013922D01*
X023105Y013872D01*
X023130Y013847D01*
X023130Y013800D02*
X023105Y013775D01*
X023105Y013700D01*
X023255Y013700D01*
X023255Y013775D01*
X023230Y013800D01*
X023130Y013800D01*
X023255Y013847D02*
X023155Y013947D01*
X023130Y013947D01*
X023255Y013947D02*
X023255Y013847D01*
X023230Y013197D02*
X023255Y013172D01*
X023255Y013122D01*
X023230Y013097D01*
X023230Y013050D02*
X023130Y013050D01*
X023105Y013025D01*
X023105Y012950D01*
X023255Y012950D01*
X023255Y013025D01*
X023230Y013050D01*
X023180Y013147D02*
X023180Y013172D01*
X023205Y013197D01*
X023230Y013197D01*
X023180Y013172D02*
X023155Y013197D01*
X023130Y013197D01*
X023105Y013172D01*
X023105Y013122D01*
X023130Y013097D01*
X036848Y021894D02*
X036998Y021894D01*
X036998Y021994D01*
X036923Y021944D02*
X036923Y021894D01*
X036848Y021894D02*
X036848Y021994D01*
X036848Y022189D02*
X036998Y022189D01*
X036998Y022289D01*
X036998Y022484D02*
X036998Y022584D01*
X036923Y022534D02*
X036923Y022484D01*
X036848Y022484D02*
X036998Y022484D01*
X036848Y022484D02*
X036848Y022584D01*
X036873Y022778D02*
X036973Y022778D01*
X036998Y022803D01*
X036998Y022853D01*
X036973Y022878D01*
X036873Y022878D02*
X036848Y022853D01*
X036848Y022803D01*
X036873Y022778D01*
X036848Y023073D02*
X036848Y023173D01*
X036848Y023123D02*
X036998Y023123D01*
X036998Y023368D02*
X036848Y023368D01*
X036848Y023443D01*
X036873Y023468D01*
X036923Y023468D01*
X036948Y023443D01*
X036948Y023368D01*
X036948Y023418D02*
X036998Y023468D01*
X036973Y023662D02*
X036998Y023687D01*
X036998Y023737D01*
X036973Y023762D01*
X036873Y023762D01*
X036848Y023737D01*
X036848Y023687D01*
X036873Y023662D01*
X036973Y023662D01*
X036998Y023957D02*
X036848Y023957D01*
X036998Y024057D01*
X036848Y024057D01*
X036848Y024252D02*
X036848Y024302D01*
X036848Y024277D02*
X036998Y024277D01*
X036998Y024252D02*
X036998Y024302D01*
X036973Y024497D02*
X036998Y024522D01*
X036998Y024572D01*
X036973Y024597D01*
X036973Y024497D02*
X036873Y024497D01*
X036848Y024522D01*
X036848Y024572D01*
X036873Y024597D01*
X036873Y024792D02*
X036898Y024792D01*
X036923Y024817D01*
X036923Y024867D01*
X036948Y024892D01*
X036973Y024892D01*
X036998Y024867D01*
X036998Y024817D01*
X036973Y024792D01*
X036873Y024792D02*
X036848Y024817D01*
X036848Y024867D01*
X036873Y024892D01*
X036848Y028644D02*
X036998Y028644D01*
X036998Y028744D01*
X036923Y028694D02*
X036923Y028644D01*
X036848Y028644D02*
X036848Y028744D01*
X036848Y028939D02*
X036998Y028939D01*
X036998Y029039D01*
X036998Y029234D02*
X036998Y029334D01*
X036923Y029284D02*
X036923Y029234D01*
X036848Y029234D02*
X036998Y029234D01*
X036848Y029234D02*
X036848Y029334D01*
X036873Y029528D02*
X036973Y029528D01*
X036998Y029553D01*
X036998Y029603D01*
X036973Y029628D01*
X036873Y029628D02*
X036848Y029603D01*
X036848Y029553D01*
X036873Y029528D01*
X036848Y029823D02*
X036848Y029923D01*
X036848Y029873D02*
X036998Y029873D01*
X036998Y030118D02*
X036848Y030118D01*
X036848Y030193D01*
X036873Y030218D01*
X036923Y030218D01*
X036948Y030193D01*
X036948Y030118D01*
X036948Y030168D02*
X036998Y030218D01*
X036973Y030412D02*
X036998Y030437D01*
X036998Y030487D01*
X036973Y030512D01*
X036873Y030512D01*
X036848Y030487D01*
X036848Y030437D01*
X036873Y030412D01*
X036973Y030412D01*
X036998Y030707D02*
X036848Y030707D01*
X036998Y030807D01*
X036848Y030807D01*
X036848Y031002D02*
X036848Y031052D01*
X036848Y031027D02*
X036998Y031027D01*
X036998Y031002D02*
X036998Y031052D01*
X036973Y031247D02*
X036998Y031272D01*
X036998Y031322D01*
X036973Y031347D01*
X036973Y031247D02*
X036873Y031247D01*
X036848Y031272D01*
X036848Y031322D01*
X036873Y031347D01*
X036873Y031542D02*
X036898Y031542D01*
X036923Y031567D01*
X036923Y031617D01*
X036948Y031642D01*
X036973Y031642D01*
X036998Y031617D01*
X036998Y031567D01*
X036973Y031542D01*
X036873Y031542D02*
X036848Y031567D01*
X036848Y031617D01*
X036873Y031642D01*
M02*
