G75*
G70*
%OFA0B0*%
%FSLAX24Y24*%
%IPPOS*%
%LPD*%
%AMOC8*
5,1,8,0,0,1.08239X$1,22.5*
%
%ADD10C,0.0000*%
%ADD11C,0.0030*%
%ADD12C,0.0040*%
%ADD13C,0.0039*%
%ADD14C,0.0060*%
%ADD15C,0.0050*%
%ADD16C,0.0080*%
D10*
X000950Y000139D02*
X000950Y039509D01*
X040320Y039509D01*
X040320Y000139D01*
X000950Y000139D01*
X001894Y001714D02*
X001896Y001764D01*
X001902Y001814D01*
X001912Y001863D01*
X001926Y001911D01*
X001943Y001958D01*
X001964Y002003D01*
X001989Y002047D01*
X002017Y002088D01*
X002049Y002127D01*
X002083Y002164D01*
X002120Y002198D01*
X002160Y002228D01*
X002202Y002255D01*
X002246Y002279D01*
X002292Y002300D01*
X002339Y002316D01*
X002387Y002329D01*
X002437Y002338D01*
X002486Y002343D01*
X002537Y002344D01*
X002587Y002341D01*
X002636Y002334D01*
X002685Y002323D01*
X002733Y002308D01*
X002779Y002290D01*
X002824Y002268D01*
X002867Y002242D01*
X002908Y002213D01*
X002947Y002181D01*
X002983Y002146D01*
X003015Y002108D01*
X003045Y002068D01*
X003072Y002025D01*
X003095Y001981D01*
X003114Y001935D01*
X003130Y001887D01*
X003142Y001838D01*
X003150Y001789D01*
X003154Y001739D01*
X003154Y001689D01*
X003150Y001639D01*
X003142Y001590D01*
X003130Y001541D01*
X003114Y001493D01*
X003095Y001447D01*
X003072Y001403D01*
X003045Y001360D01*
X003015Y001320D01*
X002983Y001282D01*
X002947Y001247D01*
X002908Y001215D01*
X002867Y001186D01*
X002824Y001160D01*
X002779Y001138D01*
X002733Y001120D01*
X002685Y001105D01*
X002636Y001094D01*
X002587Y001087D01*
X002537Y001084D01*
X002486Y001085D01*
X002437Y001090D01*
X002387Y001099D01*
X002339Y001112D01*
X002292Y001128D01*
X002246Y001149D01*
X002202Y001173D01*
X002160Y001200D01*
X002120Y001230D01*
X002083Y001264D01*
X002049Y001301D01*
X002017Y001340D01*
X001989Y001381D01*
X001964Y001425D01*
X001943Y001470D01*
X001926Y001517D01*
X001912Y001565D01*
X001902Y001614D01*
X001896Y001664D01*
X001894Y001714D01*
X007054Y035813D02*
X007056Y035839D01*
X007062Y035865D01*
X007072Y035890D01*
X007085Y035913D01*
X007101Y035933D01*
X007121Y035951D01*
X007143Y035966D01*
X007166Y035978D01*
X007192Y035986D01*
X007218Y035990D01*
X007244Y035990D01*
X007270Y035986D01*
X007296Y035978D01*
X007320Y035966D01*
X007341Y035951D01*
X007361Y035933D01*
X007377Y035913D01*
X007390Y035890D01*
X007400Y035865D01*
X007406Y035839D01*
X007408Y035813D01*
X007406Y035787D01*
X007400Y035761D01*
X007390Y035736D01*
X007377Y035713D01*
X007361Y035693D01*
X007341Y035675D01*
X007319Y035660D01*
X007296Y035648D01*
X007270Y035640D01*
X007244Y035636D01*
X007218Y035636D01*
X007192Y035640D01*
X007166Y035648D01*
X007142Y035660D01*
X007121Y035675D01*
X007101Y035693D01*
X007085Y035713D01*
X007072Y035736D01*
X007062Y035761D01*
X007056Y035787D01*
X007054Y035813D01*
X007074Y037718D02*
X007076Y037761D01*
X007082Y037803D01*
X007092Y037845D01*
X007105Y037886D01*
X007122Y037926D01*
X007143Y037963D01*
X007167Y037999D01*
X007194Y038032D01*
X007224Y038063D01*
X007257Y038091D01*
X007292Y038116D01*
X007329Y038137D01*
X007368Y038155D01*
X007408Y038169D01*
X007450Y038180D01*
X007492Y038187D01*
X007535Y038190D01*
X007578Y038189D01*
X007621Y038184D01*
X007663Y038175D01*
X007704Y038163D01*
X007744Y038147D01*
X007782Y038127D01*
X007818Y038104D01*
X007852Y038077D01*
X007884Y038048D01*
X007912Y038016D01*
X007938Y037981D01*
X007960Y037945D01*
X007979Y037906D01*
X007994Y037866D01*
X008006Y037825D01*
X008014Y037782D01*
X008018Y037739D01*
X008018Y037697D01*
X008014Y037654D01*
X008006Y037611D01*
X007994Y037570D01*
X007979Y037530D01*
X007960Y037491D01*
X007938Y037455D01*
X007912Y037420D01*
X007884Y037388D01*
X007852Y037359D01*
X007818Y037332D01*
X007782Y037309D01*
X007744Y037289D01*
X007704Y037273D01*
X007663Y037261D01*
X007621Y037252D01*
X007578Y037247D01*
X007535Y037246D01*
X007492Y037249D01*
X007450Y037256D01*
X007408Y037267D01*
X007368Y037281D01*
X007329Y037299D01*
X007292Y037320D01*
X007257Y037345D01*
X007224Y037373D01*
X007194Y037404D01*
X007167Y037437D01*
X007143Y037473D01*
X007122Y037510D01*
X007105Y037550D01*
X007092Y037591D01*
X007082Y037633D01*
X007076Y037675D01*
X007074Y037718D01*
X001894Y037935D02*
X001896Y037985D01*
X001902Y038035D01*
X001912Y038084D01*
X001926Y038132D01*
X001943Y038179D01*
X001964Y038224D01*
X001989Y038268D01*
X002017Y038309D01*
X002049Y038348D01*
X002083Y038385D01*
X002120Y038419D01*
X002160Y038449D01*
X002202Y038476D01*
X002246Y038500D01*
X002292Y038521D01*
X002339Y038537D01*
X002387Y038550D01*
X002437Y038559D01*
X002486Y038564D01*
X002537Y038565D01*
X002587Y038562D01*
X002636Y038555D01*
X002685Y038544D01*
X002733Y038529D01*
X002779Y038511D01*
X002824Y038489D01*
X002867Y038463D01*
X002908Y038434D01*
X002947Y038402D01*
X002983Y038367D01*
X003015Y038329D01*
X003045Y038289D01*
X003072Y038246D01*
X003095Y038202D01*
X003114Y038156D01*
X003130Y038108D01*
X003142Y038059D01*
X003150Y038010D01*
X003154Y037960D01*
X003154Y037910D01*
X003150Y037860D01*
X003142Y037811D01*
X003130Y037762D01*
X003114Y037714D01*
X003095Y037668D01*
X003072Y037624D01*
X003045Y037581D01*
X003015Y037541D01*
X002983Y037503D01*
X002947Y037468D01*
X002908Y037436D01*
X002867Y037407D01*
X002824Y037381D01*
X002779Y037359D01*
X002733Y037341D01*
X002685Y037326D01*
X002636Y037315D01*
X002587Y037308D01*
X002537Y037305D01*
X002486Y037306D01*
X002437Y037311D01*
X002387Y037320D01*
X002339Y037333D01*
X002292Y037349D01*
X002246Y037370D01*
X002202Y037394D01*
X002160Y037421D01*
X002120Y037451D01*
X002083Y037485D01*
X002049Y037522D01*
X002017Y037561D01*
X001989Y037602D01*
X001964Y037646D01*
X001943Y037691D01*
X001926Y037738D01*
X001912Y037786D01*
X001902Y037835D01*
X001896Y037885D01*
X001894Y037935D01*
X012881Y037718D02*
X012883Y037761D01*
X012889Y037803D01*
X012899Y037845D01*
X012912Y037886D01*
X012929Y037926D01*
X012950Y037963D01*
X012974Y037999D01*
X013001Y038032D01*
X013031Y038063D01*
X013064Y038091D01*
X013099Y038116D01*
X013136Y038137D01*
X013175Y038155D01*
X013215Y038169D01*
X013257Y038180D01*
X013299Y038187D01*
X013342Y038190D01*
X013385Y038189D01*
X013428Y038184D01*
X013470Y038175D01*
X013511Y038163D01*
X013551Y038147D01*
X013589Y038127D01*
X013625Y038104D01*
X013659Y038077D01*
X013691Y038048D01*
X013719Y038016D01*
X013745Y037981D01*
X013767Y037945D01*
X013786Y037906D01*
X013801Y037866D01*
X013813Y037825D01*
X013821Y037782D01*
X013825Y037739D01*
X013825Y037697D01*
X013821Y037654D01*
X013813Y037611D01*
X013801Y037570D01*
X013786Y037530D01*
X013767Y037491D01*
X013745Y037455D01*
X013719Y037420D01*
X013691Y037388D01*
X013659Y037359D01*
X013625Y037332D01*
X013589Y037309D01*
X013551Y037289D01*
X013511Y037273D01*
X013470Y037261D01*
X013428Y037252D01*
X013385Y037247D01*
X013342Y037246D01*
X013299Y037249D01*
X013257Y037256D01*
X013215Y037267D01*
X013175Y037281D01*
X013136Y037299D01*
X013099Y037320D01*
X013064Y037345D01*
X013031Y037373D01*
X013001Y037404D01*
X012974Y037437D01*
X012950Y037473D01*
X012929Y037510D01*
X012912Y037550D01*
X012899Y037591D01*
X012889Y037633D01*
X012883Y037675D01*
X012881Y037718D01*
X013491Y035813D02*
X013493Y035839D01*
X013499Y035865D01*
X013509Y035890D01*
X013522Y035913D01*
X013538Y035933D01*
X013558Y035951D01*
X013580Y035966D01*
X013603Y035978D01*
X013629Y035986D01*
X013655Y035990D01*
X013681Y035990D01*
X013707Y035986D01*
X013733Y035978D01*
X013757Y035966D01*
X013778Y035951D01*
X013798Y035933D01*
X013814Y035913D01*
X013827Y035890D01*
X013837Y035865D01*
X013843Y035839D01*
X013845Y035813D01*
X013843Y035787D01*
X013837Y035761D01*
X013827Y035736D01*
X013814Y035713D01*
X013798Y035693D01*
X013778Y035675D01*
X013756Y035660D01*
X013733Y035648D01*
X013707Y035640D01*
X013681Y035636D01*
X013655Y035636D01*
X013629Y035640D01*
X013603Y035648D01*
X013579Y035660D01*
X013558Y035675D01*
X013538Y035693D01*
X013522Y035713D01*
X013509Y035736D01*
X013499Y035761D01*
X013493Y035787D01*
X013491Y035813D01*
X014554Y035813D02*
X014556Y035839D01*
X014562Y035865D01*
X014572Y035890D01*
X014585Y035913D01*
X014601Y035933D01*
X014621Y035951D01*
X014643Y035966D01*
X014666Y035978D01*
X014692Y035986D01*
X014718Y035990D01*
X014744Y035990D01*
X014770Y035986D01*
X014796Y035978D01*
X014820Y035966D01*
X014841Y035951D01*
X014861Y035933D01*
X014877Y035913D01*
X014890Y035890D01*
X014900Y035865D01*
X014906Y035839D01*
X014908Y035813D01*
X014906Y035787D01*
X014900Y035761D01*
X014890Y035736D01*
X014877Y035713D01*
X014861Y035693D01*
X014841Y035675D01*
X014819Y035660D01*
X014796Y035648D01*
X014770Y035640D01*
X014744Y035636D01*
X014718Y035636D01*
X014692Y035640D01*
X014666Y035648D01*
X014642Y035660D01*
X014621Y035675D01*
X014601Y035693D01*
X014585Y035713D01*
X014572Y035736D01*
X014562Y035761D01*
X014556Y035787D01*
X014554Y035813D01*
X014574Y037718D02*
X014576Y037761D01*
X014582Y037803D01*
X014592Y037845D01*
X014605Y037886D01*
X014622Y037926D01*
X014643Y037963D01*
X014667Y037999D01*
X014694Y038032D01*
X014724Y038063D01*
X014757Y038091D01*
X014792Y038116D01*
X014829Y038137D01*
X014868Y038155D01*
X014908Y038169D01*
X014950Y038180D01*
X014992Y038187D01*
X015035Y038190D01*
X015078Y038189D01*
X015121Y038184D01*
X015163Y038175D01*
X015204Y038163D01*
X015244Y038147D01*
X015282Y038127D01*
X015318Y038104D01*
X015352Y038077D01*
X015384Y038048D01*
X015412Y038016D01*
X015438Y037981D01*
X015460Y037945D01*
X015479Y037906D01*
X015494Y037866D01*
X015506Y037825D01*
X015514Y037782D01*
X015518Y037739D01*
X015518Y037697D01*
X015514Y037654D01*
X015506Y037611D01*
X015494Y037570D01*
X015479Y037530D01*
X015460Y037491D01*
X015438Y037455D01*
X015412Y037420D01*
X015384Y037388D01*
X015352Y037359D01*
X015318Y037332D01*
X015282Y037309D01*
X015244Y037289D01*
X015204Y037273D01*
X015163Y037261D01*
X015121Y037252D01*
X015078Y037247D01*
X015035Y037246D01*
X014992Y037249D01*
X014950Y037256D01*
X014908Y037267D01*
X014868Y037281D01*
X014829Y037299D01*
X014792Y037320D01*
X014757Y037345D01*
X014724Y037373D01*
X014694Y037404D01*
X014667Y037437D01*
X014643Y037473D01*
X014622Y037510D01*
X014605Y037550D01*
X014592Y037591D01*
X014582Y037633D01*
X014576Y037675D01*
X014574Y037718D01*
X020381Y037718D02*
X020383Y037761D01*
X020389Y037803D01*
X020399Y037845D01*
X020412Y037886D01*
X020429Y037926D01*
X020450Y037963D01*
X020474Y037999D01*
X020501Y038032D01*
X020531Y038063D01*
X020564Y038091D01*
X020599Y038116D01*
X020636Y038137D01*
X020675Y038155D01*
X020715Y038169D01*
X020757Y038180D01*
X020799Y038187D01*
X020842Y038190D01*
X020885Y038189D01*
X020928Y038184D01*
X020970Y038175D01*
X021011Y038163D01*
X021051Y038147D01*
X021089Y038127D01*
X021125Y038104D01*
X021159Y038077D01*
X021191Y038048D01*
X021219Y038016D01*
X021245Y037981D01*
X021267Y037945D01*
X021286Y037906D01*
X021301Y037866D01*
X021313Y037825D01*
X021321Y037782D01*
X021325Y037739D01*
X021325Y037697D01*
X021321Y037654D01*
X021313Y037611D01*
X021301Y037570D01*
X021286Y037530D01*
X021267Y037491D01*
X021245Y037455D01*
X021219Y037420D01*
X021191Y037388D01*
X021159Y037359D01*
X021125Y037332D01*
X021089Y037309D01*
X021051Y037289D01*
X021011Y037273D01*
X020970Y037261D01*
X020928Y037252D01*
X020885Y037247D01*
X020842Y037246D01*
X020799Y037249D01*
X020757Y037256D01*
X020715Y037267D01*
X020675Y037281D01*
X020636Y037299D01*
X020599Y037320D01*
X020564Y037345D01*
X020531Y037373D01*
X020501Y037404D01*
X020474Y037437D01*
X020450Y037473D01*
X020429Y037510D01*
X020412Y037550D01*
X020399Y037591D01*
X020389Y037633D01*
X020383Y037675D01*
X020381Y037718D01*
X020991Y035813D02*
X020993Y035839D01*
X020999Y035865D01*
X021009Y035890D01*
X021022Y035913D01*
X021038Y035933D01*
X021058Y035951D01*
X021080Y035966D01*
X021103Y035978D01*
X021129Y035986D01*
X021155Y035990D01*
X021181Y035990D01*
X021207Y035986D01*
X021233Y035978D01*
X021257Y035966D01*
X021278Y035951D01*
X021298Y035933D01*
X021314Y035913D01*
X021327Y035890D01*
X021337Y035865D01*
X021343Y035839D01*
X021345Y035813D01*
X021343Y035787D01*
X021337Y035761D01*
X021327Y035736D01*
X021314Y035713D01*
X021298Y035693D01*
X021278Y035675D01*
X021256Y035660D01*
X021233Y035648D01*
X021207Y035640D01*
X021181Y035636D01*
X021155Y035636D01*
X021129Y035640D01*
X021103Y035648D01*
X021079Y035660D01*
X021058Y035675D01*
X021038Y035693D01*
X021022Y035713D01*
X021009Y035736D01*
X020999Y035761D01*
X020993Y035787D01*
X020991Y035813D01*
X022304Y035813D02*
X022306Y035839D01*
X022312Y035865D01*
X022322Y035890D01*
X022335Y035913D01*
X022351Y035933D01*
X022371Y035951D01*
X022393Y035966D01*
X022416Y035978D01*
X022442Y035986D01*
X022468Y035990D01*
X022494Y035990D01*
X022520Y035986D01*
X022546Y035978D01*
X022570Y035966D01*
X022591Y035951D01*
X022611Y035933D01*
X022627Y035913D01*
X022640Y035890D01*
X022650Y035865D01*
X022656Y035839D01*
X022658Y035813D01*
X022656Y035787D01*
X022650Y035761D01*
X022640Y035736D01*
X022627Y035713D01*
X022611Y035693D01*
X022591Y035675D01*
X022569Y035660D01*
X022546Y035648D01*
X022520Y035640D01*
X022494Y035636D01*
X022468Y035636D01*
X022442Y035640D01*
X022416Y035648D01*
X022392Y035660D01*
X022371Y035675D01*
X022351Y035693D01*
X022335Y035713D01*
X022322Y035736D01*
X022312Y035761D01*
X022306Y035787D01*
X022304Y035813D01*
X022324Y037718D02*
X022326Y037761D01*
X022332Y037803D01*
X022342Y037845D01*
X022355Y037886D01*
X022372Y037926D01*
X022393Y037963D01*
X022417Y037999D01*
X022444Y038032D01*
X022474Y038063D01*
X022507Y038091D01*
X022542Y038116D01*
X022579Y038137D01*
X022618Y038155D01*
X022658Y038169D01*
X022700Y038180D01*
X022742Y038187D01*
X022785Y038190D01*
X022828Y038189D01*
X022871Y038184D01*
X022913Y038175D01*
X022954Y038163D01*
X022994Y038147D01*
X023032Y038127D01*
X023068Y038104D01*
X023102Y038077D01*
X023134Y038048D01*
X023162Y038016D01*
X023188Y037981D01*
X023210Y037945D01*
X023229Y037906D01*
X023244Y037866D01*
X023256Y037825D01*
X023264Y037782D01*
X023268Y037739D01*
X023268Y037697D01*
X023264Y037654D01*
X023256Y037611D01*
X023244Y037570D01*
X023229Y037530D01*
X023210Y037491D01*
X023188Y037455D01*
X023162Y037420D01*
X023134Y037388D01*
X023102Y037359D01*
X023068Y037332D01*
X023032Y037309D01*
X022994Y037289D01*
X022954Y037273D01*
X022913Y037261D01*
X022871Y037252D01*
X022828Y037247D01*
X022785Y037246D01*
X022742Y037249D01*
X022700Y037256D01*
X022658Y037267D01*
X022618Y037281D01*
X022579Y037299D01*
X022542Y037320D01*
X022507Y037345D01*
X022474Y037373D01*
X022444Y037404D01*
X022417Y037437D01*
X022393Y037473D01*
X022372Y037510D01*
X022355Y037550D01*
X022342Y037591D01*
X022332Y037633D01*
X022326Y037675D01*
X022324Y037718D01*
X028131Y037718D02*
X028133Y037761D01*
X028139Y037803D01*
X028149Y037845D01*
X028162Y037886D01*
X028179Y037926D01*
X028200Y037963D01*
X028224Y037999D01*
X028251Y038032D01*
X028281Y038063D01*
X028314Y038091D01*
X028349Y038116D01*
X028386Y038137D01*
X028425Y038155D01*
X028465Y038169D01*
X028507Y038180D01*
X028549Y038187D01*
X028592Y038190D01*
X028635Y038189D01*
X028678Y038184D01*
X028720Y038175D01*
X028761Y038163D01*
X028801Y038147D01*
X028839Y038127D01*
X028875Y038104D01*
X028909Y038077D01*
X028941Y038048D01*
X028969Y038016D01*
X028995Y037981D01*
X029017Y037945D01*
X029036Y037906D01*
X029051Y037866D01*
X029063Y037825D01*
X029071Y037782D01*
X029075Y037739D01*
X029075Y037697D01*
X029071Y037654D01*
X029063Y037611D01*
X029051Y037570D01*
X029036Y037530D01*
X029017Y037491D01*
X028995Y037455D01*
X028969Y037420D01*
X028941Y037388D01*
X028909Y037359D01*
X028875Y037332D01*
X028839Y037309D01*
X028801Y037289D01*
X028761Y037273D01*
X028720Y037261D01*
X028678Y037252D01*
X028635Y037247D01*
X028592Y037246D01*
X028549Y037249D01*
X028507Y037256D01*
X028465Y037267D01*
X028425Y037281D01*
X028386Y037299D01*
X028349Y037320D01*
X028314Y037345D01*
X028281Y037373D01*
X028251Y037404D01*
X028224Y037437D01*
X028200Y037473D01*
X028179Y037510D01*
X028162Y037550D01*
X028149Y037591D01*
X028139Y037633D01*
X028133Y037675D01*
X028131Y037718D01*
X028741Y035813D02*
X028743Y035839D01*
X028749Y035865D01*
X028759Y035890D01*
X028772Y035913D01*
X028788Y035933D01*
X028808Y035951D01*
X028830Y035966D01*
X028853Y035978D01*
X028879Y035986D01*
X028905Y035990D01*
X028931Y035990D01*
X028957Y035986D01*
X028983Y035978D01*
X029007Y035966D01*
X029028Y035951D01*
X029048Y035933D01*
X029064Y035913D01*
X029077Y035890D01*
X029087Y035865D01*
X029093Y035839D01*
X029095Y035813D01*
X029093Y035787D01*
X029087Y035761D01*
X029077Y035736D01*
X029064Y035713D01*
X029048Y035693D01*
X029028Y035675D01*
X029006Y035660D01*
X028983Y035648D01*
X028957Y035640D01*
X028931Y035636D01*
X028905Y035636D01*
X028879Y035640D01*
X028853Y035648D01*
X028829Y035660D01*
X028808Y035675D01*
X028788Y035693D01*
X028772Y035713D01*
X028759Y035736D01*
X028749Y035761D01*
X028743Y035787D01*
X028741Y035813D01*
X029804Y035813D02*
X029806Y035839D01*
X029812Y035865D01*
X029822Y035890D01*
X029835Y035913D01*
X029851Y035933D01*
X029871Y035951D01*
X029893Y035966D01*
X029916Y035978D01*
X029942Y035986D01*
X029968Y035990D01*
X029994Y035990D01*
X030020Y035986D01*
X030046Y035978D01*
X030070Y035966D01*
X030091Y035951D01*
X030111Y035933D01*
X030127Y035913D01*
X030140Y035890D01*
X030150Y035865D01*
X030156Y035839D01*
X030158Y035813D01*
X030156Y035787D01*
X030150Y035761D01*
X030140Y035736D01*
X030127Y035713D01*
X030111Y035693D01*
X030091Y035675D01*
X030069Y035660D01*
X030046Y035648D01*
X030020Y035640D01*
X029994Y035636D01*
X029968Y035636D01*
X029942Y035640D01*
X029916Y035648D01*
X029892Y035660D01*
X029871Y035675D01*
X029851Y035693D01*
X029835Y035713D01*
X029822Y035736D01*
X029812Y035761D01*
X029806Y035787D01*
X029804Y035813D01*
X029824Y037718D02*
X029826Y037761D01*
X029832Y037803D01*
X029842Y037845D01*
X029855Y037886D01*
X029872Y037926D01*
X029893Y037963D01*
X029917Y037999D01*
X029944Y038032D01*
X029974Y038063D01*
X030007Y038091D01*
X030042Y038116D01*
X030079Y038137D01*
X030118Y038155D01*
X030158Y038169D01*
X030200Y038180D01*
X030242Y038187D01*
X030285Y038190D01*
X030328Y038189D01*
X030371Y038184D01*
X030413Y038175D01*
X030454Y038163D01*
X030494Y038147D01*
X030532Y038127D01*
X030568Y038104D01*
X030602Y038077D01*
X030634Y038048D01*
X030662Y038016D01*
X030688Y037981D01*
X030710Y037945D01*
X030729Y037906D01*
X030744Y037866D01*
X030756Y037825D01*
X030764Y037782D01*
X030768Y037739D01*
X030768Y037697D01*
X030764Y037654D01*
X030756Y037611D01*
X030744Y037570D01*
X030729Y037530D01*
X030710Y037491D01*
X030688Y037455D01*
X030662Y037420D01*
X030634Y037388D01*
X030602Y037359D01*
X030568Y037332D01*
X030532Y037309D01*
X030494Y037289D01*
X030454Y037273D01*
X030413Y037261D01*
X030371Y037252D01*
X030328Y037247D01*
X030285Y037246D01*
X030242Y037249D01*
X030200Y037256D01*
X030158Y037267D01*
X030118Y037281D01*
X030079Y037299D01*
X030042Y037320D01*
X030007Y037345D01*
X029974Y037373D01*
X029944Y037404D01*
X029917Y037437D01*
X029893Y037473D01*
X029872Y037510D01*
X029855Y037550D01*
X029842Y037591D01*
X029832Y037633D01*
X029826Y037675D01*
X029824Y037718D01*
X035631Y037718D02*
X035633Y037761D01*
X035639Y037803D01*
X035649Y037845D01*
X035662Y037886D01*
X035679Y037926D01*
X035700Y037963D01*
X035724Y037999D01*
X035751Y038032D01*
X035781Y038063D01*
X035814Y038091D01*
X035849Y038116D01*
X035886Y038137D01*
X035925Y038155D01*
X035965Y038169D01*
X036007Y038180D01*
X036049Y038187D01*
X036092Y038190D01*
X036135Y038189D01*
X036178Y038184D01*
X036220Y038175D01*
X036261Y038163D01*
X036301Y038147D01*
X036339Y038127D01*
X036375Y038104D01*
X036409Y038077D01*
X036441Y038048D01*
X036469Y038016D01*
X036495Y037981D01*
X036517Y037945D01*
X036536Y037906D01*
X036551Y037866D01*
X036563Y037825D01*
X036571Y037782D01*
X036575Y037739D01*
X036575Y037697D01*
X036571Y037654D01*
X036563Y037611D01*
X036551Y037570D01*
X036536Y037530D01*
X036517Y037491D01*
X036495Y037455D01*
X036469Y037420D01*
X036441Y037388D01*
X036409Y037359D01*
X036375Y037332D01*
X036339Y037309D01*
X036301Y037289D01*
X036261Y037273D01*
X036220Y037261D01*
X036178Y037252D01*
X036135Y037247D01*
X036092Y037246D01*
X036049Y037249D01*
X036007Y037256D01*
X035965Y037267D01*
X035925Y037281D01*
X035886Y037299D01*
X035849Y037320D01*
X035814Y037345D01*
X035781Y037373D01*
X035751Y037404D01*
X035724Y037437D01*
X035700Y037473D01*
X035679Y037510D01*
X035662Y037550D01*
X035649Y037591D01*
X035639Y037633D01*
X035633Y037675D01*
X035631Y037718D01*
X036241Y035813D02*
X036243Y035839D01*
X036249Y035865D01*
X036259Y035890D01*
X036272Y035913D01*
X036288Y035933D01*
X036308Y035951D01*
X036330Y035966D01*
X036353Y035978D01*
X036379Y035986D01*
X036405Y035990D01*
X036431Y035990D01*
X036457Y035986D01*
X036483Y035978D01*
X036507Y035966D01*
X036528Y035951D01*
X036548Y035933D01*
X036564Y035913D01*
X036577Y035890D01*
X036587Y035865D01*
X036593Y035839D01*
X036595Y035813D01*
X036593Y035787D01*
X036587Y035761D01*
X036577Y035736D01*
X036564Y035713D01*
X036548Y035693D01*
X036528Y035675D01*
X036506Y035660D01*
X036483Y035648D01*
X036457Y035640D01*
X036431Y035636D01*
X036405Y035636D01*
X036379Y035640D01*
X036353Y035648D01*
X036329Y035660D01*
X036308Y035675D01*
X036288Y035693D01*
X036272Y035713D01*
X036259Y035736D01*
X036249Y035761D01*
X036243Y035787D01*
X036241Y035813D01*
X038115Y037935D02*
X038117Y037985D01*
X038123Y038035D01*
X038133Y038084D01*
X038147Y038132D01*
X038164Y038179D01*
X038185Y038224D01*
X038210Y038268D01*
X038238Y038309D01*
X038270Y038348D01*
X038304Y038385D01*
X038341Y038419D01*
X038381Y038449D01*
X038423Y038476D01*
X038467Y038500D01*
X038513Y038521D01*
X038560Y038537D01*
X038608Y038550D01*
X038658Y038559D01*
X038707Y038564D01*
X038758Y038565D01*
X038808Y038562D01*
X038857Y038555D01*
X038906Y038544D01*
X038954Y038529D01*
X039000Y038511D01*
X039045Y038489D01*
X039088Y038463D01*
X039129Y038434D01*
X039168Y038402D01*
X039204Y038367D01*
X039236Y038329D01*
X039266Y038289D01*
X039293Y038246D01*
X039316Y038202D01*
X039335Y038156D01*
X039351Y038108D01*
X039363Y038059D01*
X039371Y038010D01*
X039375Y037960D01*
X039375Y037910D01*
X039371Y037860D01*
X039363Y037811D01*
X039351Y037762D01*
X039335Y037714D01*
X039316Y037668D01*
X039293Y037624D01*
X039266Y037581D01*
X039236Y037541D01*
X039204Y037503D01*
X039168Y037468D01*
X039129Y037436D01*
X039088Y037407D01*
X039045Y037381D01*
X039000Y037359D01*
X038954Y037341D01*
X038906Y037326D01*
X038857Y037315D01*
X038808Y037308D01*
X038758Y037305D01*
X038707Y037306D01*
X038658Y037311D01*
X038608Y037320D01*
X038560Y037333D01*
X038513Y037349D01*
X038467Y037370D01*
X038423Y037394D01*
X038381Y037421D01*
X038341Y037451D01*
X038304Y037485D01*
X038270Y037522D01*
X038238Y037561D01*
X038210Y037602D01*
X038185Y037646D01*
X038164Y037691D01*
X038147Y037738D01*
X038133Y037786D01*
X038123Y037835D01*
X038117Y037885D01*
X038115Y037935D01*
X038115Y001714D02*
X038117Y001764D01*
X038123Y001814D01*
X038133Y001863D01*
X038147Y001911D01*
X038164Y001958D01*
X038185Y002003D01*
X038210Y002047D01*
X038238Y002088D01*
X038270Y002127D01*
X038304Y002164D01*
X038341Y002198D01*
X038381Y002228D01*
X038423Y002255D01*
X038467Y002279D01*
X038513Y002300D01*
X038560Y002316D01*
X038608Y002329D01*
X038658Y002338D01*
X038707Y002343D01*
X038758Y002344D01*
X038808Y002341D01*
X038857Y002334D01*
X038906Y002323D01*
X038954Y002308D01*
X039000Y002290D01*
X039045Y002268D01*
X039088Y002242D01*
X039129Y002213D01*
X039168Y002181D01*
X039204Y002146D01*
X039236Y002108D01*
X039266Y002068D01*
X039293Y002025D01*
X039316Y001981D01*
X039335Y001935D01*
X039351Y001887D01*
X039363Y001838D01*
X039371Y001789D01*
X039375Y001739D01*
X039375Y001689D01*
X039371Y001639D01*
X039363Y001590D01*
X039351Y001541D01*
X039335Y001493D01*
X039316Y001447D01*
X039293Y001403D01*
X039266Y001360D01*
X039236Y001320D01*
X039204Y001282D01*
X039168Y001247D01*
X039129Y001215D01*
X039088Y001186D01*
X039045Y001160D01*
X039000Y001138D01*
X038954Y001120D01*
X038906Y001105D01*
X038857Y001094D01*
X038808Y001087D01*
X038758Y001084D01*
X038707Y001085D01*
X038658Y001090D01*
X038608Y001099D01*
X038560Y001112D01*
X038513Y001128D01*
X038467Y001149D01*
X038423Y001173D01*
X038381Y001200D01*
X038341Y001230D01*
X038304Y001264D01*
X038270Y001301D01*
X038238Y001340D01*
X038210Y001381D01*
X038185Y001425D01*
X038164Y001470D01*
X038147Y001517D01*
X038133Y001565D01*
X038123Y001614D01*
X038117Y001664D01*
X038115Y001714D01*
D11*
X032992Y011989D02*
X032745Y011989D01*
X032684Y012051D01*
X032684Y012175D01*
X032745Y012236D01*
X032684Y012358D02*
X032684Y012605D01*
X032684Y012726D02*
X032745Y012726D01*
X032992Y012973D01*
X033054Y012973D01*
X033054Y012726D01*
X033054Y012481D02*
X032684Y012481D01*
X032931Y012358D02*
X033054Y012481D01*
X032992Y012236D02*
X033054Y012175D01*
X033054Y012051D01*
X032992Y011989D01*
X035032Y015214D02*
X034971Y015276D01*
X034971Y015400D01*
X035032Y015461D01*
X034971Y015583D02*
X034971Y015830D01*
X034971Y015951D02*
X034971Y016198D01*
X034971Y016074D02*
X035341Y016074D01*
X035217Y015951D01*
X035341Y015706D02*
X034971Y015706D01*
X035217Y015583D02*
X035341Y015706D01*
X035279Y015461D02*
X035341Y015400D01*
X035341Y015276D01*
X035279Y015214D01*
X035032Y015214D01*
X035596Y015276D02*
X035596Y015400D01*
X035657Y015461D01*
X035596Y015583D02*
X035596Y015830D01*
X035596Y015706D02*
X035966Y015706D01*
X035842Y015583D01*
X035904Y015461D02*
X035966Y015400D01*
X035966Y015276D01*
X035904Y015214D01*
X035657Y015214D01*
X035596Y015276D01*
X035657Y015951D02*
X035596Y016013D01*
X035596Y016136D01*
X035657Y016198D01*
X035719Y016198D01*
X035781Y016136D01*
X035781Y015951D01*
X035657Y015951D01*
X035781Y015951D02*
X035904Y016074D01*
X035966Y016198D01*
X036328Y021242D02*
X036267Y021303D01*
X036267Y021363D01*
X036328Y021424D01*
X036510Y021424D01*
X036510Y021303D01*
X036449Y021242D01*
X036328Y021242D01*
X036510Y021424D02*
X036388Y021545D01*
X036267Y021606D01*
X036630Y021606D02*
X036630Y021545D01*
X036872Y021303D01*
X036872Y021242D01*
X036992Y021303D02*
X036992Y021363D01*
X037053Y021424D01*
X037174Y021424D01*
X037235Y021485D01*
X037235Y021545D01*
X037174Y021606D01*
X037053Y021606D01*
X036992Y021545D01*
X036872Y021606D02*
X036630Y021606D01*
X036992Y021303D02*
X037053Y021242D01*
X037174Y021242D01*
X037235Y021303D01*
X037355Y021303D02*
X037355Y021606D01*
X037597Y021606D02*
X037597Y021303D01*
X037537Y021242D01*
X037415Y021242D01*
X037355Y021303D01*
X037113Y021181D02*
X037113Y021667D01*
X032091Y023276D02*
X032029Y023214D01*
X031782Y023214D01*
X031721Y023276D01*
X031721Y023400D01*
X031782Y023461D01*
X031906Y023583D02*
X031906Y023830D01*
X032029Y023951D02*
X032091Y024013D01*
X032091Y024136D01*
X032029Y024198D01*
X031782Y023951D01*
X031721Y024013D01*
X031721Y024136D01*
X031782Y024198D01*
X032029Y024198D01*
X032029Y023951D02*
X031782Y023951D01*
X031721Y023768D02*
X032091Y023768D01*
X031906Y023583D01*
X032029Y023461D02*
X032091Y023400D01*
X032091Y023276D01*
X031100Y024060D02*
X031038Y023998D01*
X030914Y023998D01*
X030853Y024060D01*
X030731Y024184D02*
X030484Y024184D01*
X030363Y024184D02*
X030178Y024184D01*
X030116Y024122D01*
X030116Y024060D01*
X030178Y023998D01*
X030301Y023998D01*
X030363Y024060D01*
X030363Y024184D01*
X030240Y024307D01*
X030116Y024369D01*
X030546Y024369D02*
X030546Y023998D01*
X030731Y024184D02*
X030546Y024369D01*
X030853Y024307D02*
X030914Y024369D01*
X031038Y024369D01*
X031100Y024307D01*
X031100Y024060D01*
X029716Y023886D02*
X029716Y023763D01*
X029654Y023701D01*
X029531Y023580D02*
X029531Y023333D01*
X029716Y023518D01*
X029346Y023518D01*
X029346Y023701D02*
X029592Y023948D01*
X029654Y023948D01*
X029716Y023886D01*
X029346Y023948D02*
X029346Y023701D01*
X029407Y023211D02*
X029346Y023150D01*
X029346Y023026D01*
X029407Y022964D01*
X029654Y022964D01*
X029716Y023026D01*
X029716Y023150D01*
X029654Y023211D01*
X030240Y021994D02*
X030240Y021623D01*
X030363Y021623D02*
X030116Y021623D01*
X030363Y021870D02*
X030240Y021994D01*
X030546Y021994D02*
X030731Y021809D01*
X030484Y021809D01*
X030546Y021994D02*
X030546Y021623D01*
X030853Y021685D02*
X030914Y021623D01*
X031038Y021623D01*
X031100Y021685D01*
X031100Y021932D01*
X031038Y021994D01*
X030914Y021994D01*
X030853Y021932D01*
D12*
X030995Y016995D02*
X031149Y016995D01*
X031225Y016918D01*
X031379Y016918D02*
X031456Y016995D01*
X031609Y016995D01*
X031686Y016918D01*
X031686Y016611D01*
X031609Y016534D01*
X031456Y016534D01*
X031379Y016611D01*
X031456Y016495D02*
X031609Y016495D01*
X031686Y016418D01*
X031686Y016111D01*
X031609Y016034D01*
X031456Y016034D01*
X031379Y016111D01*
X031225Y016034D02*
X030919Y016341D01*
X030919Y016418D01*
X030995Y016495D01*
X031149Y016495D01*
X031225Y016418D01*
X031225Y016534D02*
X030919Y016841D01*
X030919Y016918D01*
X030995Y016995D01*
X030765Y016841D02*
X030612Y016995D01*
X030612Y016534D01*
X030688Y016495D02*
X030535Y016495D01*
X030458Y016418D01*
X030765Y016111D01*
X030688Y016034D01*
X030535Y016034D01*
X030458Y016111D01*
X030458Y016418D01*
X030458Y016534D02*
X030765Y016534D01*
X030688Y016495D02*
X030765Y016418D01*
X030765Y016111D01*
X030919Y016034D02*
X031225Y016034D01*
X031379Y016418D02*
X031456Y016495D01*
X031225Y016534D02*
X030919Y016534D01*
X030873Y013762D02*
X030950Y013685D01*
X030950Y013455D01*
X030796Y013455D01*
X030720Y013532D01*
X030720Y013685D01*
X030796Y013762D01*
X030873Y013762D01*
X031103Y013609D02*
X030950Y013455D01*
X031027Y013302D02*
X031103Y013302D01*
X031180Y013225D01*
X031180Y013071D01*
X031103Y012995D01*
X031103Y012841D02*
X030950Y012841D01*
X030873Y012765D01*
X030873Y012534D01*
X030720Y012534D02*
X031180Y012534D01*
X031180Y012765D01*
X031103Y012841D01*
X030873Y012688D02*
X030720Y012841D01*
X030720Y012995D02*
X031027Y013302D01*
X030720Y013302D02*
X030720Y012995D01*
X031103Y013609D02*
X031180Y013762D01*
X031720Y013685D02*
X031720Y013532D01*
X031796Y013455D01*
X031950Y013455D02*
X032027Y013609D01*
X032027Y013685D01*
X031950Y013762D01*
X031796Y013762D01*
X031720Y013685D01*
X031950Y013455D02*
X032180Y013455D01*
X032180Y013762D01*
X032103Y013302D02*
X032180Y013225D01*
X032180Y013071D01*
X032103Y012995D01*
X032103Y012841D02*
X031950Y012841D01*
X031873Y012765D01*
X031873Y012534D01*
X031720Y012534D02*
X032180Y012534D01*
X032180Y012765D01*
X032103Y012841D01*
X031873Y012688D02*
X031720Y012841D01*
X031720Y012995D02*
X032027Y013302D01*
X032103Y013302D01*
X031720Y013302D02*
X031720Y012995D01*
X031870Y009620D02*
X032100Y009390D01*
X031794Y009390D01*
X031640Y009466D02*
X031563Y009390D01*
X031333Y009390D01*
X031333Y009543D02*
X031333Y009236D01*
X031410Y009159D01*
X031563Y009159D01*
X031640Y009236D01*
X031640Y009466D02*
X031640Y009543D01*
X031563Y009620D01*
X031410Y009620D01*
X031333Y009543D01*
X031186Y009620D02*
X030956Y009620D01*
X030879Y009543D01*
X030879Y009390D01*
X030956Y009313D01*
X031186Y009313D01*
X031032Y009313D02*
X030879Y009159D01*
X030725Y009390D02*
X030419Y009390D01*
X030265Y009466D02*
X030265Y009543D01*
X030188Y009620D01*
X030035Y009620D01*
X029958Y009543D01*
X029958Y009466D01*
X030035Y009390D01*
X030188Y009390D01*
X030265Y009466D01*
X030188Y009390D02*
X030265Y009313D01*
X030265Y009236D01*
X030188Y009159D01*
X030035Y009159D01*
X029958Y009236D01*
X029958Y009313D01*
X030035Y009390D01*
X029811Y009313D02*
X029581Y009313D01*
X029504Y009390D01*
X029504Y009543D01*
X029581Y009620D01*
X029811Y009620D01*
X029811Y009159D01*
X029657Y009313D02*
X029504Y009159D01*
X029350Y009236D02*
X029274Y009159D01*
X029120Y009159D01*
X029044Y009236D01*
X029044Y009390D01*
X029120Y009466D01*
X029197Y009466D01*
X029350Y009390D01*
X029350Y009620D01*
X029044Y009620D01*
X028890Y009543D02*
X028890Y009236D01*
X028583Y009543D01*
X028583Y009236D01*
X028660Y009159D01*
X028813Y009159D01*
X028890Y009236D01*
X028890Y009543D02*
X028813Y009620D01*
X028660Y009620D01*
X028583Y009543D01*
X028364Y008620D02*
X028594Y008390D01*
X028287Y008390D01*
X028134Y008390D02*
X027980Y008466D01*
X027904Y008466D01*
X027827Y008390D01*
X027827Y008236D01*
X027904Y008159D01*
X028057Y008159D01*
X028134Y008236D01*
X028134Y008390D02*
X028134Y008620D01*
X027827Y008620D01*
X028364Y008620D02*
X028364Y008159D01*
X028487Y008120D02*
X028487Y007659D01*
X028640Y007659D02*
X028333Y007659D01*
X028640Y007966D02*
X028487Y008120D01*
X028748Y008159D02*
X028901Y008313D01*
X028824Y008313D02*
X029055Y008313D01*
X029202Y008313D02*
X029279Y008390D01*
X029509Y008390D01*
X029509Y008236D01*
X029432Y008159D01*
X029279Y008159D01*
X029202Y008236D01*
X029202Y008313D01*
X029055Y008159D02*
X029055Y008620D01*
X028824Y008620D01*
X028748Y008543D01*
X028748Y008390D01*
X028824Y008313D01*
X028870Y008120D02*
X028794Y008043D01*
X028794Y007736D01*
X028870Y007659D01*
X029024Y007659D01*
X029100Y007736D01*
X029100Y008043D01*
X029024Y008120D01*
X028870Y008120D01*
X028947Y007813D02*
X028794Y007659D01*
X029708Y007659D02*
X030015Y007659D01*
X029708Y007966D01*
X029708Y008043D01*
X029785Y008120D01*
X029938Y008120D01*
X030015Y008043D01*
X030169Y008043D02*
X030169Y007736D01*
X030245Y007659D01*
X030399Y007659D01*
X030475Y007736D01*
X030475Y008043D01*
X030399Y008120D01*
X030245Y008120D01*
X030169Y008043D01*
X030123Y008159D02*
X030276Y008313D01*
X030199Y008313D02*
X030430Y008313D01*
X030430Y008159D02*
X030430Y008620D01*
X030199Y008620D01*
X030123Y008543D01*
X030123Y008390D01*
X030199Y008313D01*
X029969Y008390D02*
X029662Y008390D01*
X029509Y008390D02*
X029355Y008543D01*
X029202Y008620D01*
X029739Y008620D02*
X029739Y008159D01*
X029969Y008390D02*
X029739Y008620D01*
X030577Y008620D02*
X030577Y008543D01*
X030884Y008236D01*
X030884Y008159D01*
X031114Y008159D02*
X031114Y008620D01*
X031344Y008390D01*
X031037Y008390D01*
X030884Y008620D02*
X030577Y008620D01*
X030495Y009159D02*
X030495Y009620D01*
X030725Y009390D01*
X031186Y009159D02*
X031186Y009620D01*
X031870Y009620D02*
X031870Y009159D01*
X032254Y009159D02*
X032407Y009313D01*
X032331Y009313D02*
X032561Y009313D01*
X032561Y009159D02*
X032561Y009620D01*
X032331Y009620D01*
X032254Y009543D01*
X032254Y009390D01*
X032331Y009313D01*
X031805Y008620D02*
X031574Y008620D01*
X031498Y008543D01*
X031498Y008390D01*
X031574Y008313D01*
X031805Y008313D01*
X031805Y008159D02*
X031805Y008620D01*
X031651Y008313D02*
X031498Y008159D01*
X031544Y008043D02*
X031544Y007736D01*
X031620Y007659D01*
X031774Y007659D01*
X031850Y007736D01*
X031850Y008043D01*
X031774Y008120D01*
X031620Y008120D01*
X031544Y008043D01*
X031390Y008043D02*
X031313Y008120D01*
X031160Y008120D01*
X031083Y008043D01*
X031083Y007966D01*
X031160Y007890D01*
X031083Y007813D01*
X031083Y007736D01*
X031160Y007659D01*
X031313Y007659D01*
X031390Y007736D01*
X031544Y007659D02*
X031697Y007813D01*
X031237Y007890D02*
X031160Y007890D01*
X030322Y007813D02*
X030169Y007659D01*
X030671Y003137D02*
X030595Y003060D01*
X030595Y002907D01*
X030671Y002830D01*
X030748Y002830D01*
X030825Y002907D01*
X030825Y003060D01*
X030748Y003137D01*
X030671Y003137D01*
X030825Y003060D02*
X030902Y003137D01*
X030978Y003137D01*
X031055Y003060D01*
X031055Y002907D01*
X030978Y002830D01*
X030902Y002830D01*
X030825Y002907D01*
X030902Y002677D02*
X030825Y002600D01*
X030748Y002677D01*
X030671Y002677D01*
X030595Y002600D01*
X030595Y002446D01*
X030671Y002370D01*
X030595Y002216D02*
X030748Y002063D01*
X030748Y002140D02*
X030748Y001909D01*
X030595Y001909D02*
X031055Y001909D01*
X031055Y002140D01*
X030978Y002216D01*
X030825Y002216D01*
X030748Y002140D01*
X030978Y002370D02*
X031055Y002446D01*
X031055Y002600D01*
X030978Y002677D01*
X030902Y002677D01*
X030825Y002600D02*
X030825Y002523D01*
X031595Y002600D02*
X032055Y002600D01*
X031825Y002370D01*
X031825Y002677D01*
X031825Y002830D02*
X031825Y003137D01*
X032055Y003060D02*
X031825Y002830D01*
X031595Y003060D02*
X032055Y003060D01*
X031978Y002216D02*
X031825Y002216D01*
X031748Y002140D01*
X031748Y001909D01*
X031595Y001909D02*
X032055Y001909D01*
X032055Y002140D01*
X031978Y002216D01*
X031748Y002063D02*
X031595Y002216D01*
X028805Y002219D02*
X028575Y001989D01*
X028575Y002296D01*
X028728Y002449D02*
X028805Y002526D01*
X028805Y002679D01*
X028728Y002756D01*
X028652Y002756D01*
X028345Y002449D01*
X028345Y002756D01*
X028345Y002219D02*
X028805Y002219D01*
X028728Y001835D02*
X028575Y001835D01*
X028498Y001758D01*
X028498Y001528D01*
X028345Y001528D02*
X028805Y001528D01*
X028805Y001758D01*
X028728Y001835D01*
X028498Y001682D02*
X028345Y001835D01*
X035458Y007793D02*
X035765Y007486D01*
X035765Y007409D01*
X035919Y007409D02*
X036225Y007409D01*
X035919Y007716D01*
X035919Y007793D01*
X035995Y007870D01*
X036149Y007870D01*
X036225Y007793D01*
X036379Y007793D02*
X036379Y007640D01*
X036456Y007563D01*
X036686Y007563D01*
X036532Y007563D02*
X036379Y007409D01*
X036686Y007409D02*
X036686Y007870D01*
X036456Y007870D01*
X036379Y007793D01*
X035765Y007870D02*
X035458Y007870D01*
X035458Y007793D01*
X035535Y008909D02*
X035688Y008909D01*
X035765Y008986D01*
X035458Y009293D01*
X035458Y008986D01*
X035535Y008909D01*
X035765Y008986D02*
X035765Y009293D01*
X035688Y009370D01*
X035535Y009370D01*
X035458Y009293D01*
X035919Y009293D02*
X035919Y009216D01*
X035995Y009140D01*
X035919Y009063D01*
X035919Y008986D01*
X035995Y008909D01*
X036149Y008909D01*
X036225Y008986D01*
X036379Y008909D02*
X036532Y009063D01*
X036456Y009063D02*
X036686Y009063D01*
X036686Y008909D02*
X036686Y009370D01*
X036456Y009370D01*
X036379Y009293D01*
X036379Y009140D01*
X036456Y009063D01*
X036660Y008870D02*
X036583Y008793D01*
X036890Y008486D01*
X036813Y008409D01*
X036660Y008409D01*
X036583Y008486D01*
X036583Y008793D01*
X036660Y008870D02*
X036813Y008870D01*
X036890Y008793D01*
X036890Y008486D01*
X037044Y008409D02*
X037350Y008409D01*
X037197Y008409D02*
X037197Y008870D01*
X037350Y008716D01*
X037504Y008640D02*
X037581Y008563D01*
X037811Y008563D01*
X037657Y008563D02*
X037504Y008409D01*
X037504Y008640D02*
X037504Y008793D01*
X037581Y008870D01*
X037811Y008870D01*
X037811Y008409D01*
X037350Y009409D02*
X037350Y009870D01*
X037120Y009870D01*
X037044Y009793D01*
X037044Y009640D01*
X037120Y009563D01*
X037350Y009563D01*
X037197Y009563D02*
X037044Y009409D01*
X036890Y009486D02*
X036813Y009409D01*
X036660Y009409D01*
X036583Y009486D01*
X036583Y009793D01*
X036660Y009870D01*
X036813Y009870D01*
X036890Y009793D01*
X036890Y009716D01*
X036813Y009640D01*
X036583Y009640D01*
X036225Y009293D02*
X036149Y009370D01*
X035995Y009370D01*
X035919Y009293D01*
X035995Y009140D02*
X036072Y009140D01*
X036660Y010409D02*
X036813Y010409D01*
X036890Y010486D01*
X036890Y010563D01*
X036813Y010640D01*
X036660Y010640D01*
X036583Y010563D01*
X036583Y010486D01*
X036660Y010409D01*
X036660Y010640D02*
X036583Y010716D01*
X036583Y010793D01*
X036660Y010870D01*
X036813Y010870D01*
X036890Y010793D01*
X036890Y010716D01*
X036813Y010640D01*
X037044Y010640D02*
X037044Y010793D01*
X037120Y010870D01*
X037350Y010870D01*
X037350Y010409D01*
X037350Y010563D02*
X037120Y010563D01*
X037044Y010640D01*
X037197Y010563D02*
X037044Y010409D01*
X037197Y006870D02*
X037197Y006409D01*
X037350Y006409D02*
X037044Y006409D01*
X036890Y006409D02*
X036583Y006409D01*
X036737Y006409D02*
X036737Y006870D01*
X036890Y006716D01*
X037197Y006870D02*
X037350Y006716D01*
X037504Y006640D02*
X037581Y006563D01*
X037811Y006563D01*
X037657Y006563D02*
X037504Y006409D01*
X037504Y006640D02*
X037504Y006793D01*
X037581Y006870D01*
X037811Y006870D01*
X037811Y006409D01*
X037811Y005870D02*
X037581Y005870D01*
X037504Y005793D01*
X037504Y005640D01*
X037581Y005563D01*
X037811Y005563D01*
X037657Y005563D02*
X037504Y005409D01*
X037350Y005409D02*
X037044Y005409D01*
X037197Y005409D02*
X037197Y005870D01*
X037350Y005716D01*
X036890Y005870D02*
X036583Y005870D01*
X036583Y005793D01*
X036890Y005486D01*
X036890Y005409D01*
X037811Y005409D02*
X037811Y005870D01*
X037950Y016374D02*
X037950Y018154D01*
X038070Y017202D02*
X038070Y016895D01*
X038070Y017048D02*
X038530Y017048D01*
X038377Y016895D01*
X038453Y016741D02*
X038530Y016665D01*
X038530Y016434D01*
X038070Y016434D01*
X038070Y016665D01*
X038146Y016741D01*
X038453Y016741D01*
X036450Y016374D02*
X036450Y018154D01*
X036469Y030159D02*
X036162Y030159D01*
X036316Y030159D02*
X036316Y030620D01*
X036469Y030466D01*
X036623Y030390D02*
X036699Y030313D01*
X036930Y030313D01*
X036930Y030159D02*
X036930Y030620D01*
X036699Y030620D01*
X036623Y030543D01*
X036623Y030390D01*
X036776Y030313D02*
X036623Y030159D01*
X036623Y030909D02*
X036776Y031063D01*
X036699Y031063D02*
X036930Y031063D01*
X036930Y030909D02*
X036930Y031370D01*
X036699Y031370D01*
X036623Y031293D01*
X036623Y031140D01*
X036699Y031063D01*
X036469Y031216D02*
X036316Y031370D01*
X036316Y030909D01*
X036469Y030909D02*
X036162Y030909D01*
X036009Y031140D02*
X035702Y031140D01*
X035779Y031370D02*
X036009Y031140D01*
X035779Y030909D02*
X035779Y031370D01*
X035779Y030620D02*
X035702Y030543D01*
X035702Y030466D01*
X035779Y030390D01*
X035702Y030313D01*
X035702Y030236D01*
X035779Y030159D01*
X035932Y030159D01*
X036009Y030236D01*
X035855Y030390D02*
X035779Y030390D01*
X035779Y030620D02*
X035932Y030620D01*
X036009Y030543D01*
X034305Y030620D02*
X034305Y030159D01*
X034305Y030313D02*
X034074Y030313D01*
X033998Y030390D01*
X033998Y030543D01*
X034074Y030620D01*
X034305Y030620D01*
X034305Y030909D02*
X034305Y031370D01*
X034074Y031370D01*
X033998Y031293D01*
X033998Y031140D01*
X034074Y031063D01*
X034305Y031063D01*
X034151Y031063D02*
X033998Y030909D01*
X033844Y030909D02*
X033537Y031216D01*
X033537Y031293D01*
X033614Y031370D01*
X033768Y031370D01*
X033844Y031293D01*
X033844Y030909D02*
X033537Y030909D01*
X033384Y030986D02*
X033307Y030909D01*
X033154Y030909D01*
X033077Y030986D01*
X033077Y031293D01*
X033154Y031370D01*
X033307Y031370D01*
X033384Y031293D01*
X033384Y031216D01*
X033307Y031140D01*
X033077Y031140D01*
X033154Y030620D02*
X033077Y030543D01*
X033077Y030466D01*
X033384Y030159D01*
X033077Y030159D01*
X033154Y030620D02*
X033307Y030620D01*
X033384Y030543D01*
X033537Y030543D02*
X033537Y030466D01*
X033844Y030159D01*
X033537Y030159D01*
X033537Y030543D02*
X033614Y030620D01*
X033768Y030620D01*
X033844Y030543D01*
X034151Y030313D02*
X033998Y030159D01*
X023430Y019560D02*
X023353Y019637D01*
X023277Y019637D01*
X023200Y019560D01*
X023200Y019407D01*
X023277Y019330D01*
X023353Y019330D01*
X023430Y019407D01*
X023430Y019560D01*
X023200Y019560D02*
X023123Y019637D01*
X023046Y019637D01*
X022970Y019560D01*
X022970Y019407D01*
X023046Y019330D01*
X023123Y019330D01*
X023200Y019407D01*
X022970Y019177D02*
X022970Y018870D01*
X022970Y019023D02*
X023430Y019023D01*
X023277Y018870D01*
X023353Y018716D02*
X023200Y018716D01*
X023123Y018640D01*
X023123Y018409D01*
X022970Y018409D02*
X023430Y018409D01*
X023430Y018640D01*
X023353Y018716D01*
X023123Y018563D02*
X022970Y018716D01*
X022680Y018640D02*
X022680Y018409D01*
X022220Y018409D01*
X022373Y018409D02*
X022373Y018640D01*
X022450Y018716D01*
X022603Y018716D01*
X022680Y018640D01*
X022527Y018870D02*
X022680Y019023D01*
X022220Y019023D01*
X022220Y018870D02*
X022220Y019177D01*
X022296Y019330D02*
X022220Y019407D01*
X022220Y019560D01*
X022296Y019637D01*
X022603Y019637D01*
X022680Y019560D01*
X022680Y019407D01*
X022603Y019330D01*
X022527Y019330D01*
X022450Y019407D01*
X022450Y019637D01*
X022220Y018716D02*
X022373Y018563D01*
X022228Y016506D02*
X022152Y016506D01*
X022075Y016429D01*
X021998Y016506D01*
X021921Y016506D01*
X021845Y016429D01*
X021845Y016276D01*
X021921Y016199D01*
X021845Y016046D02*
X021845Y015739D01*
X021845Y015892D02*
X022305Y015892D01*
X022152Y015739D01*
X022095Y015677D02*
X022095Y015370D01*
X022402Y015677D01*
X022478Y015677D01*
X022555Y015600D01*
X022555Y015446D01*
X022478Y015370D01*
X022478Y015216D02*
X022555Y015140D01*
X022555Y014986D01*
X022478Y014909D01*
X022171Y014909D01*
X022095Y014986D01*
X022095Y015140D01*
X022171Y015216D01*
X022228Y015278D02*
X021921Y015278D01*
X021845Y015355D01*
X021845Y015508D01*
X021921Y015585D01*
X022228Y015585D02*
X022305Y015508D01*
X022305Y015355D01*
X022228Y015278D01*
X021555Y015355D02*
X021555Y015508D01*
X021478Y015585D01*
X021402Y015739D02*
X021555Y015892D01*
X021095Y015892D01*
X021095Y015739D02*
X021095Y016046D01*
X021095Y016199D02*
X021402Y016506D01*
X021478Y016506D01*
X021555Y016429D01*
X021555Y016276D01*
X021478Y016199D01*
X021095Y016199D02*
X021095Y016506D01*
X021171Y015585D02*
X021095Y015508D01*
X021095Y015355D01*
X021171Y015278D01*
X021478Y015278D01*
X021555Y015355D01*
X022228Y016199D02*
X022305Y016276D01*
X022305Y016429D01*
X022228Y016506D01*
X022075Y016429D02*
X022075Y016352D01*
X022845Y016060D02*
X023305Y016060D01*
X023075Y015830D01*
X023075Y016137D01*
X022845Y015677D02*
X022845Y015370D01*
X022845Y015523D02*
X023305Y015523D01*
X023152Y015370D01*
X023228Y015216D02*
X023305Y015140D01*
X023305Y014986D01*
X023228Y014909D01*
X022921Y014909D01*
X022845Y014986D01*
X022845Y015140D01*
X022921Y015216D01*
X021720Y013131D02*
X021720Y012824D01*
X021720Y012977D02*
X022180Y012977D01*
X022027Y012824D01*
X022027Y012671D02*
X021720Y012364D01*
X021720Y012671D01*
X021430Y012594D02*
X021430Y012440D01*
X021353Y012364D01*
X021353Y012210D02*
X021200Y012210D01*
X021123Y012133D01*
X021123Y011903D01*
X020970Y011903D02*
X021430Y011903D01*
X021430Y012133D01*
X021353Y012210D01*
X021123Y012057D02*
X020970Y012210D01*
X020970Y012364D02*
X021277Y012671D01*
X021353Y012671D01*
X021430Y012594D01*
X021353Y012824D02*
X021046Y012824D01*
X021353Y013131D01*
X021046Y013131D01*
X020970Y013054D01*
X020970Y012901D01*
X021046Y012824D01*
X020970Y012671D02*
X020970Y012364D01*
X021353Y012824D02*
X021430Y012901D01*
X021430Y013054D01*
X021353Y013131D01*
X022027Y012671D02*
X022103Y012671D01*
X022180Y012594D01*
X022180Y012440D01*
X022103Y012364D01*
X022103Y012210D02*
X021950Y012210D01*
X021873Y012133D01*
X021873Y011903D01*
X021720Y011903D02*
X022180Y011903D01*
X022180Y012133D01*
X022103Y012210D01*
X021873Y012057D02*
X021720Y012210D01*
X019311Y013534D02*
X019311Y013995D01*
X019081Y013995D01*
X019004Y013918D01*
X019004Y013765D01*
X019081Y013688D01*
X019311Y013688D01*
X019157Y013688D02*
X019004Y013534D01*
X018850Y013534D02*
X018544Y013841D01*
X018544Y013918D01*
X018620Y013995D01*
X018774Y013995D01*
X018850Y013918D01*
X018850Y013534D02*
X018544Y013534D01*
X018390Y013765D02*
X018083Y013765D01*
X018160Y013995D02*
X018160Y013534D01*
X018390Y013765D02*
X018160Y013995D01*
X018083Y014784D02*
X018390Y014784D01*
X018083Y015091D01*
X018083Y015168D01*
X018160Y015245D01*
X018313Y015245D01*
X018390Y015168D01*
X018544Y015168D02*
X018544Y015091D01*
X018620Y015015D01*
X018544Y014938D01*
X018544Y014861D01*
X018620Y014784D01*
X018774Y014784D01*
X018850Y014861D01*
X019004Y014784D02*
X019157Y014938D01*
X019081Y014938D02*
X019311Y014938D01*
X019311Y014784D02*
X019311Y015245D01*
X019081Y015245D01*
X019004Y015168D01*
X019004Y015015D01*
X019081Y014938D01*
X018850Y015168D02*
X018774Y015245D01*
X018620Y015245D01*
X018544Y015168D01*
X018620Y015015D02*
X018697Y015015D01*
X018623Y015409D02*
X018776Y015563D01*
X018699Y015563D02*
X018930Y015563D01*
X018930Y015409D02*
X018930Y015870D01*
X018699Y015870D01*
X018623Y015793D01*
X018623Y015640D01*
X018699Y015563D01*
X018469Y015409D02*
X018162Y015716D01*
X018162Y015793D01*
X018239Y015870D01*
X018393Y015870D01*
X018469Y015793D01*
X018469Y015409D02*
X018162Y015409D01*
X018009Y015486D02*
X017932Y015409D01*
X017779Y015409D01*
X017702Y015486D01*
X017702Y015563D01*
X017779Y015640D01*
X017855Y015640D01*
X017779Y015640D02*
X017702Y015716D01*
X017702Y015793D01*
X017779Y015870D01*
X017932Y015870D01*
X018009Y015793D01*
X018009Y016784D02*
X017702Y016784D01*
X017855Y016784D02*
X017855Y017245D01*
X018009Y017091D01*
X018162Y017091D02*
X018239Y017015D01*
X018162Y016938D01*
X018162Y016861D01*
X018239Y016784D01*
X018393Y016784D01*
X018469Y016861D01*
X018623Y016784D02*
X018776Y016938D01*
X018699Y016938D02*
X018930Y016938D01*
X018930Y016784D02*
X018930Y017245D01*
X018699Y017245D01*
X018623Y017168D01*
X018623Y017015D01*
X018699Y016938D01*
X018469Y017168D02*
X018393Y017245D01*
X018239Y017245D01*
X018162Y017168D01*
X018162Y017091D01*
X018239Y017015D02*
X018316Y017015D01*
X016561Y016918D02*
X016561Y016611D01*
X016484Y016534D01*
X016331Y016534D01*
X016254Y016611D01*
X016100Y016534D02*
X015794Y016841D01*
X015794Y016918D01*
X015870Y016995D01*
X016024Y016995D01*
X016100Y016918D01*
X016254Y016918D02*
X016331Y016995D01*
X016484Y016995D01*
X016561Y016918D01*
X016100Y016534D02*
X015794Y016534D01*
X015640Y016534D02*
X015640Y016611D01*
X015333Y016918D01*
X015333Y016995D01*
X015640Y016995D01*
X013728Y014870D02*
X013574Y014870D01*
X013498Y014793D01*
X013344Y014793D02*
X013268Y014870D01*
X013114Y014870D01*
X013037Y014793D01*
X013037Y014716D01*
X013344Y014409D01*
X013037Y014409D01*
X012884Y014486D02*
X012807Y014409D01*
X012654Y014409D01*
X012577Y014486D01*
X012577Y014563D01*
X012654Y014640D01*
X012884Y014640D01*
X012884Y014486D01*
X012884Y014640D02*
X012730Y014793D01*
X012577Y014870D01*
X013498Y014486D02*
X013574Y014409D01*
X013728Y014409D01*
X013805Y014486D01*
X013805Y014793D01*
X013728Y014870D01*
X013688Y014370D02*
X013535Y014370D01*
X013458Y014293D01*
X013458Y014216D01*
X013535Y014140D01*
X013458Y014063D01*
X013458Y013986D01*
X013535Y013909D01*
X013688Y013909D01*
X013765Y013986D01*
X013919Y013909D02*
X014225Y013909D01*
X013919Y014216D01*
X013919Y014293D01*
X013995Y014370D01*
X014149Y014370D01*
X014225Y014293D01*
X014379Y014293D02*
X014456Y014370D01*
X014609Y014370D01*
X014686Y014293D01*
X014686Y013986D01*
X014609Y013909D01*
X014456Y013909D01*
X014379Y013986D01*
X013765Y014293D02*
X013688Y014370D01*
X013612Y014140D02*
X013535Y014140D01*
X013535Y013370D02*
X013688Y013370D01*
X013765Y013293D01*
X013919Y013293D02*
X013995Y013370D01*
X014149Y013370D01*
X014225Y013293D01*
X014379Y013293D02*
X014456Y013370D01*
X014609Y013370D01*
X014686Y013293D01*
X014686Y012986D01*
X014609Y012909D01*
X014456Y012909D01*
X014379Y012986D01*
X014225Y012909D02*
X013919Y013216D01*
X013919Y013293D01*
X013919Y012909D02*
X014225Y012909D01*
X013765Y012909D02*
X013458Y013216D01*
X013458Y013293D01*
X013535Y013370D01*
X013458Y012909D02*
X013765Y012909D01*
X014708Y012986D02*
X014785Y012909D01*
X014938Y012909D01*
X015015Y012986D01*
X015015Y013063D01*
X014938Y013140D01*
X014785Y013140D01*
X014708Y013063D01*
X014708Y012986D01*
X014785Y013140D02*
X014708Y013216D01*
X014708Y013293D01*
X014785Y013370D01*
X014938Y013370D01*
X015015Y013293D01*
X015015Y013216D01*
X014938Y013140D01*
X015169Y013216D02*
X015169Y013293D01*
X015245Y013370D01*
X015399Y013370D01*
X015475Y013293D01*
X015629Y013293D02*
X015706Y013370D01*
X015859Y013370D01*
X015936Y013293D01*
X015936Y012986D01*
X015859Y012909D01*
X015706Y012909D01*
X015629Y012986D01*
X015475Y012909D02*
X015169Y013216D01*
X015169Y012909D02*
X015475Y012909D01*
X008305Y018784D02*
X008305Y019015D01*
X008228Y019091D01*
X008075Y019091D01*
X007998Y019015D01*
X007998Y018784D01*
X007845Y018784D02*
X008305Y018784D01*
X007998Y018938D02*
X007845Y019091D01*
X008075Y019245D02*
X008075Y019552D01*
X008228Y019705D02*
X008305Y019782D01*
X008305Y019935D01*
X008228Y020012D01*
X008152Y020012D01*
X008075Y019935D01*
X007998Y020012D01*
X007921Y020012D01*
X007845Y019935D01*
X007845Y019782D01*
X007921Y019705D01*
X008075Y019859D02*
X008075Y019935D01*
X007845Y019475D02*
X008305Y019475D01*
X008075Y019245D01*
X005430Y019190D02*
X005430Y019344D01*
X005353Y019421D01*
X005046Y019421D01*
X004970Y019344D01*
X004970Y019190D01*
X005046Y019114D01*
X005353Y019114D01*
X005430Y019190D01*
X005123Y019267D02*
X004970Y019421D01*
X005200Y019574D02*
X005200Y019881D01*
X005430Y019804D02*
X005200Y019574D01*
X004970Y019804D02*
X005430Y019804D01*
X003728Y026159D02*
X003574Y026159D01*
X003498Y026236D01*
X003344Y026390D02*
X003037Y026390D01*
X003114Y026620D02*
X003114Y026159D01*
X003344Y026390D02*
X003114Y026620D01*
X003498Y026543D02*
X003574Y026620D01*
X003728Y026620D01*
X003805Y026543D01*
X003805Y026236D01*
X003728Y026159D01*
D13*
X036556Y022289D02*
X036525Y022305D01*
X036492Y022318D01*
X036458Y022326D01*
X036423Y022331D01*
X036388Y022332D01*
X036353Y022329D01*
X036319Y022322D01*
X036285Y022312D01*
X036253Y022298D01*
X036223Y022280D01*
X036195Y022259D01*
X036169Y022236D01*
X036146Y022209D01*
X036126Y022181D01*
X036109Y022150D01*
X036096Y022117D01*
X036087Y022084D01*
X036081Y022049D01*
X036079Y022014D01*
X036081Y021979D01*
X036087Y021944D01*
X036096Y021911D01*
X036109Y021878D01*
X036126Y021847D01*
X036146Y021819D01*
X036169Y021792D01*
X036195Y021769D01*
X036223Y021748D01*
X036253Y021730D01*
X036285Y021716D01*
X036319Y021706D01*
X036353Y021699D01*
X036388Y021696D01*
X036423Y021697D01*
X036458Y021702D01*
X036492Y021710D01*
X036525Y021723D01*
X036556Y021739D01*
X037343Y021739D01*
X037343Y022290D02*
X036556Y022290D01*
D14*
X033975Y021689D02*
X033975Y020589D01*
X033973Y020572D01*
X033969Y020555D01*
X033962Y020539D01*
X033952Y020525D01*
X033939Y020512D01*
X033925Y020502D01*
X033909Y020495D01*
X033892Y020491D01*
X033875Y020489D01*
X033275Y020489D01*
X033258Y020491D01*
X033241Y020495D01*
X033225Y020502D01*
X033211Y020512D01*
X033198Y020525D01*
X033188Y020539D01*
X033181Y020555D01*
X033177Y020572D01*
X033175Y020589D01*
X033175Y021689D01*
X033177Y021706D01*
X033181Y021723D01*
X033188Y021739D01*
X033198Y021753D01*
X033211Y021766D01*
X033225Y021776D01*
X033241Y021783D01*
X033258Y021787D01*
X033275Y021789D01*
X033875Y021789D01*
X033892Y021787D01*
X033909Y021783D01*
X033925Y021776D01*
X033939Y021766D01*
X033952Y021753D01*
X033962Y021739D01*
X033969Y021723D01*
X033973Y021706D01*
X033975Y021689D01*
X028475Y024089D02*
X028475Y025189D01*
X028473Y025206D01*
X028469Y025223D01*
X028462Y025239D01*
X028452Y025253D01*
X028439Y025266D01*
X028425Y025276D01*
X028409Y025283D01*
X028392Y025287D01*
X028375Y025289D01*
X027775Y025289D01*
X027758Y025287D01*
X027741Y025283D01*
X027725Y025276D01*
X027711Y025266D01*
X027698Y025253D01*
X027688Y025239D01*
X027681Y025223D01*
X027677Y025206D01*
X027675Y025189D01*
X027675Y024089D01*
X027677Y024072D01*
X027681Y024055D01*
X027688Y024039D01*
X027698Y024025D01*
X027711Y024012D01*
X027725Y024002D01*
X027741Y023995D01*
X027758Y023991D01*
X027775Y023989D01*
X028375Y023989D01*
X028392Y023991D01*
X028409Y023995D01*
X028425Y024002D01*
X028439Y024012D01*
X028452Y024025D01*
X028462Y024039D01*
X028469Y024055D01*
X028473Y024072D01*
X028475Y024089D01*
X022125Y006164D02*
X021025Y006164D01*
X021008Y006162D01*
X020991Y006158D01*
X020975Y006151D01*
X020961Y006141D01*
X020948Y006128D01*
X020938Y006114D01*
X020931Y006098D01*
X020927Y006081D01*
X020925Y006064D01*
X020925Y005464D01*
X020927Y005447D01*
X020931Y005430D01*
X020938Y005414D01*
X020948Y005400D01*
X020961Y005387D01*
X020975Y005377D01*
X020991Y005370D01*
X021008Y005366D01*
X021025Y005364D01*
X022125Y005364D01*
X022142Y005366D01*
X022159Y005370D01*
X022175Y005377D01*
X022189Y005387D01*
X022202Y005400D01*
X022212Y005414D01*
X022219Y005430D01*
X022223Y005447D01*
X022225Y005464D01*
X022225Y006064D01*
X022223Y006081D01*
X022219Y006098D01*
X022212Y006114D01*
X022202Y006128D01*
X022189Y006141D01*
X022175Y006151D01*
X022159Y006158D01*
X022142Y006162D01*
X022125Y006164D01*
D15*
X022125Y006239D02*
X022200Y006314D01*
X022125Y006239D02*
X021974Y006239D01*
X021899Y006314D01*
X021899Y006389D01*
X021974Y006465D01*
X022125Y006465D01*
X022200Y006540D01*
X022200Y006615D01*
X022125Y006690D01*
X021974Y006690D01*
X021899Y006615D01*
X021589Y006690D02*
X021439Y006690D01*
X021514Y006690D02*
X021514Y006314D01*
X021589Y006239D01*
X021664Y006239D01*
X021739Y006314D01*
X021279Y006314D02*
X021204Y006239D01*
X021054Y006239D01*
X020979Y006314D01*
X020979Y006465D01*
X021054Y006540D01*
X021129Y006540D01*
X021279Y006465D01*
X021279Y006690D01*
X020979Y006690D01*
X034125Y020514D02*
X034050Y020589D01*
X034050Y020740D01*
X034125Y020815D01*
X034200Y020815D01*
X034275Y020740D01*
X034275Y020589D01*
X034350Y020514D01*
X034425Y020514D01*
X034500Y020589D01*
X034500Y020740D01*
X034425Y020815D01*
X034500Y021125D02*
X034500Y021275D01*
X034500Y021200D02*
X034125Y021200D01*
X034050Y021125D01*
X034050Y021050D01*
X034125Y020975D01*
X034050Y021435D02*
X034050Y021735D01*
X034050Y021585D02*
X034500Y021585D01*
X034350Y021435D01*
X027600Y024008D02*
X027525Y023933D01*
X027450Y023933D01*
X027375Y024008D01*
X027375Y024158D01*
X027300Y024233D01*
X027225Y024233D01*
X027150Y024158D01*
X027150Y024008D01*
X027225Y023933D01*
X027600Y024008D02*
X027600Y024158D01*
X027525Y024233D01*
X027600Y024544D02*
X027600Y024694D01*
X027600Y024619D02*
X027225Y024619D01*
X027150Y024544D01*
X027150Y024469D01*
X027225Y024394D01*
X027375Y024854D02*
X027375Y025154D01*
X027600Y025079D02*
X027375Y024854D01*
X027150Y025079D02*
X027600Y025079D01*
D16*
X036806Y017340D02*
X037593Y017340D01*
X037200Y016938D01*
X036806Y017340D01*
M02*
