%
M48
M72
T01C0.0120
T02C0.0315
T03C0.0320
T04C0.0354
T05C0.0362
T06C0.0374
T07C0.0394
T08C0.0400
T09C0.0433
T10C0.0472
T11C0.0787
T12C0.0906
T13C0.0945
T14C0.1260
%
T01
X2075Y17389
X18575Y20014
X4450Y2514
X3325Y3889
X2825Y6389
X5075Y5764
X6325Y6264
X11575Y12514
X11200Y14014
X6575Y16264
X5575Y17139
X4450Y18014
X3450Y28639
X2200Y29139
X2450Y27264
X18200Y20389
X19325Y17139
X12950Y13639
X14200Y13639
X15075Y14139
X22825Y30139
X6325Y33889
X5075Y35014
X3575Y36264
X2200Y36264
X2200Y33139
X4700Y33139
X10825Y25014
X11200Y30639
X11200Y29889
X11575Y29389
X11950Y29889
X11950Y30639
X12700Y29639
X12700Y29139
X14700Y27264
X18075Y24389
X20575Y31264
X11075Y38514
X16075Y29889
X13450Y26639
X16075Y31389
X17200Y32889
X22825Y31639
X18200Y38514
X19825Y26889
X19075Y29889
X19075Y31389
X17575Y29889
X14700Y6139
X14075Y5264
X33825Y7264
X33825Y10014
X34075Y8639
X22825Y19889
X18075Y22764
X17575Y20139
X33325Y10014
X13575Y5514
X12450Y9014
X13575Y9764
X14325Y8764
X16325Y9264
X15075Y15014
X14700Y15014
X14325Y15014
X12950Y14514
X10825Y22389
X10825Y23639
X17325Y20389
X17325Y19889
X21450Y14889
X25825Y10764
X19700Y8014
X19825Y6389
X21825Y2389
X9700Y2389
X34325Y7639
X15825Y2264
X16200Y6764
X15450Y6139
X12325Y10389
X23450Y9764
X32825Y10014
X25700Y5139
X26450Y1139
X32700Y5389
X26700Y8139
X26325Y7764
X21950Y9764
X25325Y10764
X22950Y23264
X22450Y22389
X20575Y19264
X23075Y18514
X21450Y16639
X23575Y18889
X24825Y12514
X23200Y13139
X23075Y12014
X26075Y9764
X25825Y9514
X22700Y9514
X26075Y15639
X30700Y25014
X31825Y23139
X31825Y23889
X28575Y24514
X28575Y23639
X28575Y22889
X30700Y21889
X28575Y21764
X28575Y25014
X29075Y24514
X29075Y25014
X28075Y25639
X33575Y22389
X29950Y25014
X31700Y30139
X25450Y29389
X23950Y27014
X22950Y26014
X20075Y24389
X16200Y25889
X11700Y18639
X13075Y15514
X13075Y15139
X14325Y14639
X14325Y15764
X14700Y16139
X13450Y15889
X13450Y16264
X13075Y16264
X13075Y15889
X15200Y17889
X14825Y17264
X14200Y17389
X13825Y17389
X13450Y17389
X13075Y17389
X13075Y17014
X13075Y16639
X13450Y16639
X13450Y17014
X13825Y17014
X13825Y16639
X13825Y16264
X14200Y16639
X14200Y17014
X16950Y17264
X19200Y16389
X25075Y15889
X26075Y28764
X26575Y31264
X26825Y28764
X25075Y26139
X25575Y22014
X27575Y19139
X28700Y14639
X28450Y17514
X28450Y14889
X28200Y11639
X29200Y16639
X29200Y18389
X30200Y17639
X29950Y18639
X29950Y17139
X32325Y17639
X32325Y19514
X34325Y22014
X32450Y21514
X31825Y21764
X31325Y21764
X31450Y19014
X31325Y16764
X31325Y17264
X34575Y13514
X34575Y7139
X25950Y7514
X32825Y12014
X29950Y21889
X29075Y21764
X29075Y22264
X28575Y22264
X29825Y27264
X30575Y27264
X34200Y19014
X39575Y26264
X31325Y24514
X31825Y24514
X31825Y22264
X31325Y22264
X31325Y25014
X31825Y25014
X37325Y24514
X35075Y26639
X31200Y32139
X31325Y34264
X31325Y35014
X33325Y38514
X37325Y38514
X37325Y30139
X33325Y32139
X28075Y32639
X25825Y38514
X21950Y32889
X24825Y32389
X16950Y19889
X15700Y17889
X14575Y17764
X14200Y17764
X13825Y17764
X13450Y17764
X13075Y17764
X14700Y15764
X14700Y15389
X14325Y15389
X15075Y15389
X15075Y15764
X15075Y16139
X15450Y15764
X15450Y15389
X15450Y15014
X19200Y16764
X17075Y14639
X16825Y14389
X16575Y14139
X16200Y13889
X15950Y13639
X17825Y13014
X39575Y30514
X39575Y28389
X39575Y24264
X39575Y21639
X38450Y18139
X37825Y14764
X34825Y8889
X35075Y7889
X37200Y2014
X33325Y1014
X38575Y3389
X5325Y20389
T02
X9044Y35813
X9446Y36813
X10249Y36813
X5200Y25375
X4019Y27264
X17749Y36813
X11454Y35813
X10650Y35813
X11052Y36813
X11855Y36813
X18954Y35813
X16946Y36813
X16544Y35813
X17347Y35813
X18150Y35813
X18552Y36813
X19355Y36813
X26704Y35813
X34204Y35813
X32999Y36813
X32196Y36813
X31794Y35813
X32597Y35813
X33400Y35813
X34605Y36813
X33802Y36813
X25900Y35813
X25097Y35813
X24294Y35813
X24696Y36813
X25499Y36813
X27105Y36813
X26302Y36813
X9847Y35813
T03
X31325Y11264
X2325Y3764
X10700Y12514
X14700Y25639
X18575Y25639
X30325Y14264
X29325Y11264
X31325Y14264
X24950Y27514
X30325Y11264
X33325Y11264
X32325Y11264
X29325Y14264
X33325Y14264
X32325Y14264
T04
X8325Y21304
X8325Y23272
X8325Y22288
X8325Y25241
X8325Y24256
X8325Y26225
X21598Y24139
X22583Y24139
X7231Y35813
X27551Y13889
X21598Y20889
X22583Y20889
X23567Y20889
X24551Y20889
X25583Y13889
X24598Y13889
X21168Y35813
X14731Y35813
X13668Y35813
X22481Y35813
X26567Y17139
X27551Y17139
X25583Y17139
X24598Y17139
X24551Y24139
X23567Y24139
X29981Y35813
X28918Y35813
X36418Y35813
X26567Y13889
T05
X34470Y17381
X34470Y16397
X35258Y16397
X35258Y17381
T06
X35133Y22996
X35133Y23783
X35133Y24767
X35133Y31517
X35133Y29746
X35133Y30533
X35133Y28761
X35133Y22011
T07
X2325Y7514
X2325Y10514
X2325Y11514
X2325Y12514
X2325Y9514
X2325Y8514
X3325Y9514
X3325Y7514
X3325Y8514
X3325Y10514
X3325Y11514
X2325Y13514
X2325Y14514
X3325Y14514
X3325Y13514
X3325Y12514
X30200Y7020
X6381Y27264
X12700Y22639
X13700Y23639
X16700Y22639
X16700Y23639
X38075Y5264
X14700Y23639
X14700Y22639
X15700Y22639
X15700Y23639
X29412Y7020
X28625Y7020
X13700Y22639
X30987Y7020
X31774Y7020
X12700Y23639
X38075Y8264
X38075Y10264
X39075Y9264
X39075Y11264
X38075Y11264
X39075Y10264
X39075Y7264
X39075Y8264
X38075Y7264
X38075Y6264
X39075Y5264
X39075Y6264
X38075Y9264
T08
X5200Y38514
X5200Y37514
X23325Y7014
X5685Y1359
X7465Y1359
X5685Y3919
X2170Y19264
X8685Y5609
X8685Y8169
X7450Y32389
X7450Y31389
X23325Y6014
X36075Y13139
X35450Y2389
X10465Y5609
X10465Y8169
X24325Y7014
X24325Y6014
X24325Y8014
X23325Y8014
X22935Y3919
X22935Y1359
X13215Y3919
X13215Y1359
X11435Y1359
X11435Y3919
X18965Y3919
X18965Y1359
X17185Y1359
X17185Y3919
X35450Y1389
X24715Y3919
X24715Y1359
X35450Y5389
X27950Y28514
X31950Y28514
X28950Y28514
X30950Y28514
X29950Y28514
X38200Y35764
X39200Y35764
X36075Y12139
X35450Y4389
X35450Y3389
X35450Y6389
X4730Y19264
X7465Y3919
T09
X3575Y23264
X4575Y23264
X5575Y23264
X1575Y23264
X2575Y23264
X29215Y1312
X30200Y1312
X31184Y1312
T10
X3450Y31389
X3450Y34389
T11
X27995Y4264
X32404Y4264
T12
X36200Y32726
X36200Y27553
X36200Y25976
X36200Y20803
X36325Y14519
X36325Y19259
T13
X7546Y37718
X13353Y37718
X15046Y37718
X20853Y37718
X22796Y37718
X28603Y37718
X30296Y37718
X36103Y37718
T14
X2524Y1714
X38745Y1714
X2524Y37935
X38745Y37935
M30
