G75*
G70*
%OFA0B0*%
%FSLAX24Y24*%
%IPPOS*%
%LPD*%
%AMOC8*
5,1,8,0,0,1.08239X$1,22.5*
%
%ADD10C,0.0000*%
%ADD11C,0.0600*%
%ADD12C,0.0480*%
%ADD13R,0.0413X0.0425*%
%ADD14R,0.0236X0.0512*%
%ADD15C,0.0472*%
%ADD16C,0.0543*%
%ADD17C,0.1000*%
%ADD18OC8,0.0591*%
%ADD19R,0.0433X0.0512*%
%ADD20OC8,0.0660*%
%ADD21R,0.1378X0.1378*%
%ADD22R,0.0512X0.0236*%
%ADD23R,0.0394X0.0551*%
%ADD24OC8,0.0600*%
%ADD25OC8,0.1000*%
%ADD26R,0.0276X0.0354*%
%ADD27R,0.0551X0.0709*%
%ADD28C,0.1000*%
%ADD29C,0.0650*%
%ADD30C,0.0660*%
%ADD31C,0.0531*%
%ADD32C,0.0400*%
%ADD33C,0.0500*%
%ADD34C,0.0320*%
%ADD35C,0.0356*%
%ADD36C,0.0240*%
%ADD37C,0.0160*%
%ADD38C,0.0120*%
%ADD39OC8,0.0356*%
%ADD40C,0.0560*%
D10*
X000825Y000180D02*
X000825Y039550D01*
X040195Y039550D01*
X040195Y000180D01*
X000825Y000180D01*
X001769Y001755D02*
X001771Y001805D01*
X001777Y001855D01*
X001787Y001904D01*
X001801Y001952D01*
X001818Y001999D01*
X001839Y002044D01*
X001864Y002088D01*
X001892Y002129D01*
X001924Y002168D01*
X001958Y002205D01*
X001995Y002239D01*
X002035Y002269D01*
X002077Y002296D01*
X002121Y002320D01*
X002167Y002341D01*
X002214Y002357D01*
X002262Y002370D01*
X002312Y002379D01*
X002361Y002384D01*
X002412Y002385D01*
X002462Y002382D01*
X002511Y002375D01*
X002560Y002364D01*
X002608Y002349D01*
X002654Y002331D01*
X002699Y002309D01*
X002742Y002283D01*
X002783Y002254D01*
X002822Y002222D01*
X002858Y002187D01*
X002890Y002149D01*
X002920Y002109D01*
X002947Y002066D01*
X002970Y002022D01*
X002989Y001976D01*
X003005Y001928D01*
X003017Y001879D01*
X003025Y001830D01*
X003029Y001780D01*
X003029Y001730D01*
X003025Y001680D01*
X003017Y001631D01*
X003005Y001582D01*
X002989Y001534D01*
X002970Y001488D01*
X002947Y001444D01*
X002920Y001401D01*
X002890Y001361D01*
X002858Y001323D01*
X002822Y001288D01*
X002783Y001256D01*
X002742Y001227D01*
X002699Y001201D01*
X002654Y001179D01*
X002608Y001161D01*
X002560Y001146D01*
X002511Y001135D01*
X002462Y001128D01*
X002412Y001125D01*
X002361Y001126D01*
X002312Y001131D01*
X002262Y001140D01*
X002214Y001153D01*
X002167Y001169D01*
X002121Y001190D01*
X002077Y001214D01*
X002035Y001241D01*
X001995Y001271D01*
X001958Y001305D01*
X001924Y001342D01*
X001892Y001381D01*
X001864Y001422D01*
X001839Y001466D01*
X001818Y001511D01*
X001801Y001558D01*
X001787Y001606D01*
X001777Y001655D01*
X001771Y001705D01*
X001769Y001755D01*
X005429Y035853D02*
X005431Y035879D01*
X005437Y035905D01*
X005447Y035930D01*
X005460Y035953D01*
X005476Y035973D01*
X005496Y035991D01*
X005518Y036006D01*
X005541Y036018D01*
X005567Y036026D01*
X005593Y036030D01*
X005619Y036030D01*
X005645Y036026D01*
X005671Y036018D01*
X005695Y036006D01*
X005716Y035991D01*
X005736Y035973D01*
X005752Y035953D01*
X005765Y035930D01*
X005775Y035905D01*
X005781Y035879D01*
X005783Y035853D01*
X005781Y035827D01*
X005775Y035801D01*
X005765Y035776D01*
X005752Y035753D01*
X005736Y035733D01*
X005716Y035715D01*
X005694Y035700D01*
X005671Y035688D01*
X005645Y035680D01*
X005619Y035676D01*
X005593Y035676D01*
X005567Y035680D01*
X005541Y035688D01*
X005517Y035700D01*
X005496Y035715D01*
X005476Y035733D01*
X005460Y035753D01*
X005447Y035776D01*
X005437Y035801D01*
X005431Y035827D01*
X005429Y035853D01*
X005449Y037759D02*
X005451Y037802D01*
X005457Y037844D01*
X005467Y037886D01*
X005480Y037927D01*
X005497Y037967D01*
X005518Y038004D01*
X005542Y038040D01*
X005569Y038073D01*
X005599Y038104D01*
X005632Y038132D01*
X005667Y038157D01*
X005704Y038178D01*
X005743Y038196D01*
X005783Y038210D01*
X005825Y038221D01*
X005867Y038228D01*
X005910Y038231D01*
X005953Y038230D01*
X005996Y038225D01*
X006038Y038216D01*
X006079Y038204D01*
X006119Y038188D01*
X006157Y038168D01*
X006193Y038145D01*
X006227Y038118D01*
X006259Y038089D01*
X006287Y038057D01*
X006313Y038022D01*
X006335Y037986D01*
X006354Y037947D01*
X006369Y037907D01*
X006381Y037866D01*
X006389Y037823D01*
X006393Y037780D01*
X006393Y037738D01*
X006389Y037695D01*
X006381Y037652D01*
X006369Y037611D01*
X006354Y037571D01*
X006335Y037532D01*
X006313Y037496D01*
X006287Y037461D01*
X006259Y037429D01*
X006227Y037400D01*
X006193Y037373D01*
X006157Y037350D01*
X006119Y037330D01*
X006079Y037314D01*
X006038Y037302D01*
X005996Y037293D01*
X005953Y037288D01*
X005910Y037287D01*
X005867Y037290D01*
X005825Y037297D01*
X005783Y037308D01*
X005743Y037322D01*
X005704Y037340D01*
X005667Y037361D01*
X005632Y037386D01*
X005599Y037414D01*
X005569Y037445D01*
X005542Y037478D01*
X005518Y037514D01*
X005497Y037551D01*
X005480Y037591D01*
X005467Y037632D01*
X005457Y037674D01*
X005451Y037716D01*
X005449Y037759D01*
X001769Y037975D02*
X001771Y038025D01*
X001777Y038075D01*
X001787Y038124D01*
X001801Y038172D01*
X001818Y038219D01*
X001839Y038264D01*
X001864Y038308D01*
X001892Y038349D01*
X001924Y038388D01*
X001958Y038425D01*
X001995Y038459D01*
X002035Y038489D01*
X002077Y038516D01*
X002121Y038540D01*
X002167Y038561D01*
X002214Y038577D01*
X002262Y038590D01*
X002312Y038599D01*
X002361Y038604D01*
X002412Y038605D01*
X002462Y038602D01*
X002511Y038595D01*
X002560Y038584D01*
X002608Y038569D01*
X002654Y038551D01*
X002699Y038529D01*
X002742Y038503D01*
X002783Y038474D01*
X002822Y038442D01*
X002858Y038407D01*
X002890Y038369D01*
X002920Y038329D01*
X002947Y038286D01*
X002970Y038242D01*
X002989Y038196D01*
X003005Y038148D01*
X003017Y038099D01*
X003025Y038050D01*
X003029Y038000D01*
X003029Y037950D01*
X003025Y037900D01*
X003017Y037851D01*
X003005Y037802D01*
X002989Y037754D01*
X002970Y037708D01*
X002947Y037664D01*
X002920Y037621D01*
X002890Y037581D01*
X002858Y037543D01*
X002822Y037508D01*
X002783Y037476D01*
X002742Y037447D01*
X002699Y037421D01*
X002654Y037399D01*
X002608Y037381D01*
X002560Y037366D01*
X002511Y037355D01*
X002462Y037348D01*
X002412Y037345D01*
X002361Y037346D01*
X002312Y037351D01*
X002262Y037360D01*
X002214Y037373D01*
X002167Y037389D01*
X002121Y037410D01*
X002077Y037434D01*
X002035Y037461D01*
X001995Y037491D01*
X001958Y037525D01*
X001924Y037562D01*
X001892Y037601D01*
X001864Y037642D01*
X001839Y037686D01*
X001818Y037731D01*
X001801Y037778D01*
X001787Y037826D01*
X001777Y037875D01*
X001771Y037925D01*
X001769Y037975D01*
X011256Y037759D02*
X011258Y037802D01*
X011264Y037844D01*
X011274Y037886D01*
X011287Y037927D01*
X011304Y037967D01*
X011325Y038004D01*
X011349Y038040D01*
X011376Y038073D01*
X011406Y038104D01*
X011439Y038132D01*
X011474Y038157D01*
X011511Y038178D01*
X011550Y038196D01*
X011590Y038210D01*
X011632Y038221D01*
X011674Y038228D01*
X011717Y038231D01*
X011760Y038230D01*
X011803Y038225D01*
X011845Y038216D01*
X011886Y038204D01*
X011926Y038188D01*
X011964Y038168D01*
X012000Y038145D01*
X012034Y038118D01*
X012066Y038089D01*
X012094Y038057D01*
X012120Y038022D01*
X012142Y037986D01*
X012161Y037947D01*
X012176Y037907D01*
X012188Y037866D01*
X012196Y037823D01*
X012200Y037780D01*
X012200Y037738D01*
X012196Y037695D01*
X012188Y037652D01*
X012176Y037611D01*
X012161Y037571D01*
X012142Y037532D01*
X012120Y037496D01*
X012094Y037461D01*
X012066Y037429D01*
X012034Y037400D01*
X012000Y037373D01*
X011964Y037350D01*
X011926Y037330D01*
X011886Y037314D01*
X011845Y037302D01*
X011803Y037293D01*
X011760Y037288D01*
X011717Y037287D01*
X011674Y037290D01*
X011632Y037297D01*
X011590Y037308D01*
X011550Y037322D01*
X011511Y037340D01*
X011474Y037361D01*
X011439Y037386D01*
X011406Y037414D01*
X011376Y037445D01*
X011349Y037478D01*
X011325Y037514D01*
X011304Y037551D01*
X011287Y037591D01*
X011274Y037632D01*
X011264Y037674D01*
X011258Y037716D01*
X011256Y037759D01*
X011866Y035853D02*
X011868Y035879D01*
X011874Y035905D01*
X011884Y035930D01*
X011897Y035953D01*
X011913Y035973D01*
X011933Y035991D01*
X011955Y036006D01*
X011978Y036018D01*
X012004Y036026D01*
X012030Y036030D01*
X012056Y036030D01*
X012082Y036026D01*
X012108Y036018D01*
X012132Y036006D01*
X012153Y035991D01*
X012173Y035973D01*
X012189Y035953D01*
X012202Y035930D01*
X012212Y035905D01*
X012218Y035879D01*
X012220Y035853D01*
X012218Y035827D01*
X012212Y035801D01*
X012202Y035776D01*
X012189Y035753D01*
X012173Y035733D01*
X012153Y035715D01*
X012131Y035700D01*
X012108Y035688D01*
X012082Y035680D01*
X012056Y035676D01*
X012030Y035676D01*
X012004Y035680D01*
X011978Y035688D01*
X011954Y035700D01*
X011933Y035715D01*
X011913Y035733D01*
X011897Y035753D01*
X011884Y035776D01*
X011874Y035801D01*
X011868Y035827D01*
X011866Y035853D01*
X012929Y035853D02*
X012931Y035879D01*
X012937Y035905D01*
X012947Y035930D01*
X012960Y035953D01*
X012976Y035973D01*
X012996Y035991D01*
X013018Y036006D01*
X013041Y036018D01*
X013067Y036026D01*
X013093Y036030D01*
X013119Y036030D01*
X013145Y036026D01*
X013171Y036018D01*
X013195Y036006D01*
X013216Y035991D01*
X013236Y035973D01*
X013252Y035953D01*
X013265Y035930D01*
X013275Y035905D01*
X013281Y035879D01*
X013283Y035853D01*
X013281Y035827D01*
X013275Y035801D01*
X013265Y035776D01*
X013252Y035753D01*
X013236Y035733D01*
X013216Y035715D01*
X013194Y035700D01*
X013171Y035688D01*
X013145Y035680D01*
X013119Y035676D01*
X013093Y035676D01*
X013067Y035680D01*
X013041Y035688D01*
X013017Y035700D01*
X012996Y035715D01*
X012976Y035733D01*
X012960Y035753D01*
X012947Y035776D01*
X012937Y035801D01*
X012931Y035827D01*
X012929Y035853D01*
X012949Y037759D02*
X012951Y037802D01*
X012957Y037844D01*
X012967Y037886D01*
X012980Y037927D01*
X012997Y037967D01*
X013018Y038004D01*
X013042Y038040D01*
X013069Y038073D01*
X013099Y038104D01*
X013132Y038132D01*
X013167Y038157D01*
X013204Y038178D01*
X013243Y038196D01*
X013283Y038210D01*
X013325Y038221D01*
X013367Y038228D01*
X013410Y038231D01*
X013453Y038230D01*
X013496Y038225D01*
X013538Y038216D01*
X013579Y038204D01*
X013619Y038188D01*
X013657Y038168D01*
X013693Y038145D01*
X013727Y038118D01*
X013759Y038089D01*
X013787Y038057D01*
X013813Y038022D01*
X013835Y037986D01*
X013854Y037947D01*
X013869Y037907D01*
X013881Y037866D01*
X013889Y037823D01*
X013893Y037780D01*
X013893Y037738D01*
X013889Y037695D01*
X013881Y037652D01*
X013869Y037611D01*
X013854Y037571D01*
X013835Y037532D01*
X013813Y037496D01*
X013787Y037461D01*
X013759Y037429D01*
X013727Y037400D01*
X013693Y037373D01*
X013657Y037350D01*
X013619Y037330D01*
X013579Y037314D01*
X013538Y037302D01*
X013496Y037293D01*
X013453Y037288D01*
X013410Y037287D01*
X013367Y037290D01*
X013325Y037297D01*
X013283Y037308D01*
X013243Y037322D01*
X013204Y037340D01*
X013167Y037361D01*
X013132Y037386D01*
X013099Y037414D01*
X013069Y037445D01*
X013042Y037478D01*
X013018Y037514D01*
X012997Y037551D01*
X012980Y037591D01*
X012967Y037632D01*
X012957Y037674D01*
X012951Y037716D01*
X012949Y037759D01*
X018756Y037759D02*
X018758Y037802D01*
X018764Y037844D01*
X018774Y037886D01*
X018787Y037927D01*
X018804Y037967D01*
X018825Y038004D01*
X018849Y038040D01*
X018876Y038073D01*
X018906Y038104D01*
X018939Y038132D01*
X018974Y038157D01*
X019011Y038178D01*
X019050Y038196D01*
X019090Y038210D01*
X019132Y038221D01*
X019174Y038228D01*
X019217Y038231D01*
X019260Y038230D01*
X019303Y038225D01*
X019345Y038216D01*
X019386Y038204D01*
X019426Y038188D01*
X019464Y038168D01*
X019500Y038145D01*
X019534Y038118D01*
X019566Y038089D01*
X019594Y038057D01*
X019620Y038022D01*
X019642Y037986D01*
X019661Y037947D01*
X019676Y037907D01*
X019688Y037866D01*
X019696Y037823D01*
X019700Y037780D01*
X019700Y037738D01*
X019696Y037695D01*
X019688Y037652D01*
X019676Y037611D01*
X019661Y037571D01*
X019642Y037532D01*
X019620Y037496D01*
X019594Y037461D01*
X019566Y037429D01*
X019534Y037400D01*
X019500Y037373D01*
X019464Y037350D01*
X019426Y037330D01*
X019386Y037314D01*
X019345Y037302D01*
X019303Y037293D01*
X019260Y037288D01*
X019217Y037287D01*
X019174Y037290D01*
X019132Y037297D01*
X019090Y037308D01*
X019050Y037322D01*
X019011Y037340D01*
X018974Y037361D01*
X018939Y037386D01*
X018906Y037414D01*
X018876Y037445D01*
X018849Y037478D01*
X018825Y037514D01*
X018804Y037551D01*
X018787Y037591D01*
X018774Y037632D01*
X018764Y037674D01*
X018758Y037716D01*
X018756Y037759D01*
X019366Y035853D02*
X019368Y035879D01*
X019374Y035905D01*
X019384Y035930D01*
X019397Y035953D01*
X019413Y035973D01*
X019433Y035991D01*
X019455Y036006D01*
X019478Y036018D01*
X019504Y036026D01*
X019530Y036030D01*
X019556Y036030D01*
X019582Y036026D01*
X019608Y036018D01*
X019632Y036006D01*
X019653Y035991D01*
X019673Y035973D01*
X019689Y035953D01*
X019702Y035930D01*
X019712Y035905D01*
X019718Y035879D01*
X019720Y035853D01*
X019718Y035827D01*
X019712Y035801D01*
X019702Y035776D01*
X019689Y035753D01*
X019673Y035733D01*
X019653Y035715D01*
X019631Y035700D01*
X019608Y035688D01*
X019582Y035680D01*
X019556Y035676D01*
X019530Y035676D01*
X019504Y035680D01*
X019478Y035688D01*
X019454Y035700D01*
X019433Y035715D01*
X019413Y035733D01*
X019397Y035753D01*
X019384Y035776D01*
X019374Y035801D01*
X019368Y035827D01*
X019366Y035853D01*
X021179Y035853D02*
X021181Y035879D01*
X021187Y035905D01*
X021197Y035930D01*
X021210Y035953D01*
X021226Y035973D01*
X021246Y035991D01*
X021268Y036006D01*
X021291Y036018D01*
X021317Y036026D01*
X021343Y036030D01*
X021369Y036030D01*
X021395Y036026D01*
X021421Y036018D01*
X021445Y036006D01*
X021466Y035991D01*
X021486Y035973D01*
X021502Y035953D01*
X021515Y035930D01*
X021525Y035905D01*
X021531Y035879D01*
X021533Y035853D01*
X021531Y035827D01*
X021525Y035801D01*
X021515Y035776D01*
X021502Y035753D01*
X021486Y035733D01*
X021466Y035715D01*
X021444Y035700D01*
X021421Y035688D01*
X021395Y035680D01*
X021369Y035676D01*
X021343Y035676D01*
X021317Y035680D01*
X021291Y035688D01*
X021267Y035700D01*
X021246Y035715D01*
X021226Y035733D01*
X021210Y035753D01*
X021197Y035776D01*
X021187Y035801D01*
X021181Y035827D01*
X021179Y035853D01*
X021199Y037759D02*
X021201Y037802D01*
X021207Y037844D01*
X021217Y037886D01*
X021230Y037927D01*
X021247Y037967D01*
X021268Y038004D01*
X021292Y038040D01*
X021319Y038073D01*
X021349Y038104D01*
X021382Y038132D01*
X021417Y038157D01*
X021454Y038178D01*
X021493Y038196D01*
X021533Y038210D01*
X021575Y038221D01*
X021617Y038228D01*
X021660Y038231D01*
X021703Y038230D01*
X021746Y038225D01*
X021788Y038216D01*
X021829Y038204D01*
X021869Y038188D01*
X021907Y038168D01*
X021943Y038145D01*
X021977Y038118D01*
X022009Y038089D01*
X022037Y038057D01*
X022063Y038022D01*
X022085Y037986D01*
X022104Y037947D01*
X022119Y037907D01*
X022131Y037866D01*
X022139Y037823D01*
X022143Y037780D01*
X022143Y037738D01*
X022139Y037695D01*
X022131Y037652D01*
X022119Y037611D01*
X022104Y037571D01*
X022085Y037532D01*
X022063Y037496D01*
X022037Y037461D01*
X022009Y037429D01*
X021977Y037400D01*
X021943Y037373D01*
X021907Y037350D01*
X021869Y037330D01*
X021829Y037314D01*
X021788Y037302D01*
X021746Y037293D01*
X021703Y037288D01*
X021660Y037287D01*
X021617Y037290D01*
X021575Y037297D01*
X021533Y037308D01*
X021493Y037322D01*
X021454Y037340D01*
X021417Y037361D01*
X021382Y037386D01*
X021349Y037414D01*
X021319Y037445D01*
X021292Y037478D01*
X021268Y037514D01*
X021247Y037551D01*
X021230Y037591D01*
X021217Y037632D01*
X021207Y037674D01*
X021201Y037716D01*
X021199Y037759D01*
X027006Y037759D02*
X027008Y037802D01*
X027014Y037844D01*
X027024Y037886D01*
X027037Y037927D01*
X027054Y037967D01*
X027075Y038004D01*
X027099Y038040D01*
X027126Y038073D01*
X027156Y038104D01*
X027189Y038132D01*
X027224Y038157D01*
X027261Y038178D01*
X027300Y038196D01*
X027340Y038210D01*
X027382Y038221D01*
X027424Y038228D01*
X027467Y038231D01*
X027510Y038230D01*
X027553Y038225D01*
X027595Y038216D01*
X027636Y038204D01*
X027676Y038188D01*
X027714Y038168D01*
X027750Y038145D01*
X027784Y038118D01*
X027816Y038089D01*
X027844Y038057D01*
X027870Y038022D01*
X027892Y037986D01*
X027911Y037947D01*
X027926Y037907D01*
X027938Y037866D01*
X027946Y037823D01*
X027950Y037780D01*
X027950Y037738D01*
X027946Y037695D01*
X027938Y037652D01*
X027926Y037611D01*
X027911Y037571D01*
X027892Y037532D01*
X027870Y037496D01*
X027844Y037461D01*
X027816Y037429D01*
X027784Y037400D01*
X027750Y037373D01*
X027714Y037350D01*
X027676Y037330D01*
X027636Y037314D01*
X027595Y037302D01*
X027553Y037293D01*
X027510Y037288D01*
X027467Y037287D01*
X027424Y037290D01*
X027382Y037297D01*
X027340Y037308D01*
X027300Y037322D01*
X027261Y037340D01*
X027224Y037361D01*
X027189Y037386D01*
X027156Y037414D01*
X027126Y037445D01*
X027099Y037478D01*
X027075Y037514D01*
X027054Y037551D01*
X027037Y037591D01*
X027024Y037632D01*
X027014Y037674D01*
X027008Y037716D01*
X027006Y037759D01*
X027616Y035853D02*
X027618Y035879D01*
X027624Y035905D01*
X027634Y035930D01*
X027647Y035953D01*
X027663Y035973D01*
X027683Y035991D01*
X027705Y036006D01*
X027728Y036018D01*
X027754Y036026D01*
X027780Y036030D01*
X027806Y036030D01*
X027832Y036026D01*
X027858Y036018D01*
X027882Y036006D01*
X027903Y035991D01*
X027923Y035973D01*
X027939Y035953D01*
X027952Y035930D01*
X027962Y035905D01*
X027968Y035879D01*
X027970Y035853D01*
X027968Y035827D01*
X027962Y035801D01*
X027952Y035776D01*
X027939Y035753D01*
X027923Y035733D01*
X027903Y035715D01*
X027881Y035700D01*
X027858Y035688D01*
X027832Y035680D01*
X027806Y035676D01*
X027780Y035676D01*
X027754Y035680D01*
X027728Y035688D01*
X027704Y035700D01*
X027683Y035715D01*
X027663Y035733D01*
X027647Y035753D01*
X027634Y035776D01*
X027624Y035801D01*
X027618Y035827D01*
X027616Y035853D01*
X028679Y035853D02*
X028681Y035879D01*
X028687Y035905D01*
X028697Y035930D01*
X028710Y035953D01*
X028726Y035973D01*
X028746Y035991D01*
X028768Y036006D01*
X028791Y036018D01*
X028817Y036026D01*
X028843Y036030D01*
X028869Y036030D01*
X028895Y036026D01*
X028921Y036018D01*
X028945Y036006D01*
X028966Y035991D01*
X028986Y035973D01*
X029002Y035953D01*
X029015Y035930D01*
X029025Y035905D01*
X029031Y035879D01*
X029033Y035853D01*
X029031Y035827D01*
X029025Y035801D01*
X029015Y035776D01*
X029002Y035753D01*
X028986Y035733D01*
X028966Y035715D01*
X028944Y035700D01*
X028921Y035688D01*
X028895Y035680D01*
X028869Y035676D01*
X028843Y035676D01*
X028817Y035680D01*
X028791Y035688D01*
X028767Y035700D01*
X028746Y035715D01*
X028726Y035733D01*
X028710Y035753D01*
X028697Y035776D01*
X028687Y035801D01*
X028681Y035827D01*
X028679Y035853D01*
X028699Y037759D02*
X028701Y037802D01*
X028707Y037844D01*
X028717Y037886D01*
X028730Y037927D01*
X028747Y037967D01*
X028768Y038004D01*
X028792Y038040D01*
X028819Y038073D01*
X028849Y038104D01*
X028882Y038132D01*
X028917Y038157D01*
X028954Y038178D01*
X028993Y038196D01*
X029033Y038210D01*
X029075Y038221D01*
X029117Y038228D01*
X029160Y038231D01*
X029203Y038230D01*
X029246Y038225D01*
X029288Y038216D01*
X029329Y038204D01*
X029369Y038188D01*
X029407Y038168D01*
X029443Y038145D01*
X029477Y038118D01*
X029509Y038089D01*
X029537Y038057D01*
X029563Y038022D01*
X029585Y037986D01*
X029604Y037947D01*
X029619Y037907D01*
X029631Y037866D01*
X029639Y037823D01*
X029643Y037780D01*
X029643Y037738D01*
X029639Y037695D01*
X029631Y037652D01*
X029619Y037611D01*
X029604Y037571D01*
X029585Y037532D01*
X029563Y037496D01*
X029537Y037461D01*
X029509Y037429D01*
X029477Y037400D01*
X029443Y037373D01*
X029407Y037350D01*
X029369Y037330D01*
X029329Y037314D01*
X029288Y037302D01*
X029246Y037293D01*
X029203Y037288D01*
X029160Y037287D01*
X029117Y037290D01*
X029075Y037297D01*
X029033Y037308D01*
X028993Y037322D01*
X028954Y037340D01*
X028917Y037361D01*
X028882Y037386D01*
X028849Y037414D01*
X028819Y037445D01*
X028792Y037478D01*
X028768Y037514D01*
X028747Y037551D01*
X028730Y037591D01*
X028717Y037632D01*
X028707Y037674D01*
X028701Y037716D01*
X028699Y037759D01*
X034506Y037759D02*
X034508Y037802D01*
X034514Y037844D01*
X034524Y037886D01*
X034537Y037927D01*
X034554Y037967D01*
X034575Y038004D01*
X034599Y038040D01*
X034626Y038073D01*
X034656Y038104D01*
X034689Y038132D01*
X034724Y038157D01*
X034761Y038178D01*
X034800Y038196D01*
X034840Y038210D01*
X034882Y038221D01*
X034924Y038228D01*
X034967Y038231D01*
X035010Y038230D01*
X035053Y038225D01*
X035095Y038216D01*
X035136Y038204D01*
X035176Y038188D01*
X035214Y038168D01*
X035250Y038145D01*
X035284Y038118D01*
X035316Y038089D01*
X035344Y038057D01*
X035370Y038022D01*
X035392Y037986D01*
X035411Y037947D01*
X035426Y037907D01*
X035438Y037866D01*
X035446Y037823D01*
X035450Y037780D01*
X035450Y037738D01*
X035446Y037695D01*
X035438Y037652D01*
X035426Y037611D01*
X035411Y037571D01*
X035392Y037532D01*
X035370Y037496D01*
X035344Y037461D01*
X035316Y037429D01*
X035284Y037400D01*
X035250Y037373D01*
X035214Y037350D01*
X035176Y037330D01*
X035136Y037314D01*
X035095Y037302D01*
X035053Y037293D01*
X035010Y037288D01*
X034967Y037287D01*
X034924Y037290D01*
X034882Y037297D01*
X034840Y037308D01*
X034800Y037322D01*
X034761Y037340D01*
X034724Y037361D01*
X034689Y037386D01*
X034656Y037414D01*
X034626Y037445D01*
X034599Y037478D01*
X034575Y037514D01*
X034554Y037551D01*
X034537Y037591D01*
X034524Y037632D01*
X034514Y037674D01*
X034508Y037716D01*
X034506Y037759D01*
X035116Y035853D02*
X035118Y035879D01*
X035124Y035905D01*
X035134Y035930D01*
X035147Y035953D01*
X035163Y035973D01*
X035183Y035991D01*
X035205Y036006D01*
X035228Y036018D01*
X035254Y036026D01*
X035280Y036030D01*
X035306Y036030D01*
X035332Y036026D01*
X035358Y036018D01*
X035382Y036006D01*
X035403Y035991D01*
X035423Y035973D01*
X035439Y035953D01*
X035452Y035930D01*
X035462Y035905D01*
X035468Y035879D01*
X035470Y035853D01*
X035468Y035827D01*
X035462Y035801D01*
X035452Y035776D01*
X035439Y035753D01*
X035423Y035733D01*
X035403Y035715D01*
X035381Y035700D01*
X035358Y035688D01*
X035332Y035680D01*
X035306Y035676D01*
X035280Y035676D01*
X035254Y035680D01*
X035228Y035688D01*
X035204Y035700D01*
X035183Y035715D01*
X035163Y035733D01*
X035147Y035753D01*
X035134Y035776D01*
X035124Y035801D01*
X035118Y035827D01*
X035116Y035853D01*
X037990Y037975D02*
X037992Y038025D01*
X037998Y038075D01*
X038008Y038124D01*
X038022Y038172D01*
X038039Y038219D01*
X038060Y038264D01*
X038085Y038308D01*
X038113Y038349D01*
X038145Y038388D01*
X038179Y038425D01*
X038216Y038459D01*
X038256Y038489D01*
X038298Y038516D01*
X038342Y038540D01*
X038388Y038561D01*
X038435Y038577D01*
X038483Y038590D01*
X038533Y038599D01*
X038582Y038604D01*
X038633Y038605D01*
X038683Y038602D01*
X038732Y038595D01*
X038781Y038584D01*
X038829Y038569D01*
X038875Y038551D01*
X038920Y038529D01*
X038963Y038503D01*
X039004Y038474D01*
X039043Y038442D01*
X039079Y038407D01*
X039111Y038369D01*
X039141Y038329D01*
X039168Y038286D01*
X039191Y038242D01*
X039210Y038196D01*
X039226Y038148D01*
X039238Y038099D01*
X039246Y038050D01*
X039250Y038000D01*
X039250Y037950D01*
X039246Y037900D01*
X039238Y037851D01*
X039226Y037802D01*
X039210Y037754D01*
X039191Y037708D01*
X039168Y037664D01*
X039141Y037621D01*
X039111Y037581D01*
X039079Y037543D01*
X039043Y037508D01*
X039004Y037476D01*
X038963Y037447D01*
X038920Y037421D01*
X038875Y037399D01*
X038829Y037381D01*
X038781Y037366D01*
X038732Y037355D01*
X038683Y037348D01*
X038633Y037345D01*
X038582Y037346D01*
X038533Y037351D01*
X038483Y037360D01*
X038435Y037373D01*
X038388Y037389D01*
X038342Y037410D01*
X038298Y037434D01*
X038256Y037461D01*
X038216Y037491D01*
X038179Y037525D01*
X038145Y037562D01*
X038113Y037601D01*
X038085Y037642D01*
X038060Y037686D01*
X038039Y037731D01*
X038022Y037778D01*
X038008Y037826D01*
X037998Y037875D01*
X037992Y037925D01*
X037990Y037975D01*
X037990Y001755D02*
X037992Y001805D01*
X037998Y001855D01*
X038008Y001904D01*
X038022Y001952D01*
X038039Y001999D01*
X038060Y002044D01*
X038085Y002088D01*
X038113Y002129D01*
X038145Y002168D01*
X038179Y002205D01*
X038216Y002239D01*
X038256Y002269D01*
X038298Y002296D01*
X038342Y002320D01*
X038388Y002341D01*
X038435Y002357D01*
X038483Y002370D01*
X038533Y002379D01*
X038582Y002384D01*
X038633Y002385D01*
X038683Y002382D01*
X038732Y002375D01*
X038781Y002364D01*
X038829Y002349D01*
X038875Y002331D01*
X038920Y002309D01*
X038963Y002283D01*
X039004Y002254D01*
X039043Y002222D01*
X039079Y002187D01*
X039111Y002149D01*
X039141Y002109D01*
X039168Y002066D01*
X039191Y002022D01*
X039210Y001976D01*
X039226Y001928D01*
X039238Y001879D01*
X039246Y001830D01*
X039250Y001780D01*
X039250Y001730D01*
X039246Y001680D01*
X039238Y001631D01*
X039226Y001582D01*
X039210Y001534D01*
X039191Y001488D01*
X039168Y001444D01*
X039141Y001401D01*
X039111Y001361D01*
X039079Y001323D01*
X039043Y001288D01*
X039004Y001256D01*
X038963Y001227D01*
X038920Y001201D01*
X038875Y001179D01*
X038829Y001161D01*
X038781Y001146D01*
X038732Y001135D01*
X038683Y001128D01*
X038633Y001125D01*
X038582Y001126D01*
X038533Y001131D01*
X038483Y001140D01*
X038435Y001153D01*
X038388Y001169D01*
X038342Y001190D01*
X038298Y001214D01*
X038256Y001241D01*
X038216Y001271D01*
X038179Y001305D01*
X038145Y001342D01*
X038113Y001381D01*
X038085Y001422D01*
X038060Y001466D01*
X038039Y001511D01*
X038022Y001558D01*
X038008Y001606D01*
X037998Y001655D01*
X037992Y001705D01*
X037990Y001755D01*
D11*
X033500Y001805D02*
X032900Y001805D01*
X032900Y002805D02*
X033500Y002805D01*
X033500Y003805D02*
X032900Y003805D01*
X032900Y004805D02*
X033500Y004805D01*
X033500Y005805D02*
X032900Y005805D01*
X032900Y006805D02*
X033500Y006805D01*
X022090Y004260D02*
X022090Y003660D01*
X020310Y003660D02*
X020310Y004260D01*
X020310Y001700D02*
X020310Y001100D01*
X022090Y001100D02*
X022090Y001700D01*
X017715Y001700D02*
X017715Y001100D01*
X015935Y001100D02*
X015935Y001700D01*
X015935Y003660D02*
X015935Y004260D01*
X017715Y004260D02*
X017715Y003660D01*
X013340Y003660D02*
X013340Y004260D01*
X011560Y004260D02*
X011560Y003660D01*
X011560Y001700D02*
X011560Y001100D01*
X013340Y001100D02*
X013340Y001700D01*
X008965Y001700D02*
X008965Y001100D01*
X007185Y001100D02*
X007185Y001700D01*
X007185Y003660D02*
X007185Y004260D01*
X008965Y004260D02*
X008965Y003660D01*
X003715Y003700D02*
X003715Y003100D01*
X001935Y003100D02*
X001935Y003700D01*
X001935Y005660D02*
X001935Y006260D01*
X003715Y006260D02*
X003715Y005660D01*
X027950Y030255D02*
X027950Y030855D01*
X028950Y030855D02*
X028950Y030255D01*
X029950Y030255D02*
X029950Y030855D01*
X030950Y030855D02*
X030950Y030255D01*
X031950Y030255D02*
X031950Y030855D01*
X037525Y034555D02*
X038125Y034555D01*
X038125Y035555D02*
X037525Y035555D01*
X004000Y035680D02*
X003400Y035680D01*
X003400Y036680D02*
X004000Y036680D01*
D12*
X031710Y015430D02*
X032190Y015430D01*
X032190Y014430D02*
X031710Y014430D01*
X031710Y013430D02*
X032190Y013430D01*
X032190Y012430D02*
X031710Y012430D01*
X031710Y011430D02*
X032190Y011430D01*
X034710Y011430D02*
X035190Y011430D01*
X035190Y012430D02*
X034710Y012430D01*
X034710Y013430D02*
X035190Y013430D01*
X035190Y014430D02*
X034710Y014430D01*
X034710Y015430D02*
X035190Y015430D01*
D13*
X033794Y015430D03*
X033105Y015430D03*
D14*
X033449Y013430D03*
X032701Y013430D03*
X032701Y012430D03*
X033449Y012430D03*
X036451Y010805D03*
X037199Y010805D03*
X037199Y009805D03*
X036451Y009805D03*
X036451Y008805D03*
X037199Y008805D03*
X036949Y006805D03*
X036201Y006805D03*
X036201Y005805D03*
X036949Y005805D03*
X026199Y014055D03*
X025451Y014055D03*
X025326Y016430D03*
X026074Y016430D03*
X026074Y017180D03*
X025326Y017180D03*
X025326Y019680D03*
X026074Y019680D03*
X035701Y030305D03*
X036449Y030305D03*
X036449Y031055D03*
X035701Y031055D03*
X036201Y035555D03*
X036949Y035555D03*
X004449Y034805D03*
X003701Y034805D03*
D15*
X007419Y035853D03*
X008222Y035853D03*
X009025Y035853D03*
X009829Y035853D03*
X010230Y036853D03*
X009427Y036853D03*
X008624Y036853D03*
X007821Y036853D03*
X014919Y035853D03*
X015722Y035853D03*
X016525Y035853D03*
X017329Y035853D03*
X017730Y036853D03*
X016927Y036853D03*
X016124Y036853D03*
X015321Y036853D03*
X023169Y035853D03*
X023972Y035853D03*
X024775Y035853D03*
X025579Y035853D03*
X025980Y036853D03*
X025177Y036853D03*
X024374Y036853D03*
X023571Y036853D03*
X030669Y035853D03*
X031472Y035853D03*
X032275Y035853D03*
X033079Y035853D03*
X033480Y036853D03*
X032677Y036853D03*
X031874Y036853D03*
X031071Y036853D03*
X018950Y022930D03*
X017200Y022680D03*
X007450Y016305D03*
X006950Y015805D03*
X007450Y015305D03*
X006950Y014805D03*
X007450Y014305D03*
X006950Y013805D03*
X007450Y013305D03*
X006950Y012805D03*
X007450Y012305D03*
X006950Y011805D03*
X007450Y011305D03*
X006950Y010805D03*
X007450Y010305D03*
X006950Y009805D03*
D16*
X034950Y022927D03*
X034950Y023911D03*
X034950Y024699D03*
X034950Y025683D03*
X034950Y029302D03*
X034950Y030286D03*
X034950Y031074D03*
X034950Y032058D03*
D17*
X036017Y033267D03*
X036017Y028093D03*
X036017Y026892D03*
X036017Y021718D03*
D18*
X025325Y026305D03*
X025325Y027305D03*
X024325Y027305D03*
X024325Y026305D03*
X023325Y026305D03*
X023325Y027305D03*
X022325Y027305D03*
X022325Y026305D03*
X021325Y026305D03*
X021325Y027305D03*
X037700Y010805D03*
X038700Y010805D03*
X038700Y009805D03*
X038700Y008805D03*
X038700Y007805D03*
X038700Y006805D03*
X038700Y005805D03*
X038700Y004805D03*
X037700Y004805D03*
X037700Y005805D03*
X037700Y006805D03*
X037700Y007805D03*
X037700Y008805D03*
X037700Y009805D03*
X029524Y007061D03*
X028737Y007061D03*
X027950Y007061D03*
X027162Y007061D03*
X026375Y007061D03*
X003325Y008805D03*
X003325Y009805D03*
X003325Y010805D03*
X003325Y011805D03*
X003325Y012805D03*
X003325Y013805D03*
X003325Y014805D03*
X003325Y015805D03*
X002325Y015805D03*
X002325Y014805D03*
X002325Y013805D03*
X002325Y012805D03*
X002325Y011805D03*
X002325Y010805D03*
X002325Y009805D03*
X002325Y008805D03*
D19*
X004326Y009805D03*
X005074Y009805D03*
X005701Y010305D03*
X006449Y010305D03*
X006449Y011305D03*
X005701Y011305D03*
X005074Y010805D03*
X004326Y010805D03*
X004326Y011805D03*
X005074Y011805D03*
X005701Y012305D03*
X006449Y012305D03*
X006449Y013305D03*
X005701Y013305D03*
X005074Y012805D03*
X004326Y012805D03*
X004326Y013805D03*
X005074Y013805D03*
X005701Y014305D03*
X005074Y014805D03*
X005701Y015305D03*
X005074Y015805D03*
X004326Y015805D03*
X004326Y014805D03*
X005701Y016305D03*
X006449Y016305D03*
X006449Y015305D03*
X006449Y014305D03*
X023576Y014805D03*
X024324Y014805D03*
X024324Y015680D03*
X023576Y015680D03*
X023576Y017930D03*
X024324Y017930D03*
X024324Y018805D03*
X023576Y018805D03*
X036076Y022930D03*
X036824Y022930D03*
D20*
X028934Y001352D03*
X027950Y001352D03*
X026965Y001352D03*
D21*
X025745Y004305D03*
X030154Y004305D03*
D22*
X028950Y002679D03*
X028950Y001931D03*
X026950Y001931D03*
X026950Y002679D03*
X026950Y007681D03*
X026950Y008429D03*
X027950Y008429D03*
X027950Y009056D03*
X027950Y009804D03*
X028950Y008429D03*
X028950Y007681D03*
X027950Y007681D03*
X025950Y009931D03*
X025950Y010679D03*
X023950Y010679D03*
X023950Y009931D03*
X024950Y008429D03*
X024950Y007681D03*
X021200Y002304D03*
X021200Y001556D03*
X016825Y001556D03*
X016825Y002304D03*
X012450Y002304D03*
X012450Y001556D03*
X008075Y001556D03*
X008075Y002304D03*
X039450Y005931D03*
X039450Y006679D03*
D23*
X029324Y009863D03*
X028576Y009863D03*
X028950Y008997D03*
X027324Y009863D03*
X026576Y009863D03*
X026950Y008997D03*
X025324Y009863D03*
X024576Y009863D03*
X024950Y008997D03*
D24*
X020825Y008180D03*
X020825Y007180D03*
X019825Y007180D03*
X019825Y008180D03*
X019825Y006180D03*
X020825Y006180D03*
D25*
X003325Y019900D03*
X003325Y022460D03*
D26*
X023694Y019680D03*
X024206Y019680D03*
X024206Y017180D03*
X023694Y017180D03*
X023694Y016430D03*
X024206Y016430D03*
X024206Y014055D03*
X023694Y014055D03*
D27*
X025155Y014805D03*
X025155Y015680D03*
X026494Y015680D03*
X026494Y014805D03*
X026494Y017930D03*
X026494Y018805D03*
X025155Y018805D03*
X025155Y017930D03*
D28*
X004075Y025805D02*
X003075Y025805D01*
X003075Y028805D02*
X004075Y028805D01*
D29*
X004575Y031855D02*
X004575Y032505D01*
X003575Y032505D02*
X003575Y031855D01*
X002575Y031855D02*
X002575Y032505D01*
D30*
X001575Y032180D03*
X005575Y032180D03*
D31*
X027348Y017930D03*
X028333Y017930D03*
X029317Y017930D03*
X030301Y017930D03*
X030301Y015055D03*
X029317Y015055D03*
X028333Y015055D03*
X027348Y015055D03*
D32*
X038325Y017930D02*
X038450Y017930D01*
X039450Y015055D02*
X039450Y027555D01*
X038447Y029302D02*
X038450Y029305D01*
X034950Y032058D02*
X034825Y032180D01*
X030581Y032180D01*
X030578Y032183D01*
X029950Y031555D01*
X029950Y030555D01*
X029950Y029055D01*
X030825Y028180D01*
X030950Y030305D02*
X030950Y030555D01*
X033079Y035853D02*
X033075Y035857D01*
X033075Y036853D01*
X032677Y036853D01*
X033075Y036853D02*
X033480Y036853D01*
X025579Y035853D02*
X025575Y035857D01*
X017329Y035853D02*
X017325Y035857D01*
X009829Y035853D02*
X009825Y035857D01*
X009825Y036805D02*
X009825Y036853D01*
X004326Y015805D02*
X003325Y015805D01*
X003325Y014805D02*
X004326Y014805D01*
X004326Y013805D02*
X003325Y013805D01*
X003325Y012805D02*
X004326Y012805D01*
X004326Y011805D02*
X003325Y011805D01*
X003325Y010805D02*
X004326Y010805D01*
X004326Y009805D02*
X003325Y009805D01*
X008075Y002555D02*
X008075Y002304D01*
X021200Y002555D02*
X025700Y002555D01*
X025825Y002680D01*
X026576Y002679D01*
X026950Y002679D01*
X028950Y002679D01*
X030201Y002679D01*
X031450Y001430D01*
X036450Y001680D02*
X038700Y003930D01*
X038700Y004805D01*
X039450Y014805D02*
X039450Y015055D01*
D33*
X038450Y012930D02*
X039450Y011930D01*
X039450Y008180D01*
X039075Y007805D01*
X038700Y007805D01*
X035325Y004055D02*
X035325Y002055D01*
X034575Y001055D01*
X031825Y001055D01*
X031450Y001430D01*
X035325Y004055D02*
X033575Y005805D01*
X033200Y005805D01*
X036325Y012930D02*
X038450Y012930D01*
X036325Y014430D02*
X035825Y014430D01*
X032950Y014430D02*
X031950Y014430D01*
X031950Y015430D01*
X029325Y015305D02*
X029325Y015063D01*
X029317Y015055D01*
X029317Y017930D01*
X029325Y018555D02*
X030575Y019805D01*
X029325Y018555D02*
X029325Y015305D01*
X026074Y019680D02*
X026074Y023054D01*
X026450Y023430D01*
X026450Y028055D01*
X026200Y028055D01*
X025075Y029180D01*
X026450Y028055D02*
X029575Y028055D01*
X030950Y030305D02*
X030950Y031055D01*
X031450Y031555D01*
X033700Y031555D01*
X033075Y036853D02*
X033075Y038305D01*
X032325Y039055D01*
X025575Y039055D01*
X025579Y035853D01*
X025575Y035857D02*
X025575Y036853D01*
X025177Y036853D01*
X025575Y036853D02*
X025980Y036853D01*
X025575Y039055D02*
X017325Y039055D01*
X010575Y039055D01*
X009825Y038305D01*
X009825Y036805D01*
X009825Y035857D01*
X009825Y036853D02*
X009427Y036853D01*
X009825Y036853D02*
X010230Y036853D01*
X016927Y036853D02*
X017325Y036853D01*
X017325Y039055D01*
X017325Y036853D02*
X017325Y035857D01*
X017329Y035853D02*
X017325Y035849D01*
X017325Y030680D01*
X015950Y029555D02*
X015450Y029555D01*
X015950Y029555D02*
X016575Y028930D01*
X016575Y025430D01*
X016450Y022180D02*
X014200Y022180D01*
X010200Y021430D02*
X008450Y019680D01*
X008450Y014680D01*
X011825Y014680D01*
X011825Y012180D01*
X013825Y012555D02*
X013825Y009805D01*
X015575Y008055D01*
X016825Y002555D02*
X012575Y002555D01*
X008075Y002555D01*
X005950Y002555D01*
X004700Y003805D01*
X004700Y007055D01*
X005325Y007055D01*
X004700Y007055D02*
X004700Y008805D01*
X003325Y008805D02*
X007575Y008805D01*
X008450Y009680D01*
X008450Y014680D01*
X011825Y014680D02*
X012325Y014680D01*
X003355Y022430D02*
X003325Y022460D01*
X001825Y024055D02*
X001825Y018680D01*
X001825Y024055D02*
X003575Y025805D01*
X017325Y036853D02*
X017730Y036853D01*
X021950Y032680D02*
X023700Y032680D01*
X021950Y032680D02*
X021325Y032055D01*
X021325Y027305D01*
X032700Y024930D02*
X032700Y024055D01*
X033075Y023680D01*
X033825Y023680D01*
X034950Y022927D02*
X036073Y022927D01*
X033700Y025930D02*
X032700Y024930D01*
X021200Y002555D02*
X016825Y002555D01*
D34*
X016825Y002304D01*
X016825Y001556D02*
X016981Y001400D01*
X017715Y001400D01*
X021200Y001556D02*
X021356Y001400D01*
X022090Y001400D01*
X021200Y002304D02*
X021200Y002555D01*
X013340Y001400D02*
X012606Y001400D01*
X012450Y001556D01*
X012450Y002304D02*
X012575Y002555D01*
X008965Y001400D02*
X008231Y001400D01*
X008075Y001556D01*
X003715Y003400D02*
X003715Y005960D01*
X001935Y005960D02*
X001935Y003400D01*
X001935Y005960D02*
X001935Y008415D01*
X002325Y008805D01*
X003325Y008805D02*
X004700Y008805D01*
X020575Y027305D02*
X021325Y027305D01*
X020575Y027305D02*
X019950Y027930D01*
X018200Y027930D01*
X010182Y036805D02*
X009825Y036805D01*
X010182Y036805D02*
X010230Y036853D01*
X029273Y017973D02*
X029317Y017930D01*
X030301Y017930D02*
X030376Y018005D01*
X031950Y015430D02*
X033105Y015430D01*
X033794Y015430D02*
X034950Y015430D01*
X032701Y013430D02*
X031950Y013430D01*
X031950Y012430D02*
X032701Y012430D01*
X035700Y011930D02*
X037575Y011930D01*
X038700Y010805D01*
X036073Y022927D02*
X036076Y022930D01*
D35*
X034450Y021180D03*
X033450Y021805D03*
X032575Y021805D03*
X031450Y020930D03*
X030575Y019805D03*
X031575Y018430D03*
X031700Y016305D03*
X028825Y019680D03*
X028325Y020180D03*
X026950Y019680D03*
X025075Y020305D03*
X025325Y021555D03*
X026950Y021680D03*
X027825Y021805D03*
X022950Y019430D03*
X022950Y018743D03*
X021575Y018055D03*
X020950Y018305D03*
X020512Y019243D03*
X019825Y021055D03*
X019450Y021555D03*
X018450Y022305D03*
X017950Y022680D03*
X016450Y022180D03*
X014200Y022180D03*
X014200Y023555D03*
X012575Y024555D03*
X012450Y022055D03*
X010200Y021430D03*
X005950Y022430D03*
X001825Y018680D03*
X011200Y010805D03*
X012075Y010180D03*
X011825Y012180D03*
X012825Y013055D03*
X013200Y013680D03*
X012325Y014680D03*
X013825Y012555D03*
X013200Y012055D03*
X016950Y011305D03*
X017325Y011805D03*
X017950Y011180D03*
X018200Y010180D03*
X018700Y009805D03*
X018200Y009430D03*
X015575Y008055D03*
X014075Y006555D03*
X017200Y005930D03*
X021450Y010305D03*
X022200Y010805D03*
X022200Y009805D03*
X023950Y011305D03*
X025950Y011305D03*
X027325Y011305D03*
X029075Y012555D03*
X029825Y012555D03*
X030450Y011930D03*
X030700Y011305D03*
X029325Y010930D03*
X030325Y009930D03*
X030200Y008930D03*
X029575Y008930D03*
X032325Y008930D03*
X033950Y008305D03*
X034575Y008305D03*
X034075Y007305D03*
X035075Y006805D03*
X035700Y006805D03*
X035700Y005805D03*
X034575Y006305D03*
X035325Y004055D03*
X036450Y001680D03*
X031450Y001430D03*
X030700Y001055D03*
X024950Y001930D03*
X023075Y003430D03*
X023450Y004305D03*
X023700Y004930D03*
X023200Y005305D03*
X023950Y007055D03*
X024450Y007305D03*
X022887Y007180D03*
X022887Y007805D03*
X017450Y012368D03*
X021325Y015180D03*
X021825Y014680D03*
X022887Y014805D03*
X022950Y014055D03*
X022387Y015680D03*
X022950Y016930D03*
X022200Y021430D03*
X020700Y022555D03*
X016575Y025430D03*
X015450Y029555D03*
X017325Y030680D03*
X016075Y032555D03*
X012825Y029430D03*
X011325Y028930D03*
X009950Y030180D03*
X010575Y031680D03*
X006825Y029555D03*
X019950Y030180D03*
X019950Y031680D03*
X025075Y029180D03*
X025700Y032680D03*
X029575Y028055D03*
X029575Y027180D03*
X030825Y028180D03*
X033700Y025930D03*
X033950Y022680D03*
X036575Y020555D03*
X035825Y019805D03*
X035950Y017930D03*
X035825Y015430D03*
X035825Y014430D03*
X036325Y012930D03*
X035950Y010805D03*
X035950Y009805D03*
X035700Y008805D03*
X034950Y009305D03*
X033950Y010555D03*
X033075Y011555D03*
X037575Y015055D03*
X039450Y014805D03*
X032200Y006805D03*
X039450Y027555D03*
X033700Y031555D03*
X009762Y005743D03*
X005325Y007055D03*
D36*
X007200Y006180D02*
X007200Y003930D01*
X007230Y003960D01*
X007185Y003960D01*
X007200Y006180D02*
X008325Y007305D01*
X012075Y007305D01*
X012075Y010180D01*
X012075Y007305D02*
X013325Y007305D01*
X014075Y006555D01*
X017325Y011805D02*
X016950Y012180D01*
X016950Y013930D01*
X013200Y017680D01*
X013200Y025055D01*
X012700Y025555D01*
X010825Y025555D01*
X009950Y026430D01*
X009950Y030180D01*
X010575Y031680D02*
X010575Y026680D01*
X011200Y026055D01*
X012825Y026055D01*
X013700Y025180D01*
X013700Y017930D01*
X017325Y014305D01*
X017325Y012493D01*
X017450Y012368D01*
X022387Y015680D02*
X023576Y015680D01*
X024324Y015680D02*
X024700Y015680D01*
X024700Y016430D01*
X024206Y016430D01*
X024700Y016430D02*
X025326Y016430D01*
X025825Y016181D02*
X025825Y014429D01*
X026199Y014055D01*
X025451Y014055D02*
X024700Y014055D01*
X024700Y014805D01*
X025155Y014805D01*
X024700Y014805D02*
X024324Y014805D01*
X023576Y014805D02*
X022887Y014805D01*
X024206Y014055D02*
X024700Y014055D01*
X024700Y015680D02*
X025155Y015680D01*
X025825Y016181D02*
X026074Y016430D01*
X026074Y017180D01*
X026074Y017306D01*
X025825Y017555D01*
X025825Y019431D01*
X026074Y019680D01*
X025326Y019680D02*
X024700Y019680D01*
X024700Y018805D01*
X024324Y018805D01*
X024700Y018805D02*
X025155Y018805D01*
X025155Y017930D02*
X024700Y017930D01*
X024700Y017180D01*
X024206Y017180D01*
X024700Y017180D02*
X025326Y017180D01*
X024700Y017930D02*
X024324Y017930D01*
X023576Y017930D02*
X023200Y017930D01*
X022950Y018180D01*
X022950Y018743D01*
X023576Y018805D02*
X022950Y019430D01*
X021700Y018180D02*
X021575Y018055D01*
X021700Y018180D02*
X021700Y023680D01*
X021075Y024305D01*
X018450Y024305D01*
X017575Y025180D01*
X017575Y029055D01*
X018700Y030180D01*
X019950Y030180D01*
X019950Y031680D02*
X019575Y031680D01*
X017200Y029305D01*
X017200Y025055D01*
X018325Y023930D01*
X020825Y023930D01*
X021325Y023430D01*
X021325Y018680D01*
X020950Y018305D01*
X024206Y019680D02*
X024700Y019680D01*
X026494Y018805D02*
X027700Y018805D01*
X028333Y018172D01*
X028333Y017930D01*
X027348Y017930D02*
X026494Y017930D01*
X028325Y020180D02*
X028325Y023430D01*
X032825Y027930D01*
X032825Y029930D01*
X033950Y031055D01*
X034931Y031055D01*
X034950Y031074D01*
X034949Y031074D02*
X034950Y031067D01*
X034955Y031061D01*
X034961Y031056D01*
X034968Y031055D01*
X035701Y031055D01*
X036075Y031555D02*
X033700Y031555D01*
X033825Y030305D02*
X033325Y029805D01*
X033325Y027680D01*
X028825Y023180D01*
X028825Y019680D01*
X027950Y015680D02*
X026494Y015680D01*
X026494Y014805D02*
X027075Y014805D01*
X027325Y015055D01*
X027348Y015055D01*
X027950Y015680D02*
X028333Y015297D01*
X028333Y015055D01*
X032950Y014430D02*
X033449Y013931D01*
X033449Y013430D01*
X033449Y012430D01*
X033450Y012431D01*
X033450Y013930D01*
X036200Y013930D01*
X036575Y013555D01*
X036575Y012930D01*
X036325Y012930D01*
X034950Y013430D02*
X034325Y013430D01*
X033950Y013055D01*
X033950Y012055D01*
X033450Y011555D01*
X033075Y011555D01*
X035950Y010805D02*
X036451Y010805D01*
X037199Y010805D02*
X037700Y010805D01*
X037700Y008805D02*
X037199Y008805D01*
X036451Y008805D02*
X035700Y008805D01*
X035700Y006805D02*
X036201Y006805D01*
X036201Y005805D02*
X035700Y005805D01*
X033200Y004805D02*
X033200Y003805D01*
X030700Y001430D02*
X030700Y001055D01*
X030700Y001430D02*
X030200Y001930D01*
X028951Y001930D01*
X028950Y001931D02*
X028950Y001368D01*
X028934Y001352D01*
X026965Y001352D02*
X026950Y001368D01*
X026950Y001931D01*
X026949Y001930D02*
X024950Y001930D01*
X025200Y007055D02*
X024950Y007305D01*
X024950Y007681D01*
X025200Y007055D02*
X026369Y007055D01*
X026375Y007061D01*
X026950Y007274D02*
X026950Y007681D01*
X026950Y007274D02*
X027162Y007061D01*
X026950Y008429D02*
X026950Y008997D01*
X027824Y009056D02*
X027950Y009056D01*
X027950Y009804D02*
X028009Y009863D01*
X028576Y009863D01*
X028950Y008997D02*
X028950Y008429D01*
X028950Y007681D02*
X028950Y007274D01*
X028737Y007061D01*
X027325Y009862D02*
X027324Y009863D01*
X026576Y009863D02*
X026009Y009863D01*
X025950Y009931D01*
X025325Y009862D02*
X025324Y009863D01*
X024576Y009863D02*
X024517Y009863D01*
X024009Y009863D01*
X023950Y009931D01*
X024517Y009863D02*
X024530Y009862D01*
X024542Y009857D01*
X024553Y009850D01*
X024562Y009841D01*
X024569Y009830D01*
X024574Y009818D01*
X024575Y009805D01*
X024950Y008997D02*
X024950Y008429D01*
X032200Y006805D02*
X033200Y006805D01*
X038700Y006805D02*
X038826Y006679D01*
X034950Y014430D02*
X034950Y015430D01*
X035825Y015430D01*
X037575Y015055D02*
X039450Y015055D01*
X034450Y021180D02*
X034450Y023055D01*
X033825Y023680D01*
X033825Y030305D02*
X034931Y030305D01*
X034950Y030286D01*
X034949Y030286D02*
X034950Y030293D01*
X034955Y030299D01*
X034961Y030304D01*
X034968Y030305D01*
X035701Y030305D01*
X036449Y030305D02*
X036449Y031055D01*
X036450Y031180D02*
X036075Y031555D01*
X035950Y035055D02*
X032275Y035055D01*
X032275Y035853D01*
X032275Y035055D02*
X032275Y033006D01*
X031950Y032680D01*
X025700Y032680D01*
X025075Y032680D01*
X024775Y032979D01*
X024775Y035853D01*
X016525Y035853D02*
X016525Y032756D01*
X016325Y032555D01*
X016075Y032555D01*
X009025Y032555D01*
X009025Y035853D01*
X007825Y032555D02*
X005575Y034805D01*
X004449Y034805D01*
X003701Y034805D02*
X003701Y035804D01*
X003700Y035680D01*
X007825Y032555D02*
X009025Y032555D01*
X005701Y016305D02*
X002825Y016305D01*
X002325Y015805D01*
X002825Y015305D02*
X005701Y015305D01*
X006449Y015305D02*
X007450Y015305D01*
X005701Y014305D02*
X002825Y014305D01*
X002325Y013805D01*
X002825Y013305D02*
X005701Y013305D01*
X005701Y012305D02*
X002825Y012305D01*
X002325Y011805D01*
X002825Y011305D02*
X005701Y011305D01*
X005701Y010305D02*
X002825Y010305D01*
X002325Y009805D01*
X002325Y010805D02*
X002825Y011305D01*
X002325Y012805D02*
X002825Y013305D01*
X002325Y014805D02*
X002825Y015305D01*
X035950Y035055D02*
X036200Y035305D01*
X036200Y035554D01*
X036201Y035555D01*
X036949Y035555D02*
X037825Y035555D01*
D37*
X037072Y034979D02*
X036999Y034906D01*
X036905Y034678D01*
X036905Y034432D01*
X036999Y034204D01*
X037173Y034029D01*
X037401Y033935D01*
X038248Y033935D01*
X038475Y034029D01*
X038475Y033179D01*
X038110Y032814D01*
X037941Y032645D01*
X037850Y032424D01*
X037850Y029902D01*
X036852Y029902D01*
X036887Y029985D01*
X036887Y030213D01*
X036889Y030217D01*
X036889Y031090D01*
X036890Y031092D01*
X036890Y031268D01*
X036887Y031274D01*
X036887Y031375D01*
X036838Y031492D01*
X036748Y031582D01*
X036630Y031631D01*
X036621Y031631D01*
X036448Y031804D01*
X036324Y031928D01*
X036162Y031995D01*
X034066Y031995D01*
X034023Y032038D01*
X033813Y032125D01*
X031336Y032125D01*
X031127Y032038D01*
X030627Y031538D01*
X030466Y031378D01*
X030380Y031168D01*
X030380Y031099D01*
X030330Y030978D01*
X030330Y030132D01*
X030424Y029904D01*
X030598Y029729D01*
X030826Y029635D01*
X031073Y029635D01*
X031301Y029729D01*
X031450Y029878D01*
X031550Y029778D01*
X031550Y027971D01*
X031159Y027580D01*
X029906Y027580D01*
X030058Y027732D01*
X030145Y027942D01*
X030145Y028168D01*
X030058Y028378D01*
X029898Y028538D01*
X029688Y028625D01*
X026436Y028625D01*
X025398Y029663D01*
X025188Y029750D01*
X024961Y029750D01*
X024752Y029663D01*
X024591Y029503D01*
X024505Y029293D01*
X024505Y029067D01*
X024591Y028857D01*
X025528Y027920D01*
X025070Y027920D01*
X024825Y027675D01*
X024580Y027920D01*
X024070Y027920D01*
X023825Y027675D01*
X023580Y027920D01*
X023070Y027920D01*
X022825Y027675D01*
X022580Y027920D01*
X022070Y027920D01*
X021709Y027560D01*
X021709Y027050D01*
X021955Y026805D01*
X021825Y026675D01*
X021580Y026920D01*
X021070Y026920D01*
X020709Y026560D01*
X020709Y026050D01*
X021070Y025690D01*
X021580Y025690D01*
X021825Y025935D01*
X022070Y025690D01*
X022580Y025690D01*
X022825Y025935D01*
X023070Y025690D01*
X023580Y025690D01*
X023825Y025935D01*
X024070Y025690D01*
X024580Y025690D01*
X024825Y025935D01*
X025070Y025690D01*
X025580Y025690D01*
X025880Y025990D01*
X025880Y023666D01*
X025751Y023537D01*
X025590Y023377D01*
X025504Y023167D01*
X025504Y022020D01*
X025424Y022053D01*
X025504Y022053D01*
X025424Y022053D02*
X025226Y022053D01*
X025043Y021977D01*
X024902Y021837D01*
X024827Y021654D01*
X024827Y021623D01*
X024284Y021080D01*
X022995Y021080D01*
X022848Y021019D01*
X022600Y020771D01*
X022600Y021126D01*
X022622Y021148D01*
X022698Y021331D01*
X022698Y021529D01*
X022622Y021712D01*
X022482Y021852D01*
X022299Y021928D01*
X022140Y021928D01*
X022140Y023768D01*
X022073Y023929D01*
X021949Y024053D01*
X021324Y024678D01*
X021162Y024745D01*
X018632Y024745D01*
X018015Y025362D01*
X018015Y028873D01*
X018882Y029740D01*
X019710Y029740D01*
X019851Y029682D01*
X020049Y029682D01*
X020232Y029758D01*
X020372Y029898D01*
X020448Y030081D01*
X020448Y030279D01*
X020372Y030462D01*
X020232Y030602D01*
X020049Y030678D01*
X019851Y030678D01*
X019710Y030620D01*
X019137Y030620D01*
X019743Y031226D01*
X019851Y031182D01*
X020049Y031182D01*
X020232Y031258D01*
X020372Y031398D01*
X020448Y031581D01*
X020448Y031779D01*
X020372Y031962D01*
X020232Y032102D01*
X020049Y032178D01*
X019851Y032178D01*
X019710Y032120D01*
X019487Y032120D01*
X019325Y032053D01*
X017925Y030652D01*
X017925Y030799D01*
X017895Y030872D01*
X017895Y035730D01*
X017899Y035740D01*
X017899Y035967D01*
X017895Y035976D01*
X017895Y036304D01*
X018053Y036370D01*
X018213Y036530D01*
X018300Y036740D01*
X018300Y036967D01*
X018213Y037176D01*
X018053Y037336D01*
X017895Y037402D01*
X017895Y038485D01*
X018911Y038485D01*
X018779Y038431D01*
X018556Y038208D01*
X018436Y037916D01*
X018436Y037601D01*
X018556Y037310D01*
X018779Y037087D01*
X019071Y036966D01*
X019386Y036966D01*
X019677Y037087D01*
X019900Y037310D01*
X020021Y037601D01*
X020021Y037916D01*
X019900Y038208D01*
X019677Y038431D01*
X019546Y038485D01*
X021354Y038485D01*
X021222Y038431D01*
X020999Y038208D01*
X020879Y037916D01*
X020879Y037601D01*
X020999Y037310D01*
X021222Y037087D01*
X021514Y036966D01*
X021829Y036966D01*
X022120Y037087D01*
X022343Y037310D01*
X022464Y037601D01*
X022464Y037916D01*
X022343Y038208D01*
X022120Y038431D01*
X021989Y038485D01*
X025005Y038485D01*
X025007Y037400D01*
X024854Y037336D01*
X024766Y037248D01*
X024689Y037325D01*
X024485Y037409D01*
X024263Y037409D01*
X024059Y037325D01*
X023902Y037168D01*
X023818Y036964D01*
X023818Y036743D01*
X023902Y036538D01*
X024059Y036382D01*
X024263Y036297D01*
X024433Y036297D01*
X024304Y036168D01*
X024219Y035964D01*
X024219Y035743D01*
X024304Y035538D01*
X024335Y035507D01*
X024335Y032892D01*
X024402Y032730D01*
X024526Y032606D01*
X024825Y032307D01*
X024987Y032240D01*
X025460Y032240D01*
X025601Y032182D01*
X025799Y032182D01*
X025939Y032240D01*
X032037Y032240D01*
X032199Y032307D01*
X032525Y032633D01*
X032648Y032757D01*
X032715Y032918D01*
X032715Y034615D01*
X036037Y034615D01*
X036199Y034682D01*
X036323Y034806D01*
X036573Y035056D01*
X036587Y035090D01*
X036649Y035028D01*
X036767Y034979D01*
X037072Y034979D01*
X036993Y034892D02*
X036408Y034892D01*
X036250Y034733D02*
X036927Y034733D01*
X036905Y034575D02*
X032715Y034575D01*
X032715Y034416D02*
X036911Y034416D01*
X036977Y034258D02*
X032715Y034258D01*
X032715Y034099D02*
X037104Y034099D01*
X037388Y033941D02*
X036502Y033941D01*
X036481Y033962D02*
X036180Y034087D01*
X035853Y034087D01*
X035552Y033962D01*
X035321Y033731D01*
X035197Y033430D01*
X035197Y033104D01*
X035321Y032802D01*
X035552Y032571D01*
X035853Y032447D01*
X036180Y032447D01*
X036481Y032571D01*
X036712Y032802D01*
X036837Y033104D01*
X036837Y033430D01*
X036712Y033731D01*
X036481Y033962D01*
X036661Y033782D02*
X038475Y033782D01*
X038475Y033624D02*
X036756Y033624D01*
X036822Y033465D02*
X038475Y033465D01*
X038475Y033307D02*
X036837Y033307D01*
X036837Y033148D02*
X038444Y033148D01*
X038286Y032990D02*
X036789Y032990D01*
X036724Y032831D02*
X038127Y032831D01*
X037969Y032673D02*
X036582Y032673D01*
X036343Y032514D02*
X037887Y032514D01*
X037850Y032356D02*
X032247Y032356D01*
X032406Y032514D02*
X035691Y032514D01*
X035451Y032673D02*
X032564Y032673D01*
X032679Y032831D02*
X035309Y032831D01*
X035244Y032990D02*
X032715Y032990D01*
X032715Y033148D02*
X035197Y033148D01*
X035197Y033307D02*
X032715Y033307D01*
X032715Y033465D02*
X035211Y033465D01*
X035277Y033624D02*
X032715Y033624D01*
X032715Y033782D02*
X035372Y033782D01*
X035531Y033941D02*
X032715Y033941D01*
X031835Y033941D02*
X025215Y033941D01*
X025215Y034099D02*
X031835Y034099D01*
X031835Y034258D02*
X025215Y034258D01*
X025215Y034416D02*
X031835Y034416D01*
X031835Y034575D02*
X025215Y034575D01*
X025215Y034733D02*
X031835Y034733D01*
X031835Y034892D02*
X025215Y034892D01*
X025215Y035050D02*
X031835Y035050D01*
X031835Y035209D02*
X025215Y035209D01*
X025215Y035367D02*
X025263Y035367D01*
X025256Y035370D02*
X025466Y035283D01*
X025693Y035283D01*
X025902Y035370D01*
X026062Y035531D01*
X026149Y035741D01*
X026148Y036306D01*
X026303Y036370D01*
X026463Y036530D01*
X026550Y036740D01*
X026550Y036967D01*
X026463Y037176D01*
X026303Y037336D01*
X026147Y037401D01*
X026145Y038485D01*
X027161Y038485D01*
X027029Y038431D01*
X026806Y038208D01*
X026686Y037916D01*
X026686Y037601D01*
X026806Y037310D01*
X027029Y037087D01*
X027321Y036966D01*
X027636Y036966D01*
X027927Y037087D01*
X028150Y037310D01*
X028271Y037601D01*
X028271Y037916D01*
X028150Y038208D01*
X027927Y038431D01*
X027796Y038485D01*
X028854Y038485D01*
X028722Y038431D01*
X028499Y038208D01*
X028379Y037916D01*
X028379Y037601D01*
X028499Y037310D01*
X028722Y037087D01*
X029014Y036966D01*
X029329Y036966D01*
X029620Y037087D01*
X029843Y037310D01*
X029964Y037601D01*
X029964Y037916D01*
X029843Y038208D01*
X029620Y038431D01*
X029489Y038485D01*
X032089Y038485D01*
X032505Y038069D01*
X032505Y037384D01*
X032362Y037325D01*
X032275Y037238D01*
X032189Y037325D01*
X031985Y037409D01*
X031763Y037409D01*
X031559Y037325D01*
X031402Y037168D01*
X031318Y036964D01*
X031318Y036743D01*
X031402Y036538D01*
X031559Y036382D01*
X031763Y036297D01*
X031933Y036297D01*
X031804Y036168D01*
X031719Y035964D01*
X031719Y035743D01*
X031804Y035538D01*
X031835Y035507D01*
X031835Y033188D01*
X031767Y033120D01*
X025939Y033120D01*
X025799Y033178D01*
X025601Y033178D01*
X025460Y033120D01*
X025257Y033120D01*
X025215Y033161D01*
X025215Y035410D01*
X025252Y035374D01*
X025252Y035374D01*
X025256Y035370D01*
X025894Y035367D02*
X027668Y035367D01*
X027694Y035356D02*
X027512Y035432D01*
X027372Y035572D01*
X027296Y035754D01*
X027296Y035952D01*
X027372Y036135D01*
X027512Y036275D01*
X027694Y036350D01*
X027892Y036350D01*
X028075Y036275D01*
X028215Y036135D01*
X028290Y035952D01*
X028290Y035754D01*
X028215Y035572D01*
X028075Y035432D01*
X027892Y035356D01*
X027694Y035356D01*
X027919Y035367D02*
X028731Y035367D01*
X028757Y035356D02*
X028955Y035356D01*
X029138Y035432D01*
X029278Y035572D01*
X029353Y035754D01*
X029353Y035952D01*
X029278Y036135D01*
X029138Y036275D01*
X028955Y036350D01*
X028757Y036350D01*
X028575Y036275D01*
X028435Y036135D01*
X028359Y035952D01*
X028359Y035754D01*
X028435Y035572D01*
X028575Y035432D01*
X028757Y035356D01*
X028982Y035367D02*
X031835Y035367D01*
X031817Y035526D02*
X029232Y035526D01*
X029324Y035684D02*
X031743Y035684D01*
X031719Y035843D02*
X029353Y035843D01*
X029333Y036001D02*
X031735Y036001D01*
X031800Y036160D02*
X029253Y036160D01*
X029033Y036318D02*
X031712Y036318D01*
X031464Y036477D02*
X026410Y036477D01*
X026507Y036635D02*
X031362Y036635D01*
X031318Y036794D02*
X026550Y036794D01*
X026550Y036952D02*
X031318Y036952D01*
X031378Y037111D02*
X029644Y037111D01*
X029802Y037269D02*
X031503Y037269D01*
X032245Y037269D02*
X032306Y037269D01*
X032505Y037428D02*
X029892Y037428D01*
X029957Y037586D02*
X032505Y037586D01*
X032505Y037745D02*
X029964Y037745D01*
X029964Y037903D02*
X032505Y037903D01*
X032505Y038062D02*
X029903Y038062D01*
X029830Y038220D02*
X032354Y038220D01*
X032195Y038379D02*
X029672Y038379D01*
X028670Y038379D02*
X027979Y038379D01*
X028138Y038220D02*
X028512Y038220D01*
X028439Y038062D02*
X028211Y038062D01*
X028271Y037903D02*
X028379Y037903D01*
X028379Y037745D02*
X028271Y037745D01*
X028264Y037586D02*
X028385Y037586D01*
X028451Y037428D02*
X028199Y037428D01*
X028109Y037269D02*
X028540Y037269D01*
X028699Y037111D02*
X027951Y037111D01*
X027970Y036318D02*
X028679Y036318D01*
X028459Y036160D02*
X028190Y036160D01*
X028270Y036001D02*
X028379Y036001D01*
X028359Y035843D02*
X028290Y035843D01*
X028261Y035684D02*
X028388Y035684D01*
X028481Y035526D02*
X028169Y035526D01*
X027418Y035526D02*
X026057Y035526D01*
X026125Y035684D02*
X027325Y035684D01*
X027296Y035843D02*
X026149Y035843D01*
X026148Y036001D02*
X027316Y036001D01*
X027396Y036160D02*
X026148Y036160D01*
X026178Y036318D02*
X027616Y036318D01*
X027006Y037111D02*
X026491Y037111D01*
X026370Y037269D02*
X026847Y037269D01*
X026758Y037428D02*
X026147Y037428D01*
X026146Y037586D02*
X026692Y037586D01*
X026686Y037745D02*
X026146Y037745D01*
X026146Y037903D02*
X026686Y037903D01*
X026746Y038062D02*
X026146Y038062D01*
X026146Y038220D02*
X026819Y038220D01*
X026977Y038379D02*
X026146Y038379D01*
X025006Y038379D02*
X022172Y038379D01*
X022330Y038220D02*
X025006Y038220D01*
X025006Y038062D02*
X022403Y038062D01*
X022464Y037903D02*
X025006Y037903D01*
X025006Y037745D02*
X022464Y037745D01*
X022457Y037586D02*
X025006Y037586D01*
X025007Y037428D02*
X022392Y037428D01*
X022302Y037269D02*
X024003Y037269D01*
X023878Y037111D02*
X022144Y037111D01*
X021199Y037111D02*
X019701Y037111D01*
X019859Y037269D02*
X021040Y037269D01*
X020951Y037428D02*
X019949Y037428D01*
X020014Y037586D02*
X020885Y037586D01*
X020879Y037745D02*
X020021Y037745D01*
X020021Y037903D02*
X020879Y037903D01*
X020939Y038062D02*
X019961Y038062D01*
X019888Y038220D02*
X021012Y038220D01*
X021170Y038379D02*
X019729Y038379D01*
X018727Y038379D02*
X017895Y038379D01*
X017895Y038220D02*
X018569Y038220D01*
X018496Y038062D02*
X017895Y038062D01*
X017895Y037903D02*
X018436Y037903D01*
X018436Y037745D02*
X017895Y037745D01*
X017895Y037586D02*
X018442Y037586D01*
X018508Y037428D02*
X017895Y037428D01*
X018120Y037269D02*
X018597Y037269D01*
X018756Y037111D02*
X018241Y037111D01*
X018300Y036952D02*
X023818Y036952D01*
X023818Y036794D02*
X018300Y036794D01*
X018257Y036635D02*
X023862Y036635D01*
X023964Y036477D02*
X018160Y036477D01*
X017928Y036318D02*
X019366Y036318D01*
X019444Y036350D02*
X019262Y036275D01*
X019122Y036135D01*
X019046Y035952D01*
X019046Y035754D01*
X019122Y035572D01*
X019262Y035432D01*
X019444Y035356D01*
X019642Y035356D01*
X019825Y035432D01*
X019965Y035572D01*
X020040Y035754D01*
X020040Y035952D01*
X019965Y036135D01*
X019825Y036275D01*
X019642Y036350D01*
X019444Y036350D01*
X019720Y036318D02*
X021179Y036318D01*
X021257Y036350D02*
X021075Y036275D01*
X020935Y036135D01*
X020859Y035952D01*
X020859Y035754D01*
X020935Y035572D01*
X021075Y035432D01*
X021257Y035356D01*
X021455Y035356D01*
X021638Y035432D01*
X021778Y035572D01*
X021853Y035754D01*
X021853Y035952D01*
X021778Y036135D01*
X021638Y036275D01*
X021455Y036350D01*
X021257Y036350D01*
X021533Y036318D02*
X024212Y036318D01*
X024300Y036160D02*
X021753Y036160D01*
X021833Y036001D02*
X024235Y036001D01*
X024219Y035843D02*
X021853Y035843D01*
X021824Y035684D02*
X024243Y035684D01*
X024317Y035526D02*
X021732Y035526D01*
X021482Y035367D02*
X024335Y035367D01*
X024335Y035209D02*
X017895Y035209D01*
X017895Y035367D02*
X019418Y035367D01*
X019669Y035367D02*
X021231Y035367D01*
X020981Y035526D02*
X019919Y035526D01*
X020011Y035684D02*
X020888Y035684D01*
X020859Y035843D02*
X020040Y035843D01*
X020020Y036001D02*
X020879Y036001D01*
X020959Y036160D02*
X019940Y036160D01*
X019146Y036160D02*
X017895Y036160D01*
X017895Y036001D02*
X019066Y036001D01*
X019046Y035843D02*
X017899Y035843D01*
X017895Y035684D02*
X019075Y035684D01*
X019168Y035526D02*
X017895Y035526D01*
X017895Y035050D02*
X024335Y035050D01*
X024335Y034892D02*
X017895Y034892D01*
X017895Y034733D02*
X024335Y034733D01*
X024335Y034575D02*
X017895Y034575D01*
X017895Y034416D02*
X024335Y034416D01*
X024335Y034258D02*
X017895Y034258D01*
X017895Y034099D02*
X024335Y034099D01*
X024335Y033941D02*
X017895Y033941D01*
X017895Y033782D02*
X024335Y033782D01*
X024335Y033624D02*
X017895Y033624D01*
X017895Y033465D02*
X024335Y033465D01*
X024335Y033307D02*
X017895Y033307D01*
X017895Y033148D02*
X024335Y033148D01*
X024335Y032990D02*
X017895Y032990D01*
X017895Y032831D02*
X024361Y032831D01*
X024460Y032673D02*
X017895Y032673D01*
X017895Y032514D02*
X024618Y032514D01*
X024777Y032356D02*
X017895Y032356D01*
X017895Y032197D02*
X025564Y032197D01*
X025835Y032197D02*
X037850Y032197D01*
X037850Y032039D02*
X034022Y032039D01*
X031795Y033148D02*
X025871Y033148D01*
X025528Y033148D02*
X025229Y033148D01*
X025215Y033307D02*
X031835Y033307D01*
X031835Y033465D02*
X025215Y033465D01*
X025215Y033624D02*
X031835Y033624D01*
X031835Y033782D02*
X025215Y033782D01*
X027598Y031381D02*
X027826Y031475D01*
X028073Y031475D01*
X028301Y031381D01*
X028450Y031232D01*
X028598Y031381D01*
X028826Y031475D01*
X029073Y031475D01*
X029301Y031381D01*
X029475Y031206D01*
X029570Y030978D01*
X029570Y030132D01*
X029475Y029904D01*
X029301Y029729D01*
X029073Y029635D01*
X028826Y029635D01*
X028598Y029729D01*
X028450Y029878D01*
X028301Y029729D01*
X028073Y029635D01*
X027826Y029635D01*
X027598Y029729D01*
X027424Y029904D01*
X027330Y030132D01*
X027330Y030978D01*
X027424Y031206D01*
X027598Y031381D01*
X027656Y031405D02*
X020375Y031405D01*
X020440Y031563D02*
X030652Y031563D01*
X030810Y031722D02*
X020448Y031722D01*
X020406Y031880D02*
X030969Y031880D01*
X031128Y032039D02*
X020296Y032039D01*
X020204Y031246D02*
X027464Y031246D01*
X027375Y031088D02*
X019604Y031088D01*
X019446Y030929D02*
X027330Y030929D01*
X027330Y030771D02*
X019287Y030771D01*
X018677Y031405D02*
X017895Y031405D01*
X017895Y031563D02*
X018835Y031563D01*
X018994Y031722D02*
X017895Y031722D01*
X017895Y031880D02*
X019152Y031880D01*
X019311Y032039D02*
X017895Y032039D01*
X017895Y031246D02*
X018518Y031246D01*
X018360Y031088D02*
X017895Y031088D01*
X017895Y030929D02*
X018201Y030929D01*
X018043Y030771D02*
X017925Y030771D01*
X018803Y029661D02*
X024750Y029661D01*
X024591Y029503D02*
X018644Y029503D01*
X018486Y029344D02*
X024526Y029344D01*
X024505Y029186D02*
X018327Y029186D01*
X018169Y029027D02*
X024521Y029027D01*
X024587Y028869D02*
X018015Y028869D01*
X018015Y028710D02*
X024739Y028710D01*
X024897Y028552D02*
X018015Y028552D01*
X018015Y028393D02*
X025056Y028393D01*
X025214Y028235D02*
X018015Y028235D01*
X018015Y028076D02*
X025373Y028076D01*
X025067Y027918D02*
X024582Y027918D01*
X024741Y027759D02*
X024909Y027759D01*
X024067Y027918D02*
X023582Y027918D01*
X023741Y027759D02*
X023909Y027759D01*
X023067Y027918D02*
X022582Y027918D01*
X022741Y027759D02*
X022909Y027759D01*
X022067Y027918D02*
X018015Y027918D01*
X018015Y027759D02*
X021909Y027759D01*
X021750Y027601D02*
X018015Y027601D01*
X018015Y027442D02*
X021709Y027442D01*
X021709Y027284D02*
X018015Y027284D01*
X018015Y027125D02*
X021709Y027125D01*
X021793Y026967D02*
X018015Y026967D01*
X018015Y026808D02*
X020958Y026808D01*
X020799Y026650D02*
X018015Y026650D01*
X018015Y026491D02*
X020709Y026491D01*
X020709Y026333D02*
X018015Y026333D01*
X018015Y026174D02*
X020709Y026174D01*
X020744Y026016D02*
X018015Y026016D01*
X018015Y025857D02*
X020903Y025857D01*
X021061Y025699D02*
X018015Y025699D01*
X018015Y025540D02*
X025880Y025540D01*
X025880Y025382D02*
X018015Y025382D01*
X018154Y025223D02*
X025880Y025223D01*
X025880Y025065D02*
X018312Y025065D01*
X018471Y024906D02*
X025880Y024906D01*
X025880Y024748D02*
X018629Y024748D01*
X020200Y023555D02*
X014200Y023555D01*
X012760Y023480D02*
X006550Y023480D01*
X006550Y023556D02*
X006948Y023955D01*
X012694Y023955D01*
X012760Y023982D01*
X012760Y022449D01*
X012732Y022477D01*
X012549Y022553D01*
X012351Y022553D01*
X012168Y022477D01*
X012027Y022337D01*
X011952Y022154D01*
X011952Y021956D01*
X012027Y021773D01*
X012050Y021751D01*
X012050Y015600D01*
X012111Y015453D01*
X012314Y015250D01*
X009020Y015250D01*
X009020Y019444D01*
X010683Y021107D01*
X010770Y021317D01*
X010770Y021543D01*
X010683Y021753D01*
X010523Y021913D01*
X010313Y022000D01*
X010086Y022000D01*
X009877Y021913D01*
X008127Y020163D01*
X007966Y020003D01*
X007880Y019793D01*
X007880Y016662D01*
X007765Y016777D01*
X007560Y016861D01*
X007339Y016861D01*
X007135Y016777D01*
X007063Y016705D01*
X006952Y016705D01*
X006937Y016742D01*
X006846Y016832D01*
X006729Y016881D01*
X006168Y016881D01*
X006075Y016842D01*
X005981Y016881D01*
X005420Y016881D01*
X005303Y016832D01*
X005216Y016745D01*
X002737Y016745D01*
X002575Y016678D01*
X002452Y016554D01*
X002318Y016420D01*
X002070Y016420D01*
X001709Y016060D01*
X001709Y015550D01*
X001955Y015305D01*
X001709Y015060D01*
X001709Y014550D01*
X001955Y014305D01*
X001709Y014060D01*
X001709Y013550D01*
X001955Y013305D01*
X001709Y013060D01*
X001709Y012550D01*
X001955Y012305D01*
X001709Y012060D01*
X001709Y011550D01*
X001955Y011305D01*
X001709Y011060D01*
X001709Y010550D01*
X001955Y010305D01*
X001709Y010060D01*
X001709Y009550D01*
X002070Y009190D01*
X002580Y009190D01*
X002825Y009435D01*
X002955Y009305D01*
X002709Y009060D01*
X002709Y008550D01*
X003070Y008190D01*
X003580Y008190D01*
X003625Y008235D01*
X004130Y008235D01*
X004130Y006722D01*
X004066Y006786D01*
X003838Y006880D01*
X003591Y006880D01*
X003363Y006786D01*
X003189Y006611D01*
X003095Y006383D01*
X003095Y005537D01*
X003189Y005309D01*
X003235Y005263D01*
X003235Y004097D01*
X003189Y004051D01*
X003095Y003823D01*
X003095Y002977D01*
X003189Y002749D01*
X003363Y002574D01*
X003591Y002480D01*
X003838Y002480D01*
X004066Y002574D01*
X004240Y002749D01*
X004335Y002977D01*
X004335Y003364D01*
X004377Y003322D01*
X005627Y002072D01*
X005836Y001985D01*
X007567Y001985D01*
X007622Y001930D01*
X007547Y001855D01*
X007499Y001738D01*
X007499Y001374D01*
X007547Y001257D01*
X007638Y001167D01*
X007755Y001118D01*
X007834Y001118D01*
X007959Y000993D01*
X008135Y000920D01*
X008368Y000920D01*
X008439Y000749D01*
X008613Y000574D01*
X008793Y000500D01*
X001145Y000500D01*
X001145Y031691D01*
X001206Y031629D01*
X001445Y031530D01*
X001704Y031530D01*
X001943Y031629D01*
X001962Y031648D01*
X002028Y031490D01*
X002209Y031309D01*
X002446Y031210D01*
X002703Y031210D01*
X002940Y031309D01*
X002975Y031343D01*
X002975Y029625D01*
X002912Y029625D01*
X002610Y029500D01*
X002380Y029269D01*
X002255Y028968D01*
X002255Y028642D01*
X002380Y028341D01*
X002610Y028110D01*
X002912Y027985D01*
X004238Y027985D01*
X004539Y028110D01*
X004770Y028341D01*
X004895Y028642D01*
X004895Y028968D01*
X004770Y029269D01*
X004539Y029500D01*
X004238Y029625D01*
X004175Y029625D01*
X004175Y030106D01*
X005066Y029215D01*
X005235Y029046D01*
X005455Y028955D01*
X006944Y028955D01*
X007165Y029046D01*
X007333Y029215D01*
X007425Y029436D01*
X007425Y029674D01*
X007333Y029895D01*
X007165Y030064D01*
X006944Y030155D01*
X005823Y030155D01*
X005175Y030804D01*
X005175Y031619D01*
X005187Y031648D01*
X005206Y031629D01*
X005445Y031530D01*
X005704Y031530D01*
X005943Y031629D01*
X006126Y031812D01*
X006225Y032051D01*
X006225Y032309D01*
X006126Y032548D01*
X005943Y032731D01*
X005704Y032830D01*
X005445Y032830D01*
X005206Y032731D01*
X005187Y032712D01*
X005121Y032870D01*
X004940Y033051D01*
X004703Y033150D01*
X004446Y033150D01*
X004209Y033051D01*
X004075Y032917D01*
X003940Y033051D01*
X003703Y033150D01*
X003446Y033150D01*
X003209Y033051D01*
X003075Y032917D01*
X002940Y033051D01*
X002703Y033150D01*
X002446Y033150D01*
X002209Y033051D01*
X002028Y032870D01*
X001962Y032712D01*
X001943Y032731D01*
X001704Y032830D01*
X001445Y032830D01*
X001206Y032731D01*
X001145Y032669D01*
X001145Y039230D01*
X009944Y039230D01*
X009502Y038788D01*
X009341Y038628D01*
X009255Y038418D01*
X009255Y037399D01*
X009104Y037336D01*
X009016Y037248D01*
X008939Y037325D01*
X008735Y037409D01*
X008513Y037409D01*
X008309Y037325D01*
X008152Y037168D01*
X008068Y036964D01*
X008068Y036743D01*
X008152Y036538D01*
X008309Y036382D01*
X008513Y036297D01*
X008683Y036297D01*
X008554Y036168D01*
X008469Y035964D01*
X008469Y035743D01*
X008554Y035538D01*
X008585Y035507D01*
X008585Y032995D01*
X008007Y032995D01*
X005824Y035178D01*
X005662Y035245D01*
X004835Y035245D01*
X004748Y035332D01*
X004630Y035381D01*
X004547Y035381D01*
X004620Y035557D01*
X004620Y035803D01*
X004525Y036031D01*
X004376Y036180D01*
X004525Y036329D01*
X004620Y036557D01*
X004620Y036803D01*
X004525Y037031D01*
X004351Y037206D01*
X004123Y037300D01*
X003276Y037300D01*
X003048Y037206D01*
X002874Y037031D01*
X002780Y036803D01*
X002780Y036557D01*
X002874Y036329D01*
X003023Y036180D01*
X002874Y036031D01*
X002780Y035803D01*
X002780Y035557D01*
X002874Y035329D01*
X003048Y035154D01*
X003261Y035066D01*
X003261Y034717D01*
X003263Y034713D01*
X003263Y034485D01*
X003311Y034368D01*
X003401Y034278D01*
X003519Y034229D01*
X003882Y034229D01*
X004000Y034278D01*
X004075Y034352D01*
X004149Y034278D01*
X004267Y034229D01*
X004630Y034229D01*
X004748Y034278D01*
X004835Y034365D01*
X005392Y034365D01*
X007575Y032182D01*
X007737Y032115D01*
X010323Y032115D01*
X010293Y032102D01*
X010152Y031962D01*
X010077Y031779D01*
X010077Y031581D01*
X010135Y031441D01*
X010135Y030643D01*
X010049Y030678D01*
X009851Y030678D01*
X009668Y030602D01*
X009527Y030462D01*
X009452Y030279D01*
X009452Y030081D01*
X009510Y029941D01*
X009510Y026342D01*
X009577Y026181D01*
X010452Y025306D01*
X010575Y025182D01*
X010641Y025155D01*
X006580Y025155D01*
X006360Y025064D01*
X005610Y024314D01*
X005441Y024145D01*
X005350Y023924D01*
X005350Y022311D01*
X005441Y022090D01*
X005610Y021921D01*
X005830Y021830D01*
X006069Y021830D01*
X006290Y021921D01*
X006458Y022090D01*
X006550Y022311D01*
X006550Y023556D01*
X006631Y023638D02*
X012760Y023638D01*
X012760Y023797D02*
X006790Y023797D01*
X006550Y023321D02*
X012760Y023321D01*
X012760Y023163D02*
X006550Y023163D01*
X006550Y023004D02*
X012760Y023004D01*
X012760Y022846D02*
X006550Y022846D01*
X006550Y022687D02*
X012760Y022687D01*
X012760Y022529D02*
X012608Y022529D01*
X012291Y022529D02*
X006550Y022529D01*
X006550Y022370D02*
X012060Y022370D01*
X011975Y022212D02*
X006509Y022212D01*
X006421Y022053D02*
X011952Y022053D01*
X011977Y021895D02*
X010541Y021895D01*
X010690Y021736D02*
X012050Y021736D01*
X012050Y021578D02*
X010756Y021578D01*
X010770Y021419D02*
X012050Y021419D01*
X012050Y021261D02*
X010746Y021261D01*
X010678Y021102D02*
X012050Y021102D01*
X012050Y020944D02*
X010519Y020944D01*
X010361Y020785D02*
X012050Y020785D01*
X012050Y020627D02*
X010202Y020627D01*
X010044Y020468D02*
X012050Y020468D01*
X012050Y020310D02*
X009885Y020310D01*
X009727Y020151D02*
X012050Y020151D01*
X012050Y019993D02*
X009568Y019993D01*
X009410Y019834D02*
X012050Y019834D01*
X012050Y019676D02*
X009251Y019676D01*
X009093Y019517D02*
X012050Y019517D01*
X012050Y019359D02*
X009020Y019359D01*
X009020Y019200D02*
X012050Y019200D01*
X012050Y019042D02*
X009020Y019042D01*
X009020Y018883D02*
X012050Y018883D01*
X012050Y018725D02*
X009020Y018725D01*
X009020Y018566D02*
X012050Y018566D01*
X012050Y018408D02*
X009020Y018408D01*
X009020Y018249D02*
X012050Y018249D01*
X012050Y018091D02*
X009020Y018091D01*
X009020Y017932D02*
X012050Y017932D01*
X012050Y017774D02*
X009020Y017774D01*
X009020Y017615D02*
X012050Y017615D01*
X012050Y017457D02*
X009020Y017457D01*
X009020Y017298D02*
X012050Y017298D01*
X012050Y017140D02*
X009020Y017140D01*
X009020Y016981D02*
X012050Y016981D01*
X012050Y016823D02*
X009020Y016823D01*
X009020Y016664D02*
X012050Y016664D01*
X012050Y016506D02*
X009020Y016506D01*
X009020Y016347D02*
X012050Y016347D01*
X012050Y016189D02*
X009020Y016189D01*
X009020Y016030D02*
X012050Y016030D01*
X012050Y015872D02*
X009020Y015872D01*
X009020Y015713D02*
X012050Y015713D01*
X012069Y015555D02*
X009020Y015555D01*
X009020Y015396D02*
X012168Y015396D01*
X012450Y015680D02*
X013075Y015055D01*
X013075Y014430D01*
X012325Y013680D01*
X012325Y011680D01*
X011450Y010805D01*
X011200Y010805D01*
X010702Y010800D02*
X009020Y010800D01*
X009020Y010958D02*
X010724Y010958D01*
X010702Y010904D02*
X010702Y010706D01*
X010777Y010523D01*
X010918Y010383D01*
X011101Y010307D01*
X011299Y010307D01*
X011482Y010383D01*
X011504Y010405D01*
X011529Y010405D01*
X011676Y010466D01*
X011789Y010578D01*
X012664Y011453D01*
X012725Y011600D01*
X012725Y011900D01*
X012777Y011773D01*
X012800Y011751D01*
X012800Y008725D01*
X012861Y008578D01*
X015609Y005830D01*
X010260Y005830D01*
X010260Y005842D01*
X010184Y006025D01*
X010044Y006165D01*
X009861Y006241D01*
X009663Y006241D01*
X009480Y006165D01*
X009340Y006025D01*
X009264Y005842D01*
X009264Y005643D01*
X009340Y005460D01*
X009480Y005320D01*
X009663Y005244D01*
X009695Y005244D01*
X009848Y005091D01*
X009995Y005030D01*
X018159Y005030D01*
X018723Y004466D01*
X018870Y004405D01*
X021479Y004405D01*
X021470Y004383D01*
X021470Y003537D01*
X021564Y003309D01*
X021738Y003134D01*
X021882Y003075D01*
X021434Y003075D01*
X021313Y003125D01*
X018043Y003125D01*
X018066Y003134D01*
X018240Y003309D01*
X018335Y003537D01*
X018335Y004383D01*
X018240Y004611D01*
X018066Y004786D01*
X017838Y004880D01*
X017591Y004880D01*
X017363Y004786D01*
X017189Y004611D01*
X017095Y004383D01*
X017095Y003537D01*
X017189Y003309D01*
X017363Y003134D01*
X017386Y003125D01*
X013668Y003125D01*
X013691Y003134D01*
X013865Y003309D01*
X013960Y003537D01*
X013960Y004383D01*
X013865Y004611D01*
X013691Y004786D01*
X013463Y004880D01*
X013216Y004880D01*
X012988Y004786D01*
X012814Y004611D01*
X012720Y004383D01*
X012720Y003537D01*
X012814Y003309D01*
X012988Y003134D01*
X013011Y003125D01*
X009293Y003125D01*
X009316Y003134D01*
X009490Y003309D01*
X009585Y003537D01*
X009585Y004383D01*
X009490Y004611D01*
X009316Y004786D01*
X009088Y004880D01*
X008841Y004880D01*
X008613Y004786D01*
X008439Y004611D01*
X008345Y004383D01*
X008345Y003537D01*
X008439Y003309D01*
X008613Y003134D01*
X008636Y003125D01*
X006186Y003125D01*
X005270Y004041D01*
X005270Y006485D01*
X005438Y006485D01*
X005648Y006572D01*
X005808Y006732D01*
X005895Y006942D01*
X005895Y007168D01*
X005808Y007378D01*
X005648Y007538D01*
X005438Y007625D01*
X005270Y007625D01*
X005270Y008235D01*
X007688Y008235D01*
X007898Y008322D01*
X008058Y008482D01*
X008933Y009357D01*
X009020Y009567D01*
X009020Y014110D01*
X011255Y014110D01*
X011255Y012067D01*
X011341Y011857D01*
X011502Y011697D01*
X011696Y011617D01*
X011358Y011279D01*
X011299Y011303D01*
X011101Y011303D01*
X010918Y011227D01*
X010777Y011087D01*
X010702Y010904D01*
X010807Y011117D02*
X009020Y011117D01*
X009020Y011275D02*
X011033Y011275D01*
X011448Y011751D02*
X009020Y011751D01*
X009020Y011909D02*
X011320Y011909D01*
X011255Y012068D02*
X009020Y012068D01*
X009020Y012226D02*
X011255Y012226D01*
X011255Y012385D02*
X009020Y012385D01*
X009020Y012543D02*
X011255Y012543D01*
X011255Y012702D02*
X009020Y012702D01*
X009020Y012860D02*
X011255Y012860D01*
X011255Y013019D02*
X009020Y013019D01*
X009020Y013177D02*
X011255Y013177D01*
X011255Y013336D02*
X009020Y013336D01*
X009020Y013494D02*
X011255Y013494D01*
X011255Y013653D02*
X009020Y013653D01*
X009020Y013811D02*
X011255Y013811D01*
X011255Y013970D02*
X009020Y013970D01*
X007450Y014305D02*
X006449Y014305D01*
X006950Y014805D02*
X005074Y014805D01*
X005074Y015805D02*
X006950Y015805D01*
X006449Y016305D02*
X007450Y016305D01*
X007654Y016823D02*
X007880Y016823D01*
X007880Y016981D02*
X001145Y016981D01*
X001145Y016823D02*
X005293Y016823D01*
X006856Y016823D02*
X007246Y016823D01*
X007877Y016664D02*
X007880Y016664D01*
X007880Y017140D02*
X001145Y017140D01*
X001145Y017298D02*
X007880Y017298D01*
X007880Y017457D02*
X001145Y017457D01*
X001145Y017615D02*
X007880Y017615D01*
X007880Y017774D02*
X001145Y017774D01*
X001145Y017932D02*
X007880Y017932D01*
X007880Y018091D02*
X001145Y018091D01*
X001145Y018249D02*
X007880Y018249D01*
X007880Y018408D02*
X001145Y018408D01*
X001145Y018566D02*
X007880Y018566D01*
X007880Y018725D02*
X001145Y018725D01*
X001145Y018883D02*
X007880Y018883D01*
X007880Y019042D02*
X001145Y019042D01*
X001145Y019200D02*
X002865Y019200D01*
X002985Y019080D02*
X002505Y019560D01*
X002505Y020240D01*
X002985Y020720D01*
X003664Y020720D01*
X004145Y020240D01*
X004145Y019560D01*
X003664Y019080D01*
X002985Y019080D01*
X002706Y019359D02*
X001145Y019359D01*
X001145Y019517D02*
X002548Y019517D01*
X002505Y019676D02*
X001145Y019676D01*
X001145Y019834D02*
X002505Y019834D01*
X002505Y019993D02*
X001145Y019993D01*
X001145Y020151D02*
X002505Y020151D01*
X002575Y020310D02*
X001145Y020310D01*
X001145Y020468D02*
X002733Y020468D01*
X002892Y020627D02*
X001145Y020627D01*
X001145Y020785D02*
X008749Y020785D01*
X008907Y020944D02*
X001145Y020944D01*
X001145Y021102D02*
X009066Y021102D01*
X009224Y021261D02*
X001145Y021261D01*
X001145Y021419D02*
X009383Y021419D01*
X009541Y021578D02*
X001145Y021578D01*
X001145Y021736D02*
X002889Y021736D01*
X002985Y021640D02*
X003664Y021640D01*
X004145Y022120D01*
X004145Y022800D01*
X003664Y023280D01*
X002985Y023280D01*
X002505Y022800D01*
X002505Y022120D01*
X002985Y021640D01*
X002730Y021895D02*
X001145Y021895D01*
X001145Y022053D02*
X002572Y022053D01*
X002505Y022212D02*
X001145Y022212D01*
X001145Y022370D02*
X002505Y022370D01*
X002505Y022529D02*
X001145Y022529D01*
X001145Y022687D02*
X002505Y022687D01*
X002551Y022846D02*
X001145Y022846D01*
X001145Y023004D02*
X002709Y023004D01*
X002868Y023163D02*
X001145Y023163D01*
X001145Y023321D02*
X005350Y023321D01*
X005350Y023163D02*
X003782Y023163D01*
X003940Y023004D02*
X005350Y023004D01*
X005350Y022846D02*
X004099Y022846D01*
X004145Y022687D02*
X005350Y022687D01*
X005350Y022529D02*
X004145Y022529D01*
X004145Y022370D02*
X005350Y022370D01*
X005391Y022212D02*
X004145Y022212D01*
X004077Y022053D02*
X005478Y022053D01*
X005675Y021895D02*
X003919Y021895D01*
X003760Y021736D02*
X009700Y021736D01*
X009858Y021895D02*
X006225Y021895D01*
X005350Y023480D02*
X001145Y023480D01*
X001145Y023638D02*
X005350Y023638D01*
X005350Y023797D02*
X001145Y023797D01*
X001145Y023955D02*
X005362Y023955D01*
X005428Y024114D02*
X001145Y024114D01*
X001145Y024272D02*
X005568Y024272D01*
X005727Y024431D02*
X001145Y024431D01*
X001145Y024589D02*
X005885Y024589D01*
X006044Y024748D02*
X001145Y024748D01*
X001145Y024906D02*
X006202Y024906D01*
X006362Y025065D02*
X001145Y025065D01*
X001145Y025223D02*
X010534Y025223D01*
X010376Y025382D02*
X001145Y025382D01*
X001145Y025540D02*
X010217Y025540D01*
X010059Y025699D02*
X001145Y025699D01*
X001145Y025857D02*
X009900Y025857D01*
X009742Y026016D02*
X001145Y026016D01*
X001145Y026174D02*
X009583Y026174D01*
X009514Y026333D02*
X001145Y026333D01*
X001145Y026491D02*
X009510Y026491D01*
X009510Y026650D02*
X001145Y026650D01*
X001145Y026808D02*
X009510Y026808D01*
X009510Y026967D02*
X001145Y026967D01*
X001145Y027125D02*
X009510Y027125D01*
X009510Y027284D02*
X001145Y027284D01*
X001145Y027442D02*
X009510Y027442D01*
X009510Y027601D02*
X001145Y027601D01*
X001145Y027759D02*
X009510Y027759D01*
X009510Y027918D02*
X001145Y027918D01*
X001145Y028076D02*
X002692Y028076D01*
X002485Y028235D02*
X001145Y028235D01*
X001145Y028393D02*
X002358Y028393D01*
X002292Y028552D02*
X001145Y028552D01*
X001145Y028710D02*
X002255Y028710D01*
X002255Y028869D02*
X001145Y028869D01*
X001145Y029027D02*
X002279Y029027D01*
X002345Y029186D02*
X001145Y029186D01*
X001145Y029344D02*
X002454Y029344D01*
X002616Y029503D02*
X001145Y029503D01*
X001145Y029661D02*
X002975Y029661D01*
X002975Y029820D02*
X001145Y029820D01*
X001145Y029978D02*
X002975Y029978D01*
X002975Y030137D02*
X001145Y030137D01*
X001145Y030295D02*
X002975Y030295D01*
X002975Y030454D02*
X001145Y030454D01*
X001145Y030612D02*
X002975Y030612D01*
X002975Y030771D02*
X001145Y030771D01*
X001145Y030929D02*
X002975Y030929D01*
X002975Y031088D02*
X001145Y031088D01*
X001145Y031246D02*
X002360Y031246D01*
X002113Y031405D02*
X001145Y031405D01*
X001145Y031563D02*
X001366Y031563D01*
X001784Y031563D02*
X001998Y031563D01*
X002789Y031246D02*
X002975Y031246D01*
X004175Y029978D02*
X004303Y029978D01*
X004175Y029820D02*
X004462Y029820D01*
X004620Y029661D02*
X004175Y029661D01*
X004533Y029503D02*
X004779Y029503D01*
X004695Y029344D02*
X004937Y029344D01*
X004805Y029186D02*
X005096Y029186D01*
X005281Y029027D02*
X004870Y029027D01*
X004895Y028869D02*
X009510Y028869D01*
X009510Y029027D02*
X007118Y029027D01*
X007304Y029186D02*
X009510Y029186D01*
X009510Y029344D02*
X007387Y029344D01*
X007425Y029503D02*
X009510Y029503D01*
X009510Y029661D02*
X007425Y029661D01*
X007365Y029820D02*
X009510Y029820D01*
X009494Y029978D02*
X007250Y029978D01*
X006989Y030137D02*
X009452Y030137D01*
X009458Y030295D02*
X005683Y030295D01*
X005525Y030454D02*
X009524Y030454D01*
X009691Y030612D02*
X005366Y030612D01*
X005208Y030771D02*
X010135Y030771D01*
X010135Y030929D02*
X005175Y030929D01*
X005175Y031088D02*
X010135Y031088D01*
X010135Y031246D02*
X005175Y031246D01*
X005175Y031405D02*
X010135Y031405D01*
X010084Y031563D02*
X005784Y031563D01*
X006035Y031722D02*
X010077Y031722D01*
X010118Y031880D02*
X006154Y031880D01*
X006220Y032039D02*
X010229Y032039D01*
X009465Y032995D02*
X009465Y035410D01*
X009502Y035374D01*
X009711Y035287D01*
X009938Y035287D01*
X010148Y035374D01*
X010308Y035534D01*
X010395Y035744D01*
X010395Y036304D01*
X010553Y036370D01*
X010713Y036530D01*
X010800Y036740D01*
X010800Y036967D01*
X010713Y037176D01*
X010553Y037336D01*
X010395Y037402D01*
X010395Y038069D01*
X010811Y038485D01*
X011411Y038485D01*
X011279Y038431D01*
X011056Y038208D01*
X010936Y037916D01*
X010936Y037601D01*
X011056Y037310D01*
X011279Y037087D01*
X011571Y036966D01*
X011886Y036966D01*
X012177Y037087D01*
X012400Y037310D01*
X012521Y037601D01*
X012521Y037916D01*
X012400Y038208D01*
X012177Y038431D01*
X012046Y038485D01*
X013104Y038485D01*
X012972Y038431D01*
X012749Y038208D01*
X012629Y037916D01*
X012629Y037601D01*
X012749Y037310D01*
X012972Y037087D01*
X013264Y036966D01*
X013579Y036966D01*
X013870Y037087D01*
X014093Y037310D01*
X014214Y037601D01*
X014214Y037916D01*
X014093Y038208D01*
X013870Y038431D01*
X013739Y038485D01*
X016755Y038485D01*
X016755Y037399D01*
X016604Y037336D01*
X016516Y037248D01*
X016439Y037325D01*
X016235Y037409D01*
X016013Y037409D01*
X015809Y037325D01*
X015652Y037168D01*
X015568Y036964D01*
X015568Y036743D01*
X015652Y036538D01*
X015809Y036382D01*
X016013Y036297D01*
X016183Y036297D01*
X016054Y036168D01*
X015969Y035964D01*
X015969Y035743D01*
X016054Y035538D01*
X016085Y035507D01*
X016085Y033053D01*
X015976Y033053D01*
X015835Y032995D01*
X009465Y032995D01*
X009465Y033148D02*
X016085Y033148D01*
X016085Y033307D02*
X009465Y033307D01*
X009465Y033465D02*
X016085Y033465D01*
X016085Y033624D02*
X009465Y033624D01*
X009465Y033782D02*
X016085Y033782D01*
X016085Y033941D02*
X009465Y033941D01*
X009465Y034099D02*
X016085Y034099D01*
X016085Y034258D02*
X009465Y034258D01*
X009465Y034416D02*
X016085Y034416D01*
X016085Y034575D02*
X009465Y034575D01*
X009465Y034733D02*
X016085Y034733D01*
X016085Y034892D02*
X009465Y034892D01*
X009465Y035050D02*
X016085Y035050D01*
X016085Y035209D02*
X009465Y035209D01*
X009465Y035367D02*
X009518Y035367D01*
X010131Y035367D02*
X011918Y035367D01*
X011944Y035356D02*
X012142Y035356D01*
X012325Y035432D01*
X012465Y035572D01*
X012540Y035754D01*
X012540Y035952D01*
X012465Y036135D01*
X012325Y036275D01*
X012142Y036350D01*
X011944Y036350D01*
X011762Y036275D01*
X011622Y036135D01*
X011546Y035952D01*
X011546Y035754D01*
X011622Y035572D01*
X011762Y035432D01*
X011944Y035356D01*
X012169Y035367D02*
X012981Y035367D01*
X013007Y035356D02*
X012825Y035432D01*
X012685Y035572D01*
X012609Y035754D01*
X012609Y035952D01*
X012685Y036135D01*
X012825Y036275D01*
X013007Y036350D01*
X013205Y036350D01*
X013388Y036275D01*
X013528Y036135D01*
X013603Y035952D01*
X013603Y035754D01*
X013528Y035572D01*
X013388Y035432D01*
X013205Y035356D01*
X013007Y035356D01*
X013232Y035367D02*
X016085Y035367D01*
X016067Y035526D02*
X013482Y035526D01*
X013574Y035684D02*
X015993Y035684D01*
X015969Y035843D02*
X013603Y035843D01*
X013583Y036001D02*
X015985Y036001D01*
X016050Y036160D02*
X013503Y036160D01*
X013283Y036318D02*
X015962Y036318D01*
X015714Y036477D02*
X010660Y036477D01*
X010757Y036635D02*
X015612Y036635D01*
X015568Y036794D02*
X010800Y036794D01*
X010800Y036952D02*
X015568Y036952D01*
X015628Y037111D02*
X013894Y037111D01*
X014052Y037269D02*
X015753Y037269D01*
X016495Y037269D02*
X016537Y037269D01*
X016755Y037428D02*
X014142Y037428D01*
X014207Y037586D02*
X016755Y037586D01*
X016755Y037745D02*
X014214Y037745D01*
X014214Y037903D02*
X016755Y037903D01*
X016755Y038062D02*
X014153Y038062D01*
X014080Y038220D02*
X016755Y038220D01*
X016755Y038379D02*
X013922Y038379D01*
X012920Y038379D02*
X012229Y038379D01*
X012388Y038220D02*
X012762Y038220D01*
X012689Y038062D02*
X012461Y038062D01*
X012521Y037903D02*
X012629Y037903D01*
X012629Y037745D02*
X012521Y037745D01*
X012514Y037586D02*
X012635Y037586D01*
X012701Y037428D02*
X012449Y037428D01*
X012359Y037269D02*
X012790Y037269D01*
X012949Y037111D02*
X012201Y037111D01*
X012220Y036318D02*
X012929Y036318D01*
X012709Y036160D02*
X012440Y036160D01*
X012520Y036001D02*
X012629Y036001D01*
X012609Y035843D02*
X012540Y035843D01*
X012511Y035684D02*
X012638Y035684D01*
X012731Y035526D02*
X012419Y035526D01*
X011668Y035526D02*
X010299Y035526D01*
X010370Y035684D02*
X011575Y035684D01*
X011546Y035843D02*
X010395Y035843D01*
X010395Y036001D02*
X011566Y036001D01*
X011646Y036160D02*
X010395Y036160D01*
X010428Y036318D02*
X011866Y036318D01*
X011256Y037111D02*
X010741Y037111D01*
X010620Y037269D02*
X011097Y037269D01*
X011008Y037428D02*
X010395Y037428D01*
X010395Y037586D02*
X010942Y037586D01*
X010936Y037745D02*
X010395Y037745D01*
X010395Y037903D02*
X010936Y037903D01*
X010996Y038062D02*
X010395Y038062D01*
X010546Y038220D02*
X011069Y038220D01*
X011227Y038379D02*
X010704Y038379D01*
X009885Y039171D02*
X001145Y039171D01*
X001145Y039013D02*
X009726Y039013D01*
X009568Y038854D02*
X002760Y038854D01*
X002588Y038925D02*
X002211Y038925D01*
X001861Y038781D01*
X001594Y038513D01*
X001450Y038164D01*
X001450Y037786D01*
X001594Y037437D01*
X001861Y037170D01*
X002211Y037025D01*
X002588Y037025D01*
X002938Y037170D01*
X003205Y037437D01*
X003349Y037786D01*
X003349Y038164D01*
X003205Y038513D01*
X002938Y038781D01*
X002588Y038925D01*
X003023Y038696D02*
X009409Y038696D01*
X009304Y038537D02*
X006113Y038537D01*
X006079Y038551D02*
X005764Y038551D01*
X005472Y038431D01*
X005249Y038208D01*
X005129Y037916D01*
X005129Y037601D01*
X005249Y037310D01*
X005472Y037087D01*
X005764Y036966D01*
X006079Y036966D01*
X006370Y037087D01*
X006593Y037310D01*
X006714Y037601D01*
X006714Y037916D01*
X006593Y038208D01*
X006370Y038431D01*
X006079Y038551D01*
X005729Y038537D02*
X003181Y038537D01*
X003261Y038379D02*
X005420Y038379D01*
X005262Y038220D02*
X003326Y038220D01*
X003349Y038062D02*
X005189Y038062D01*
X005129Y037903D02*
X003349Y037903D01*
X003332Y037745D02*
X005129Y037745D01*
X005135Y037586D02*
X003266Y037586D01*
X003195Y037428D02*
X005201Y037428D01*
X005290Y037269D02*
X004198Y037269D01*
X004446Y037111D02*
X005449Y037111D01*
X005507Y036350D02*
X005325Y036275D01*
X005185Y036135D01*
X005109Y035952D01*
X005109Y035754D01*
X005185Y035572D01*
X005325Y035432D01*
X005507Y035356D01*
X005705Y035356D01*
X005888Y035432D01*
X006028Y035572D01*
X006103Y035754D01*
X006103Y035952D01*
X006028Y036135D01*
X005888Y036275D01*
X005705Y036350D01*
X005507Y036350D01*
X005429Y036318D02*
X004515Y036318D01*
X004586Y036477D02*
X008214Y036477D01*
X008112Y036635D02*
X004620Y036635D01*
X004620Y036794D02*
X008068Y036794D01*
X008068Y036952D02*
X004558Y036952D01*
X004397Y036160D02*
X005209Y036160D01*
X005129Y036001D02*
X004538Y036001D01*
X004603Y035843D02*
X005109Y035843D01*
X005138Y035684D02*
X004620Y035684D01*
X004607Y035526D02*
X005231Y035526D01*
X005481Y035367D02*
X004664Y035367D01*
X005732Y035367D02*
X008585Y035367D01*
X008585Y035209D02*
X005750Y035209D01*
X005952Y035050D02*
X008585Y035050D01*
X008585Y034892D02*
X006110Y034892D01*
X006269Y034733D02*
X008585Y034733D01*
X008585Y034575D02*
X006427Y034575D01*
X006586Y034416D02*
X008585Y034416D01*
X008585Y034258D02*
X006744Y034258D01*
X006903Y034099D02*
X008585Y034099D01*
X008585Y033941D02*
X007061Y033941D01*
X007220Y033782D02*
X008585Y033782D01*
X008585Y033624D02*
X007378Y033624D01*
X007537Y033465D02*
X008585Y033465D01*
X008585Y033307D02*
X007695Y033307D01*
X007854Y033148D02*
X008585Y033148D01*
X007560Y032197D02*
X006225Y032197D01*
X006206Y032356D02*
X007402Y032356D01*
X007243Y032514D02*
X006140Y032514D01*
X006001Y032673D02*
X007085Y032673D01*
X006926Y032831D02*
X005137Y032831D01*
X005002Y032990D02*
X006768Y032990D01*
X006609Y033148D02*
X004707Y033148D01*
X004443Y033148D02*
X003707Y033148D01*
X003443Y033148D02*
X002707Y033148D01*
X002443Y033148D02*
X001145Y033148D01*
X001145Y032990D02*
X002148Y032990D01*
X002012Y032831D02*
X001145Y032831D01*
X001145Y032673D02*
X001148Y032673D01*
X001145Y033307D02*
X006451Y033307D01*
X006292Y033465D02*
X001145Y033465D01*
X001145Y033624D02*
X006134Y033624D01*
X005975Y033782D02*
X001145Y033782D01*
X001145Y033941D02*
X005817Y033941D01*
X005658Y034099D02*
X001145Y034099D01*
X001145Y034258D02*
X003450Y034258D01*
X003291Y034416D02*
X001145Y034416D01*
X001145Y034575D02*
X003263Y034575D01*
X003261Y034733D02*
X001145Y034733D01*
X001145Y034892D02*
X003261Y034892D01*
X003261Y035050D02*
X001145Y035050D01*
X001145Y035209D02*
X002994Y035209D01*
X002858Y035367D02*
X001145Y035367D01*
X001145Y035526D02*
X002793Y035526D01*
X002780Y035684D02*
X001145Y035684D01*
X001145Y035843D02*
X002796Y035843D01*
X002862Y036001D02*
X001145Y036001D01*
X001145Y036160D02*
X003002Y036160D01*
X002885Y036318D02*
X001145Y036318D01*
X001145Y036477D02*
X002813Y036477D01*
X002780Y036635D02*
X001145Y036635D01*
X001145Y036794D02*
X002780Y036794D01*
X002841Y036952D02*
X001145Y036952D01*
X001145Y037111D02*
X002005Y037111D01*
X001762Y037269D02*
X001145Y037269D01*
X001145Y037428D02*
X001604Y037428D01*
X001533Y037586D02*
X001145Y037586D01*
X001145Y037745D02*
X001467Y037745D01*
X001450Y037903D02*
X001145Y037903D01*
X001145Y038062D02*
X001450Y038062D01*
X001473Y038220D02*
X001145Y038220D01*
X001145Y038379D02*
X001538Y038379D01*
X001618Y038537D02*
X001145Y038537D01*
X001145Y038696D02*
X001776Y038696D01*
X002039Y038854D02*
X001145Y038854D01*
X002794Y037111D02*
X002953Y037111D01*
X003037Y037269D02*
X003202Y037269D01*
X005783Y036318D02*
X008462Y036318D01*
X008550Y036160D02*
X006003Y036160D01*
X006083Y036001D02*
X008485Y036001D01*
X008469Y035843D02*
X006103Y035843D01*
X006074Y035684D02*
X008493Y035684D01*
X008567Y035526D02*
X005982Y035526D01*
X005500Y034258D02*
X004699Y034258D01*
X004198Y034258D02*
X003951Y034258D01*
X004002Y032990D02*
X004148Y032990D01*
X003148Y032990D02*
X003002Y032990D01*
X005175Y031563D02*
X005366Y031563D01*
X004895Y028710D02*
X009510Y028710D01*
X009510Y028552D02*
X004857Y028552D01*
X004792Y028393D02*
X009510Y028393D01*
X009510Y028235D02*
X004664Y028235D01*
X004458Y028076D02*
X009510Y028076D01*
X012694Y023955D02*
X012760Y023955D01*
X012450Y022055D02*
X012450Y015680D01*
X013200Y013680D02*
X013950Y013680D01*
X016950Y010680D01*
X018575Y010680D01*
X019450Y009805D01*
X022200Y009805D01*
X023705Y010369D02*
X023705Y011131D01*
X023647Y011270D01*
X022867Y012050D01*
X023889Y012050D01*
X024175Y011764D01*
X024175Y010387D01*
X024157Y010369D01*
X023992Y010369D01*
X023893Y010376D01*
X023872Y010369D01*
X023705Y010369D01*
X023705Y010483D02*
X024175Y010483D01*
X024175Y010641D02*
X023705Y010641D01*
X023705Y010800D02*
X024175Y010800D01*
X024175Y010958D02*
X023705Y010958D01*
X023705Y011117D02*
X024175Y011117D01*
X024175Y011275D02*
X023642Y011275D01*
X023484Y011434D02*
X024175Y011434D01*
X024175Y011592D02*
X023325Y011592D01*
X023167Y011751D02*
X024175Y011751D01*
X024030Y011909D02*
X023008Y011909D01*
X023950Y011305D02*
X023950Y010679D01*
X024975Y010641D02*
X026175Y010641D01*
X026175Y010483D02*
X024975Y010483D01*
X024975Y010389D02*
X024975Y012010D01*
X024914Y012157D01*
X024770Y012300D01*
X025764Y012300D01*
X026175Y011889D01*
X026175Y010387D01*
X026157Y010369D01*
X025992Y010369D01*
X025893Y010376D01*
X025872Y010369D01*
X025630Y010369D01*
X025513Y010320D01*
X025422Y010230D01*
X025374Y010113D01*
X025374Y009749D01*
X025422Y009632D01*
X025513Y009542D01*
X025630Y009493D01*
X025757Y009493D01*
X025759Y009490D01*
X025826Y009462D01*
X025891Y009430D01*
X025907Y009429D01*
X025921Y009423D01*
X025993Y009423D01*
X026065Y009418D01*
X026080Y009423D01*
X026101Y009423D01*
X026108Y009406D01*
X026198Y009316D01*
X026315Y009267D01*
X026433Y009267D01*
X026433Y008739D01*
X025467Y008739D01*
X025467Y009336D01*
X025418Y009454D01*
X025328Y009544D01*
X025210Y009593D01*
X025093Y009593D01*
X025093Y010202D01*
X025044Y010320D01*
X024975Y010389D01*
X025040Y010324D02*
X025521Y010324D01*
X025396Y010166D02*
X025093Y010166D01*
X025093Y010007D02*
X025374Y010007D01*
X025324Y009863D02*
X025324Y010429D01*
X025575Y010680D01*
X025949Y010680D01*
X025950Y010679D01*
X025950Y011305D01*
X026175Y011275D02*
X024975Y011275D01*
X024975Y011117D02*
X026175Y011117D01*
X026175Y010958D02*
X024975Y010958D01*
X024975Y010800D02*
X026175Y010800D01*
X026175Y011434D02*
X024975Y011434D01*
X024975Y011592D02*
X026175Y011592D01*
X026175Y011751D02*
X024975Y011751D01*
X024975Y011909D02*
X026155Y011909D01*
X025996Y012068D02*
X024951Y012068D01*
X024844Y012226D02*
X025838Y012226D01*
X025950Y012680D02*
X026575Y012055D01*
X026575Y009805D01*
X026574Y009818D01*
X026569Y009830D01*
X026562Y009841D01*
X026553Y009850D01*
X026542Y009857D01*
X026530Y009862D01*
X026517Y009863D01*
X026009Y009863D01*
X026141Y009373D02*
X025451Y009373D01*
X025467Y009215D02*
X026433Y009215D01*
X026433Y009056D02*
X025467Y009056D01*
X025467Y008898D02*
X026433Y008898D01*
X026433Y008739D02*
X026422Y008728D01*
X026374Y008611D01*
X026374Y008247D01*
X026422Y008130D01*
X026497Y008055D01*
X026422Y007980D01*
X026374Y007863D01*
X026374Y007676D01*
X026120Y007676D01*
X025939Y007495D01*
X025524Y007495D01*
X025526Y007499D01*
X025526Y007863D01*
X025477Y007980D01*
X025402Y008055D01*
X025477Y008130D01*
X025526Y008247D01*
X025526Y008611D01*
X025477Y008728D01*
X025467Y008739D01*
X025526Y008581D02*
X026374Y008581D01*
X026374Y008422D02*
X025526Y008422D01*
X025526Y008264D02*
X026374Y008264D01*
X026447Y008105D02*
X025452Y008105D01*
X025491Y007947D02*
X026408Y007947D01*
X026374Y007788D02*
X025526Y007788D01*
X025526Y007630D02*
X026073Y007630D01*
X027402Y008055D02*
X027477Y008130D01*
X027526Y008247D01*
X027526Y008611D01*
X027477Y008728D01*
X027467Y008739D01*
X028433Y008739D01*
X028422Y008728D01*
X028374Y008611D01*
X028374Y008247D01*
X028422Y008130D01*
X028497Y008055D01*
X028450Y008008D01*
X028387Y008070D01*
X028269Y008119D01*
X027630Y008119D01*
X027513Y008070D01*
X027450Y008008D01*
X027402Y008055D01*
X027452Y008105D02*
X027596Y008105D01*
X027526Y008264D02*
X028374Y008264D01*
X028374Y008422D02*
X027526Y008422D01*
X027526Y008581D02*
X028374Y008581D01*
X028433Y008739D02*
X028433Y009267D01*
X028315Y009267D01*
X028198Y009316D01*
X028148Y009366D01*
X028042Y009366D01*
X028037Y009364D01*
X027862Y009364D01*
X027858Y009366D01*
X027630Y009366D01*
X027513Y009415D01*
X027422Y009505D01*
X027374Y009622D01*
X027374Y009986D01*
X027422Y010103D01*
X027513Y010193D01*
X027630Y010242D01*
X027774Y010242D01*
X027921Y010303D01*
X028101Y010303D01*
X028108Y010320D01*
X028175Y010387D01*
X028175Y011514D01*
X027139Y012550D01*
X026645Y012550D01*
X026914Y012282D01*
X026975Y012135D01*
X026975Y010389D01*
X027044Y010320D01*
X027093Y010202D01*
X027093Y009593D01*
X027210Y009593D01*
X027328Y009544D01*
X027418Y009454D01*
X027467Y009336D01*
X027467Y008739D01*
X027467Y008898D02*
X028433Y008898D01*
X028433Y009056D02*
X027467Y009056D01*
X027575Y009055D02*
X027324Y009306D01*
X027324Y009863D01*
X027325Y009864D01*
X027325Y011305D01*
X026975Y011275D02*
X028175Y011275D01*
X028175Y011117D02*
X026975Y011117D01*
X026975Y010958D02*
X028175Y010958D01*
X028175Y010800D02*
X026975Y010800D01*
X026975Y010641D02*
X028175Y010641D01*
X028175Y010483D02*
X026975Y010483D01*
X027040Y010324D02*
X028112Y010324D01*
X028575Y009930D02*
X028573Y009910D01*
X028569Y009891D01*
X028561Y009873D01*
X028551Y009856D01*
X028538Y009841D01*
X028523Y009828D01*
X028506Y009818D01*
X028488Y009810D01*
X028469Y009806D01*
X028449Y009804D01*
X028575Y009864D02*
X028575Y009930D01*
X028575Y011680D01*
X027325Y012930D01*
X027146Y012543D02*
X026652Y012543D01*
X026811Y012385D02*
X027304Y012385D01*
X027463Y012226D02*
X026937Y012226D01*
X026975Y012068D02*
X027621Y012068D01*
X027780Y011909D02*
X026975Y011909D01*
X026975Y011751D02*
X027938Y011751D01*
X028097Y011592D02*
X026975Y011592D01*
X026975Y011434D02*
X028175Y011434D01*
X028975Y011434D02*
X030347Y011434D01*
X030351Y011432D02*
X030549Y011432D01*
X030732Y011508D01*
X030872Y011648D01*
X030948Y011831D01*
X030948Y012029D01*
X030872Y012212D01*
X030732Y012352D01*
X030549Y012428D01*
X030351Y012428D01*
X030303Y012408D01*
X030323Y012456D01*
X030323Y012654D01*
X030247Y012837D01*
X030225Y012859D01*
X030225Y013764D01*
X030260Y013800D01*
X030697Y013800D01*
X030745Y013780D01*
X030904Y013780D01*
X031051Y013841D01*
X031279Y014069D01*
X031392Y013955D01*
X031453Y013930D01*
X031392Y013905D01*
X031235Y013747D01*
X031150Y013541D01*
X031150Y013319D01*
X031235Y013113D01*
X031392Y012955D01*
X031453Y012930D01*
X031392Y012905D01*
X031235Y012747D01*
X031150Y012541D01*
X031150Y012319D01*
X031235Y012113D01*
X031392Y011955D01*
X031453Y011930D01*
X031392Y011905D01*
X031235Y011747D01*
X031150Y011541D01*
X031150Y011319D01*
X031235Y011113D01*
X031392Y010955D01*
X031598Y010870D01*
X032301Y010870D01*
X032507Y010955D01*
X032664Y011113D01*
X032708Y011217D01*
X032793Y011133D01*
X032976Y011057D01*
X033174Y011057D01*
X033314Y011115D01*
X033537Y011115D01*
X033699Y011182D01*
X034199Y011682D01*
X034214Y011697D01*
X034150Y011541D01*
X034150Y011319D01*
X034235Y011113D01*
X034392Y010955D01*
X034393Y010955D01*
X034254Y010955D01*
X034232Y010977D01*
X034049Y011053D01*
X033851Y011053D01*
X033668Y010977D01*
X033527Y010837D01*
X033452Y010654D01*
X033452Y010619D01*
X033414Y010657D01*
X033301Y010769D01*
X033154Y010830D01*
X029995Y010830D01*
X029848Y010769D01*
X029598Y010519D01*
X029486Y010407D01*
X029425Y010260D01*
X029425Y009437D01*
X029418Y009454D01*
X029328Y009544D01*
X029210Y009593D01*
X029093Y009593D01*
X029093Y010202D01*
X029044Y010320D01*
X028975Y010389D01*
X028975Y011530D01*
X030145Y011530D01*
X030168Y011508D01*
X030351Y011432D01*
X030553Y011434D02*
X031150Y011434D01*
X031171Y011592D02*
X030816Y011592D01*
X030914Y011751D02*
X031238Y011751D01*
X031403Y011909D02*
X030948Y011909D01*
X030932Y012068D02*
X031280Y012068D01*
X031188Y012226D02*
X030858Y012226D01*
X030654Y012385D02*
X031150Y012385D01*
X031150Y012543D02*
X030323Y012543D01*
X030303Y012702D02*
X031216Y012702D01*
X031348Y012860D02*
X030225Y012860D01*
X030225Y013019D02*
X031329Y013019D01*
X031208Y013177D02*
X030225Y013177D01*
X030225Y013336D02*
X031150Y013336D01*
X031150Y013494D02*
X030225Y013494D01*
X030225Y013653D02*
X031196Y013653D01*
X031299Y013811D02*
X030979Y013811D01*
X031180Y013970D02*
X031378Y013970D01*
X031075Y014430D02*
X031075Y016305D01*
X033950Y019180D01*
X033950Y022680D01*
X034890Y022335D02*
X035067Y022335D01*
X035120Y022357D01*
X035496Y022357D01*
X035321Y022183D01*
X035197Y021881D01*
X035197Y021555D01*
X035321Y021254D01*
X035552Y021023D01*
X035853Y020898D01*
X036070Y020898D01*
X036066Y020895D01*
X035975Y020674D01*
X035975Y020436D01*
X036066Y020215D01*
X036235Y020046D01*
X036455Y019955D01*
X037850Y019955D01*
X037850Y018530D01*
X035830Y018530D01*
X035610Y018439D01*
X035441Y018270D01*
X035350Y018049D01*
X035350Y017811D01*
X035441Y017590D01*
X035610Y017421D01*
X035830Y017330D01*
X037626Y017330D01*
X037201Y016905D01*
X032240Y016905D01*
X034176Y018841D01*
X034289Y018953D01*
X034350Y019100D01*
X034350Y020682D01*
X034351Y020682D01*
X034549Y020682D01*
X034732Y020758D01*
X034872Y020898D01*
X034948Y021081D01*
X034948Y021279D01*
X034890Y021419D01*
X035253Y021419D01*
X035197Y021578D02*
X034890Y021578D01*
X034890Y021736D02*
X035197Y021736D01*
X035202Y021895D02*
X034890Y021895D01*
X034890Y022053D02*
X035268Y022053D01*
X035350Y022212D02*
X034890Y022212D01*
X034890Y022335D02*
X034890Y021419D01*
X034948Y021261D02*
X035319Y021261D01*
X035473Y021102D02*
X034948Y021102D01*
X034891Y020944D02*
X035744Y020944D01*
X036021Y020785D02*
X034759Y020785D01*
X034350Y020627D02*
X035975Y020627D01*
X035975Y020468D02*
X034350Y020468D01*
X034350Y020310D02*
X036027Y020310D01*
X036130Y020151D02*
X034350Y020151D01*
X034350Y019993D02*
X036365Y019993D01*
X037850Y019834D02*
X034350Y019834D01*
X034350Y019676D02*
X037850Y019676D01*
X037850Y019517D02*
X034350Y019517D01*
X034350Y019359D02*
X037850Y019359D01*
X037850Y019200D02*
X034350Y019200D01*
X034325Y019042D02*
X037850Y019042D01*
X037850Y018883D02*
X034218Y018883D01*
X034060Y018725D02*
X037850Y018725D01*
X037850Y018566D02*
X033901Y018566D01*
X033743Y018408D02*
X035579Y018408D01*
X035432Y018249D02*
X033584Y018249D01*
X033426Y018091D02*
X035367Y018091D01*
X035350Y017932D02*
X033267Y017932D01*
X033109Y017774D02*
X035365Y017774D01*
X035431Y017615D02*
X032950Y017615D01*
X032792Y017457D02*
X035575Y017457D01*
X037277Y016981D02*
X032316Y016981D01*
X032475Y017140D02*
X037436Y017140D01*
X037594Y017298D02*
X032633Y017298D01*
X032175Y018471D02*
X032175Y018549D01*
X032083Y018770D01*
X031915Y018939D01*
X031694Y019030D01*
X030682Y019030D01*
X030461Y018939D01*
X030292Y018770D01*
X029867Y018345D01*
X029792Y018270D01*
X029701Y018049D01*
X029701Y014936D01*
X029745Y014830D01*
X029370Y014830D01*
X029223Y014769D01*
X029111Y014657D01*
X028736Y014282D01*
X028675Y014135D01*
X028675Y012859D01*
X028652Y012837D01*
X028639Y012806D01*
X027926Y013519D01*
X027779Y013580D01*
X027620Y013580D01*
X027572Y013560D01*
X026530Y013560D01*
X026588Y013618D01*
X026637Y013735D01*
X026637Y013963D01*
X026639Y013967D01*
X026639Y014131D01*
X026833Y014131D01*
X026951Y014179D01*
X027041Y014269D01*
X027080Y014365D01*
X027162Y014365D01*
X027324Y014432D01*
X027361Y014469D01*
X027465Y014469D01*
X027680Y014558D01*
X027840Y014719D01*
X028001Y014558D01*
X028216Y014469D01*
X028449Y014469D01*
X028664Y014558D01*
X028829Y014723D01*
X028918Y014938D01*
X028918Y015172D01*
X028829Y015387D01*
X028731Y015485D01*
X028706Y015546D01*
X028582Y015670D01*
X028199Y016053D01*
X028037Y016120D01*
X027080Y016120D01*
X027041Y016216D01*
X026951Y016306D01*
X026833Y016354D01*
X026514Y016354D01*
X026514Y017256D01*
X026833Y017256D01*
X026951Y017304D01*
X027041Y017394D01*
X027051Y017419D01*
X027232Y017344D01*
X027465Y017344D01*
X027680Y017433D01*
X027840Y017594D01*
X028001Y017433D01*
X028216Y017344D01*
X028449Y017344D01*
X028664Y017433D01*
X028829Y017598D01*
X028918Y017813D01*
X028918Y018047D01*
X028829Y018262D01*
X028731Y018360D01*
X028706Y018421D01*
X028582Y018545D01*
X028331Y018796D01*
X028370Y018780D01*
X029279Y018780D01*
X029426Y018841D01*
X030615Y020030D01*
X032029Y020030D01*
X032176Y020091D01*
X032801Y020716D01*
X032914Y020828D01*
X032975Y020975D01*
X032975Y021501D01*
X032997Y021523D01*
X033012Y021560D01*
X033027Y021523D01*
X033050Y021501D01*
X033050Y019346D01*
X032175Y018471D01*
X032168Y018566D02*
X032270Y018566D01*
X032429Y018725D02*
X032102Y018725D01*
X031970Y018883D02*
X032587Y018883D01*
X032746Y019042D02*
X029627Y019042D01*
X029785Y019200D02*
X032904Y019200D01*
X033050Y019359D02*
X029944Y019359D01*
X030102Y019517D02*
X033050Y019517D01*
X033050Y019676D02*
X030261Y019676D01*
X030419Y019834D02*
X033050Y019834D01*
X033050Y019993D02*
X030578Y019993D01*
X030450Y020430D02*
X031950Y020430D01*
X032575Y021055D01*
X032575Y021805D01*
X032975Y021419D02*
X033050Y021419D01*
X033050Y021261D02*
X032975Y021261D01*
X032975Y021102D02*
X033050Y021102D01*
X033050Y020944D02*
X032961Y020944D01*
X033050Y020785D02*
X032870Y020785D01*
X032712Y020627D02*
X033050Y020627D01*
X033050Y020468D02*
X032553Y020468D01*
X032395Y020310D02*
X033050Y020310D01*
X033050Y020151D02*
X032236Y020151D01*
X033450Y019180D02*
X033450Y021805D01*
X035372Y023497D02*
X035451Y023576D01*
X035541Y023794D01*
X035541Y024029D01*
X035451Y024246D01*
X035393Y024305D01*
X035451Y024364D01*
X035541Y024581D01*
X035541Y024816D01*
X035451Y025034D01*
X035285Y025200D01*
X035067Y025290D01*
X034832Y025290D01*
X034615Y025200D01*
X034448Y025034D01*
X034358Y024816D01*
X034358Y024581D01*
X034448Y024364D01*
X034507Y024305D01*
X034448Y024246D01*
X034358Y024029D01*
X034358Y023882D01*
X034308Y024003D01*
X034148Y024163D01*
X033938Y024250D01*
X033311Y024250D01*
X033270Y024291D01*
X033270Y024694D01*
X034183Y025607D01*
X034270Y025817D01*
X034270Y026043D01*
X034183Y026253D01*
X034023Y026413D01*
X033940Y026447D01*
X034415Y026921D01*
X034583Y027090D01*
X034675Y027311D01*
X034675Y028681D01*
X034695Y028702D01*
X034830Y028702D01*
X035466Y028702D01*
X035321Y028558D01*
X035197Y028256D01*
X035197Y027930D01*
X035321Y027629D01*
X035458Y027492D01*
X035321Y027356D01*
X035197Y027055D01*
X035197Y026729D01*
X035321Y026427D01*
X035552Y026196D01*
X035853Y026072D01*
X036180Y026072D01*
X036481Y026196D01*
X036712Y026427D01*
X036837Y026729D01*
X036837Y027055D01*
X036712Y027356D01*
X036575Y027492D01*
X036712Y027629D01*
X036837Y027930D01*
X036837Y028256D01*
X036712Y028558D01*
X036568Y028702D01*
X037850Y028702D01*
X037850Y023530D01*
X036704Y023530D01*
X036646Y023506D01*
X036543Y023506D01*
X036450Y023467D01*
X036356Y023506D01*
X035795Y023506D01*
X035774Y023497D01*
X035372Y023497D01*
X035477Y023638D02*
X037850Y023638D01*
X037850Y023797D02*
X035541Y023797D01*
X035541Y023955D02*
X037850Y023955D01*
X037850Y024114D02*
X035506Y024114D01*
X035426Y024272D02*
X037850Y024272D01*
X037850Y024431D02*
X035479Y024431D01*
X035541Y024589D02*
X037850Y024589D01*
X037850Y024748D02*
X035541Y024748D01*
X035504Y024906D02*
X037850Y024906D01*
X037850Y025065D02*
X035421Y025065D01*
X035230Y025223D02*
X037850Y025223D01*
X037850Y025382D02*
X033957Y025382D01*
X034116Y025540D02*
X037850Y025540D01*
X037850Y025699D02*
X034221Y025699D01*
X034270Y025857D02*
X037850Y025857D01*
X037850Y026016D02*
X034270Y026016D01*
X034216Y026174D02*
X035606Y026174D01*
X035416Y026333D02*
X034103Y026333D01*
X033984Y026491D02*
X035295Y026491D01*
X035229Y026650D02*
X034143Y026650D01*
X034301Y026808D02*
X035197Y026808D01*
X035197Y026967D02*
X034460Y026967D01*
X034598Y027125D02*
X035226Y027125D01*
X035291Y027284D02*
X034663Y027284D01*
X034675Y027442D02*
X035407Y027442D01*
X035350Y027601D02*
X034675Y027601D01*
X034675Y027759D02*
X035268Y027759D01*
X035202Y027918D02*
X034675Y027918D01*
X034675Y028076D02*
X035197Y028076D01*
X035197Y028235D02*
X034675Y028235D01*
X034675Y028393D02*
X035253Y028393D01*
X035319Y028552D02*
X034675Y028552D01*
X036714Y028552D02*
X037850Y028552D01*
X037850Y028393D02*
X036780Y028393D01*
X036837Y028235D02*
X037850Y028235D01*
X037850Y028076D02*
X036837Y028076D01*
X036831Y027918D02*
X037850Y027918D01*
X037850Y027759D02*
X036766Y027759D01*
X036683Y027601D02*
X037850Y027601D01*
X037850Y027442D02*
X036626Y027442D01*
X036742Y027284D02*
X037850Y027284D01*
X037850Y027125D02*
X036807Y027125D01*
X036837Y026967D02*
X037850Y026967D01*
X037850Y026808D02*
X036837Y026808D01*
X036804Y026650D02*
X037850Y026650D01*
X037850Y026491D02*
X036738Y026491D01*
X036617Y026333D02*
X037850Y026333D01*
X037850Y026174D02*
X036427Y026174D01*
X034669Y025223D02*
X033799Y025223D01*
X033640Y025065D02*
X034479Y025065D01*
X034395Y024906D02*
X033482Y024906D01*
X033323Y024748D02*
X034358Y024748D01*
X034358Y024589D02*
X033270Y024589D01*
X033270Y024431D02*
X034420Y024431D01*
X034474Y024272D02*
X033289Y024272D01*
X034197Y024114D02*
X034393Y024114D01*
X034358Y023955D02*
X034328Y023955D01*
X036420Y023480D02*
X036480Y023480D01*
X039050Y023480D02*
X039875Y023480D01*
X039875Y023638D02*
X039050Y023638D01*
X039050Y023797D02*
X039875Y023797D01*
X039875Y023955D02*
X039050Y023955D01*
X039050Y024114D02*
X039875Y024114D01*
X039875Y024272D02*
X039050Y024272D01*
X039050Y024431D02*
X039875Y024431D01*
X039875Y024589D02*
X039050Y024589D01*
X039050Y024748D02*
X039875Y024748D01*
X039875Y024906D02*
X039050Y024906D01*
X039050Y025065D02*
X039875Y025065D01*
X039875Y025223D02*
X039050Y025223D01*
X039050Y025382D02*
X039875Y025382D01*
X039875Y025540D02*
X039050Y025540D01*
X039050Y025699D02*
X039875Y025699D01*
X039875Y025857D02*
X039050Y025857D01*
X039050Y026016D02*
X039875Y026016D01*
X039875Y026174D02*
X039050Y026174D01*
X039050Y026333D02*
X039875Y026333D01*
X039875Y026491D02*
X039050Y026491D01*
X039050Y026650D02*
X039875Y026650D01*
X039875Y026808D02*
X039050Y026808D01*
X039050Y026967D02*
X039875Y026967D01*
X039875Y027125D02*
X039050Y027125D01*
X039050Y027284D02*
X039875Y027284D01*
X039875Y027442D02*
X039050Y027442D01*
X039050Y027601D02*
X039875Y027601D01*
X039875Y027759D02*
X039050Y027759D01*
X039050Y027918D02*
X039875Y027918D01*
X039875Y028076D02*
X039050Y028076D01*
X039050Y028235D02*
X039875Y028235D01*
X039875Y028393D02*
X039050Y028393D01*
X039050Y028552D02*
X039875Y028552D01*
X039875Y028710D02*
X039050Y028710D01*
X039050Y028869D02*
X039875Y028869D01*
X039875Y029027D02*
X039050Y029027D01*
X039050Y029186D02*
X039875Y029186D01*
X039875Y029344D02*
X039050Y029344D01*
X039050Y029503D02*
X039875Y029503D01*
X039875Y029661D02*
X039050Y029661D01*
X039050Y029820D02*
X039875Y029820D01*
X039875Y029978D02*
X039050Y029978D01*
X039050Y030137D02*
X039875Y030137D01*
X039875Y030295D02*
X039050Y030295D01*
X039050Y030454D02*
X039875Y030454D01*
X039875Y030612D02*
X039050Y030612D01*
X039050Y030771D02*
X039875Y030771D01*
X039875Y030929D02*
X039050Y030929D01*
X039050Y031088D02*
X039875Y031088D01*
X039875Y031246D02*
X039050Y031246D01*
X039050Y031405D02*
X039875Y031405D01*
X039875Y031563D02*
X039050Y031563D01*
X039050Y031722D02*
X039875Y031722D01*
X039875Y031880D02*
X039050Y031880D01*
X039050Y032039D02*
X039875Y032039D01*
X039875Y032197D02*
X039190Y032197D01*
X039050Y032056D02*
X039583Y032590D01*
X039675Y032811D01*
X039675Y036299D01*
X039583Y036520D01*
X039415Y036689D01*
X038999Y037104D01*
X039158Y037170D01*
X039425Y037437D01*
X039570Y037786D01*
X039570Y038164D01*
X039425Y038513D01*
X039158Y038781D01*
X038809Y038925D01*
X038431Y038925D01*
X038082Y038781D01*
X037815Y038513D01*
X037670Y038164D01*
X037670Y037786D01*
X037815Y037437D01*
X037972Y037280D01*
X035620Y037280D01*
X035650Y037310D01*
X035771Y037601D01*
X035771Y037916D01*
X035650Y038208D01*
X035427Y038431D01*
X035136Y038551D01*
X034821Y038551D01*
X034529Y038431D01*
X034306Y038208D01*
X034186Y037916D01*
X034186Y037601D01*
X034306Y037310D01*
X034336Y037280D01*
X033902Y037280D01*
X033820Y037362D01*
X033645Y037435D01*
X033645Y038418D01*
X033558Y038628D01*
X033398Y038788D01*
X032956Y039230D01*
X039875Y039230D01*
X039875Y012311D01*
X039773Y012413D01*
X038773Y013413D01*
X038563Y013500D01*
X037015Y013500D01*
X037015Y013643D01*
X036948Y013804D01*
X036824Y013928D01*
X036748Y014004D01*
X037083Y014340D01*
X037175Y014561D01*
X037175Y015705D01*
X037569Y015705D01*
X037790Y015796D01*
X038790Y016796D01*
X038958Y016965D01*
X039050Y017186D01*
X039050Y032056D01*
X039349Y032356D02*
X039875Y032356D01*
X039875Y032514D02*
X039507Y032514D01*
X039617Y032673D02*
X039875Y032673D01*
X039875Y032831D02*
X039675Y032831D01*
X039675Y032990D02*
X039875Y032990D01*
X039875Y033148D02*
X039675Y033148D01*
X039675Y033307D02*
X039875Y033307D01*
X039875Y033465D02*
X039675Y033465D01*
X039675Y033624D02*
X039875Y033624D01*
X039875Y033782D02*
X039675Y033782D01*
X039675Y033941D02*
X039875Y033941D01*
X039875Y034099D02*
X039675Y034099D01*
X039675Y034258D02*
X039875Y034258D01*
X039875Y034416D02*
X039675Y034416D01*
X039675Y034575D02*
X039875Y034575D01*
X039875Y034733D02*
X039675Y034733D01*
X039675Y034892D02*
X039875Y034892D01*
X039875Y035050D02*
X039675Y035050D01*
X039675Y035209D02*
X039875Y035209D01*
X039875Y035367D02*
X039675Y035367D01*
X039675Y035526D02*
X039875Y035526D01*
X039875Y035684D02*
X039675Y035684D01*
X039675Y035843D02*
X039875Y035843D01*
X039875Y036001D02*
X039675Y036001D01*
X039675Y036160D02*
X039875Y036160D01*
X039875Y036318D02*
X039667Y036318D01*
X039601Y036477D02*
X039875Y036477D01*
X039875Y036635D02*
X039468Y036635D01*
X039310Y036794D02*
X039875Y036794D01*
X039875Y036952D02*
X039151Y036952D01*
X039015Y037111D02*
X039875Y037111D01*
X039875Y037269D02*
X039257Y037269D01*
X039416Y037428D02*
X039875Y037428D01*
X039875Y037586D02*
X039487Y037586D01*
X039553Y037745D02*
X039875Y037745D01*
X039875Y037903D02*
X039570Y037903D01*
X039570Y038062D02*
X039875Y038062D01*
X039875Y038220D02*
X039547Y038220D01*
X039481Y038379D02*
X039875Y038379D01*
X039875Y038537D02*
X039402Y038537D01*
X039243Y038696D02*
X039875Y038696D01*
X039875Y038854D02*
X038981Y038854D01*
X038259Y038854D02*
X033332Y038854D01*
X033490Y038696D02*
X037997Y038696D01*
X037838Y038537D02*
X035170Y038537D01*
X035479Y038379D02*
X037759Y038379D01*
X037693Y038220D02*
X035638Y038220D01*
X035711Y038062D02*
X037670Y038062D01*
X037670Y037903D02*
X035771Y037903D01*
X035771Y037745D02*
X037687Y037745D01*
X037753Y037586D02*
X035764Y037586D01*
X035699Y037428D02*
X037824Y037428D01*
X039875Y039013D02*
X033173Y039013D01*
X033015Y039171D02*
X039875Y039171D01*
X036627Y035050D02*
X036567Y035050D01*
X038261Y033941D02*
X038475Y033941D01*
X037850Y031880D02*
X036372Y031880D01*
X036530Y031722D02*
X037850Y031722D01*
X037850Y031563D02*
X036767Y031563D01*
X036874Y031405D02*
X037850Y031405D01*
X037850Y031246D02*
X036890Y031246D01*
X036889Y031088D02*
X037850Y031088D01*
X037850Y030929D02*
X036889Y030929D01*
X036889Y030771D02*
X037850Y030771D01*
X037850Y030612D02*
X036889Y030612D01*
X036889Y030454D02*
X037850Y030454D01*
X037850Y030295D02*
X036889Y030295D01*
X036887Y030137D02*
X037850Y030137D01*
X037850Y029978D02*
X036884Y029978D01*
X036450Y030306D02*
X036450Y031180D01*
X036450Y030306D02*
X036449Y030305D01*
X031950Y030555D02*
X031950Y029555D01*
X031950Y029181D01*
X031950Y027805D01*
X031325Y027180D01*
X029575Y027180D01*
X029242Y026808D02*
X027020Y026808D01*
X027020Y026650D02*
X030922Y026650D01*
X031052Y026780D02*
X028075Y023803D01*
X027952Y023679D01*
X027885Y023518D01*
X027885Y022303D01*
X027726Y022303D01*
X027543Y022227D01*
X027402Y022087D01*
X027327Y021904D01*
X027327Y021706D01*
X027402Y021523D01*
X027425Y021501D01*
X027425Y019725D01*
X027486Y019578D01*
X027841Y019223D01*
X027787Y019245D01*
X027080Y019245D01*
X027041Y019341D01*
X026951Y019431D01*
X026833Y019479D01*
X026608Y019479D01*
X026644Y019567D01*
X026644Y022818D01*
X026933Y023107D01*
X027020Y023317D01*
X027020Y027485D01*
X029175Y027485D01*
X029152Y027462D01*
X029077Y027279D01*
X029077Y027081D01*
X029152Y026898D01*
X029293Y026758D01*
X029476Y026682D01*
X029674Y026682D01*
X029857Y026758D01*
X029879Y026780D01*
X031052Y026780D01*
X030763Y026491D02*
X027020Y026491D01*
X027020Y026333D02*
X030605Y026333D01*
X030446Y026174D02*
X027020Y026174D01*
X027020Y026016D02*
X030288Y026016D01*
X030129Y025857D02*
X027020Y025857D01*
X027020Y025699D02*
X029971Y025699D01*
X029812Y025540D02*
X027020Y025540D01*
X027020Y025382D02*
X029654Y025382D01*
X029495Y025223D02*
X027020Y025223D01*
X027020Y025065D02*
X029337Y025065D01*
X029178Y024906D02*
X027020Y024906D01*
X027020Y024748D02*
X029020Y024748D01*
X028861Y024589D02*
X027020Y024589D01*
X027020Y024431D02*
X028703Y024431D01*
X028544Y024272D02*
X027020Y024272D01*
X027020Y024114D02*
X028386Y024114D01*
X028227Y023955D02*
X027020Y023955D01*
X027020Y023797D02*
X028069Y023797D01*
X027935Y023638D02*
X027020Y023638D01*
X027020Y023480D02*
X027885Y023480D01*
X027885Y023321D02*
X027020Y023321D01*
X026956Y023163D02*
X027885Y023163D01*
X027885Y023004D02*
X026830Y023004D01*
X026671Y022846D02*
X027885Y022846D01*
X027885Y022687D02*
X026644Y022687D01*
X026644Y022529D02*
X027885Y022529D01*
X027885Y022370D02*
X026644Y022370D01*
X026644Y022212D02*
X027527Y022212D01*
X027388Y022053D02*
X026644Y022053D01*
X026644Y021895D02*
X027327Y021895D01*
X027327Y021736D02*
X026644Y021736D01*
X026644Y021578D02*
X027380Y021578D01*
X027425Y021419D02*
X026644Y021419D01*
X026644Y021261D02*
X027425Y021261D01*
X027425Y021102D02*
X026644Y021102D01*
X026644Y020944D02*
X027425Y020944D01*
X027425Y020785D02*
X026644Y020785D01*
X026644Y020627D02*
X027425Y020627D01*
X027425Y020468D02*
X026644Y020468D01*
X026644Y020310D02*
X027425Y020310D01*
X027425Y020151D02*
X026644Y020151D01*
X026644Y019993D02*
X027425Y019993D01*
X027425Y019834D02*
X026644Y019834D01*
X026644Y019676D02*
X027445Y019676D01*
X027547Y019517D02*
X026623Y019517D01*
X026950Y019680D02*
X026950Y021680D01*
X027825Y021805D02*
X027825Y019805D01*
X028450Y019180D01*
X029200Y019180D01*
X030450Y020430D01*
X030406Y018883D02*
X029468Y018883D01*
X029930Y018408D02*
X028711Y018408D01*
X028834Y018249D02*
X029784Y018249D01*
X029718Y018091D02*
X028900Y018091D01*
X028918Y017932D02*
X029701Y017932D01*
X029701Y017774D02*
X028902Y017774D01*
X028836Y017615D02*
X029701Y017615D01*
X029701Y017457D02*
X028687Y017457D01*
X027978Y017457D02*
X027703Y017457D01*
X026935Y017298D02*
X029701Y017298D01*
X029701Y017140D02*
X026514Y017140D01*
X026514Y016981D02*
X029701Y016981D01*
X029701Y016823D02*
X026514Y016823D01*
X026514Y016664D02*
X029701Y016664D01*
X029701Y016506D02*
X026514Y016506D01*
X026851Y016347D02*
X029701Y016347D01*
X029701Y016189D02*
X027052Y016189D01*
X028222Y016030D02*
X029701Y016030D01*
X029701Y015872D02*
X028380Y015872D01*
X028539Y015713D02*
X029701Y015713D01*
X029701Y015555D02*
X028697Y015555D01*
X028820Y015396D02*
X029701Y015396D01*
X029701Y015238D02*
X028891Y015238D01*
X028918Y015079D02*
X029701Y015079D01*
X029707Y014921D02*
X028911Y014921D01*
X028845Y014762D02*
X029216Y014762D01*
X029325Y014680D02*
X029325Y015305D01*
X029325Y014680D02*
X028200Y013555D01*
X023950Y013555D01*
X023700Y013805D01*
X023700Y014049D01*
X023694Y014055D01*
X022950Y014055D01*
X022986Y014307D02*
X022788Y014307D01*
X022605Y014383D01*
X022465Y014523D01*
X022389Y014706D01*
X022389Y014904D01*
X022465Y015087D01*
X022605Y015227D01*
X022636Y015240D01*
X022627Y015240D01*
X022486Y015182D01*
X022288Y015182D01*
X022225Y015208D01*
X022225Y014984D01*
X022247Y014962D01*
X022323Y014779D01*
X022323Y014581D01*
X022247Y014398D01*
X022133Y014284D01*
X022857Y013560D01*
X023999Y013560D01*
X023887Y013607D01*
X023796Y013697D01*
X023748Y013814D01*
X023748Y014229D01*
X023295Y014229D01*
X023178Y014278D01*
X023101Y014354D01*
X022986Y014307D01*
X023169Y014287D02*
X022136Y014287D01*
X022266Y014445D02*
X022543Y014445D01*
X022431Y014604D02*
X022323Y014604D01*
X022323Y014762D02*
X022389Y014762D01*
X022396Y014921D02*
X022264Y014921D01*
X022225Y015079D02*
X022462Y015079D01*
X022621Y015238D02*
X022630Y015238D01*
X022627Y016120D02*
X022486Y016178D01*
X022288Y016178D01*
X022225Y016152D01*
X022225Y016764D01*
X022789Y017328D01*
X022850Y017475D01*
X022850Y017658D01*
X022950Y017557D01*
X023084Y017502D01*
X023088Y017493D01*
X023178Y017403D01*
X023295Y017354D01*
X023748Y017354D01*
X023748Y016939D01*
X023796Y016822D01*
X023796Y016823D02*
X022283Y016823D01*
X022225Y016664D02*
X023748Y016664D01*
X023748Y016671D02*
X023748Y016256D01*
X023295Y016256D01*
X023178Y016207D01*
X023091Y016120D01*
X022627Y016120D01*
X022225Y016189D02*
X023159Y016189D01*
X023694Y016430D02*
X023694Y016805D01*
X023694Y017180D01*
X023748Y017140D02*
X022600Y017140D01*
X022758Y017298D02*
X023748Y017298D01*
X023748Y016981D02*
X022441Y016981D01*
X022225Y016506D02*
X023748Y016506D01*
X023748Y016347D02*
X022225Y016347D01*
X021825Y016930D02*
X021825Y014680D01*
X022289Y014128D02*
X023748Y014128D01*
X023748Y013970D02*
X022448Y013970D01*
X022606Y013811D02*
X023749Y013811D01*
X023841Y013653D02*
X022765Y013653D01*
X024075Y012430D02*
X024575Y011930D01*
X024575Y009805D01*
X025093Y009849D02*
X025374Y009849D01*
X025398Y009690D02*
X025093Y009690D01*
X025340Y009532D02*
X025537Y009532D01*
X026517Y009863D02*
X026530Y009862D01*
X026542Y009857D01*
X026553Y009850D01*
X026562Y009841D01*
X026569Y009830D01*
X026574Y009818D01*
X026575Y009805D01*
X027093Y009849D02*
X027374Y009849D01*
X027383Y010007D02*
X027093Y010007D01*
X027093Y010166D02*
X027485Y010166D01*
X027374Y009690D02*
X027093Y009690D01*
X027340Y009532D02*
X027411Y009532D01*
X027451Y009373D02*
X027613Y009373D01*
X027467Y009215D02*
X028433Y009215D01*
X027950Y009056D02*
X027950Y008429D01*
X028303Y008105D02*
X028447Y008105D01*
X027950Y007681D02*
X027950Y007061D01*
X027950Y006805D01*
X027823Y009055D02*
X027575Y009055D01*
X027823Y009055D02*
X027824Y009056D01*
X028576Y009863D02*
X028575Y009864D01*
X029093Y009849D02*
X029425Y009849D01*
X029324Y009863D02*
X029324Y010929D01*
X029324Y010930D01*
X030700Y010930D01*
X030700Y011305D01*
X030700Y010930D02*
X033450Y010930D01*
X034450Y011930D01*
X035700Y011930D01*
X035619Y012068D02*
X038506Y012068D01*
X038348Y012226D02*
X035711Y012226D01*
X035750Y012319D02*
X035750Y012541D01*
X035664Y012747D01*
X035507Y012905D01*
X035446Y012930D01*
X035507Y012955D01*
X035664Y013113D01*
X035750Y013319D01*
X035750Y013490D01*
X036017Y013490D01*
X036067Y013440D01*
X036002Y013413D01*
X035841Y013253D01*
X035755Y013043D01*
X035755Y012817D01*
X035841Y012607D01*
X036002Y012447D01*
X036211Y012360D01*
X038214Y012360D01*
X038880Y011694D01*
X038880Y010420D01*
X038650Y010420D01*
X038539Y010532D01*
X038426Y010644D01*
X038315Y010690D01*
X038315Y011060D01*
X037955Y011420D01*
X037445Y011420D01*
X037423Y011398D01*
X037232Y011588D01*
X037176Y011644D01*
X037176Y011644D01*
X037176Y011645D01*
X037103Y011675D01*
X037029Y011705D01*
X037028Y011705D01*
X036949Y011705D01*
X035745Y011705D01*
X035691Y011683D01*
X035664Y011747D01*
X035507Y011905D01*
X035446Y011930D01*
X035507Y011955D01*
X035664Y012113D01*
X035750Y012319D01*
X035750Y012385D02*
X036152Y012385D01*
X035906Y012543D02*
X035749Y012543D01*
X035802Y012702D02*
X035683Y012702D01*
X035755Y012860D02*
X035552Y012860D01*
X035570Y013019D02*
X035755Y013019D01*
X035810Y013177D02*
X035691Y013177D01*
X035750Y013336D02*
X035924Y013336D01*
X036782Y013970D02*
X039875Y013970D01*
X039875Y014128D02*
X036871Y014128D01*
X037030Y014287D02*
X039875Y014287D01*
X039875Y014445D02*
X037127Y014445D01*
X037175Y014604D02*
X039875Y014604D01*
X039875Y014762D02*
X037175Y014762D01*
X037175Y014921D02*
X039875Y014921D01*
X039875Y015079D02*
X037175Y015079D01*
X037175Y015238D02*
X039875Y015238D01*
X039875Y015396D02*
X037175Y015396D01*
X037175Y015555D02*
X039875Y015555D01*
X039875Y015713D02*
X037588Y015713D01*
X037865Y015872D02*
X039875Y015872D01*
X039875Y016030D02*
X038023Y016030D01*
X038182Y016189D02*
X039875Y016189D01*
X039875Y016347D02*
X038340Y016347D01*
X038499Y016506D02*
X039875Y016506D01*
X039875Y016664D02*
X038657Y016664D01*
X038816Y016823D02*
X039875Y016823D01*
X039875Y016981D02*
X038965Y016981D01*
X039031Y017140D02*
X039875Y017140D01*
X039875Y017298D02*
X039050Y017298D01*
X039050Y017457D02*
X039875Y017457D01*
X039875Y017615D02*
X039050Y017615D01*
X039050Y017774D02*
X039875Y017774D01*
X039875Y017932D02*
X039050Y017932D01*
X039050Y018091D02*
X039875Y018091D01*
X039875Y018249D02*
X039050Y018249D01*
X039050Y018408D02*
X039875Y018408D01*
X039875Y018566D02*
X039050Y018566D01*
X039050Y018725D02*
X039875Y018725D01*
X039875Y018883D02*
X039050Y018883D01*
X039050Y019042D02*
X039875Y019042D01*
X039875Y019200D02*
X039050Y019200D01*
X039050Y019359D02*
X039875Y019359D01*
X039875Y019517D02*
X039050Y019517D01*
X039050Y019676D02*
X039875Y019676D01*
X039875Y019834D02*
X039050Y019834D01*
X039050Y019993D02*
X039875Y019993D01*
X039875Y020151D02*
X039050Y020151D01*
X039050Y020310D02*
X039875Y020310D01*
X039875Y020468D02*
X039050Y020468D01*
X039050Y020627D02*
X039875Y020627D01*
X039875Y020785D02*
X039050Y020785D01*
X039050Y020944D02*
X039875Y020944D01*
X039875Y021102D02*
X039050Y021102D01*
X039050Y021261D02*
X039875Y021261D01*
X039875Y021419D02*
X039050Y021419D01*
X039050Y021578D02*
X039875Y021578D01*
X039875Y021736D02*
X039050Y021736D01*
X039050Y021895D02*
X039875Y021895D01*
X039875Y022053D02*
X039050Y022053D01*
X039050Y022212D02*
X039875Y022212D01*
X039875Y022370D02*
X039050Y022370D01*
X039050Y022529D02*
X039875Y022529D01*
X039875Y022687D02*
X039050Y022687D01*
X039050Y022846D02*
X039875Y022846D01*
X039875Y023004D02*
X039050Y023004D01*
X039050Y023163D02*
X039875Y023163D01*
X039875Y023321D02*
X039050Y023321D01*
X033450Y019180D02*
X030825Y016555D01*
X030825Y014555D01*
X030700Y014430D01*
X029450Y014430D01*
X029075Y014055D01*
X029075Y012555D01*
X028675Y012860D02*
X028585Y012860D01*
X028675Y013019D02*
X028427Y013019D01*
X028268Y013177D02*
X028675Y013177D01*
X028675Y013336D02*
X028110Y013336D01*
X027951Y013494D02*
X028675Y013494D01*
X028675Y013653D02*
X026602Y013653D01*
X026637Y013811D02*
X028675Y013811D01*
X028675Y013970D02*
X026639Y013970D01*
X026639Y014128D02*
X028675Y014128D01*
X028741Y014287D02*
X027048Y014287D01*
X027337Y014445D02*
X028899Y014445D01*
X029058Y014604D02*
X028709Y014604D01*
X027956Y014604D02*
X027725Y014604D01*
X027700Y013180D02*
X028950Y011930D01*
X030450Y011930D01*
X029825Y012555D02*
X029825Y013930D01*
X030075Y014180D01*
X030825Y014180D02*
X031075Y014430D01*
X033288Y014897D02*
X033376Y014897D01*
X033493Y014946D01*
X033583Y015036D01*
X033632Y015154D01*
X033632Y015705D01*
X035975Y015705D01*
X035975Y015000D01*
X035711Y015000D01*
X035502Y014913D01*
X035341Y014753D01*
X035255Y014543D01*
X035255Y014370D01*
X033632Y014370D01*
X033520Y014482D01*
X033520Y014543D01*
X033433Y014753D01*
X033288Y014897D01*
X033431Y014921D02*
X035519Y014921D01*
X035351Y014762D02*
X033424Y014762D01*
X033495Y014604D02*
X035280Y014604D01*
X035255Y014445D02*
X033557Y014445D01*
X033601Y015079D02*
X035975Y015079D01*
X035975Y015238D02*
X033632Y015238D01*
X033632Y015396D02*
X035975Y015396D01*
X035975Y015555D02*
X033632Y015555D01*
X030247Y018725D02*
X028402Y018725D01*
X028561Y018566D02*
X030089Y018566D01*
X027705Y019359D02*
X027023Y019359D01*
X025504Y020256D02*
X025144Y020256D01*
X025026Y020207D01*
X024939Y020120D01*
X024533Y020120D01*
X024525Y020128D01*
X024407Y020177D01*
X024004Y020177D01*
X023887Y020128D01*
X023796Y020038D01*
X023748Y019921D01*
X023748Y019439D01*
X023772Y019381D01*
X023622Y019381D01*
X023430Y019572D01*
X023372Y019712D01*
X023232Y019852D01*
X023049Y019928D01*
X022888Y019928D01*
X023240Y020280D01*
X024529Y020280D01*
X024676Y020341D01*
X024789Y020453D01*
X025392Y021057D01*
X025424Y021057D01*
X025504Y021090D01*
X025504Y020256D01*
X025504Y020310D02*
X024601Y020310D01*
X024470Y020151D02*
X024970Y020151D01*
X025075Y020305D02*
X023950Y020305D01*
X023700Y020055D01*
X023700Y019686D01*
X023694Y019680D01*
X023748Y019676D02*
X023387Y019676D01*
X023485Y019517D02*
X023748Y019517D01*
X023748Y019834D02*
X023250Y019834D01*
X022953Y019993D02*
X023777Y019993D01*
X023941Y020151D02*
X023111Y020151D01*
X023075Y020680D02*
X022450Y020055D01*
X022450Y017555D01*
X021825Y016930D01*
X021325Y016930D02*
X022200Y017805D01*
X022200Y021430D01*
X022698Y021419D02*
X024623Y021419D01*
X024465Y021261D02*
X022669Y021261D01*
X022600Y021102D02*
X024306Y021102D01*
X024450Y020680D02*
X023075Y020680D01*
X022773Y020944D02*
X022600Y020944D01*
X022600Y020785D02*
X022614Y020785D01*
X022678Y021578D02*
X024782Y021578D01*
X024861Y021736D02*
X022598Y021736D01*
X022380Y021895D02*
X024960Y021895D01*
X025225Y022053D02*
X022140Y022053D01*
X022140Y022212D02*
X025504Y022212D01*
X025504Y022370D02*
X022140Y022370D01*
X022140Y022529D02*
X025504Y022529D01*
X025504Y022687D02*
X022140Y022687D01*
X022140Y022846D02*
X025504Y022846D01*
X025504Y023004D02*
X022140Y023004D01*
X022140Y023163D02*
X025504Y023163D01*
X025567Y023321D02*
X022140Y023321D01*
X022140Y023480D02*
X025693Y023480D01*
X025852Y023638D02*
X022140Y023638D01*
X022128Y023797D02*
X025880Y023797D01*
X025880Y023955D02*
X022047Y023955D01*
X021888Y024114D02*
X025880Y024114D01*
X025880Y024272D02*
X021730Y024272D01*
X021571Y024431D02*
X025880Y024431D01*
X025880Y024589D02*
X021413Y024589D01*
X021588Y025699D02*
X022061Y025699D01*
X021903Y025857D02*
X021747Y025857D01*
X022588Y025699D02*
X023061Y025699D01*
X022903Y025857D02*
X022747Y025857D01*
X023588Y025699D02*
X024061Y025699D01*
X023903Y025857D02*
X023747Y025857D01*
X024588Y025699D02*
X025061Y025699D01*
X024903Y025857D02*
X024747Y025857D01*
X025588Y025699D02*
X025880Y025699D01*
X025880Y025857D02*
X025747Y025857D01*
X027020Y026967D02*
X029124Y026967D01*
X029077Y027125D02*
X027020Y027125D01*
X027020Y027284D02*
X029078Y027284D01*
X029144Y027442D02*
X027020Y027442D01*
X026351Y028710D02*
X031550Y028710D01*
X031550Y028552D02*
X029865Y028552D01*
X030043Y028393D02*
X031550Y028393D01*
X031550Y028235D02*
X030117Y028235D01*
X030145Y028076D02*
X031550Y028076D01*
X031497Y027918D02*
X030135Y027918D01*
X030069Y027759D02*
X031338Y027759D01*
X031180Y027601D02*
X029926Y027601D01*
X031550Y028869D02*
X026192Y028869D01*
X026034Y029027D02*
X031550Y029027D01*
X031550Y029186D02*
X025875Y029186D01*
X025717Y029344D02*
X031550Y029344D01*
X031550Y029503D02*
X025558Y029503D01*
X025400Y029661D02*
X027763Y029661D01*
X027508Y029820D02*
X020294Y029820D01*
X020405Y029978D02*
X027393Y029978D01*
X027330Y030137D02*
X020448Y030137D01*
X020441Y030295D02*
X027330Y030295D01*
X027330Y030454D02*
X020376Y030454D01*
X020208Y030612D02*
X027330Y030612D01*
X028243Y031405D02*
X028656Y031405D01*
X028464Y031246D02*
X028435Y031246D01*
X029243Y031405D02*
X030493Y031405D01*
X030412Y031246D02*
X029435Y031246D01*
X029524Y031088D02*
X030375Y031088D01*
X030330Y030929D02*
X029570Y030929D01*
X029570Y030771D02*
X030330Y030771D01*
X030330Y030612D02*
X029570Y030612D01*
X029570Y030454D02*
X030330Y030454D01*
X030330Y030295D02*
X029570Y030295D01*
X029570Y030137D02*
X030330Y030137D01*
X030393Y029978D02*
X029506Y029978D01*
X029391Y029820D02*
X030508Y029820D01*
X030763Y029661D02*
X029136Y029661D01*
X028763Y029661D02*
X028136Y029661D01*
X028391Y029820D02*
X028508Y029820D01*
X031136Y029661D02*
X031550Y029661D01*
X031508Y029820D02*
X031391Y029820D01*
X024787Y037269D02*
X024745Y037269D01*
X033596Y038537D02*
X034786Y038537D01*
X034477Y038379D02*
X033645Y038379D01*
X033645Y038220D02*
X034319Y038220D01*
X034246Y038062D02*
X033645Y038062D01*
X033645Y037903D02*
X034186Y037903D01*
X034186Y037745D02*
X033645Y037745D01*
X033645Y037586D02*
X034192Y037586D01*
X034258Y037428D02*
X033662Y037428D01*
X021951Y026808D02*
X021692Y026808D01*
X020200Y023555D02*
X020700Y023055D01*
X020700Y022555D01*
X024450Y020680D02*
X025325Y021555D01*
X025279Y020944D02*
X025504Y020944D01*
X025504Y020785D02*
X025120Y020785D01*
X024962Y020627D02*
X025504Y020627D01*
X025504Y020468D02*
X024803Y020468D01*
X022892Y017615D02*
X022850Y017615D01*
X022842Y017457D02*
X023124Y017457D01*
X023796Y016822D02*
X023813Y016805D01*
X023796Y016788D01*
X023748Y016671D01*
X021325Y016930D02*
X021325Y015180D01*
X018200Y010180D02*
X017950Y010180D01*
X017700Y009930D01*
X017700Y009055D01*
X018075Y008680D01*
X018075Y006430D01*
X019200Y005305D01*
X021200Y005305D01*
X021700Y005805D01*
X021575Y006055D02*
X021075Y005555D01*
X020450Y005555D01*
X019825Y006180D01*
X020825Y006180D02*
X020950Y006305D01*
X021575Y005305D02*
X023200Y005305D01*
X023700Y004930D02*
X023575Y004805D01*
X018950Y004805D01*
X018325Y005430D01*
X010075Y005430D01*
X009762Y005743D01*
X009572Y006203D02*
X005270Y006203D01*
X005270Y006045D02*
X009360Y006045D01*
X009282Y005886D02*
X005270Y005886D01*
X005270Y005728D02*
X009264Y005728D01*
X009295Y005569D02*
X005270Y005569D01*
X005270Y005411D02*
X009390Y005411D01*
X009645Y005252D02*
X005270Y005252D01*
X005270Y005094D02*
X009845Y005094D01*
X009483Y004618D02*
X012821Y004618D01*
X012751Y004460D02*
X009553Y004460D01*
X009585Y004301D02*
X012720Y004301D01*
X012720Y004143D02*
X009585Y004143D01*
X009585Y003984D02*
X012720Y003984D01*
X012720Y003826D02*
X009585Y003826D01*
X009585Y003667D02*
X012720Y003667D01*
X012731Y003509D02*
X009573Y003509D01*
X009507Y003350D02*
X012797Y003350D01*
X012931Y003192D02*
X009373Y003192D01*
X008556Y003192D02*
X006119Y003192D01*
X005961Y003350D02*
X008422Y003350D01*
X008356Y003509D02*
X005802Y003509D01*
X005644Y003667D02*
X008345Y003667D01*
X008345Y003826D02*
X005485Y003826D01*
X005327Y003984D02*
X008345Y003984D01*
X008345Y004143D02*
X005270Y004143D01*
X005270Y004301D02*
X008345Y004301D01*
X008376Y004460D02*
X005270Y004460D01*
X005270Y004618D02*
X008446Y004618D01*
X008604Y004777D02*
X005270Y004777D01*
X005270Y004935D02*
X018254Y004935D01*
X018412Y004777D02*
X018075Y004777D01*
X018233Y004618D02*
X018571Y004618D01*
X018739Y004460D02*
X018303Y004460D01*
X018335Y004301D02*
X021470Y004301D01*
X021470Y004143D02*
X018335Y004143D01*
X018335Y003984D02*
X021470Y003984D01*
X021470Y003826D02*
X018335Y003826D01*
X018335Y003667D02*
X021470Y003667D01*
X021481Y003509D02*
X018323Y003509D01*
X018257Y003350D02*
X021547Y003350D01*
X021681Y003192D02*
X018123Y003192D01*
X017306Y003192D02*
X013748Y003192D01*
X013882Y003350D02*
X017172Y003350D01*
X017106Y003509D02*
X013948Y003509D01*
X013960Y003667D02*
X017095Y003667D01*
X017095Y003826D02*
X013960Y003826D01*
X013960Y003984D02*
X017095Y003984D01*
X017095Y004143D02*
X013960Y004143D01*
X013960Y004301D02*
X017095Y004301D01*
X017126Y004460D02*
X013928Y004460D01*
X013858Y004618D02*
X017196Y004618D01*
X017354Y004777D02*
X013700Y004777D01*
X012979Y004777D02*
X009325Y004777D01*
X010242Y005886D02*
X015553Y005886D01*
X015394Y006045D02*
X010165Y006045D01*
X009952Y006203D02*
X015236Y006203D01*
X015077Y006362D02*
X005270Y006362D01*
X005523Y006520D02*
X014919Y006520D01*
X014760Y006679D02*
X005754Y006679D01*
X005851Y006837D02*
X014602Y006837D01*
X014443Y006996D02*
X005895Y006996D01*
X005895Y007154D02*
X014285Y007154D01*
X014126Y007313D02*
X005835Y007313D01*
X005715Y007471D02*
X013968Y007471D01*
X013809Y007630D02*
X005270Y007630D01*
X005270Y007788D02*
X013651Y007788D01*
X013492Y007947D02*
X005270Y007947D01*
X005270Y008105D02*
X013334Y008105D01*
X013175Y008264D02*
X007757Y008264D01*
X007998Y008422D02*
X013017Y008422D01*
X012860Y008581D02*
X008156Y008581D01*
X008315Y008739D02*
X012800Y008739D01*
X012800Y008898D02*
X008473Y008898D01*
X008632Y009056D02*
X012800Y009056D01*
X012800Y009215D02*
X008790Y009215D01*
X008939Y009373D02*
X012800Y009373D01*
X012800Y009532D02*
X009005Y009532D01*
X009020Y009690D02*
X012800Y009690D01*
X012800Y009849D02*
X009020Y009849D01*
X009020Y010007D02*
X012800Y010007D01*
X012800Y010166D02*
X009020Y010166D01*
X009020Y010324D02*
X011059Y010324D01*
X011340Y010324D02*
X012800Y010324D01*
X012800Y010483D02*
X011693Y010483D01*
X011851Y010641D02*
X012800Y010641D01*
X012800Y010800D02*
X012010Y010800D01*
X012075Y010930D02*
X012075Y010180D01*
X012075Y010930D02*
X012700Y011555D01*
X012700Y012930D01*
X012825Y013055D01*
X012725Y013019D02*
X013482Y013019D01*
X013502Y013038D02*
X013341Y012878D01*
X013255Y012668D01*
X013255Y012553D01*
X013101Y012553D01*
X012918Y012477D01*
X012777Y012337D01*
X012725Y012210D01*
X012725Y013514D01*
X012728Y013517D01*
X012777Y013398D01*
X012918Y013258D01*
X013101Y013182D01*
X013299Y013182D01*
X013482Y013258D01*
X013504Y013280D01*
X013784Y013280D01*
X013940Y013124D01*
X013938Y013125D01*
X013711Y013125D01*
X013502Y013038D01*
X013334Y012860D02*
X012725Y012860D01*
X012725Y012702D02*
X013268Y012702D01*
X013076Y012543D02*
X012725Y012543D01*
X012725Y012385D02*
X012825Y012385D01*
X012731Y012226D02*
X012725Y012226D01*
X012725Y011751D02*
X012800Y011751D01*
X012800Y011592D02*
X012721Y011592D01*
X012644Y011434D02*
X012800Y011434D01*
X012800Y011275D02*
X012485Y011275D01*
X012327Y011117D02*
X012800Y011117D01*
X012800Y010958D02*
X012168Y010958D01*
X011513Y011434D02*
X009020Y011434D01*
X009020Y011592D02*
X011671Y011592D01*
X010728Y010641D02*
X009020Y010641D01*
X009020Y010483D02*
X010818Y010483D01*
X013200Y012055D02*
X013200Y008805D01*
X016075Y005930D01*
X017200Y005930D01*
X018200Y005930D01*
X019075Y005055D01*
X021325Y005055D01*
X021575Y005305D01*
X020825Y007180D02*
X020325Y007680D01*
X019575Y007680D01*
X018700Y008555D01*
X018700Y009805D01*
X018200Y009430D02*
X018450Y009180D01*
X018450Y008055D01*
X019325Y007180D01*
X019825Y007180D01*
X022622Y002035D02*
X024454Y002035D01*
X024452Y002029D01*
X024452Y001831D01*
X024527Y001648D01*
X024668Y001508D01*
X024851Y001432D01*
X025049Y001432D01*
X025189Y001490D01*
X026315Y001490D01*
X026315Y001083D01*
X026696Y000702D01*
X027235Y000702D01*
X027615Y001083D01*
X027615Y001621D01*
X027514Y001722D01*
X027526Y001749D01*
X027526Y002113D01*
X027506Y002159D01*
X028393Y002159D01*
X028374Y002113D01*
X028374Y001749D01*
X028385Y001722D01*
X028284Y001621D01*
X028284Y001083D01*
X028665Y000702D01*
X029203Y000702D01*
X029584Y001083D01*
X029584Y001490D01*
X030017Y001490D01*
X030246Y001261D01*
X030202Y001154D01*
X030202Y000956D01*
X030277Y000773D01*
X030418Y000633D01*
X030601Y000557D01*
X030799Y000557D01*
X030982Y000633D01*
X031122Y000773D01*
X031174Y000899D01*
X031502Y000572D01*
X031675Y000500D01*
X022261Y000500D01*
X022441Y000574D01*
X022615Y000749D01*
X022710Y000977D01*
X022710Y001823D01*
X022622Y002035D01*
X022668Y001924D02*
X024452Y001924D01*
X024479Y001765D02*
X022710Y001765D01*
X022710Y001607D02*
X024569Y001607D01*
X024812Y001448D02*
X022710Y001448D01*
X022710Y001290D02*
X026315Y001290D01*
X026315Y001448D02*
X025088Y001448D01*
X026315Y001131D02*
X022710Y001131D01*
X022708Y000973D02*
X026426Y000973D01*
X026584Y000814D02*
X022642Y000814D01*
X022522Y000656D02*
X030395Y000656D01*
X030260Y000814D02*
X029315Y000814D01*
X029473Y000973D02*
X030202Y000973D01*
X030202Y001131D02*
X029584Y001131D01*
X029584Y001290D02*
X030218Y001290D01*
X030059Y001448D02*
X029584Y001448D01*
X028951Y001930D02*
X028950Y001931D01*
X028374Y001924D02*
X027526Y001924D01*
X027526Y002082D02*
X028374Y002082D01*
X028374Y001765D02*
X027526Y001765D01*
X027615Y001607D02*
X028284Y001607D01*
X028284Y001448D02*
X027615Y001448D01*
X027615Y001290D02*
X028284Y001290D01*
X028284Y001131D02*
X027615Y001131D01*
X027505Y000973D02*
X028394Y000973D01*
X028553Y000814D02*
X027346Y000814D01*
X026949Y001930D02*
X026950Y001931D01*
X031005Y000656D02*
X031418Y000656D01*
X031260Y000814D02*
X031139Y000814D01*
X034724Y000500D02*
X034726Y000501D01*
X034768Y000507D01*
X034830Y000544D01*
X034898Y000572D01*
X034927Y000601D01*
X034963Y000622D01*
X035006Y000681D01*
X035058Y000732D01*
X035074Y000770D01*
X035756Y001681D01*
X035808Y001732D01*
X035824Y001770D01*
X035849Y001804D01*
X035867Y001874D01*
X035895Y001942D01*
X035895Y001983D01*
X035905Y002023D01*
X035895Y002096D01*
X035895Y004168D01*
X035808Y004378D01*
X035781Y004405D01*
X037230Y004405D01*
X037445Y004190D01*
X037955Y004190D01*
X038315Y004550D01*
X038315Y005060D01*
X038070Y005305D01*
X038315Y005550D01*
X038315Y006060D01*
X038070Y006305D01*
X038200Y006435D01*
X038445Y006190D01*
X038955Y006190D01*
X039042Y006277D01*
X039130Y006241D01*
X039769Y006241D01*
X039875Y006285D01*
X039875Y000500D01*
X034724Y000500D01*
X034988Y000656D02*
X039875Y000656D01*
X039875Y000814D02*
X038831Y000814D01*
X038809Y000805D02*
X039158Y000949D01*
X039425Y001217D01*
X039570Y001566D01*
X039570Y001944D01*
X039425Y002293D01*
X039158Y002560D01*
X038809Y002705D01*
X038431Y002705D01*
X038082Y002560D01*
X037815Y002293D01*
X037670Y001944D01*
X037670Y001566D01*
X037815Y001217D01*
X038082Y000949D01*
X038431Y000805D01*
X038809Y000805D01*
X038409Y000814D02*
X035106Y000814D01*
X035225Y000973D02*
X038059Y000973D01*
X037900Y001131D02*
X035344Y001131D01*
X035463Y001290D02*
X037784Y001290D01*
X037719Y001448D02*
X035582Y001448D01*
X035701Y001607D02*
X037670Y001607D01*
X037670Y001765D02*
X035822Y001765D01*
X035887Y001924D02*
X037670Y001924D01*
X037727Y002082D02*
X035897Y002082D01*
X035895Y002241D02*
X037793Y002241D01*
X037921Y002399D02*
X035895Y002399D01*
X035895Y002558D02*
X038079Y002558D01*
X039161Y002558D02*
X039875Y002558D01*
X039875Y002716D02*
X035895Y002716D01*
X035895Y002875D02*
X039875Y002875D01*
X039875Y003033D02*
X035895Y003033D01*
X035895Y003192D02*
X039875Y003192D01*
X039875Y003350D02*
X035895Y003350D01*
X035895Y003509D02*
X039875Y003509D01*
X039875Y003667D02*
X035895Y003667D01*
X035895Y003826D02*
X039875Y003826D01*
X039875Y003984D02*
X035895Y003984D01*
X035895Y004143D02*
X039875Y004143D01*
X039875Y004301D02*
X038066Y004301D01*
X038224Y004460D02*
X039875Y004460D01*
X039875Y004618D02*
X038315Y004618D01*
X038315Y004777D02*
X039875Y004777D01*
X039875Y004935D02*
X038315Y004935D01*
X038281Y005094D02*
X039875Y005094D01*
X039875Y005252D02*
X038123Y005252D01*
X038175Y005411D02*
X039875Y005411D01*
X039875Y005569D02*
X038315Y005569D01*
X038315Y005728D02*
X039875Y005728D01*
X039875Y005886D02*
X038315Y005886D01*
X038315Y006045D02*
X039875Y006045D01*
X039875Y006203D02*
X038968Y006203D01*
X038826Y005931D02*
X039450Y005931D01*
X038826Y005931D02*
X038700Y005805D01*
X038700Y004805D01*
X037700Y004805D02*
X035325Y004805D01*
X033825Y006305D01*
X031450Y006305D01*
X032012Y006705D02*
X032712Y007405D01*
X033577Y007405D01*
X033577Y007404D01*
X033577Y007206D01*
X033652Y007023D01*
X033793Y006883D01*
X033976Y006807D01*
X034174Y006807D01*
X034357Y006883D01*
X034379Y006905D01*
X034577Y006905D01*
X034577Y006904D01*
X034577Y006803D01*
X034476Y006803D01*
X034293Y006727D01*
X034152Y006587D01*
X034139Y006556D01*
X034051Y006644D01*
X033904Y006705D01*
X032012Y006705D01*
X032144Y006837D02*
X033903Y006837D01*
X033968Y006679D02*
X034244Y006679D01*
X034246Y006837D02*
X034577Y006837D01*
X035075Y006805D02*
X035575Y006305D01*
X036700Y006305D01*
X036949Y006554D01*
X036949Y006805D01*
X037700Y006805D01*
X038126Y006362D02*
X038273Y006362D01*
X038172Y006203D02*
X038432Y006203D01*
X038826Y006679D02*
X039450Y006679D01*
X038700Y006805D02*
X038200Y007305D01*
X034075Y007305D01*
X033680Y006996D02*
X032303Y006996D01*
X032461Y007154D02*
X033598Y007154D01*
X033577Y007313D02*
X032620Y007313D01*
X032575Y007805D02*
X037700Y007805D01*
X037199Y008429D02*
X036950Y008180D01*
X035450Y008180D01*
X034450Y009180D01*
X032575Y009180D01*
X032325Y008930D01*
X032325Y008680D01*
X032700Y008305D02*
X033950Y008305D01*
X034575Y008305D02*
X034575Y008555D01*
X034325Y008805D01*
X032825Y008805D01*
X031700Y009430D02*
X034825Y009430D01*
X034950Y009305D01*
X035325Y009805D02*
X035825Y009305D01*
X036950Y009305D01*
X037199Y009554D01*
X037199Y009805D01*
X037700Y009805D01*
X038200Y010305D02*
X035575Y010305D01*
X035325Y010055D01*
X033450Y010055D01*
X033075Y010430D01*
X030075Y010430D01*
X029825Y010180D01*
X029825Y009180D01*
X029575Y008930D01*
X029425Y009532D02*
X029340Y009532D01*
X029425Y009690D02*
X029093Y009690D01*
X029093Y010007D02*
X029425Y010007D01*
X029425Y010166D02*
X029093Y010166D01*
X029040Y010324D02*
X029451Y010324D01*
X029562Y010483D02*
X028975Y010483D01*
X028975Y010641D02*
X029720Y010641D01*
X029922Y010800D02*
X028975Y010800D01*
X028975Y010958D02*
X031390Y010958D01*
X031233Y011117D02*
X028975Y011117D01*
X028975Y011275D02*
X031168Y011275D01*
X032510Y010958D02*
X033648Y010958D01*
X033541Y011117D02*
X034233Y011117D01*
X034251Y010958D02*
X034390Y010958D01*
X034168Y011275D02*
X033792Y011275D01*
X033950Y011434D02*
X034150Y011434D01*
X034171Y011592D02*
X034109Y011592D01*
X034199Y011682D02*
X034199Y011682D01*
X034343Y011856D02*
X034387Y011961D01*
X034392Y011955D01*
X034453Y011930D01*
X034392Y011905D01*
X034343Y011856D01*
X034365Y011909D02*
X034403Y011909D01*
X033512Y010800D02*
X033228Y010800D01*
X033429Y010641D02*
X033452Y010641D01*
X033950Y010555D02*
X035075Y010555D01*
X035825Y011305D01*
X036950Y011305D01*
X037200Y011056D01*
X037387Y011434D02*
X038880Y011434D01*
X038880Y011592D02*
X037228Y011592D01*
X037029Y011705D02*
X037029Y011705D01*
X038100Y011275D02*
X038880Y011275D01*
X038880Y011117D02*
X038258Y011117D01*
X038315Y010958D02*
X038880Y010958D01*
X038880Y010800D02*
X038315Y010800D01*
X038429Y010641D02*
X038880Y010641D01*
X038880Y010483D02*
X038588Y010483D01*
X038200Y010305D02*
X038700Y009805D01*
X037199Y008805D02*
X037199Y008429D01*
X036761Y009705D02*
X035990Y009705D01*
X035790Y009905D01*
X036761Y009905D01*
X036761Y009705D01*
X036761Y009849D02*
X035847Y009849D01*
X035950Y009805D02*
X036451Y009805D01*
X035325Y009805D02*
X030450Y009805D01*
X030325Y009930D01*
X030700Y009430D02*
X031700Y009430D01*
X030700Y009430D02*
X030200Y008930D01*
X029324Y010929D02*
X029325Y010930D01*
X032666Y011117D02*
X032832Y011117D01*
X035497Y011909D02*
X038665Y011909D01*
X038823Y011751D02*
X035661Y011751D01*
X037011Y013653D02*
X039875Y013653D01*
X039875Y013811D02*
X036941Y013811D01*
X038577Y013494D02*
X039875Y013494D01*
X039875Y013336D02*
X038850Y013336D01*
X039009Y013177D02*
X039875Y013177D01*
X039875Y013019D02*
X039167Y013019D01*
X039326Y012860D02*
X039875Y012860D01*
X039875Y012702D02*
X039484Y012702D01*
X039643Y012543D02*
X039875Y012543D01*
X039875Y012385D02*
X039801Y012385D01*
X034575Y006305D02*
X034575Y006055D01*
X035325Y005305D01*
X036700Y005305D01*
X036949Y005556D01*
X036949Y005805D01*
X037700Y005805D01*
X037334Y004301D02*
X035840Y004301D01*
X039319Y002399D02*
X039875Y002399D01*
X039875Y002241D02*
X039447Y002241D01*
X039513Y002082D02*
X039875Y002082D01*
X039875Y001924D02*
X039570Y001924D01*
X039570Y001765D02*
X039875Y001765D01*
X039875Y001607D02*
X039570Y001607D01*
X039521Y001448D02*
X039875Y001448D01*
X039875Y001290D02*
X039455Y001290D01*
X039340Y001131D02*
X039875Y001131D01*
X039875Y000973D02*
X039181Y000973D01*
X021918Y000500D02*
X017886Y000500D01*
X018066Y000574D01*
X018240Y000749D01*
X018335Y000977D01*
X018335Y001823D01*
X018268Y001985D01*
X020692Y001985D01*
X020747Y001930D01*
X020672Y001855D01*
X020624Y001738D01*
X020624Y001374D01*
X020672Y001257D01*
X020763Y001167D01*
X020880Y001118D01*
X020959Y001118D01*
X021084Y000993D01*
X021260Y000920D01*
X021493Y000920D01*
X021564Y000749D01*
X021738Y000574D01*
X021918Y000500D01*
X021657Y000656D02*
X018147Y000656D01*
X018267Y000814D02*
X021537Y000814D01*
X021133Y000973D02*
X018333Y000973D01*
X018335Y001131D02*
X020848Y001131D01*
X020659Y001290D02*
X018335Y001290D01*
X018335Y001448D02*
X020624Y001448D01*
X020624Y001607D02*
X018335Y001607D01*
X018335Y001765D02*
X020635Y001765D01*
X020741Y001924D02*
X018293Y001924D01*
X017118Y000920D02*
X017189Y000749D01*
X017363Y000574D01*
X017543Y000500D01*
X013511Y000500D01*
X013691Y000574D01*
X013865Y000749D01*
X013960Y000977D01*
X013960Y001823D01*
X013893Y001985D01*
X016317Y001985D01*
X016372Y001930D01*
X016297Y001855D01*
X016249Y001738D01*
X016249Y001374D01*
X016297Y001257D01*
X016388Y001167D01*
X016505Y001118D01*
X016584Y001118D01*
X016709Y000993D01*
X016885Y000920D01*
X017118Y000920D01*
X017162Y000814D02*
X013892Y000814D01*
X013958Y000973D02*
X016758Y000973D01*
X016473Y001131D02*
X013960Y001131D01*
X013960Y001290D02*
X016284Y001290D01*
X016249Y001448D02*
X013960Y001448D01*
X013960Y001607D02*
X016249Y001607D01*
X016260Y001765D02*
X013960Y001765D01*
X013918Y001924D02*
X016366Y001924D01*
X017282Y000656D02*
X013772Y000656D01*
X013168Y000500D02*
X009136Y000500D01*
X009316Y000574D01*
X009490Y000749D01*
X009585Y000977D01*
X009585Y001823D01*
X009518Y001985D01*
X011942Y001985D01*
X011997Y001930D01*
X011922Y001855D01*
X011874Y001738D01*
X011874Y001374D01*
X011922Y001257D01*
X012013Y001167D01*
X012130Y001118D01*
X012209Y001118D01*
X012334Y000993D01*
X012510Y000920D01*
X012743Y000920D01*
X012814Y000749D01*
X012988Y000574D01*
X013168Y000500D01*
X012907Y000656D02*
X009397Y000656D01*
X009517Y000814D02*
X012787Y000814D01*
X012383Y000973D02*
X009583Y000973D01*
X009585Y001131D02*
X012098Y001131D01*
X011909Y001290D02*
X009585Y001290D01*
X009585Y001448D02*
X011874Y001448D01*
X011874Y001607D02*
X009585Y001607D01*
X009585Y001765D02*
X011885Y001765D01*
X011991Y001924D02*
X009543Y001924D01*
X008412Y000814D02*
X002610Y000814D01*
X002588Y000805D02*
X002938Y000949D01*
X003205Y001217D01*
X003349Y001566D01*
X003349Y001944D01*
X003205Y002293D01*
X002938Y002560D01*
X002588Y002705D01*
X002211Y002705D01*
X001861Y002560D01*
X001594Y002293D01*
X001450Y001944D01*
X001450Y001566D01*
X001594Y001217D01*
X001861Y000949D01*
X002211Y000805D01*
X002588Y000805D01*
X002189Y000814D02*
X001145Y000814D01*
X001145Y000656D02*
X008532Y000656D01*
X008008Y000973D02*
X002961Y000973D01*
X003119Y001131D02*
X007723Y001131D01*
X007534Y001290D02*
X003235Y001290D01*
X003301Y001448D02*
X007499Y001448D01*
X007499Y001607D02*
X003349Y001607D01*
X003349Y001765D02*
X007510Y001765D01*
X007616Y001924D02*
X003349Y001924D01*
X003292Y002082D02*
X005617Y002082D01*
X005458Y002241D02*
X003226Y002241D01*
X003099Y002399D02*
X005300Y002399D01*
X005141Y002558D02*
X004025Y002558D01*
X004207Y002716D02*
X004983Y002716D01*
X004824Y002875D02*
X004292Y002875D01*
X004335Y003033D02*
X004666Y003033D01*
X004507Y003192D02*
X004335Y003192D01*
X004335Y003350D02*
X004349Y003350D01*
X003404Y002558D02*
X002940Y002558D01*
X003222Y002716D02*
X001145Y002716D01*
X001145Y002558D02*
X001859Y002558D01*
X001700Y002399D02*
X001145Y002399D01*
X001145Y002241D02*
X001572Y002241D01*
X001507Y002082D02*
X001145Y002082D01*
X001145Y001924D02*
X001450Y001924D01*
X001450Y001765D02*
X001145Y001765D01*
X001145Y001607D02*
X001450Y001607D01*
X001498Y001448D02*
X001145Y001448D01*
X001145Y001290D02*
X001564Y001290D01*
X001680Y001131D02*
X001145Y001131D01*
X001145Y000973D02*
X001838Y000973D01*
X001145Y002875D02*
X003137Y002875D01*
X003095Y003033D02*
X001145Y003033D01*
X001145Y003192D02*
X003095Y003192D01*
X003095Y003350D02*
X001145Y003350D01*
X001145Y003509D02*
X003095Y003509D01*
X003095Y003667D02*
X001145Y003667D01*
X001145Y003826D02*
X003096Y003826D01*
X003161Y003984D02*
X001145Y003984D01*
X001145Y004143D02*
X003235Y004143D01*
X003235Y004301D02*
X001145Y004301D01*
X001145Y004460D02*
X003235Y004460D01*
X003235Y004618D02*
X001145Y004618D01*
X001145Y004777D02*
X003235Y004777D01*
X003235Y004935D02*
X001145Y004935D01*
X001145Y005094D02*
X003235Y005094D01*
X003235Y005252D02*
X001145Y005252D01*
X001145Y005411D02*
X003147Y005411D01*
X003095Y005569D02*
X001145Y005569D01*
X001145Y005728D02*
X003095Y005728D01*
X003095Y005886D02*
X001145Y005886D01*
X001145Y006045D02*
X003095Y006045D01*
X003095Y006203D02*
X001145Y006203D01*
X001145Y006362D02*
X003095Y006362D01*
X003151Y006520D02*
X001145Y006520D01*
X001145Y006679D02*
X003256Y006679D01*
X003488Y006837D02*
X001145Y006837D01*
X001145Y006996D02*
X004130Y006996D01*
X004130Y007154D02*
X001145Y007154D01*
X001145Y007313D02*
X004130Y007313D01*
X004130Y007471D02*
X001145Y007471D01*
X001145Y007630D02*
X004130Y007630D01*
X004130Y007788D02*
X001145Y007788D01*
X001145Y007947D02*
X004130Y007947D01*
X004130Y008105D02*
X001145Y008105D01*
X001145Y008264D02*
X002996Y008264D01*
X002838Y008422D02*
X001145Y008422D01*
X001145Y008581D02*
X002709Y008581D01*
X002709Y008739D02*
X001145Y008739D01*
X001145Y008898D02*
X002709Y008898D01*
X002709Y009056D02*
X001145Y009056D01*
X001145Y009215D02*
X002045Y009215D01*
X001887Y009373D02*
X001145Y009373D01*
X001145Y009532D02*
X001728Y009532D01*
X001709Y009690D02*
X001145Y009690D01*
X001145Y009849D02*
X001709Y009849D01*
X001709Y010007D02*
X001145Y010007D01*
X001145Y010166D02*
X001815Y010166D01*
X001936Y010324D02*
X001145Y010324D01*
X001145Y010483D02*
X001777Y010483D01*
X001709Y010641D02*
X001145Y010641D01*
X001145Y010800D02*
X001709Y010800D01*
X001709Y010958D02*
X001145Y010958D01*
X001145Y011117D02*
X001766Y011117D01*
X001925Y011275D02*
X001145Y011275D01*
X001145Y011434D02*
X001826Y011434D01*
X001709Y011592D02*
X001145Y011592D01*
X001145Y011751D02*
X001709Y011751D01*
X001709Y011909D02*
X001145Y011909D01*
X001145Y012068D02*
X001717Y012068D01*
X001876Y012226D02*
X001145Y012226D01*
X001145Y012385D02*
X001875Y012385D01*
X001717Y012543D02*
X001145Y012543D01*
X001145Y012702D02*
X001709Y012702D01*
X001709Y012860D02*
X001145Y012860D01*
X001145Y013019D02*
X001709Y013019D01*
X001827Y013177D02*
X001145Y013177D01*
X001145Y013336D02*
X001924Y013336D01*
X001766Y013494D02*
X001145Y013494D01*
X001145Y013653D02*
X001709Y013653D01*
X001709Y013811D02*
X001145Y013811D01*
X001145Y013970D02*
X001709Y013970D01*
X001778Y014128D02*
X001145Y014128D01*
X001145Y014287D02*
X001936Y014287D01*
X001815Y014445D02*
X001145Y014445D01*
X001145Y014604D02*
X001709Y014604D01*
X001709Y014762D02*
X001145Y014762D01*
X001145Y014921D02*
X001709Y014921D01*
X001729Y015079D02*
X001145Y015079D01*
X001145Y015238D02*
X001887Y015238D01*
X001864Y015396D02*
X001145Y015396D01*
X001145Y015555D02*
X001709Y015555D01*
X001709Y015713D02*
X001145Y015713D01*
X001145Y015872D02*
X001709Y015872D01*
X001709Y016030D02*
X001145Y016030D01*
X001145Y016189D02*
X001838Y016189D01*
X001997Y016347D02*
X001145Y016347D01*
X001145Y016506D02*
X002403Y016506D01*
X002561Y016664D02*
X001145Y016664D01*
X003784Y019200D02*
X007880Y019200D01*
X007880Y019359D02*
X003943Y019359D01*
X004101Y019517D02*
X007880Y019517D01*
X007880Y019676D02*
X004145Y019676D01*
X004145Y019834D02*
X007897Y019834D01*
X007962Y019993D02*
X004145Y019993D01*
X004145Y020151D02*
X008115Y020151D01*
X008273Y020310D02*
X004075Y020310D01*
X003916Y020468D02*
X008432Y020468D01*
X008590Y020627D02*
X003758Y020627D01*
X005074Y013805D02*
X006950Y013805D01*
X006449Y013305D02*
X007450Y013305D01*
X006950Y012805D02*
X005074Y012805D01*
X005074Y011805D02*
X006950Y011805D01*
X006449Y011305D02*
X007450Y011305D01*
X006950Y010805D02*
X005074Y010805D01*
X005074Y009805D02*
X006950Y009805D01*
X006449Y010305D02*
X007450Y010305D01*
X007450Y012305D02*
X006449Y012305D01*
X002887Y009373D02*
X002763Y009373D01*
X002864Y009215D02*
X002604Y009215D01*
X003942Y006837D02*
X004130Y006837D01*
X012725Y013177D02*
X013887Y013177D01*
X012840Y013336D02*
X012725Y013336D01*
X012725Y013494D02*
X012738Y013494D01*
X009037Y037269D02*
X008995Y037269D01*
X009255Y037428D02*
X006642Y037428D01*
X006707Y037586D02*
X009255Y037586D01*
X009255Y037745D02*
X006714Y037745D01*
X006714Y037903D02*
X009255Y037903D01*
X009255Y038062D02*
X006653Y038062D01*
X006580Y038220D02*
X009255Y038220D01*
X009255Y038379D02*
X006422Y038379D01*
X006552Y037269D02*
X008253Y037269D01*
X008128Y037111D02*
X006394Y037111D01*
D38*
X017200Y022680D02*
X017575Y022305D01*
X017575Y020930D01*
X018450Y020055D01*
X018450Y015180D01*
X022825Y010805D01*
X022825Y008430D01*
X023450Y007805D01*
X023450Y006805D01*
X023700Y006555D01*
X027700Y006555D01*
X027950Y006805D01*
X029950Y006305D02*
X032325Y008680D01*
X032700Y008305D02*
X030200Y005805D01*
X021700Y005805D01*
X021575Y006055D02*
X030075Y006055D01*
X032825Y008805D01*
X032575Y007805D02*
X030325Y005555D01*
X023450Y005555D01*
X023200Y005305D01*
X023700Y004930D02*
X024075Y005305D01*
X030450Y005305D01*
X031450Y006305D01*
X029950Y006305D02*
X020950Y006305D01*
X021887Y008180D02*
X022887Y007180D01*
X022887Y007805D02*
X022012Y008680D01*
X020325Y008680D01*
X019825Y008180D01*
X020825Y008180D02*
X021887Y008180D01*
X023075Y008555D02*
X023075Y010930D01*
X018700Y015305D01*
X018700Y020180D01*
X017950Y020930D01*
X017950Y022680D01*
X018450Y022305D02*
X018450Y020805D01*
X018950Y020305D01*
X018950Y015430D01*
X023325Y011055D01*
X023325Y008805D01*
X024450Y007680D01*
X024450Y007305D01*
X023950Y007055D02*
X023950Y007680D01*
X023075Y008555D01*
X021450Y010305D02*
X019325Y010305D01*
X018450Y011180D01*
X017950Y011180D01*
X017825Y011680D02*
X018325Y011680D01*
X019325Y010805D01*
X022200Y010805D01*
X022325Y012430D02*
X019200Y015555D01*
X019200Y020430D01*
X018950Y020680D01*
X018950Y022930D01*
X019450Y021555D02*
X019325Y021430D01*
X019325Y020805D01*
X019450Y020680D01*
X019450Y015680D01*
X022450Y012680D01*
X025950Y012680D01*
X027325Y012930D02*
X022575Y012930D01*
X019700Y015805D01*
X019700Y020930D01*
X019825Y021055D01*
X020512Y019243D02*
X020512Y015368D01*
X022700Y013180D01*
X027700Y013180D01*
X030075Y014180D02*
X030825Y014180D01*
X037200Y011056D02*
X037199Y010805D01*
X030950Y003305D02*
X023950Y003305D01*
X023450Y003805D01*
X023450Y004305D01*
X023075Y003430D02*
X023450Y003055D01*
X030700Y003055D01*
X031950Y001805D01*
X033200Y001805D01*
X033200Y002805D02*
X031450Y002805D01*
X030950Y003305D01*
X024075Y012430D02*
X022325Y012430D01*
X023075Y016805D02*
X022950Y016930D01*
X023075Y016805D02*
X023694Y016805D01*
X017825Y011680D02*
X017450Y011305D01*
X016950Y011305D01*
D39*
X018200Y027930D03*
X023700Y032680D03*
D40*
X017325Y030680D02*
X013075Y030680D01*
X012325Y029930D01*
X012825Y029430D01*
X012325Y029930D02*
X011325Y028930D01*
X006825Y029555D02*
X005575Y029555D01*
X004575Y030555D01*
X004575Y032180D01*
X003575Y032180D02*
X003575Y028805D01*
X006700Y024555D02*
X005950Y023805D01*
X005950Y022430D01*
X006700Y024555D02*
X012575Y024555D01*
X030301Y017930D02*
X030301Y015055D01*
X031700Y016305D02*
X036575Y016305D01*
X037450Y016305D01*
X038450Y017305D01*
X038450Y017930D01*
X038450Y020555D01*
X036575Y020555D01*
X038450Y020555D02*
X038450Y022930D01*
X038450Y029305D01*
X038450Y032305D01*
X039075Y032930D01*
X039075Y036180D01*
X038575Y036680D01*
X033653Y036680D01*
X033480Y036853D01*
X034450Y029305D02*
X034450Y029302D01*
X034950Y029302D01*
X038447Y029302D01*
X034450Y029305D02*
X034075Y028930D01*
X034075Y027430D01*
X031450Y024805D01*
X031450Y020930D01*
X031575Y018430D02*
X030801Y018430D01*
X030376Y018005D01*
X035950Y017930D02*
X038325Y017930D01*
X036575Y016305D02*
X036575Y014680D01*
X036325Y014430D01*
X036824Y022930D02*
X038450Y022930D01*
M02*
