%
M48
M72
T01C0.0236
T02C0.0315
T03C0.0320
T04C0.0354
T05C0.0362
T06C0.0394
T07C0.0400
T08C0.0433
T09C0.0472
T10C0.0787
T11C0.0945
T12C0.1260
%
T01
X6825Y29555
X10575Y31680
X16075Y32555
X12825Y29430
X11325Y28930
X9950Y30180
X19950Y30180
X16575Y25430
X19950Y31680
X17325Y30680
X25075Y29180
X23700Y32680
X25700Y32680
X33700Y31555
X33700Y25930
X34450Y21180
X26950Y21680
X22950Y16930
X30700Y11305
X32200Y6805
X35325Y4055
X31450Y1430
X12575Y24555
X5950Y22430
X34075Y7305
X33075Y11555
X24950Y1930
X9762Y5743
X23700Y4930
X21825Y14680
X25325Y21555
X23950Y11305
X24450Y7305
X25950Y11305
X12075Y10180
X12825Y13055
X14075Y6555
X5325Y7055
X12325Y14680
X16450Y22180
X23950Y7055
X22887Y7180
X23075Y3430
X23200Y5305
X21325Y15180
X22200Y21430
X20700Y22555
X17950Y22680
X12450Y22055
X14200Y23555
X19825Y21055
X19450Y21555
X33950Y8305
X34575Y8305
X17200Y5930
X13200Y12055
X1825Y18680
X14200Y22180
X10200Y21430
X13825Y12555
X15575Y8055
X23450Y4305
X22887Y7805
X22200Y9805
X29575Y8930
X35950Y9805
X34575Y6305
X30200Y8930
X21450Y10305
X17950Y11180
X18200Y9430
X11825Y12180
X13200Y13680
X18700Y9805
X18200Y10180
X16950Y11305
X17325Y11805
X17450Y12368
X30450Y11930
X22200Y10805
X27325Y11305
X32325Y8930
X29825Y12555
X30325Y9930
X22887Y14805
X22950Y14055
X22387Y15680
X28825Y19680
X28325Y20180
X31450Y20930
X25075Y20305
X22950Y19430
X35700Y8805
X35700Y6805
X35700Y5805
X30700Y1055
X11200Y10805
X20512Y19243
X20950Y18305
X21575Y18055
X26950Y19680
X30575Y19805
X35950Y10805
X31700Y16305
X31575Y18430
X27825Y21805
X29575Y28055
X30825Y28180
X32575Y21805
X33450Y21805
X33950Y22680
X29575Y27180
X35825Y15430
X35950Y17930
X36575Y20555
X37575Y15055
X35825Y14430
X36325Y12930
X35825Y19805
X35075Y6805
X34950Y9305
X33950Y10555
X29325Y10930
X29075Y12555
X22950Y18743
X18450Y22305
X18200Y27930
X15450Y29555
X39450Y14805
X36450Y1680
X39450Y27555
T02
X17329Y35853
X9829Y35853
X7419Y35853
X7821Y36853
X8624Y36853
X8222Y35853
X9025Y35853
X9427Y36853
X10230Y36853
X16927Y36853
X17730Y36853
X23169Y35853
X25579Y35853
X25980Y36853
X23571Y36853
X23972Y35853
X24775Y35853
X24374Y36853
X25177Y36853
X33480Y36853
X33079Y35853
X6950Y9805
X6950Y11805
X6950Y10805
X7450Y10305
X18950Y22930
X7450Y12305
X6950Y12805
X6950Y13805
X7450Y13305
X6950Y14805
X6950Y15805
X7450Y15305
X7450Y14305
X7450Y16305
X7450Y11305
X31071Y36853
X31472Y35853
X30669Y35853
X32275Y35853
X31874Y36853
X32677Y36853
X17200Y22680
X15321Y36853
X16124Y36853
X16525Y35853
X15722Y35853
X14919Y35853
T03
X31950Y11430
X31950Y15430
X31950Y14430
X31950Y13430
X34950Y14430
X34950Y15430
X34950Y11430
X34950Y12430
X34950Y13430
X31950Y12430
T04
X5606Y35853
X13106Y35853
X12043Y35853
X19543Y35853
X21356Y35853
X27348Y15055
X27793Y35853
X28856Y35853
X35293Y35853
X28333Y15055
X30301Y17930
X30301Y15055
X29317Y15055
X27348Y17930
X29317Y17930
X28333Y17930
X36017Y33267
X36017Y21718
X36017Y28093
X36017Y26892
T05
X34950Y31074
X34950Y23911
X34950Y24699
X34950Y25683
X34950Y30286
X34950Y29302
X34950Y22927
X34950Y32058
T06
X37700Y4805
X2325Y9805
X2325Y8805
X3325Y8805
X3325Y9805
X3325Y11805
X3325Y12805
X3325Y15805
X2325Y15805
X2325Y14805
X2325Y13805
X2325Y12805
X2325Y11805
X2325Y10805
X3325Y10805
X38700Y6805
X26375Y7061
X27162Y7061
X22325Y27305
X23325Y27305
X23325Y26305
X22325Y26305
X24325Y26305
X25325Y26305
X24325Y27305
X25325Y27305
X3325Y13805
X3325Y14805
X38700Y9805
X37700Y9805
X28737Y7061
X27950Y7061
X29524Y7061
X38700Y10805
X37700Y10805
X37700Y7805
X38700Y7805
X38700Y8805
X37700Y8805
X21325Y26305
X21325Y27305
X37700Y6805
X38700Y4805
X37700Y5805
X38700Y5805
T07
X8965Y3960
X3700Y36680
X3700Y35680
X28950Y30555
X33200Y1805
X33200Y6805
X20310Y1400
X20310Y3960
X1935Y3400
X3325Y19900
X3325Y22460
X33200Y5805
X33200Y3805
X33200Y2805
X22090Y1400
X22090Y3960
X17715Y3960
X1935Y5960
X3715Y5960
X3715Y3400
X7185Y3960
X20825Y8180
X27950Y30555
X13340Y3960
X11560Y3960
X11560Y1400
X7185Y1400
X19825Y7180
X20825Y7180
X19825Y8180
X20825Y6180
X19825Y6180
X8965Y1400
X13340Y1400
X15935Y3960
X15935Y1400
X17715Y1400
X37825Y34555
X29950Y30555
X30950Y30555
X37825Y35555
X33200Y4805
X31950Y30555
T08
X3575Y32180
X4575Y32180
X2575Y32180
X28934Y1352
X26965Y1352
X27950Y1352
X5575Y32180
X1575Y32180
T09
X3575Y28805
X3575Y25805
T10
X25745Y4305
X30154Y4305
T11
X5921Y37759
X19228Y37759
X21671Y37759
X27478Y37759
X11728Y37759
X13421Y37759
X29171Y37759
X34978Y37759
T12
X2399Y37975
X2399Y1755
X38620Y1755
X38620Y37975
M30
