G75*
G70*
%OFA0B0*%
%FSLAX24Y24*%
%IPPOS*%
%LPD*%
%AMOC8*
5,1,8,0,0,1.08239X$1,22.5*
%
%ADD10C,0.0000*%
%ADD11C,0.1260*%
%ADD12R,0.0059X0.1181*%
%ADD13R,0.1181X0.0059*%
%ADD14R,0.0413X0.0425*%
%ADD15R,0.0512X0.0236*%
%ADD16R,0.0394X0.0551*%
%ADD17R,0.0236X0.0512*%
%ADD18C,0.0600*%
%ADD19C,0.0480*%
%ADD20C,0.0472*%
%ADD21C,0.0945*%
%ADD22C,0.0354*%
%ADD23C,0.0543*%
%ADD24C,0.1000*%
%ADD25OC8,0.0591*%
%ADD26OC8,0.0660*%
%ADD27R,0.1378X0.1378*%
%ADD28R,0.0472X0.0472*%
%ADD29R,0.0591X0.0197*%
%ADD30R,0.0197X0.0591*%
%ADD31R,0.0425X0.0413*%
%ADD32R,0.0460X0.0630*%
%ADD33R,0.0060X0.0720*%
%ADD34R,0.0374X0.0295*%
%ADD35R,0.0591X0.0098*%
%ADD36R,0.0945X0.0945*%
%ADD37R,0.0276X0.0354*%
%ADD38R,0.0984X0.0197*%
%ADD39R,0.0984X0.0787*%
%ADD40R,0.0374X0.0224*%
%ADD41OC8,0.0600*%
%ADD42R,0.0787X0.0591*%
%ADD43OC8,0.1000*%
%ADD44R,0.0551X0.0394*%
%ADD45C,0.1000*%
%ADD46R,0.0472X0.1181*%
%ADD47R,0.1181X0.0472*%
%ADD48R,0.0591X0.0472*%
%ADD49C,0.0650*%
%ADD50C,0.0660*%
%ADD51R,0.2362X0.2362*%
%ADD52R,0.0787X0.0984*%
%ADD53R,0.1063X0.0630*%
%ADD54R,0.0630X0.1063*%
%ADD55R,0.0610X0.0236*%
%ADD56R,0.0354X0.0276*%
%ADD57C,0.0531*%
%ADD58R,0.0394X0.0787*%
D10*
X000825Y000180D02*
X000825Y039550D01*
X040195Y039550D01*
X040195Y000180D01*
X000825Y000180D01*
X001769Y001755D02*
X001771Y001805D01*
X001777Y001855D01*
X001787Y001904D01*
X001801Y001952D01*
X001818Y001999D01*
X001839Y002044D01*
X001864Y002088D01*
X001892Y002129D01*
X001924Y002168D01*
X001958Y002205D01*
X001995Y002239D01*
X002035Y002269D01*
X002077Y002296D01*
X002121Y002320D01*
X002167Y002341D01*
X002214Y002357D01*
X002262Y002370D01*
X002312Y002379D01*
X002361Y002384D01*
X002412Y002385D01*
X002462Y002382D01*
X002511Y002375D01*
X002560Y002364D01*
X002608Y002349D01*
X002654Y002331D01*
X002699Y002309D01*
X002742Y002283D01*
X002783Y002254D01*
X002822Y002222D01*
X002858Y002187D01*
X002890Y002149D01*
X002920Y002109D01*
X002947Y002066D01*
X002970Y002022D01*
X002989Y001976D01*
X003005Y001928D01*
X003017Y001879D01*
X003025Y001830D01*
X003029Y001780D01*
X003029Y001730D01*
X003025Y001680D01*
X003017Y001631D01*
X003005Y001582D01*
X002989Y001534D01*
X002970Y001488D01*
X002947Y001444D01*
X002920Y001401D01*
X002890Y001361D01*
X002858Y001323D01*
X002822Y001288D01*
X002783Y001256D01*
X002742Y001227D01*
X002699Y001201D01*
X002654Y001179D01*
X002608Y001161D01*
X002560Y001146D01*
X002511Y001135D01*
X002462Y001128D01*
X002412Y001125D01*
X002361Y001126D01*
X002312Y001131D01*
X002262Y001140D01*
X002214Y001153D01*
X002167Y001169D01*
X002121Y001190D01*
X002077Y001214D01*
X002035Y001241D01*
X001995Y001271D01*
X001958Y001305D01*
X001924Y001342D01*
X001892Y001381D01*
X001864Y001422D01*
X001839Y001466D01*
X001818Y001511D01*
X001801Y001558D01*
X001787Y001606D01*
X001777Y001655D01*
X001771Y001705D01*
X001769Y001755D01*
X005429Y035853D02*
X005431Y035879D01*
X005437Y035905D01*
X005447Y035930D01*
X005460Y035953D01*
X005476Y035973D01*
X005496Y035991D01*
X005518Y036006D01*
X005541Y036018D01*
X005567Y036026D01*
X005593Y036030D01*
X005619Y036030D01*
X005645Y036026D01*
X005671Y036018D01*
X005695Y036006D01*
X005716Y035991D01*
X005736Y035973D01*
X005752Y035953D01*
X005765Y035930D01*
X005775Y035905D01*
X005781Y035879D01*
X005783Y035853D01*
X005781Y035827D01*
X005775Y035801D01*
X005765Y035776D01*
X005752Y035753D01*
X005736Y035733D01*
X005716Y035715D01*
X005694Y035700D01*
X005671Y035688D01*
X005645Y035680D01*
X005619Y035676D01*
X005593Y035676D01*
X005567Y035680D01*
X005541Y035688D01*
X005517Y035700D01*
X005496Y035715D01*
X005476Y035733D01*
X005460Y035753D01*
X005447Y035776D01*
X005437Y035801D01*
X005431Y035827D01*
X005429Y035853D01*
X005449Y037759D02*
X005451Y037802D01*
X005457Y037844D01*
X005467Y037886D01*
X005480Y037927D01*
X005497Y037967D01*
X005518Y038004D01*
X005542Y038040D01*
X005569Y038073D01*
X005599Y038104D01*
X005632Y038132D01*
X005667Y038157D01*
X005704Y038178D01*
X005743Y038196D01*
X005783Y038210D01*
X005825Y038221D01*
X005867Y038228D01*
X005910Y038231D01*
X005953Y038230D01*
X005996Y038225D01*
X006038Y038216D01*
X006079Y038204D01*
X006119Y038188D01*
X006157Y038168D01*
X006193Y038145D01*
X006227Y038118D01*
X006259Y038089D01*
X006287Y038057D01*
X006313Y038022D01*
X006335Y037986D01*
X006354Y037947D01*
X006369Y037907D01*
X006381Y037866D01*
X006389Y037823D01*
X006393Y037780D01*
X006393Y037738D01*
X006389Y037695D01*
X006381Y037652D01*
X006369Y037611D01*
X006354Y037571D01*
X006335Y037532D01*
X006313Y037496D01*
X006287Y037461D01*
X006259Y037429D01*
X006227Y037400D01*
X006193Y037373D01*
X006157Y037350D01*
X006119Y037330D01*
X006079Y037314D01*
X006038Y037302D01*
X005996Y037293D01*
X005953Y037288D01*
X005910Y037287D01*
X005867Y037290D01*
X005825Y037297D01*
X005783Y037308D01*
X005743Y037322D01*
X005704Y037340D01*
X005667Y037361D01*
X005632Y037386D01*
X005599Y037414D01*
X005569Y037445D01*
X005542Y037478D01*
X005518Y037514D01*
X005497Y037551D01*
X005480Y037591D01*
X005467Y037632D01*
X005457Y037674D01*
X005451Y037716D01*
X005449Y037759D01*
X001769Y037975D02*
X001771Y038025D01*
X001777Y038075D01*
X001787Y038124D01*
X001801Y038172D01*
X001818Y038219D01*
X001839Y038264D01*
X001864Y038308D01*
X001892Y038349D01*
X001924Y038388D01*
X001958Y038425D01*
X001995Y038459D01*
X002035Y038489D01*
X002077Y038516D01*
X002121Y038540D01*
X002167Y038561D01*
X002214Y038577D01*
X002262Y038590D01*
X002312Y038599D01*
X002361Y038604D01*
X002412Y038605D01*
X002462Y038602D01*
X002511Y038595D01*
X002560Y038584D01*
X002608Y038569D01*
X002654Y038551D01*
X002699Y038529D01*
X002742Y038503D01*
X002783Y038474D01*
X002822Y038442D01*
X002858Y038407D01*
X002890Y038369D01*
X002920Y038329D01*
X002947Y038286D01*
X002970Y038242D01*
X002989Y038196D01*
X003005Y038148D01*
X003017Y038099D01*
X003025Y038050D01*
X003029Y038000D01*
X003029Y037950D01*
X003025Y037900D01*
X003017Y037851D01*
X003005Y037802D01*
X002989Y037754D01*
X002970Y037708D01*
X002947Y037664D01*
X002920Y037621D01*
X002890Y037581D01*
X002858Y037543D01*
X002822Y037508D01*
X002783Y037476D01*
X002742Y037447D01*
X002699Y037421D01*
X002654Y037399D01*
X002608Y037381D01*
X002560Y037366D01*
X002511Y037355D01*
X002462Y037348D01*
X002412Y037345D01*
X002361Y037346D01*
X002312Y037351D01*
X002262Y037360D01*
X002214Y037373D01*
X002167Y037389D01*
X002121Y037410D01*
X002077Y037434D01*
X002035Y037461D01*
X001995Y037491D01*
X001958Y037525D01*
X001924Y037562D01*
X001892Y037601D01*
X001864Y037642D01*
X001839Y037686D01*
X001818Y037731D01*
X001801Y037778D01*
X001787Y037826D01*
X001777Y037875D01*
X001771Y037925D01*
X001769Y037975D01*
X011256Y037759D02*
X011258Y037802D01*
X011264Y037844D01*
X011274Y037886D01*
X011287Y037927D01*
X011304Y037967D01*
X011325Y038004D01*
X011349Y038040D01*
X011376Y038073D01*
X011406Y038104D01*
X011439Y038132D01*
X011474Y038157D01*
X011511Y038178D01*
X011550Y038196D01*
X011590Y038210D01*
X011632Y038221D01*
X011674Y038228D01*
X011717Y038231D01*
X011760Y038230D01*
X011803Y038225D01*
X011845Y038216D01*
X011886Y038204D01*
X011926Y038188D01*
X011964Y038168D01*
X012000Y038145D01*
X012034Y038118D01*
X012066Y038089D01*
X012094Y038057D01*
X012120Y038022D01*
X012142Y037986D01*
X012161Y037947D01*
X012176Y037907D01*
X012188Y037866D01*
X012196Y037823D01*
X012200Y037780D01*
X012200Y037738D01*
X012196Y037695D01*
X012188Y037652D01*
X012176Y037611D01*
X012161Y037571D01*
X012142Y037532D01*
X012120Y037496D01*
X012094Y037461D01*
X012066Y037429D01*
X012034Y037400D01*
X012000Y037373D01*
X011964Y037350D01*
X011926Y037330D01*
X011886Y037314D01*
X011845Y037302D01*
X011803Y037293D01*
X011760Y037288D01*
X011717Y037287D01*
X011674Y037290D01*
X011632Y037297D01*
X011590Y037308D01*
X011550Y037322D01*
X011511Y037340D01*
X011474Y037361D01*
X011439Y037386D01*
X011406Y037414D01*
X011376Y037445D01*
X011349Y037478D01*
X011325Y037514D01*
X011304Y037551D01*
X011287Y037591D01*
X011274Y037632D01*
X011264Y037674D01*
X011258Y037716D01*
X011256Y037759D01*
X011866Y035853D02*
X011868Y035879D01*
X011874Y035905D01*
X011884Y035930D01*
X011897Y035953D01*
X011913Y035973D01*
X011933Y035991D01*
X011955Y036006D01*
X011978Y036018D01*
X012004Y036026D01*
X012030Y036030D01*
X012056Y036030D01*
X012082Y036026D01*
X012108Y036018D01*
X012132Y036006D01*
X012153Y035991D01*
X012173Y035973D01*
X012189Y035953D01*
X012202Y035930D01*
X012212Y035905D01*
X012218Y035879D01*
X012220Y035853D01*
X012218Y035827D01*
X012212Y035801D01*
X012202Y035776D01*
X012189Y035753D01*
X012173Y035733D01*
X012153Y035715D01*
X012131Y035700D01*
X012108Y035688D01*
X012082Y035680D01*
X012056Y035676D01*
X012030Y035676D01*
X012004Y035680D01*
X011978Y035688D01*
X011954Y035700D01*
X011933Y035715D01*
X011913Y035733D01*
X011897Y035753D01*
X011884Y035776D01*
X011874Y035801D01*
X011868Y035827D01*
X011866Y035853D01*
X012929Y035853D02*
X012931Y035879D01*
X012937Y035905D01*
X012947Y035930D01*
X012960Y035953D01*
X012976Y035973D01*
X012996Y035991D01*
X013018Y036006D01*
X013041Y036018D01*
X013067Y036026D01*
X013093Y036030D01*
X013119Y036030D01*
X013145Y036026D01*
X013171Y036018D01*
X013195Y036006D01*
X013216Y035991D01*
X013236Y035973D01*
X013252Y035953D01*
X013265Y035930D01*
X013275Y035905D01*
X013281Y035879D01*
X013283Y035853D01*
X013281Y035827D01*
X013275Y035801D01*
X013265Y035776D01*
X013252Y035753D01*
X013236Y035733D01*
X013216Y035715D01*
X013194Y035700D01*
X013171Y035688D01*
X013145Y035680D01*
X013119Y035676D01*
X013093Y035676D01*
X013067Y035680D01*
X013041Y035688D01*
X013017Y035700D01*
X012996Y035715D01*
X012976Y035733D01*
X012960Y035753D01*
X012947Y035776D01*
X012937Y035801D01*
X012931Y035827D01*
X012929Y035853D01*
X012949Y037759D02*
X012951Y037802D01*
X012957Y037844D01*
X012967Y037886D01*
X012980Y037927D01*
X012997Y037967D01*
X013018Y038004D01*
X013042Y038040D01*
X013069Y038073D01*
X013099Y038104D01*
X013132Y038132D01*
X013167Y038157D01*
X013204Y038178D01*
X013243Y038196D01*
X013283Y038210D01*
X013325Y038221D01*
X013367Y038228D01*
X013410Y038231D01*
X013453Y038230D01*
X013496Y038225D01*
X013538Y038216D01*
X013579Y038204D01*
X013619Y038188D01*
X013657Y038168D01*
X013693Y038145D01*
X013727Y038118D01*
X013759Y038089D01*
X013787Y038057D01*
X013813Y038022D01*
X013835Y037986D01*
X013854Y037947D01*
X013869Y037907D01*
X013881Y037866D01*
X013889Y037823D01*
X013893Y037780D01*
X013893Y037738D01*
X013889Y037695D01*
X013881Y037652D01*
X013869Y037611D01*
X013854Y037571D01*
X013835Y037532D01*
X013813Y037496D01*
X013787Y037461D01*
X013759Y037429D01*
X013727Y037400D01*
X013693Y037373D01*
X013657Y037350D01*
X013619Y037330D01*
X013579Y037314D01*
X013538Y037302D01*
X013496Y037293D01*
X013453Y037288D01*
X013410Y037287D01*
X013367Y037290D01*
X013325Y037297D01*
X013283Y037308D01*
X013243Y037322D01*
X013204Y037340D01*
X013167Y037361D01*
X013132Y037386D01*
X013099Y037414D01*
X013069Y037445D01*
X013042Y037478D01*
X013018Y037514D01*
X012997Y037551D01*
X012980Y037591D01*
X012967Y037632D01*
X012957Y037674D01*
X012951Y037716D01*
X012949Y037759D01*
X018756Y037759D02*
X018758Y037802D01*
X018764Y037844D01*
X018774Y037886D01*
X018787Y037927D01*
X018804Y037967D01*
X018825Y038004D01*
X018849Y038040D01*
X018876Y038073D01*
X018906Y038104D01*
X018939Y038132D01*
X018974Y038157D01*
X019011Y038178D01*
X019050Y038196D01*
X019090Y038210D01*
X019132Y038221D01*
X019174Y038228D01*
X019217Y038231D01*
X019260Y038230D01*
X019303Y038225D01*
X019345Y038216D01*
X019386Y038204D01*
X019426Y038188D01*
X019464Y038168D01*
X019500Y038145D01*
X019534Y038118D01*
X019566Y038089D01*
X019594Y038057D01*
X019620Y038022D01*
X019642Y037986D01*
X019661Y037947D01*
X019676Y037907D01*
X019688Y037866D01*
X019696Y037823D01*
X019700Y037780D01*
X019700Y037738D01*
X019696Y037695D01*
X019688Y037652D01*
X019676Y037611D01*
X019661Y037571D01*
X019642Y037532D01*
X019620Y037496D01*
X019594Y037461D01*
X019566Y037429D01*
X019534Y037400D01*
X019500Y037373D01*
X019464Y037350D01*
X019426Y037330D01*
X019386Y037314D01*
X019345Y037302D01*
X019303Y037293D01*
X019260Y037288D01*
X019217Y037287D01*
X019174Y037290D01*
X019132Y037297D01*
X019090Y037308D01*
X019050Y037322D01*
X019011Y037340D01*
X018974Y037361D01*
X018939Y037386D01*
X018906Y037414D01*
X018876Y037445D01*
X018849Y037478D01*
X018825Y037514D01*
X018804Y037551D01*
X018787Y037591D01*
X018774Y037632D01*
X018764Y037674D01*
X018758Y037716D01*
X018756Y037759D01*
X019366Y035853D02*
X019368Y035879D01*
X019374Y035905D01*
X019384Y035930D01*
X019397Y035953D01*
X019413Y035973D01*
X019433Y035991D01*
X019455Y036006D01*
X019478Y036018D01*
X019504Y036026D01*
X019530Y036030D01*
X019556Y036030D01*
X019582Y036026D01*
X019608Y036018D01*
X019632Y036006D01*
X019653Y035991D01*
X019673Y035973D01*
X019689Y035953D01*
X019702Y035930D01*
X019712Y035905D01*
X019718Y035879D01*
X019720Y035853D01*
X019718Y035827D01*
X019712Y035801D01*
X019702Y035776D01*
X019689Y035753D01*
X019673Y035733D01*
X019653Y035715D01*
X019631Y035700D01*
X019608Y035688D01*
X019582Y035680D01*
X019556Y035676D01*
X019530Y035676D01*
X019504Y035680D01*
X019478Y035688D01*
X019454Y035700D01*
X019433Y035715D01*
X019413Y035733D01*
X019397Y035753D01*
X019384Y035776D01*
X019374Y035801D01*
X019368Y035827D01*
X019366Y035853D01*
X021179Y035853D02*
X021181Y035879D01*
X021187Y035905D01*
X021197Y035930D01*
X021210Y035953D01*
X021226Y035973D01*
X021246Y035991D01*
X021268Y036006D01*
X021291Y036018D01*
X021317Y036026D01*
X021343Y036030D01*
X021369Y036030D01*
X021395Y036026D01*
X021421Y036018D01*
X021445Y036006D01*
X021466Y035991D01*
X021486Y035973D01*
X021502Y035953D01*
X021515Y035930D01*
X021525Y035905D01*
X021531Y035879D01*
X021533Y035853D01*
X021531Y035827D01*
X021525Y035801D01*
X021515Y035776D01*
X021502Y035753D01*
X021486Y035733D01*
X021466Y035715D01*
X021444Y035700D01*
X021421Y035688D01*
X021395Y035680D01*
X021369Y035676D01*
X021343Y035676D01*
X021317Y035680D01*
X021291Y035688D01*
X021267Y035700D01*
X021246Y035715D01*
X021226Y035733D01*
X021210Y035753D01*
X021197Y035776D01*
X021187Y035801D01*
X021181Y035827D01*
X021179Y035853D01*
X021199Y037759D02*
X021201Y037802D01*
X021207Y037844D01*
X021217Y037886D01*
X021230Y037927D01*
X021247Y037967D01*
X021268Y038004D01*
X021292Y038040D01*
X021319Y038073D01*
X021349Y038104D01*
X021382Y038132D01*
X021417Y038157D01*
X021454Y038178D01*
X021493Y038196D01*
X021533Y038210D01*
X021575Y038221D01*
X021617Y038228D01*
X021660Y038231D01*
X021703Y038230D01*
X021746Y038225D01*
X021788Y038216D01*
X021829Y038204D01*
X021869Y038188D01*
X021907Y038168D01*
X021943Y038145D01*
X021977Y038118D01*
X022009Y038089D01*
X022037Y038057D01*
X022063Y038022D01*
X022085Y037986D01*
X022104Y037947D01*
X022119Y037907D01*
X022131Y037866D01*
X022139Y037823D01*
X022143Y037780D01*
X022143Y037738D01*
X022139Y037695D01*
X022131Y037652D01*
X022119Y037611D01*
X022104Y037571D01*
X022085Y037532D01*
X022063Y037496D01*
X022037Y037461D01*
X022009Y037429D01*
X021977Y037400D01*
X021943Y037373D01*
X021907Y037350D01*
X021869Y037330D01*
X021829Y037314D01*
X021788Y037302D01*
X021746Y037293D01*
X021703Y037288D01*
X021660Y037287D01*
X021617Y037290D01*
X021575Y037297D01*
X021533Y037308D01*
X021493Y037322D01*
X021454Y037340D01*
X021417Y037361D01*
X021382Y037386D01*
X021349Y037414D01*
X021319Y037445D01*
X021292Y037478D01*
X021268Y037514D01*
X021247Y037551D01*
X021230Y037591D01*
X021217Y037632D01*
X021207Y037674D01*
X021201Y037716D01*
X021199Y037759D01*
X027006Y037759D02*
X027008Y037802D01*
X027014Y037844D01*
X027024Y037886D01*
X027037Y037927D01*
X027054Y037967D01*
X027075Y038004D01*
X027099Y038040D01*
X027126Y038073D01*
X027156Y038104D01*
X027189Y038132D01*
X027224Y038157D01*
X027261Y038178D01*
X027300Y038196D01*
X027340Y038210D01*
X027382Y038221D01*
X027424Y038228D01*
X027467Y038231D01*
X027510Y038230D01*
X027553Y038225D01*
X027595Y038216D01*
X027636Y038204D01*
X027676Y038188D01*
X027714Y038168D01*
X027750Y038145D01*
X027784Y038118D01*
X027816Y038089D01*
X027844Y038057D01*
X027870Y038022D01*
X027892Y037986D01*
X027911Y037947D01*
X027926Y037907D01*
X027938Y037866D01*
X027946Y037823D01*
X027950Y037780D01*
X027950Y037738D01*
X027946Y037695D01*
X027938Y037652D01*
X027926Y037611D01*
X027911Y037571D01*
X027892Y037532D01*
X027870Y037496D01*
X027844Y037461D01*
X027816Y037429D01*
X027784Y037400D01*
X027750Y037373D01*
X027714Y037350D01*
X027676Y037330D01*
X027636Y037314D01*
X027595Y037302D01*
X027553Y037293D01*
X027510Y037288D01*
X027467Y037287D01*
X027424Y037290D01*
X027382Y037297D01*
X027340Y037308D01*
X027300Y037322D01*
X027261Y037340D01*
X027224Y037361D01*
X027189Y037386D01*
X027156Y037414D01*
X027126Y037445D01*
X027099Y037478D01*
X027075Y037514D01*
X027054Y037551D01*
X027037Y037591D01*
X027024Y037632D01*
X027014Y037674D01*
X027008Y037716D01*
X027006Y037759D01*
X027616Y035853D02*
X027618Y035879D01*
X027624Y035905D01*
X027634Y035930D01*
X027647Y035953D01*
X027663Y035973D01*
X027683Y035991D01*
X027705Y036006D01*
X027728Y036018D01*
X027754Y036026D01*
X027780Y036030D01*
X027806Y036030D01*
X027832Y036026D01*
X027858Y036018D01*
X027882Y036006D01*
X027903Y035991D01*
X027923Y035973D01*
X027939Y035953D01*
X027952Y035930D01*
X027962Y035905D01*
X027968Y035879D01*
X027970Y035853D01*
X027968Y035827D01*
X027962Y035801D01*
X027952Y035776D01*
X027939Y035753D01*
X027923Y035733D01*
X027903Y035715D01*
X027881Y035700D01*
X027858Y035688D01*
X027832Y035680D01*
X027806Y035676D01*
X027780Y035676D01*
X027754Y035680D01*
X027728Y035688D01*
X027704Y035700D01*
X027683Y035715D01*
X027663Y035733D01*
X027647Y035753D01*
X027634Y035776D01*
X027624Y035801D01*
X027618Y035827D01*
X027616Y035853D01*
X028679Y035853D02*
X028681Y035879D01*
X028687Y035905D01*
X028697Y035930D01*
X028710Y035953D01*
X028726Y035973D01*
X028746Y035991D01*
X028768Y036006D01*
X028791Y036018D01*
X028817Y036026D01*
X028843Y036030D01*
X028869Y036030D01*
X028895Y036026D01*
X028921Y036018D01*
X028945Y036006D01*
X028966Y035991D01*
X028986Y035973D01*
X029002Y035953D01*
X029015Y035930D01*
X029025Y035905D01*
X029031Y035879D01*
X029033Y035853D01*
X029031Y035827D01*
X029025Y035801D01*
X029015Y035776D01*
X029002Y035753D01*
X028986Y035733D01*
X028966Y035715D01*
X028944Y035700D01*
X028921Y035688D01*
X028895Y035680D01*
X028869Y035676D01*
X028843Y035676D01*
X028817Y035680D01*
X028791Y035688D01*
X028767Y035700D01*
X028746Y035715D01*
X028726Y035733D01*
X028710Y035753D01*
X028697Y035776D01*
X028687Y035801D01*
X028681Y035827D01*
X028679Y035853D01*
X028699Y037759D02*
X028701Y037802D01*
X028707Y037844D01*
X028717Y037886D01*
X028730Y037927D01*
X028747Y037967D01*
X028768Y038004D01*
X028792Y038040D01*
X028819Y038073D01*
X028849Y038104D01*
X028882Y038132D01*
X028917Y038157D01*
X028954Y038178D01*
X028993Y038196D01*
X029033Y038210D01*
X029075Y038221D01*
X029117Y038228D01*
X029160Y038231D01*
X029203Y038230D01*
X029246Y038225D01*
X029288Y038216D01*
X029329Y038204D01*
X029369Y038188D01*
X029407Y038168D01*
X029443Y038145D01*
X029477Y038118D01*
X029509Y038089D01*
X029537Y038057D01*
X029563Y038022D01*
X029585Y037986D01*
X029604Y037947D01*
X029619Y037907D01*
X029631Y037866D01*
X029639Y037823D01*
X029643Y037780D01*
X029643Y037738D01*
X029639Y037695D01*
X029631Y037652D01*
X029619Y037611D01*
X029604Y037571D01*
X029585Y037532D01*
X029563Y037496D01*
X029537Y037461D01*
X029509Y037429D01*
X029477Y037400D01*
X029443Y037373D01*
X029407Y037350D01*
X029369Y037330D01*
X029329Y037314D01*
X029288Y037302D01*
X029246Y037293D01*
X029203Y037288D01*
X029160Y037287D01*
X029117Y037290D01*
X029075Y037297D01*
X029033Y037308D01*
X028993Y037322D01*
X028954Y037340D01*
X028917Y037361D01*
X028882Y037386D01*
X028849Y037414D01*
X028819Y037445D01*
X028792Y037478D01*
X028768Y037514D01*
X028747Y037551D01*
X028730Y037591D01*
X028717Y037632D01*
X028707Y037674D01*
X028701Y037716D01*
X028699Y037759D01*
X034506Y037759D02*
X034508Y037802D01*
X034514Y037844D01*
X034524Y037886D01*
X034537Y037927D01*
X034554Y037967D01*
X034575Y038004D01*
X034599Y038040D01*
X034626Y038073D01*
X034656Y038104D01*
X034689Y038132D01*
X034724Y038157D01*
X034761Y038178D01*
X034800Y038196D01*
X034840Y038210D01*
X034882Y038221D01*
X034924Y038228D01*
X034967Y038231D01*
X035010Y038230D01*
X035053Y038225D01*
X035095Y038216D01*
X035136Y038204D01*
X035176Y038188D01*
X035214Y038168D01*
X035250Y038145D01*
X035284Y038118D01*
X035316Y038089D01*
X035344Y038057D01*
X035370Y038022D01*
X035392Y037986D01*
X035411Y037947D01*
X035426Y037907D01*
X035438Y037866D01*
X035446Y037823D01*
X035450Y037780D01*
X035450Y037738D01*
X035446Y037695D01*
X035438Y037652D01*
X035426Y037611D01*
X035411Y037571D01*
X035392Y037532D01*
X035370Y037496D01*
X035344Y037461D01*
X035316Y037429D01*
X035284Y037400D01*
X035250Y037373D01*
X035214Y037350D01*
X035176Y037330D01*
X035136Y037314D01*
X035095Y037302D01*
X035053Y037293D01*
X035010Y037288D01*
X034967Y037287D01*
X034924Y037290D01*
X034882Y037297D01*
X034840Y037308D01*
X034800Y037322D01*
X034761Y037340D01*
X034724Y037361D01*
X034689Y037386D01*
X034656Y037414D01*
X034626Y037445D01*
X034599Y037478D01*
X034575Y037514D01*
X034554Y037551D01*
X034537Y037591D01*
X034524Y037632D01*
X034514Y037674D01*
X034508Y037716D01*
X034506Y037759D01*
X035116Y035853D02*
X035118Y035879D01*
X035124Y035905D01*
X035134Y035930D01*
X035147Y035953D01*
X035163Y035973D01*
X035183Y035991D01*
X035205Y036006D01*
X035228Y036018D01*
X035254Y036026D01*
X035280Y036030D01*
X035306Y036030D01*
X035332Y036026D01*
X035358Y036018D01*
X035382Y036006D01*
X035403Y035991D01*
X035423Y035973D01*
X035439Y035953D01*
X035452Y035930D01*
X035462Y035905D01*
X035468Y035879D01*
X035470Y035853D01*
X035468Y035827D01*
X035462Y035801D01*
X035452Y035776D01*
X035439Y035753D01*
X035423Y035733D01*
X035403Y035715D01*
X035381Y035700D01*
X035358Y035688D01*
X035332Y035680D01*
X035306Y035676D01*
X035280Y035676D01*
X035254Y035680D01*
X035228Y035688D01*
X035204Y035700D01*
X035183Y035715D01*
X035163Y035733D01*
X035147Y035753D01*
X035134Y035776D01*
X035124Y035801D01*
X035118Y035827D01*
X035116Y035853D01*
X037990Y037975D02*
X037992Y038025D01*
X037998Y038075D01*
X038008Y038124D01*
X038022Y038172D01*
X038039Y038219D01*
X038060Y038264D01*
X038085Y038308D01*
X038113Y038349D01*
X038145Y038388D01*
X038179Y038425D01*
X038216Y038459D01*
X038256Y038489D01*
X038298Y038516D01*
X038342Y038540D01*
X038388Y038561D01*
X038435Y038577D01*
X038483Y038590D01*
X038533Y038599D01*
X038582Y038604D01*
X038633Y038605D01*
X038683Y038602D01*
X038732Y038595D01*
X038781Y038584D01*
X038829Y038569D01*
X038875Y038551D01*
X038920Y038529D01*
X038963Y038503D01*
X039004Y038474D01*
X039043Y038442D01*
X039079Y038407D01*
X039111Y038369D01*
X039141Y038329D01*
X039168Y038286D01*
X039191Y038242D01*
X039210Y038196D01*
X039226Y038148D01*
X039238Y038099D01*
X039246Y038050D01*
X039250Y038000D01*
X039250Y037950D01*
X039246Y037900D01*
X039238Y037851D01*
X039226Y037802D01*
X039210Y037754D01*
X039191Y037708D01*
X039168Y037664D01*
X039141Y037621D01*
X039111Y037581D01*
X039079Y037543D01*
X039043Y037508D01*
X039004Y037476D01*
X038963Y037447D01*
X038920Y037421D01*
X038875Y037399D01*
X038829Y037381D01*
X038781Y037366D01*
X038732Y037355D01*
X038683Y037348D01*
X038633Y037345D01*
X038582Y037346D01*
X038533Y037351D01*
X038483Y037360D01*
X038435Y037373D01*
X038388Y037389D01*
X038342Y037410D01*
X038298Y037434D01*
X038256Y037461D01*
X038216Y037491D01*
X038179Y037525D01*
X038145Y037562D01*
X038113Y037601D01*
X038085Y037642D01*
X038060Y037686D01*
X038039Y037731D01*
X038022Y037778D01*
X038008Y037826D01*
X037998Y037875D01*
X037992Y037925D01*
X037990Y037975D01*
X037990Y001755D02*
X037992Y001805D01*
X037998Y001855D01*
X038008Y001904D01*
X038022Y001952D01*
X038039Y001999D01*
X038060Y002044D01*
X038085Y002088D01*
X038113Y002129D01*
X038145Y002168D01*
X038179Y002205D01*
X038216Y002239D01*
X038256Y002269D01*
X038298Y002296D01*
X038342Y002320D01*
X038388Y002341D01*
X038435Y002357D01*
X038483Y002370D01*
X038533Y002379D01*
X038582Y002384D01*
X038633Y002385D01*
X038683Y002382D01*
X038732Y002375D01*
X038781Y002364D01*
X038829Y002349D01*
X038875Y002331D01*
X038920Y002309D01*
X038963Y002283D01*
X039004Y002254D01*
X039043Y002222D01*
X039079Y002187D01*
X039111Y002149D01*
X039141Y002109D01*
X039168Y002066D01*
X039191Y002022D01*
X039210Y001976D01*
X039226Y001928D01*
X039238Y001879D01*
X039246Y001830D01*
X039250Y001780D01*
X039250Y001730D01*
X039246Y001680D01*
X039238Y001631D01*
X039226Y001582D01*
X039210Y001534D01*
X039191Y001488D01*
X039168Y001444D01*
X039141Y001401D01*
X039111Y001361D01*
X039079Y001323D01*
X039043Y001288D01*
X039004Y001256D01*
X038963Y001227D01*
X038920Y001201D01*
X038875Y001179D01*
X038829Y001161D01*
X038781Y001146D01*
X038732Y001135D01*
X038683Y001128D01*
X038633Y001125D01*
X038582Y001126D01*
X038533Y001131D01*
X038483Y001140D01*
X038435Y001153D01*
X038388Y001169D01*
X038342Y001190D01*
X038298Y001214D01*
X038256Y001241D01*
X038216Y001271D01*
X038179Y001305D01*
X038145Y001342D01*
X038113Y001381D01*
X038085Y001422D01*
X038060Y001466D01*
X038039Y001511D01*
X038022Y001558D01*
X038008Y001606D01*
X037998Y001655D01*
X037992Y001705D01*
X037990Y001755D01*
D11*
X038620Y001755D03*
X002399Y001755D03*
X002399Y037975D03*
X038620Y037975D03*
D12*
X018365Y021026D03*
X018168Y021026D03*
X017971Y021026D03*
X017774Y021026D03*
X017578Y021026D03*
X017381Y021026D03*
X017184Y021026D03*
X016987Y021026D03*
X016790Y021026D03*
X016593Y021026D03*
X016397Y021026D03*
X016200Y021026D03*
X016003Y021026D03*
X015806Y021026D03*
X015609Y021026D03*
X015412Y021026D03*
X015215Y021026D03*
X015019Y021026D03*
X014822Y021026D03*
X014625Y021026D03*
X014428Y021026D03*
X014231Y021026D03*
X014034Y021026D03*
X013837Y021026D03*
X013641Y021026D03*
X013641Y014727D03*
X013837Y014727D03*
X014034Y014727D03*
X014231Y014727D03*
X014428Y014727D03*
X014625Y014727D03*
X014822Y014727D03*
X015019Y014727D03*
X015215Y014727D03*
X015412Y014727D03*
X015609Y014727D03*
X015806Y014727D03*
X016003Y014727D03*
X016200Y014727D03*
X016397Y014727D03*
X016593Y014727D03*
X016790Y014727D03*
X016987Y014727D03*
X017184Y014727D03*
X017381Y014727D03*
X017578Y014727D03*
X017774Y014727D03*
X017971Y014727D03*
X018168Y014727D03*
X018365Y014727D03*
D13*
X019152Y015515D03*
X019152Y015711D03*
X019152Y015908D03*
X019152Y016105D03*
X019152Y016302D03*
X019152Y016499D03*
X019152Y016696D03*
X019152Y016893D03*
X019152Y017089D03*
X019152Y017286D03*
X019152Y017483D03*
X019152Y017680D03*
X019152Y017877D03*
X019152Y018074D03*
X019152Y018271D03*
X019152Y018467D03*
X019152Y018664D03*
X019152Y018861D03*
X019152Y019058D03*
X019152Y019255D03*
X019152Y019452D03*
X019152Y019649D03*
X019152Y019845D03*
X019152Y020042D03*
X019152Y020239D03*
X012853Y020239D03*
X012853Y020042D03*
X012853Y019845D03*
X012853Y019649D03*
X012853Y019452D03*
X012853Y019255D03*
X012853Y019058D03*
X012853Y018861D03*
X012853Y018664D03*
X012853Y018467D03*
X012853Y018271D03*
X012853Y018074D03*
X012853Y017877D03*
X012853Y017680D03*
X012853Y017483D03*
X012853Y017286D03*
X012853Y017089D03*
X012853Y016893D03*
X012853Y016696D03*
X012853Y016499D03*
X012853Y016302D03*
X012853Y016105D03*
X012853Y015908D03*
X012853Y015711D03*
X012853Y015515D03*
D14*
X013605Y013180D03*
X014294Y013180D03*
X030105Y020805D03*
X030794Y020805D03*
X030794Y027430D03*
X030105Y027430D03*
D15*
X014575Y011804D03*
X014575Y011056D03*
X017200Y010804D03*
X017200Y010056D03*
X017200Y008179D03*
X017200Y007431D03*
X009200Y020806D03*
X009200Y021554D03*
D16*
X005325Y006113D03*
X005699Y005247D03*
X004951Y005247D03*
D17*
X004951Y004305D03*
X005699Y004305D03*
X005826Y006430D03*
X006574Y006430D03*
X006574Y008430D03*
X005826Y008430D03*
X014326Y008055D03*
X015074Y008055D03*
X014701Y006055D03*
X015449Y006055D03*
X008074Y017680D03*
X008074Y018305D03*
X008074Y018930D03*
X008074Y019555D03*
X007326Y019555D03*
X007326Y018930D03*
X007326Y018305D03*
X007326Y017680D03*
X007324Y022430D03*
X006576Y022430D03*
X009701Y022430D03*
X010449Y022430D03*
X030951Y028930D03*
X031699Y028930D03*
X032951Y028180D03*
X032951Y027430D03*
X033699Y027430D03*
X033699Y028180D03*
D18*
X031950Y030255D02*
X031950Y030855D01*
X030950Y030855D02*
X030950Y030255D01*
X029950Y030255D02*
X029950Y030855D01*
X028950Y030855D02*
X028950Y030255D01*
X027950Y030255D02*
X027950Y030855D01*
X037525Y034555D02*
X038125Y034555D01*
X038125Y035555D02*
X037525Y035555D01*
X033500Y006805D02*
X032900Y006805D01*
X032900Y005805D02*
X033500Y005805D01*
X033500Y004805D02*
X032900Y004805D01*
X032900Y003805D02*
X033500Y003805D01*
X033500Y002805D02*
X032900Y002805D01*
X032900Y001805D02*
X033500Y001805D01*
X022090Y001700D02*
X022090Y001100D01*
X020310Y001100D02*
X020310Y001700D01*
X020310Y003660D02*
X020310Y004260D01*
X022090Y004260D02*
X022090Y003660D01*
X017715Y003660D02*
X017715Y004260D01*
X015935Y004260D02*
X015935Y003660D01*
X015935Y001700D02*
X015935Y001100D01*
X017715Y001100D02*
X017715Y001700D01*
X013340Y001700D02*
X013340Y001100D01*
X011560Y001100D02*
X011560Y001700D01*
X011560Y003660D02*
X011560Y004260D01*
X013340Y004260D02*
X013340Y003660D01*
X008965Y003660D02*
X008965Y004260D01*
X007185Y004260D02*
X007185Y003660D01*
X007185Y001700D02*
X007185Y001100D01*
X008965Y001100D02*
X008965Y001700D01*
X003715Y003100D02*
X003715Y003700D01*
X001935Y003700D02*
X001935Y003100D01*
X001935Y005660D02*
X001935Y006260D01*
X003715Y006260D02*
X003715Y005660D01*
X004000Y035680D02*
X003400Y035680D01*
X003400Y036680D02*
X004000Y036680D01*
D19*
X031710Y015430D02*
X032190Y015430D01*
X032190Y014430D02*
X031710Y014430D01*
X031710Y013430D02*
X032190Y013430D01*
X032190Y012430D02*
X031710Y012430D01*
X031710Y011430D02*
X032190Y011430D01*
X034710Y011430D02*
X035190Y011430D01*
X035190Y012430D02*
X034710Y012430D01*
X034710Y013430D02*
X035190Y013430D01*
X035190Y014430D02*
X034710Y014430D01*
X034710Y015430D02*
X035190Y015430D01*
D20*
X033079Y035853D03*
X032275Y035853D03*
X031472Y035853D03*
X030669Y035853D03*
X031071Y036853D03*
X031874Y036853D03*
X032677Y036853D03*
X033480Y036853D03*
X025980Y036853D03*
X025177Y036853D03*
X024374Y036853D03*
X023571Y036853D03*
X023972Y035853D03*
X023169Y035853D03*
X024775Y035853D03*
X025579Y035853D03*
X017730Y036853D03*
X016927Y036853D03*
X016124Y036853D03*
X015321Y036853D03*
X015722Y035853D03*
X014919Y035853D03*
X016525Y035853D03*
X017329Y035853D03*
X010230Y036853D03*
X009427Y036853D03*
X008624Y036853D03*
X007821Y036853D03*
X008222Y035853D03*
X007419Y035853D03*
X009025Y035853D03*
X009829Y035853D03*
D21*
X011728Y037759D03*
X013421Y037759D03*
X019228Y037759D03*
X021671Y037759D03*
X027478Y037759D03*
X029171Y037759D03*
X034978Y037759D03*
X005921Y037759D03*
D22*
X005606Y035853D03*
X012043Y035853D03*
X013106Y035853D03*
X019543Y035853D03*
X021356Y035853D03*
X027793Y035853D03*
X028856Y035853D03*
X035293Y035853D03*
D23*
X034950Y032058D03*
X034950Y031074D03*
X034950Y030286D03*
X034950Y029302D03*
X034950Y025683D03*
X034950Y024699D03*
X034950Y023911D03*
X034950Y022927D03*
D24*
X036017Y021718D03*
X036017Y026892D03*
X036017Y028093D03*
X036017Y033267D03*
D25*
X025325Y027305D03*
X025325Y026305D03*
X024325Y026305D03*
X024325Y027305D03*
X023325Y027305D03*
X023325Y026305D03*
X022325Y026305D03*
X022325Y027305D03*
X021325Y027305D03*
X021325Y026305D03*
X037700Y010805D03*
X038700Y010805D03*
X038700Y009805D03*
X038700Y008805D03*
X038700Y007805D03*
X038700Y006805D03*
X038700Y005805D03*
X038700Y004805D03*
X037700Y004805D03*
X037700Y005805D03*
X037700Y006805D03*
X037700Y007805D03*
X037700Y008805D03*
X037700Y009805D03*
X029524Y007061D03*
X028737Y007061D03*
X027950Y007061D03*
X027162Y007061D03*
X026375Y007061D03*
X003325Y008805D03*
X003325Y009805D03*
X003325Y010805D03*
X003325Y011805D03*
X003325Y012805D03*
X003325Y013805D03*
X003325Y014805D03*
X003325Y015805D03*
X002325Y015805D03*
X002325Y014805D03*
X002325Y013805D03*
X002325Y012805D03*
X002325Y011805D03*
X002325Y010805D03*
X002325Y009805D03*
X002325Y008805D03*
D26*
X026965Y001352D03*
X027950Y001352D03*
X028934Y001352D03*
D27*
X030154Y004305D03*
X025745Y004305D03*
D28*
X017950Y006767D03*
X017950Y007593D03*
X006613Y017680D03*
X006613Y018305D03*
X006613Y018930D03*
X006613Y019555D03*
X005786Y019555D03*
X005786Y018930D03*
X005786Y018305D03*
X005786Y017680D03*
X031661Y027430D03*
X031661Y028180D03*
X032488Y028180D03*
X032488Y027430D03*
D29*
X032608Y025630D03*
X032608Y025315D03*
X032608Y025000D03*
X032608Y024685D03*
X032608Y024370D03*
X032608Y024055D03*
X032608Y023740D03*
X032608Y023425D03*
X032608Y023110D03*
X032608Y022795D03*
X032608Y022480D03*
X028041Y022480D03*
X028041Y022795D03*
X028041Y023110D03*
X028041Y023425D03*
X028041Y023740D03*
X028041Y024055D03*
X028041Y024370D03*
X028041Y024685D03*
X028041Y025000D03*
X028041Y025315D03*
X028041Y025630D03*
D30*
X028750Y026338D03*
X029065Y026338D03*
X029380Y026338D03*
X029695Y026338D03*
X030010Y026338D03*
X030325Y026338D03*
X030640Y026338D03*
X030955Y026338D03*
X031270Y026338D03*
X031585Y026338D03*
X031899Y026338D03*
X031899Y021772D03*
X031585Y021772D03*
X031270Y021772D03*
X030955Y021772D03*
X030640Y021772D03*
X030325Y021772D03*
X030010Y021772D03*
X029695Y021772D03*
X029380Y021772D03*
X029065Y021772D03*
X028750Y021772D03*
D31*
X027075Y023586D03*
X027075Y024274D03*
X033950Y024149D03*
X033950Y023461D03*
X018200Y026711D03*
X018200Y027399D03*
X012575Y027086D03*
X012575Y027774D03*
X014325Y009524D03*
X014325Y008836D03*
X017200Y008836D03*
X017200Y009524D03*
D32*
X023525Y021430D03*
X024125Y021430D03*
X024125Y022555D03*
X023525Y022555D03*
X026650Y022430D03*
X027250Y022430D03*
D33*
X026950Y022430D03*
X023825Y022555D03*
X023825Y021430D03*
D34*
X016277Y009515D03*
X016277Y008845D03*
X015372Y008845D03*
X015372Y009515D03*
D35*
X032273Y016642D03*
X032273Y016898D03*
X032273Y017153D03*
X032273Y017409D03*
X032273Y017665D03*
X032273Y017921D03*
X032273Y018177D03*
X032273Y018433D03*
X032273Y018689D03*
X032273Y018945D03*
X032273Y019201D03*
X032273Y019457D03*
X032273Y019712D03*
X032273Y019968D03*
X035127Y019968D03*
X035127Y019712D03*
X035127Y019457D03*
X035127Y019201D03*
X035127Y018945D03*
X035127Y018689D03*
X035127Y018433D03*
X035127Y018177D03*
X035127Y017921D03*
X035127Y017665D03*
X035127Y017409D03*
X035127Y017153D03*
X035127Y016898D03*
X035127Y016642D03*
D36*
X036834Y013930D03*
X038566Y013930D03*
D37*
X035956Y020305D03*
X035956Y020805D03*
X035444Y020805D03*
X035444Y020305D03*
X033956Y020680D03*
X033444Y020680D03*
X023581Y029555D03*
X023069Y029555D03*
X014081Y029555D03*
X013569Y029555D03*
D38*
X036988Y018185D03*
X036988Y017870D03*
X036988Y017555D03*
X036988Y017240D03*
X036988Y016925D03*
D39*
X037067Y015803D03*
X039232Y015803D03*
X039232Y019307D03*
X037067Y019307D03*
D40*
X016567Y007429D03*
X016567Y006681D03*
X015583Y006681D03*
X015583Y007055D03*
X015583Y007429D03*
D41*
X019825Y007180D03*
X020825Y007180D03*
X020825Y008180D03*
X019825Y008180D03*
X019825Y006180D03*
X020825Y006180D03*
D42*
X013270Y006446D03*
X013270Y007430D03*
X013270Y008414D03*
X011380Y008414D03*
X011380Y007430D03*
X011380Y006446D03*
X009145Y006446D03*
X009145Y007430D03*
X009145Y008414D03*
X007255Y008414D03*
X007255Y007430D03*
X007255Y006446D03*
D43*
X003325Y019900D03*
X003325Y022460D03*
D44*
X007267Y021180D03*
X008133Y020806D03*
X008133Y021554D03*
D45*
X004075Y025805D02*
X003075Y025805D01*
X003075Y028805D02*
X004075Y028805D01*
D46*
X008298Y028260D03*
X009200Y028260D03*
X010101Y028260D03*
X010101Y023850D03*
X009200Y023850D03*
X008298Y023850D03*
D47*
X006995Y024252D03*
X006995Y025153D03*
X006995Y026055D03*
X006995Y027858D03*
X011404Y027858D03*
X011404Y026055D03*
X011404Y024252D03*
D48*
X011700Y025153D03*
D49*
X004575Y031855D02*
X004575Y032505D01*
X003575Y032505D02*
X003575Y031855D01*
X002575Y031855D02*
X002575Y032505D01*
D50*
X001575Y032180D03*
X005575Y032180D03*
D51*
X014450Y027941D03*
D52*
X015355Y025480D03*
X013544Y025480D03*
D53*
X016950Y026504D03*
X016950Y027606D03*
D54*
X009001Y030805D03*
X007898Y030805D03*
X037273Y020555D03*
X038376Y020555D03*
D55*
X023763Y030180D03*
X023763Y030680D03*
X023763Y031180D03*
X023763Y031680D03*
X021637Y031680D03*
X021637Y031180D03*
X021637Y030680D03*
X021637Y030180D03*
X014263Y030180D03*
X014263Y030680D03*
X014263Y031180D03*
X014263Y031680D03*
X012137Y031680D03*
X012137Y031180D03*
X012137Y030680D03*
X012137Y030180D03*
D56*
X011200Y030674D03*
X011200Y031186D03*
X020700Y031186D03*
X020700Y030674D03*
D57*
X027348Y017930D03*
X028333Y017930D03*
X029317Y017930D03*
X030301Y017930D03*
X030301Y015055D03*
X029317Y015055D03*
X028333Y015055D03*
X027348Y015055D03*
D58*
X009205Y022430D03*
X007945Y022430D03*
M02*
