G75*
G70*
%OFA0B0*%
%FSLAX24Y24*%
%IPPOS*%
%LPD*%
%AMOC8*
5,1,8,0,0,1.08239X$1,22.5*
%
%ADD10C,0.0000*%
D10*
X002853Y000150D02*
X002853Y039520D01*
X042223Y039520D01*
X042223Y000150D01*
X002853Y000150D01*
X003798Y001725D02*
X003800Y001775D01*
X003806Y001825D01*
X003816Y001874D01*
X003830Y001922D01*
X003847Y001969D01*
X003868Y002014D01*
X003893Y002058D01*
X003921Y002099D01*
X003953Y002138D01*
X003987Y002175D01*
X004024Y002209D01*
X004064Y002239D01*
X004106Y002266D01*
X004150Y002290D01*
X004196Y002311D01*
X004243Y002327D01*
X004291Y002340D01*
X004341Y002349D01*
X004390Y002354D01*
X004441Y002355D01*
X004491Y002352D01*
X004540Y002345D01*
X004589Y002334D01*
X004637Y002319D01*
X004683Y002301D01*
X004728Y002279D01*
X004771Y002253D01*
X004812Y002224D01*
X004851Y002192D01*
X004887Y002157D01*
X004919Y002119D01*
X004949Y002079D01*
X004976Y002036D01*
X004999Y001992D01*
X005018Y001946D01*
X005034Y001898D01*
X005046Y001849D01*
X005054Y001800D01*
X005058Y001750D01*
X005058Y001700D01*
X005054Y001650D01*
X005046Y001601D01*
X005034Y001552D01*
X005018Y001504D01*
X004999Y001458D01*
X004976Y001414D01*
X004949Y001371D01*
X004919Y001331D01*
X004887Y001293D01*
X004851Y001258D01*
X004812Y001226D01*
X004771Y001197D01*
X004728Y001171D01*
X004683Y001149D01*
X004637Y001131D01*
X004589Y001116D01*
X004540Y001105D01*
X004491Y001098D01*
X004441Y001095D01*
X004390Y001096D01*
X004341Y001101D01*
X004291Y001110D01*
X004243Y001123D01*
X004196Y001139D01*
X004150Y001160D01*
X004106Y001184D01*
X004064Y001211D01*
X004024Y001241D01*
X003987Y001275D01*
X003953Y001312D01*
X003921Y001351D01*
X003893Y001392D01*
X003868Y001436D01*
X003847Y001481D01*
X003830Y001528D01*
X003816Y001576D01*
X003806Y001625D01*
X003800Y001675D01*
X003798Y001725D01*
X006512Y024478D02*
X006512Y024793D01*
X007694Y024793D01*
X007694Y024478D01*
X006512Y024478D01*
X006079Y025934D02*
X005764Y025934D01*
X005764Y027116D01*
X006079Y027116D01*
X006079Y025934D01*
X008087Y025836D02*
X008087Y027214D01*
X008481Y027214D01*
X008481Y025836D01*
X008087Y025836D01*
X003798Y037945D02*
X003800Y037995D01*
X003806Y038045D01*
X003816Y038094D01*
X003830Y038142D01*
X003847Y038189D01*
X003868Y038234D01*
X003893Y038278D01*
X003921Y038319D01*
X003953Y038358D01*
X003987Y038395D01*
X004024Y038429D01*
X004064Y038459D01*
X004106Y038486D01*
X004150Y038510D01*
X004196Y038531D01*
X004243Y038547D01*
X004291Y038560D01*
X004341Y038569D01*
X004390Y038574D01*
X004441Y038575D01*
X004491Y038572D01*
X004540Y038565D01*
X004589Y038554D01*
X004637Y038539D01*
X004683Y038521D01*
X004728Y038499D01*
X004771Y038473D01*
X004812Y038444D01*
X004851Y038412D01*
X004887Y038377D01*
X004919Y038339D01*
X004949Y038299D01*
X004976Y038256D01*
X004999Y038212D01*
X005018Y038166D01*
X005034Y038118D01*
X005046Y038069D01*
X005054Y038020D01*
X005058Y037970D01*
X005058Y037920D01*
X005054Y037870D01*
X005046Y037821D01*
X005034Y037772D01*
X005018Y037724D01*
X004999Y037678D01*
X004976Y037634D01*
X004949Y037591D01*
X004919Y037551D01*
X004887Y037513D01*
X004851Y037478D01*
X004812Y037446D01*
X004771Y037417D01*
X004728Y037391D01*
X004683Y037369D01*
X004637Y037351D01*
X004589Y037336D01*
X004540Y037325D01*
X004491Y037318D01*
X004441Y037315D01*
X004390Y037316D01*
X004341Y037321D01*
X004291Y037330D01*
X004243Y037343D01*
X004196Y037359D01*
X004150Y037380D01*
X004106Y037404D01*
X004064Y037431D01*
X004024Y037461D01*
X003987Y037495D01*
X003953Y037532D01*
X003921Y037571D01*
X003893Y037612D01*
X003868Y037656D01*
X003847Y037701D01*
X003830Y037748D01*
X003816Y037796D01*
X003806Y037845D01*
X003800Y037895D01*
X003798Y037945D01*
X023427Y038459D02*
X023429Y038506D01*
X023435Y038552D01*
X023445Y038598D01*
X023458Y038643D01*
X023476Y038686D01*
X023497Y038728D01*
X023521Y038768D01*
X023549Y038805D01*
X023580Y038840D01*
X023614Y038873D01*
X023650Y038902D01*
X023689Y038928D01*
X023730Y038951D01*
X023773Y038970D01*
X023817Y038986D01*
X023862Y038998D01*
X023908Y039006D01*
X023955Y039010D01*
X024001Y039010D01*
X024048Y039006D01*
X024094Y038998D01*
X024139Y038986D01*
X024183Y038970D01*
X024226Y038951D01*
X024267Y038928D01*
X024306Y038902D01*
X024342Y038873D01*
X024376Y038840D01*
X024407Y038805D01*
X024435Y038768D01*
X024459Y038728D01*
X024480Y038686D01*
X024498Y038643D01*
X024511Y038598D01*
X024521Y038552D01*
X024527Y038506D01*
X024529Y038459D01*
X024527Y038412D01*
X024521Y038366D01*
X024511Y038320D01*
X024498Y038275D01*
X024480Y038232D01*
X024459Y038190D01*
X024435Y038150D01*
X024407Y038113D01*
X024376Y038078D01*
X024342Y038045D01*
X024306Y038016D01*
X024267Y037990D01*
X024226Y037967D01*
X024183Y037948D01*
X024139Y037932D01*
X024094Y037920D01*
X024048Y037912D01*
X024001Y037908D01*
X023955Y037908D01*
X023908Y037912D01*
X023862Y037920D01*
X023817Y037932D01*
X023773Y037948D01*
X023730Y037967D01*
X023689Y037990D01*
X023650Y038016D01*
X023614Y038045D01*
X023580Y038078D01*
X023549Y038113D01*
X023521Y038150D01*
X023497Y038190D01*
X023476Y038232D01*
X023458Y038275D01*
X023445Y038320D01*
X023435Y038366D01*
X023429Y038412D01*
X023427Y038459D01*
X027802Y038459D02*
X027804Y038506D01*
X027810Y038552D01*
X027820Y038598D01*
X027833Y038643D01*
X027851Y038686D01*
X027872Y038728D01*
X027896Y038768D01*
X027924Y038805D01*
X027955Y038840D01*
X027989Y038873D01*
X028025Y038902D01*
X028064Y038928D01*
X028105Y038951D01*
X028148Y038970D01*
X028192Y038986D01*
X028237Y038998D01*
X028283Y039006D01*
X028330Y039010D01*
X028376Y039010D01*
X028423Y039006D01*
X028469Y038998D01*
X028514Y038986D01*
X028558Y038970D01*
X028601Y038951D01*
X028642Y038928D01*
X028681Y038902D01*
X028717Y038873D01*
X028751Y038840D01*
X028782Y038805D01*
X028810Y038768D01*
X028834Y038728D01*
X028855Y038686D01*
X028873Y038643D01*
X028886Y038598D01*
X028896Y038552D01*
X028902Y038506D01*
X028904Y038459D01*
X028902Y038412D01*
X028896Y038366D01*
X028886Y038320D01*
X028873Y038275D01*
X028855Y038232D01*
X028834Y038190D01*
X028810Y038150D01*
X028782Y038113D01*
X028751Y038078D01*
X028717Y038045D01*
X028681Y038016D01*
X028642Y037990D01*
X028601Y037967D01*
X028558Y037948D01*
X028514Y037932D01*
X028469Y037920D01*
X028423Y037912D01*
X028376Y037908D01*
X028330Y037908D01*
X028283Y037912D01*
X028237Y037920D01*
X028192Y037932D01*
X028148Y037948D01*
X028105Y037967D01*
X028064Y037990D01*
X028025Y038016D01*
X027989Y038045D01*
X027955Y038078D01*
X027924Y038113D01*
X027896Y038150D01*
X027872Y038190D01*
X027851Y038232D01*
X027833Y038275D01*
X027820Y038320D01*
X027810Y038366D01*
X027804Y038412D01*
X027802Y038459D01*
X032177Y038459D02*
X032179Y038506D01*
X032185Y038552D01*
X032195Y038598D01*
X032208Y038643D01*
X032226Y038686D01*
X032247Y038728D01*
X032271Y038768D01*
X032299Y038805D01*
X032330Y038840D01*
X032364Y038873D01*
X032400Y038902D01*
X032439Y038928D01*
X032480Y038951D01*
X032523Y038970D01*
X032567Y038986D01*
X032612Y038998D01*
X032658Y039006D01*
X032705Y039010D01*
X032751Y039010D01*
X032798Y039006D01*
X032844Y038998D01*
X032889Y038986D01*
X032933Y038970D01*
X032976Y038951D01*
X033017Y038928D01*
X033056Y038902D01*
X033092Y038873D01*
X033126Y038840D01*
X033157Y038805D01*
X033185Y038768D01*
X033209Y038728D01*
X033230Y038686D01*
X033248Y038643D01*
X033261Y038598D01*
X033271Y038552D01*
X033277Y038506D01*
X033279Y038459D01*
X033277Y038412D01*
X033271Y038366D01*
X033261Y038320D01*
X033248Y038275D01*
X033230Y038232D01*
X033209Y038190D01*
X033185Y038150D01*
X033157Y038113D01*
X033126Y038078D01*
X033092Y038045D01*
X033056Y038016D01*
X033017Y037990D01*
X032976Y037967D01*
X032933Y037948D01*
X032889Y037932D01*
X032844Y037920D01*
X032798Y037912D01*
X032751Y037908D01*
X032705Y037908D01*
X032658Y037912D01*
X032612Y037920D01*
X032567Y037932D01*
X032523Y037948D01*
X032480Y037967D01*
X032439Y037990D01*
X032400Y038016D01*
X032364Y038045D01*
X032330Y038078D01*
X032299Y038113D01*
X032271Y038150D01*
X032247Y038190D01*
X032226Y038232D01*
X032208Y038275D01*
X032195Y038320D01*
X032185Y038366D01*
X032179Y038412D01*
X032177Y038459D01*
X036552Y038459D02*
X036554Y038506D01*
X036560Y038552D01*
X036570Y038598D01*
X036583Y038643D01*
X036601Y038686D01*
X036622Y038728D01*
X036646Y038768D01*
X036674Y038805D01*
X036705Y038840D01*
X036739Y038873D01*
X036775Y038902D01*
X036814Y038928D01*
X036855Y038951D01*
X036898Y038970D01*
X036942Y038986D01*
X036987Y038998D01*
X037033Y039006D01*
X037080Y039010D01*
X037126Y039010D01*
X037173Y039006D01*
X037219Y038998D01*
X037264Y038986D01*
X037308Y038970D01*
X037351Y038951D01*
X037392Y038928D01*
X037431Y038902D01*
X037467Y038873D01*
X037501Y038840D01*
X037532Y038805D01*
X037560Y038768D01*
X037584Y038728D01*
X037605Y038686D01*
X037623Y038643D01*
X037636Y038598D01*
X037646Y038552D01*
X037652Y038506D01*
X037654Y038459D01*
X037652Y038412D01*
X037646Y038366D01*
X037636Y038320D01*
X037623Y038275D01*
X037605Y038232D01*
X037584Y038190D01*
X037560Y038150D01*
X037532Y038113D01*
X037501Y038078D01*
X037467Y038045D01*
X037431Y038016D01*
X037392Y037990D01*
X037351Y037967D01*
X037308Y037948D01*
X037264Y037932D01*
X037219Y037920D01*
X037173Y037912D01*
X037126Y037908D01*
X037080Y037908D01*
X037033Y037912D01*
X036987Y037920D01*
X036942Y037932D01*
X036898Y037948D01*
X036855Y037967D01*
X036814Y037990D01*
X036775Y038016D01*
X036739Y038045D01*
X036705Y038078D01*
X036674Y038113D01*
X036646Y038150D01*
X036622Y038190D01*
X036601Y038232D01*
X036583Y038275D01*
X036570Y038320D01*
X036560Y038366D01*
X036554Y038412D01*
X036552Y038459D01*
X040018Y037945D02*
X040020Y037995D01*
X040026Y038045D01*
X040036Y038094D01*
X040050Y038142D01*
X040067Y038189D01*
X040088Y038234D01*
X040113Y038278D01*
X040141Y038319D01*
X040173Y038358D01*
X040207Y038395D01*
X040244Y038429D01*
X040284Y038459D01*
X040326Y038486D01*
X040370Y038510D01*
X040416Y038531D01*
X040463Y038547D01*
X040511Y038560D01*
X040561Y038569D01*
X040610Y038574D01*
X040661Y038575D01*
X040711Y038572D01*
X040760Y038565D01*
X040809Y038554D01*
X040857Y038539D01*
X040903Y038521D01*
X040948Y038499D01*
X040991Y038473D01*
X041032Y038444D01*
X041071Y038412D01*
X041107Y038377D01*
X041139Y038339D01*
X041169Y038299D01*
X041196Y038256D01*
X041219Y038212D01*
X041238Y038166D01*
X041254Y038118D01*
X041266Y038069D01*
X041274Y038020D01*
X041278Y037970D01*
X041278Y037920D01*
X041274Y037870D01*
X041266Y037821D01*
X041254Y037772D01*
X041238Y037724D01*
X041219Y037678D01*
X041196Y037634D01*
X041169Y037591D01*
X041139Y037551D01*
X041107Y037513D01*
X041071Y037478D01*
X041032Y037446D01*
X040991Y037417D01*
X040948Y037391D01*
X040903Y037369D01*
X040857Y037351D01*
X040809Y037336D01*
X040760Y037325D01*
X040711Y037318D01*
X040661Y037315D01*
X040610Y037316D01*
X040561Y037321D01*
X040511Y037330D01*
X040463Y037343D01*
X040416Y037359D01*
X040370Y037380D01*
X040326Y037404D01*
X040284Y037431D01*
X040244Y037461D01*
X040207Y037495D01*
X040173Y037532D01*
X040141Y037571D01*
X040113Y037612D01*
X040088Y037656D01*
X040067Y037701D01*
X040050Y037748D01*
X040036Y037796D01*
X040026Y037845D01*
X040020Y037895D01*
X040018Y037945D01*
X037775Y019395D02*
X037777Y019437D01*
X037783Y019479D01*
X037793Y019521D01*
X037806Y019561D01*
X037824Y019600D01*
X037845Y019637D01*
X037869Y019671D01*
X037897Y019704D01*
X037927Y019734D01*
X037960Y019760D01*
X037995Y019784D01*
X038033Y019804D01*
X038072Y019820D01*
X038112Y019833D01*
X038154Y019842D01*
X038196Y019847D01*
X038239Y019848D01*
X038281Y019845D01*
X038323Y019838D01*
X038364Y019827D01*
X038404Y019812D01*
X038442Y019794D01*
X038479Y019772D01*
X038513Y019747D01*
X038545Y019719D01*
X038573Y019688D01*
X038599Y019654D01*
X038622Y019618D01*
X038641Y019581D01*
X038657Y019541D01*
X038669Y019500D01*
X038677Y019459D01*
X038681Y019416D01*
X038681Y019374D01*
X038677Y019331D01*
X038669Y019290D01*
X038657Y019249D01*
X038641Y019209D01*
X038622Y019172D01*
X038599Y019136D01*
X038573Y019102D01*
X038545Y019071D01*
X038513Y019043D01*
X038479Y019018D01*
X038442Y018996D01*
X038404Y018978D01*
X038364Y018963D01*
X038323Y018952D01*
X038281Y018945D01*
X038239Y018942D01*
X038196Y018943D01*
X038154Y018948D01*
X038112Y018957D01*
X038072Y018970D01*
X038033Y018986D01*
X037995Y019006D01*
X037960Y019030D01*
X037927Y019056D01*
X037897Y019086D01*
X037869Y019119D01*
X037845Y019153D01*
X037824Y019190D01*
X037806Y019229D01*
X037793Y019269D01*
X037783Y019311D01*
X037777Y019353D01*
X037775Y019395D01*
X037775Y014655D02*
X037777Y014697D01*
X037783Y014739D01*
X037793Y014781D01*
X037806Y014821D01*
X037824Y014860D01*
X037845Y014897D01*
X037869Y014931D01*
X037897Y014964D01*
X037927Y014994D01*
X037960Y015020D01*
X037995Y015044D01*
X038033Y015064D01*
X038072Y015080D01*
X038112Y015093D01*
X038154Y015102D01*
X038196Y015107D01*
X038239Y015108D01*
X038281Y015105D01*
X038323Y015098D01*
X038364Y015087D01*
X038404Y015072D01*
X038442Y015054D01*
X038479Y015032D01*
X038513Y015007D01*
X038545Y014979D01*
X038573Y014948D01*
X038599Y014914D01*
X038622Y014878D01*
X038641Y014841D01*
X038657Y014801D01*
X038669Y014760D01*
X038677Y014719D01*
X038681Y014676D01*
X038681Y014634D01*
X038677Y014591D01*
X038669Y014550D01*
X038657Y014509D01*
X038641Y014469D01*
X038622Y014432D01*
X038599Y014396D01*
X038573Y014362D01*
X038545Y014331D01*
X038513Y014303D01*
X038479Y014278D01*
X038442Y014256D01*
X038404Y014238D01*
X038364Y014223D01*
X038323Y014212D01*
X038281Y014205D01*
X038239Y014202D01*
X038196Y014203D01*
X038154Y014208D01*
X038112Y014217D01*
X038072Y014230D01*
X038033Y014246D01*
X037995Y014266D01*
X037960Y014290D01*
X037927Y014316D01*
X037897Y014346D01*
X037869Y014379D01*
X037845Y014413D01*
X037824Y014450D01*
X037806Y014489D01*
X037793Y014529D01*
X037783Y014571D01*
X037777Y014613D01*
X037775Y014655D01*
X040018Y001725D02*
X040020Y001775D01*
X040026Y001825D01*
X040036Y001874D01*
X040050Y001922D01*
X040067Y001969D01*
X040088Y002014D01*
X040113Y002058D01*
X040141Y002099D01*
X040173Y002138D01*
X040207Y002175D01*
X040244Y002209D01*
X040284Y002239D01*
X040326Y002266D01*
X040370Y002290D01*
X040416Y002311D01*
X040463Y002327D01*
X040511Y002340D01*
X040561Y002349D01*
X040610Y002354D01*
X040661Y002355D01*
X040711Y002352D01*
X040760Y002345D01*
X040809Y002334D01*
X040857Y002319D01*
X040903Y002301D01*
X040948Y002279D01*
X040991Y002253D01*
X041032Y002224D01*
X041071Y002192D01*
X041107Y002157D01*
X041139Y002119D01*
X041169Y002079D01*
X041196Y002036D01*
X041219Y001992D01*
X041238Y001946D01*
X041254Y001898D01*
X041266Y001849D01*
X041274Y001800D01*
X041278Y001750D01*
X041278Y001700D01*
X041274Y001650D01*
X041266Y001601D01*
X041254Y001552D01*
X041238Y001504D01*
X041219Y001458D01*
X041196Y001414D01*
X041169Y001371D01*
X041139Y001331D01*
X041107Y001293D01*
X041071Y001258D01*
X041032Y001226D01*
X040991Y001197D01*
X040948Y001171D01*
X040903Y001149D01*
X040857Y001131D01*
X040809Y001116D01*
X040760Y001105D01*
X040711Y001098D01*
X040661Y001095D01*
X040610Y001096D01*
X040561Y001101D01*
X040511Y001110D01*
X040463Y001123D01*
X040416Y001139D01*
X040370Y001160D01*
X040326Y001184D01*
X040284Y001211D01*
X040244Y001241D01*
X040207Y001275D01*
X040173Y001312D01*
X040141Y001351D01*
X040113Y001392D01*
X040088Y001436D01*
X040067Y001481D01*
X040050Y001528D01*
X040036Y001576D01*
X040026Y001625D01*
X040020Y001675D01*
X040018Y001725D01*
M02*
