%
M48
M72
T01C0.0197
T02C0.0315
T03C0.0320
T04C0.0354
T05C0.0374
T06C0.0394
T07C0.0400
T08C0.0433
T09C0.0787
T10C0.0906
T11C0.1102
T12C0.1260
%
T01
X8853Y38900
X12853Y5525
X11603Y9650
X3728Y14025
X3728Y16025
X5228Y15900
X13478Y9150
X9853Y13150
X7728Y5150
X19353Y6650
X33478Y5400
X32478Y8588
X32603Y14650
X33228Y21650
X29978Y21025
X28978Y20650
X21228Y14650
X19040Y15150
X38290Y7525
X39103Y7525
X20603Y5213
X37978Y7150
X37978Y8900
X8228Y5150
X3978Y3900
X6103Y1150
X6978Y1150
X11978Y1150
X12228Y9525
X11853Y11275
X15853Y8775
X34415Y6525
X36603Y9650
X34103Y14400
X33790Y18275
X31228Y17775
X19103Y18525
X19103Y21150
X18728Y15525
X19353Y14838
X19665Y14525
X38228Y10463
X37290Y6838
X32353Y2775
X38665Y7838
X34540Y14275
X34478Y19213
X33790Y18775
X34040Y9150
X33103Y775
X33853Y775
X33853Y1525
X21978Y1150
X21978Y2775
X16228Y6150
X35165Y8338
X21478Y13650
X19353Y14213
X28204Y12900
X17228Y9650
X17603Y10025
X34415Y7838
X37915Y10025
X36415Y9275
X11978Y38025
X13353Y35775
X20603Y34025
X24103Y31275
X14603Y28025
X10603Y19525
X8978Y19525
X6228Y18900
X4978Y20775
X4478Y20775
X3728Y20025
X9103Y24275
X21353Y27900
X15228Y14525
X12103Y23400
X18353Y30525
X20603Y33025
X34478Y33525
X15728Y14775
X15978Y14400
X18103Y11275
X18103Y12025
X17853Y10400
X18103Y10775
X13728Y27275
X33853Y31275
X26103Y34900
X28353Y34900
X23978Y37400
X29603Y34650
X30228Y34650
X30853Y34650
X34853Y34900
X37103Y34900
X39103Y16275
X39103Y17525
X33728Y14213
X37665Y8525
X37665Y6463
X37353Y5400
X40228Y4025
X39228Y4025
X39228Y2900
X38228Y1900
X38228Y900
X39228Y900
X39228Y1900
X24978Y38150
X25728Y33525
X24478Y28650
X20228Y34900
X12853Y34275
X12478Y31900
X12478Y32650
X6353Y38900
X7603Y38900
X10103Y38900
X10728Y38025
X11353Y38900
X12603Y38900
X13228Y38025
X15228Y37400
X13978Y38900
X15228Y38900
X15853Y38150
X16478Y37400
X17228Y38150
X16478Y38900
X17853Y38900
X18603Y38150
X15228Y28275
X21353Y26900
X15228Y34650
X17853Y37400
X19228Y38900
X20978Y32025
X25478Y29650
X24978Y29150
X26728Y23025
X33603Y12150
X20853Y14338
X21103Y13275
X20853Y12525
X33603Y7025
X34040Y8400
X17853Y11650
X18353Y12400
X20478Y12150
X24728Y7150
X16978Y1150
X16978Y2775
X11978Y2900
X12853Y15525
X12853Y16275
X13478Y16275
X13478Y15525
X16728Y13275
X16478Y13650
X16228Y14025
X15353Y15650
X23478Y23775
X22040Y22963
X17728Y18400
X17603Y20525
X17728Y18900
X19103Y18025
X29728Y14775
X29728Y15775
X20728Y20525
X17978Y20900
X17228Y20150
X17103Y19650
X20728Y19775
X20353Y19275
X23853Y17775
X30978Y20025
X29728Y17650
X31478Y20150
X32228Y20150
X31478Y24650
X24228Y27650
X23853Y22400
X24853Y22275
X28978Y21150
X29603Y28775
X31603Y26650
X33603Y22025
X33353Y14525
X32978Y14275
X31728Y15900
X31728Y17150
X35478Y16775
X35478Y16150
X38478Y15650
X39728Y15650
X40353Y15025
X40978Y15650
X40353Y16275
X39728Y16900
X38478Y17025
X38478Y18150
X39103Y18775
X35353Y19650
X29228Y26525
X33103Y28150
X30728Y21025
X31040Y21963
X33228Y20525
X33728Y19900
X31353Y14650
X30978Y18525
X35978Y23400
X35790Y23025
X37228Y22650
X37353Y21400
X34478Y24150
X38728Y24525
X35727Y28399
X35728Y25900
X32228Y32400
X32728Y37400
X29353Y38150
X28353Y38900
X27353Y38150
X26228Y37400
X26228Y38900
X23978Y38900
X22978Y38150
X24978Y31275
X23478Y32400
X27603Y28525
X29603Y33400
X30228Y33400
X30853Y33400
X38853Y28025
X38603Y29025
X41478Y25275
X40728Y26025
X41478Y26775
X40728Y27525
X40728Y28900
X41478Y28275
X41478Y29650
X40728Y30400
X41478Y31150
X32728Y38900
X31728Y38150
X30603Y37400
X30603Y38900
X28353Y37400
X33853Y38150
X34978Y38900
X36103Y38150
X37103Y38900
X37103Y37400
X38103Y38150
X39103Y38900
X39103Y37400
X40728Y33275
X40728Y31900
X41478Y32650
X41478Y33900
X39103Y35900
X34978Y37400
X29728Y24775
X26103Y12525
X26728Y15400
X19603Y16275
X19478Y16963
X19353Y15900
X15853Y17025
X15728Y16025
X10103Y35900
X31978Y9900
X36790Y11213
X36353Y14275
X39728Y18150
X40353Y18775
X39728Y19400
X40978Y19525
X40978Y18150
X40353Y17525
X40978Y16900
X41228Y4025
X27728Y1150
X26853Y1150
X38978Y21150
X41478Y22400
T02
X3770Y22025
X3770Y23009
X5922Y26525
X3770Y21041
X5936Y21041
X5936Y22025
X5936Y23009
X7103Y24635
T03
X6853Y2650
X10853Y11775
X14728Y30650
X11103Y23150
X14728Y27025
T04
X27220Y17775
X27220Y11275
X26236Y14525
X25252Y14525
X11970Y34275
X10986Y34275
X27220Y21025
X10986Y37275
X21189Y29275
X20204Y29275
X19220Y29275
X18236Y29275
X16267Y29275
X26236Y11275
X25252Y11275
X28204Y11275
X28204Y21025
X28204Y17775
X26236Y17775
X25252Y21025
X26236Y21025
X25252Y17775
X27220Y14525
X28204Y14525
X32611Y11275
X31627Y11275
X34579Y11275
X33595Y11275
X17252Y29275
X11970Y37275
T05
X37161Y17517
X36374Y17517
X36374Y16533
X37036Y27881
X37161Y16533
X37036Y28669
X37036Y29653
X37036Y26897
T06
X4103Y5525
X4103Y7525
X4103Y6525
X5103Y5525
X5103Y6525
X5103Y7525
X5103Y8525
X5103Y9525
X5103Y10525
X5103Y11525
X5103Y12525
X4103Y12525
X4103Y11525
X4103Y10525
X4103Y9525
X4103Y8525
X39978Y7525
X39978Y8525
X40978Y7525
X40978Y6525
X30478Y7031
X31265Y7031
X39978Y9525
X40978Y9525
X40978Y11525
X28903Y7031
X29691Y7031
X39978Y11525
X10853Y28775
X8284Y26525
X10853Y25150
X11853Y25150
X17353Y25025
X18353Y26025
X19353Y26025
X19353Y25025
X20353Y25025
X20353Y26025
X17353Y26025
X18353Y25025
X24962Y35900
X22994Y35900
X27369Y35900
X28353Y35900
X29337Y35900
X39978Y6525
X40978Y5525
X39978Y5525
X23978Y35900
X21353Y25025
X21353Y26025
X12853Y25150
X12853Y28775
X11853Y28775
X32053Y7031
X31744Y35900
X36119Y35900
X38087Y35900
X37103Y35900
X33712Y35900
X32728Y35900
X39978Y10525
X40978Y10525
X40978Y8525
T07
X8838Y8180
X15243Y3555
X15243Y995
X25243Y3555
X25243Y995
X23463Y995
X35853Y5275
X10243Y3555
X10243Y995
X8463Y995
X8838Y5620
X8463Y3555
X10618Y5620
X10618Y8180
X10603Y10775
X37728Y12775
X35853Y2275
X35853Y1275
X20243Y995
X18463Y995
X20243Y3555
X23463Y3555
X9603Y10775
X4198Y17400
X21103Y36900
X37728Y11775
X35853Y6275
X35853Y3275
X37478Y3275
X37478Y4275
X35853Y4275
X22353Y11400
X23353Y11400
X6758Y17400
X21103Y35900
X32228Y29900
X24853Y25025
X24853Y27025
X25853Y26025
X25853Y27025
X28228Y29900
X29228Y29900
X30228Y29900
X31228Y29900
X25853Y25025
X24853Y26025
X41103Y35775
X40103Y35775
X13463Y995
X13463Y3555
X18463Y3555
T08
X8478Y33525
X8478Y31525
X31462Y1322
X30478Y1322
X29494Y1322
T09
X28273Y4275
X5478Y30025
X5478Y35025
X32683Y4275
T10
X38228Y14655
X38228Y19395
X38103Y25688
X38103Y30862
T11
X23978Y38459
X28353Y38459
X32728Y38459
X37103Y38459
T12
X4428Y1725
X4428Y37945
X40648Y1725
X40648Y37945
M30
